<svg id="Слой_1" data-name="Слой 1" xmlns="http://www.w3.org/2000/svg" viewBox="0 0 370 370"><defs><style>.cls-1{fill:#f5f5f5;}.cls-2{fill:#f8f8f8;}.cls-3{fill:#f3f3f3;}.cls-4{fill:#f7f7f7;}.cls-5{fill:#f9f9f9;}.cls-6{fill:#efefef;}.cls-7{fill:#f0f0f0;}.cls-8{fill:#f1f1f1;}.cls-9{fill:#f3f3f2;}.cls-10{fill:#f2f2f2;}.cls-11{fill:#eee;}.cls-12{fill:#f5f4f4;}.cls-13{fill:#f1f0ed;}.cls-14{fill:#f5f5f4;}.cls-15{fill:#f3f3f0;}.cls-16{fill:#f0f0ef;}.cls-17{fill:#f6f6f6;}.cls-18{fill:#f2f2f0;}.cls-19{fill:#f2f1ef;}.cls-20{fill:#fafafa;}.cls-21{fill:#f4f3f3;}.cls-22{fill:#f6f6f5;}.cls-23{fill:#efeeea;}.cls-24{fill:#edece8;}.cls-25{fill:#f0efeb;}.cls-26{fill:#f1efeb;}.cls-27{fill:#f1f1ef;}.cls-28{fill:#f0eeea;}.cls-29{fill:#f0f0ee;}.cls-30{fill:#f1f0ee;}.cls-31{fill:#efeee9;}.cls-32{fill:#f1efec;}.cls-33{fill:#ebeae6;}.cls-34{fill:#ecebe7;}.cls-35{fill:#e9e8e4;}.cls-36{fill:#eae9e5;}.cls-37{fill:#e8e7e3;}.cls-38{fill:#e6e5e2;}.cls-39{fill:#e2e1de;}.cls-40{fill:#e2e1dc;}</style></defs><title>Монтажная область 1</title><path class="cls-1" d="M304.25,315.13c-34.26,8.35-69.11,2.79-103.67,4.26-1.91.08-3.89-1.34-5.84-2.06a4.9,4.9,0,0,1,3.72-1.95c21.62.3,43.25-.64,66.77.74C242.69,314.34,222,316,201.36,315c-4.29-.19-9.85,2.09-12-4.44a4.15,4.15,0,0,1,1.69-3.22c4.71-2.66,9.87-2.05,14.9-2a277.12,277.12,0,0,0,59.23-5.52c5-1,10.08-1.67,14.64,1.59,0,7.86,4.25,9.85,11.36,8.5,3.17-.6,6.48-1.39,9.72-.71S306.74,311.16,304.25,315.13Z"/><path class="cls-2" d="M286.73,52.36c23.67-1,31.83,7.42,32.74,33.13.57,16,.1,31.93.1,47.89a2.36,2.36,0,0,1-3.29-.77c-3.46-7.72-1.26-15.88-1.91-23.8.34-7.37,1.14-14.74.95-22.16A3.41,3.41,0,0,1,315.6,85c-.11.27-.21.55-.33,1-.1,2.25,0,4.37-.12,6.49-.59,9.86-2.27,10.55-11.5,4.84-1.86-2.75-2-5.9-2.07-9-.06-2.3-.39-4.5-2.38-6.07-.74-.58-1.42-1.21-2.1-1.84-5.09-3.85-7.18-11.79-15.46-11.26a4,4,0,0,1-2.06-2c.29-4.09,3.72-5.54,6.38-7.62C291,57.62,285.12,54.56,286.73,52.36Z"/><path class="cls-3" d="M190.38,308.56v2.19a6.47,6.47,0,0,1-5.66,4.19c-23.13-1.79-46.36-.27-69.52-1.84-4.82-.32-10.2-1.87-14.6,2H80.89c-2.38-3-9.72,1.64-9.07-4.68.56-5.53,6.61-4.66,10.72-4.75,7.58-.18,15.4-1.46,22.69.88,6.41,2.06-.7-3.06,1.73-2.7a10.81,10.81,0,0,1,6.19-2.69,53,53,0,0,1,19.45-.72c12.27,1.51,24.64,1.31,37,.8C177.48,300.94,184.79,302.3,190.38,308.56Z"/><path class="cls-3" d="M286.73,52.36l9,4.47-9,4.28a145.81,145.81,0,0,1-25.92.75,34.1,34.1,0,0,0-15.7,3.4c-4.33,1.24-8.79,1-13.21,1.08-17.71-.94-35.64,2.24-53.12-2.89-2.44-.71-5.07-.85-6.47-3.43a6.74,6.74,0,0,1,3.2-6.57c26.48.73,53-.77,79.48,1.17,1.5.11,4.87,2.33,3.28-2.26Z"/><path class="cls-4" d="M107.17,304.18l8.42,3.4,0,1.37H73.46L73.15,311l7.74,4.1c-10.62.84-20.43-.31-26.28-10.94a4.77,4.77,0,0,1,2.77-3.41c4-3.21,9,1.88,13.59-1.58-5.44-5.77-14.28-7.27-17.64-15-.92-2-.81-4.05-.87-6.12.08-2.6-.25-5.23.67-7.75,2.73-3.71,6.45-2.22,10-1.89A6,6,0,0,1,65,270.74c1.81,6.05-.78,14.22,8.13,16.85C83.52,295.13,95.26,299.82,107.17,304.18Z"/><path class="cls-5" d="M304.25,315.13c-2.05-1.17-4.07-3.26-6.15-3.32-5-.13-10,.94-15.05,1-2.71.05-5.44-.93-8.16-1.45l5.27-7.21c.67-.75,1.38-1.45,2.12-2.13,6.07-4.06,11.79-8.44,16.17-14.46,3.29-4.52,7.23-6.34,11.47-.83a12.28,12.28,0,0,1,1.05,2.94c1.69,5.44-1.59,11.47,2,16.67Z"/><path class="cls-6" d="M50.25,216.58q1.08-58,2.17-116c1.93-1.42,3.71-1.21,5.37.47,3.28,6.41,1.82,13.17,1.55,19.86-3,18-.41,36.14-1.57,54.18-1.16,13.6,2,27.41-2,40.87A3.7,3.7,0,0,1,50.25,216.58Z"/><path class="cls-7" d="M100.6,315.12c2.18-1.46,4.39-4.21,6.55-4.18,26.28.43,52.57,1.27,78.85,2,1.31,4.23-3.39,2.44-4.38,4.38Z"/><path class="cls-6" d="M258.27,52.36l4.18,2.19h-87.4c-6.65,3.9-13.7,5.67-21.4,4-2.57-1.6-6.4-2.44-4.29-6.93a33.76,33.76,0,0,1,6-.28c28.57,0,57.13,0,85.69.05,3.54,0,7.24-.93,10.62,1Z"/><path class="cls-8" d="M181.62,317.32l4.38-4.38,4.38-2.19c15.22.86,30.43,2,45.65,2.51,11.91.41,23.85.08,35.77.08,0,1.33,0,2.66,0,4H181.62Z"/><path class="cls-4" d="M52.44,76.44c0-9.13,2.37-17,10.93-21.9,1.78-2,4.83-.11,6.57-2.19h0c1.36-1.22,2.93-1.07,4.53-.7,2.63,1.22,6.86.32,6.82,5.11a8.1,8.1,0,0,1-3.6,2.29c-14.54,5.4-14.61,5.57-8.24,20,.15,4.09-.33,8.51-4.22,10.27-3.62,1.64-5.46-2.19-7.31-4.77-1.13-2.08-2.5-4.28-2.27-6.63C56.07,73.61,52.8,78.37,52.44,76.44Z"/><path class="cls-9" d="M317.39,133.37h2.18c-.73,40.38-1.42,80.75-2.28,121.13-.05,2.7-1.36,5.38-2.08,8.07-3.88-3.77-3-8.7-3-13.3-.09-15.91-.15-31.81,0-47.72,3.58-17.84,1.61-35.89,2.18-53.85C314.52,142.79,313.28,137.49,317.39,133.37Z"/><path class="cls-8" d="M50.25,216.58h4.36c4.92,17.52,5.92,35,0,52.56v8.75c-4.26,1.34-2.42-3.4-4.36-4.37Z"/><path class="cls-10" d="M251.7,52.35H153.15c-.72-.48-1-1-.71-1.45s.48-.72.72-.72c29.08,0,58.15-.08,87.23.1C244.16,50.29,247.93,51.62,251.7,52.35Z"/><path class="cls-11" d="M315.19,201.26q0,30.66,0,61.32c0,1.46,0,2.91,0,4.37-1.88,1.42-3.65,1.21-5.32-.39-3.14-5.62-1.89-11.62-1.58-17.55,2.87-8.78,1.1-17.8,1.47-26.71.28-6.75-1.15-13.68,2-20.13A2.43,2.43,0,0,1,315.19,201.26Z"/><path class="cls-5" d="M153.16,50.17c0,.72,0,1.45,0,2.17h-4.37A7.68,7.68,0,0,1,143.05,55c-22.92-.49-46,3.27-68.72-2.68H69.94c3.77-.73,7.53-2.06,11.3-2.09C105.22,50.07,129.19,50.17,153.16,50.17Z"/><path class="cls-1" d="M50.25,273.52l4.36,4.37c0,2.2,0,4.39,0,6.58,2.16,5.66,7,11,2.19,17.52l-2.2,2.19Q52.43,288.85,50.25,273.52Z"/><path class="cls-3" d="M52.44,76.44C61.73,71.53,56.05,81.58,59,83c.39,6,2.52,12.18-2.2,17.52H52.42Q52.44,88.49,52.44,76.44Z"/><path class="cls-10" d="M310.83,266.94h4.37v19.71c-2.33,1.66.45,6.12-3.23,6.63-2.62.36-1.77-3.25-3.34-4.44v-2.19a4.05,4.05,0,0,1-1-2.89c.42-4.21.31-8.46.81-12.67A6.56,6.56,0,0,1,310.83,266.94Z"/><path class="cls-12" d="M308.63,288.85c4.38,5.85,4.29-1.71,6.57-2.19q-1.11,9.85-2.2,19.7Q310.83,297.6,308.63,288.85Z"/><path class="cls-5" d="M69.94,52.35l-6.57,2.19Z"/><path class="cls-13" d="M282.35,304.17h-2.19c-4.11-.65-8.28-2.11-12.33-1.82-25.83,1.85-51.63,4.09-77.45,6.21-22.74-2.1-45.48-4.28-68.24-6.17-2.73-.23-5.6,1.15-8.4,1.78-1.24-1.9-7.35-.84-3.53-5.82,5.77-3.88,12.88-5.46,18.67-3.06,16.55,6.85,33.63.94,50.28,3.55,6.7,1,13.69.17,20.54.15,8.71.39,17.44,0,26.14,1.43,15,2.48,29.68-2,44.07-4.78,7.12-1.39,14.84-7.61,18.21-15.81a42.69,42.69,0,0,1,6.74-11.12,10.2,10.2,0,0,0,2.2-6.91,86.44,86.44,0,0,1,.46-9,14,14,0,0,0-1.15-12.51,7.43,7.43,0,0,1,.53-4.76c1.7-2.55,3.82-4.38,7.14-4.13a6.31,6.31,0,0,1,2.17,2.8,85.07,85.07,0,0,1-1.16,33.82,53.72,53.72,0,0,1-3.17,11.26c-2.37,6.4-9.52,9.32-11.63,15.92C287.59,298.19,286.26,302.33,282.35,304.17Z"/><path class="cls-14" d="M304.25,96.14c6.25,4,9.76,3.76,8.91-5.12-.25-2.58,1.31-5.34,2-8,2.25,8.06.52,16.3,1.06,24.43,0,23.72.05,47.43-.05,71.14,0,3.88,1.21,8.12-2.18,11.4-5.47,1.66-5-2.85-6-5.78-.28-24.93-4.77-49.54-5.93-74.4C303.08,105.3,300.39,100.2,304.25,96.14Z"/><path class="cls-15" d="M304.25,96.14v11a3.72,3.72,0,0,1-4.49.55,5.85,5.85,0,0,1-1.44-4.38c2.11-14.46,1.81-15-12.13-22.41A24.62,24.62,0,0,1,281,77.6c-4.66-4.49-10.12-7.08-16.72-6.94-10.67-.7-21.35-1.2-31.71-4.16a2.26,2.26,0,0,1-.6-3.2h13.14c12.24-3.09,24.28-4.46,35,4.38h0C289.44,68,293,77,299.87,80.82h0a14.3,14.3,0,0,1,4.38,4.38Z"/><path class="cls-16" d="M313,190.31c.73-4.21,2.06-8.41,2.09-12.63.21-23.52.1-47.05.1-70.58.73-1,1.46-1,2.19,0v26.27q-1.09,33.94-2.2,67.89H313C309.92,197.61,309.83,194,313,190.31Z"/><path class="cls-17" d="M280.17,67.68l-35-4.38c13.49-7.84,27.55-4.93,41.6-2.19Z"/><path class="cls-17" d="M299.87,80.82l-19.7-13.14C292.78,63,293.7,75.85,299.87,80.82Z"/><path class="cls-10" d="M317.39,107.1H315.2V83l.42-4.16,1.77,0Z"/><path class="cls-14" d="M304.25,85.2l-4.38-4.38Z"/><path class="cls-18" d="M109.36,299.8l4.38,4.37h-6.57c-13.89-.05-25.17-6.09-35-15.33-9.65-3.58-6.45-12.87-8.75-19.71h0c-4-4.7-3.52-9.66-.91-14.75,10.36-.8,7,7.4,8.25,12.55.38,9.67,8,14,14.47,18.82C92.67,291.36,101.49,294.79,109.36,299.8Z"/><path class="cls-19" d="M232,63.3v2.19c-9,5.16-18.89,3.4-28.46,3.35-7.61,0-15.2-.72-22.77.33-17.69,1.1-35.38.11-53.07-.14C111,68.81,94,72.15,81.63,85.89,76.78,91.82,72.31,98,70.46,105.61c-.27,1.59-.63,3.14-1,4.7-2.25,4,.91,10.72-6.06,12.46a6.77,6.77,0,0,1-2-2.85c-2.15-6.55.8-12.81,1.11-19.22C65.12,87.56,70.62,76,81.19,67.27c25.86-4.86,51.58-11.19,78.26-8.35,3,.21,5.81-.65,8.64-1.45a5.59,5.59,0,0,1,4.77,1.46Z"/><path class="cls-1" d="M161.91,61.11l-81,8.76a3.86,3.86,0,0,1-.8-3.19c5.55-5.57,15.19-4.18,19.67-11.58,17.82,0,35.73-3,53.4,1.63l21.89-2.18-2.19,4.38h-4.37C166.71,60.91,163.65,59,161.91,61.11Z"/><path class="cls-1" d="M63.38,253.81v15.33H54.62q0-26.28,0-52.56,0-20.79,0-41.6c8-1.51,6.43,4.8,7.42,9,.41,9.71,0,19.42.22,29.14.15,7.84,0,15.54,3,23.25C67.42,241.87,67.91,248.45,63.38,253.81Z"/><path class="cls-20" d="M56.81,302l-2.19-17.52c4.84,3.17,9.84,6.12,14.44,9.61,2.68,2,4.7,4.93,7,7.44-4,1-8,2.38-12.14,2.7C61.64,304.41,59.19,302.79,56.81,302Z"/><path class="cls-1" d="M63.38,269.14q4.37,9.86,8.75,19.71C58.59,287,64.82,276.36,63.38,269.14Z"/><path class="cls-1" d="M282.35,304.17l6.57-8.75c2.43-6,8.42-9.42,10.95-15.33l2.19-10.95c5.73-5.79.57-14.55,5.61-20.52a3.21,3.21,0,0,1,3.15.81q0,8.76,0,17.51c0,1.47,0,2.93,0,4.39-2.85,4,.55,9.09-2.19,13.14v2.19c-2.79.92-6,1.23-8.28,2.88C294.13,294.12,288.32,299.25,282.35,304.17Z"/><path class="cls-21" d="M59,183.74,54.62,175c0-14.42-.15-28.84.1-43.26.07-3.84,1.36-7.66,2.09-11.49,5.42.43,6.74,5,8.85,8.76,1.75,14.54.32,29.14.77,43.71C65.06,177.13,69,185.11,59,183.74Z"/><path class="cls-22" d="M63.37,126.8l-6.56-6.57q0-9.84,0-19.7Q57.9,91.77,59,83L64.08,88q1.85-4.67,3.67-9.33c1-1.95,1.78-4.09,3.51-5.61a51,51,0,0,1,5.94-5.53c.41-.21.83-.4,1.25-.6a2.41,2.41,0,0,1,2.44.79v2.19c-6.39,9.58-16.38,17.35-15.33,30.66-3.88,6.22-4.38,12.81-2.19,19.71,0,.73,0,1.45,0,2.18C64.75,123.89,64.53,125.35,63.37,126.8Z"/><path class="cls-10" d="M153.16,56.73H98.41c-3.71,3.21-8.1,3.13-12.59,2.64a7.55,7.55,0,0,1-4.92-2.64l-6.57-4.37h74.45Z"/><path class="cls-5" d="M80.9,56.73h4.37c1.3,5.74-5.4,6.69-6.57,11a17.41,17.41,0,0,0-6.57,6.57l-4.38,4.38C65.88,74,61.62,65.92,62.53,65.28,68,61.48,74.64,59.39,80.9,56.73Z"/><path class="cls-9" d="M310.82,249.43h-2.19c-3.9-5.23,2.48-13-4.38-17.52h0c-6.2-10.15-2.07-21.31-3.16-32,.2-4.22-.16-8.49.55-12.66,1-6.14,3.88-8.17,9.18-3.56l2.19,6.57v10.95Z"/><path class="cls-12" d="M308.63,284.47l2.19-13.14Z"/><path class="cls-23" d="M109.36,299.8C95,298.7,70.3,280.5,67.76,269.14c2.65-3.27,1.8-7.34.91-10.48-7.84-27.64-7.08-55.61-3.87-83.72,2.76-10-2-20.71,2.84-30.5,6.1.09,4.65,5.24,5.27,8.5,1.45,7.69.61,15.6,4.73,23.06,3.31,6-3.9,12.28-1.67,18.93a15.63,15.63,0,0,1,0,5c-1.3,13.38-2.21,26.73,2.05,39.82a11.72,11.72,0,0,1,.85,5.34c-4.3,25.55,14.61,33.29,32.18,42.05,10.92,8.6,24.27,5.91,36.56,7.22s24.55,0,36.78,1.82a28.67,28.67,0,0,0,16.87-2.79,11.6,11.6,0,0,1,8.41,1.05,4.12,4.12,0,0,1,1.5,3c-1.19,6-7.21,1.63-9.83,4.56-18.37,0-36.74.16-55.11-.13-4.16-.06-8.26-2.3-12.43-2.44C125.66,299.14,117.5,299.63,109.36,299.8Z"/><path class="cls-24" d="M297.68,236.29v4.38c2.38,3.17,2.17,6.63,1.15,10.17-2.93,17.54-8.62,33.74-25.28,42.88-10.94,6-22.85,7.78-35,2.85-1.38-6.69,4.07-7.14,7.9-7.41,16.79-1.22,25.41-14.6,36.16-24.34,6.21-5.62,3.67-14.18,1.83-21.67-.8-4.65-.88-9.24.86-13.72,5.29-13,2.39-26.39,2-39.66a13.94,13.94,0,0,1-.08-5.07c4.17-5.11,1-14.26,9.34-17.11,4.82,2.44,4.54,6.8,4.13,11.13-.37,4,.73,7.79,1.14,11.7-1.4,10.42-1,20.88-1,31.33C300.92,226.87,300.67,231.87,297.68,236.29Z"/><path class="cls-25" d="M238.56,295.42c28.84,5.77,47.57-6,54.81-32.94,1-3.74,2.85-7.25,4.31-10.86.73-1.05,1.46-1,2.19,0v10.95c-2.1,1.73-.2,4.8-2.19,6.57-7.06,7.61-7.65,20.31-19.33,24.33-4.9,1.69-9.65,3.85-14.5,5.7-20.53,7.83-41.66,2.29-62.52,2.82l8.76-4.38c5.13-4.59,12-1.93,17.71-4.36C231.64,292.71,235.45,292.32,238.56,295.42Z"/><path class="cls-26" d="M297.68,236.29l2.19-48.17c-.57-2.62.75-2.76,2.71-2.08,1.66,4.2-.93,9,1.67,13v32.85Z"/><path class="cls-12" d="M304.25,231.91c13.65,2.8,3.8,11.46,4.38,17.52a95.7,95.7,0,0,1-2.26,9.85c-1.14,3.39-2.85,6.58-4.31,9.86Z"/><path class="cls-12" d="M299.87,280.09l-10.95,15.33Z"/><path class="cls-26" d="M299.87,251.62h-2.19v-11Z"/><path class="cls-26" d="M297.68,269.14l2.19-6.57Z"/><path class="cls-27" d="M304.25,199.07l-2.19-13.14c-4.26-6.59-2.62-14.36-2.43-21.1.49-17.68,2.92-35.28-1.54-52.8a5.38,5.38,0,0,1,1.78-4.93h4.38l6.57,76.64c-3.69-.7-7.32-1.61-6.64,4.5C304.58,191.81,304.25,195.46,304.25,199.07Z"/><path class="cls-23" d="M299.87,107.1c8.79,26.05.84,52.57,2.19,78.83l-2.19,2.19-4.38-19.71a6.5,6.5,0,0,1-1.58-5c1.2-15.06,2.28-30.11-2.5-44.83,3.31-13.15.1-21-10.86-28.68a109.09,109.09,0,0,1-15-12.63c-1.62-2.72-3.43-5.45.09-8.11,6.67-.11,10.37,6.62,16.7,7.29l4.38,2.19c6.26,7,17.33,11.39,13.14,24.09Z"/><path class="cls-28" d="M267,69.87v6.57c.18,4.7-3.75,4.53-6,3.71-20-7.49-41.43-4.27-61.88-8.24a22.7,22.7,0,0,0-11.67-.84c-3.38.51-6.51.42-8.08-3.39,3.42-.73,6.83-2,10.26-2.09,14.1-.24,28.2-.1,42.3-.1l35,2.19c.75.49,1,1,.75,1.46S267.27,69.87,267,69.87Z"/><path class="cls-27" d="M299.87,102.72c-2.66-5-5.28-10-8-15-1.65-3.05-3.43-6-5.15-9.05C302.52,85.24,304.81,89.44,299.87,102.72Z"/><path class="cls-29" d="M267,69.87V67.68l15.33,8.76C274.12,81.54,272.47,71.29,267,69.87Z"/><path class="cls-30" d="M65.57,175c0,21.48-.43,43,.22,64.42.24,7.94,3.21,15.77,4.42,23.73.28,1.84-1.58,4-2.45,6l-4.38-15.33L59,183.74l4.38-11C65.33,172.3,66.43,172.66,65.57,175Z"/><path class="cls-31" d="M179.43,67.68l19.71,2.19c-1.32,6.49-7,4.7-11.08,5.64a65.8,65.8,0,0,1-18,1.76c-21.41-1.39-42.6,1.06-63.81,3.55a17.68,17.68,0,0,0-12,6.39C83.88,99,77.43,112.2,76.44,128c-.31,5-1.37,10.49-8.74,9.67-4.62-9.49-.38-18.95,0-28.41v-4.38c5.09-5.77,9.25-12,10.94-19.71,8.85-8.58,18-13.8,31.34-16.62C133.65,63.57,156.42,69.83,179.43,67.68Z"/><path class="cls-32" d="M67.75,109.29l2.19,28.46q2.81,3.28,0,6.57c-.73,6.18-1.37,12.37-2.22,18.53-.56,4.07-1.43,8.09-2.15,12.13l-2.19-2.19q0-23,0-46c0-1.46,0-2.92,0-4.38Q65.57,115.85,67.75,109.29Z"/><path class="cls-32" d="M78.7,85.2c1,9.12-2.39,15.86-10.94,19.71Q73.22,95.06,78.7,85.2Z"/><path class="cls-21" d="M63.37,120.24c-3.09-7-4.95-13.86,2.19-19.71Z"/><path class="cls-3" d="M161.91,61.11l6.58-2.19Z"/><path class="cls-4" d="M78.7,67.68l6.57-11H98.41c.41,6.25-2.52,8.87-8.76,8.88-2.92,0-5.84,1.34-8.76,2.07H78.7Z"/><path class="cls-4" d="M72.13,74.25l6.57-6.57Z"/><path class="cls-33" d="M288.92,183.74v4.38c.2,13.92.49,27.84-2.19,41.6v15.33c-1.12,3.49-4.13,6.29-4.48,9.92-1.92,20.17-17.59,24.17-33,27.59-13.07,2.89-26.19,5.69-39.87,5.39-7.34-.17-13.72,6.87-21.9,4.95-19.85-4.25-40.12-1.57-60.12-3.44a26.78,26.78,0,0,1-5.32-.9c-6.7-4.6-12.3-11.18-21.88-10.11-3.19.36-6.53-2.37-7.15-5.8-1.21-6.61-5.93-11.89-7.08-18.13-1.63-8.92-4.8-17.65-5.26-26.6-.52-10.12-1.06-19.91-6.32-28.85v-4.38c-2.32-6.17,3.6-10.39,3.77-16,2.11-10.6,1.09-21.72,5.51-32,1.17-2.72.6-5.7-.14-8.56a23.87,23.87,0,0,1,3.81-20.68,21.73,21.73,0,0,0,3.86-10c.46-3.5.74-7.5,5.69-8,5.69,4.31,4.11,10.09,3.22,15.74-1,2.65-3,4.78-4.22,7.32-2.36,8.34-.12,17-1.49,25.34a13.21,13.21,0,0,1-1,3.25c-6.85,7.11-5.35,16.11-5.14,24.61.28,12-3.45,24.47,3,36a14.9,14.9,0,0,1,1,3.27c-.92,12.17,4.54,23.29,5.79,35.15,1.32,12.57,17.95,20.1,30.14,22.27,6.71,1.19,13.74-.19,20.58.7,3.81.55,6.25,3.25,8.85,5.67.79.44,1.58.9,2.38,1.31,3,1.2,5.1-1.06,7.59-1.93a16.26,16.26,0,0,1,3.14-.8c15.34-.69,30.67-.15,46-.35,4.72-.06,9.53.38,13.93-1.92,1-.43,2.07-.79,3.11-1.13,5-1.4,10.31-.52,15.38-1.52.9-.29,1.83-.5,2.75-.7,2.62-.48,5.3-.85,7.37-2.84a14.65,14.65,0,0,1,2.29-1.63c7.07-2.45,4.51-10.08,7.8-14.55a20.16,20.16,0,0,1,1.6-2.48c2.3-2.42,2.11-5.46,2.07-8.48.14-6.44-.78-12.94,1.19-19.26,4.57-6.87,5.77-14.45,5.3-22.57-.81-13.95,1.29-28-1.31-41.89a30.91,30.91,0,0,1-.89-7.72c.26-4.57-.78-9.44,3-13.21,2.93-.94,5.69.17,6,2.9C287.63,154.6,294.44,168.8,288.92,183.74Z"/><path class="cls-34" d="M78.7,179.36l-4.38,15.33c-.86-.63-2.55-1.67-2.46-1.84,8.15-16.54-5.52-32.21-1.92-48.53v-6.57c2.87-9.77,6.47-19.4,8.43-29.35,3.74-18.93,19.75-30.92,38.79-30.71,17.09.19,34.21-2.19,51.32-3.44,2.2,1.42,3.77,3.07,2.12,5.88-8.33,8.57-19.38,7.16-28.78,5.1-10.58-2.31-19.06-1.58-27.16,5.29-.52.45-1.56.42-1.93.94-5.89,8.29-22,2.4-23.14,19.71-.62,9.76-6.71,19.38-6.26,30.84A117.37,117.37,0,0,1,78.7,179.36Z"/><path class="cls-34" d="M74.32,199.07c7.38,4.36,8.78,10.9,9,19.19.51,15.63,1.73,31.42,10.48,45.34,1,1.58.29,4.24,1.28,5.83,1.64,2.64,4.85,7.2,6,6.82,11-3.81,15.6,4.36,21.42,10.41-2.32,7.37-6.82,3.84-11,2.19-4.38-1.71-8.92-3.12-13.11-5.21-4.77-2.37-10-4.6-13.61-8.27s-7.37-8.9-8-13.84c-2.27-17.32-3.39-34.81-4.55-52.27C72.05,205.93,73.59,202.47,74.32,199.07Z"/><path class="cls-34" d="M186,291c14.26-3.11,28.16-6.68,43.14-7.39,13.68-.66,27.3-7.23,40.4-12.54,3.79-1.54,5.78-7.66,8.43-11.78,3-4.7,5.85-9.51,8.76-14.28,5.2,14.33,0,26.2-15.32,34.62-.61.33-1.94.09-2.06.43-5.25,14.32-19.21,8.66-28.89,12.76-.84.36-1.28,1.68-1.9,2.56H227.61a30.47,30.47,0,0,1-17.52,0h-8.76C196.26,293.82,189.05,299.72,186,291Z"/><path class="cls-24" d="M186,291l15.33,4.38c-7.14,1.37-14.32,4.09-21.41,3.86-18.64-.6-37.27-2.14-55.82-4.12-4.36-.46-8.37-4.12-12.55-6.31l11-2.19c19,.44,38,.79,56.95,1.46C181.67,288.2,183.82,290,186,291Z"/><path class="cls-24" d="M210.09,295.42h17.52l-17.52,2.19Z"/><path class="cls-34" d="M288.92,183.74c-1.55-14.33-3-28.68-4.82-43-.14-1.15-2.57-2-3.94-3a6,6,0,0,1-2.07-4.16c.72-7.89,4.34-16.21-3.29-22.92A19.94,19.94,0,0,1,273,108c-3.26-7-6.35-12-15.58-15-10.09-3.32-19.63-7.43-30.43-7.85A4.13,4.13,0,0,1,222.81,81c9.34-7.65,20.21-3.7,30.08-2.8C266,79.39,276.8,86.07,281,99.92c2,6.73,11.2,8.48,11.21,16.51,2.85,15.75,6.72,31.42,3.3,47.6v4.38Z"/><path class="cls-34" d="M286.73,229.72l2.19-41.6c.48,13.19,1,26.38,1.29,39.58C290.23,228.35,288,229.05,286.73,229.72Z"/><path class="cls-24" d="M291.11,115.86c-5.55-7.53-11.21-15-16.61-22.59C267.05,82.75,257,79.2,244.4,80.48c-7,.71-14.11.26-21.17.34C208.56,84.41,193.77,84,179,82.11a12.09,12.09,0,0,1-3.18,0,7.5,7.5,0,0,1-5.1-3.46l-2.19-4.38,30.66-4.38c12.81.73,25.66,1,38.39,2.37,7.68.84,15.13,3.61,22.76,5.13,2.1.41,4.48-.58,6.73-.93,11.12,8.23,25.25,13.73,28.25,29.48.59,3.07-1.25,6.61-2,9.94C292.57,116.94,291.84,116.89,291.11,115.86Z"/><path class="cls-24" d="M291.11,115.86h2.19c1.46,13,3.11,26,4.24,39.1.25,2.95-1.32,6-2.05,9.07Z"/><path class="cls-35" d="M157.54,282.28,151,275.71c-6-4.51-13.11-3.54-19.88-3.52-8,0-11.92-3.79-16.87-10.39-7.12-9.52-8.91-21.77-17.63-30.06-2.75-2.61-3.2-6.38-3.47-10-3-23.15-4-46.27.8-69.36,1.58-7.56,0-15.23.06-22.85.06-6.48,2.44-10.55,9.12-11.3,5-.57,8-4.33,11.84-6.65,12.6-7.55,22.29-20.94,40.62-17.6,12.26,2.23,25.93,2.78,37.89,0,12.57-3,23.44-5.82,35.08,1.87,2.54,1.68,7.1-.29,10.75-.23,6.52.1,9.36,4,13.28,9,8,10.29,8.12,25.36,20.68,32.67,3.4,2,3.16,6.36,3.2,10,.21,19.68,1.34,39.45-.41,59-1,11.82-3.21,23.52-2.53,35.48.2,3.49-.89,7.9-4.1,8.15-10.91.89-16.49,11.44-26.48,13.57-1.43.31-3.21.58-3.95,1.7-8.43,12.64-21.71,10.1-33.68,10.23-7.94.08-16,.53-23.89-.44C172.05,273.78,164.43,276.38,157.54,282.28Z"/><path class="cls-36" d="M157.54,282.28c4.1-7.13,8.14-11.24,18.51-10.13a178.67,178.67,0,0,0,50-1.53c8.77-1.56,16.91-9.57,24.57-15.12,3.76-2.72,6.28-6.32,11.46-6.05,6.3.32,9.31-2.18,9.43-8.86q.84-46.47,2.19-93c.16-5.68-.3-10.17-7.42-10.58-1.31-.07-3.7-1.4-3.65-2,.94-11.85-10.52-18.11-12.68-28-1.58-7.21-4.51-9.12-10.86-8.73-9,.54-18.26,2.52-24.65-6.92-.63-.93-5.36-.6-6.64.68-6.74,6.8-15.13,5.45-23.2,5.33-12.36-.19-24.71-.87-37.07-1.19-2.13,0-5.3-.12-6.26,1.13-6.73,8.77-19.9,8.39-25.73,18.77-1.56,2.77-7,4.85-10.58,4.69-7.14-.33-8.61,2.68-8.79,8.91-.77,26.61-2,53.21-2.74,79.83-.1,3.77,1.84,7.6,2.83,11.4-2.13,2.94-4.17,4.32-5.35-.58-.48-2,.47-4.24-1.22-6v-2.19a18.24,18.24,0,0,1-3.45-12.15c.41-10.79.47-21.62,0-32.4-.25-6.55,1.2-12,5.59-16.77V148.7C95,139.4,91,129.54,94,120.24l4.38-4.38c2.67-11.5,8.88-18.65,21.67-18.52,4.39,0,8.42-2,12-4.64a18.16,18.16,0,0,1,3.07-1.65c14.63-4.91,29.68-.65,44.52-2,9.47-.82,18.88-.66,27.61-5,13.95,6.33,29.92,2.16,43.9,8.43a14.28,14.28,0,0,0,8,5.16c11.34,3,16,11.35,17.31,22.27,1.25,10.32,1.82,20.72,3.65,31v6.57c2.36,18,.62,36,.91,54,.07,4.41-4.34,7.37-5.29,11.64v21.9c-1.53,2.14-1.42,5.38-4.38,6.57-5.26,4.83-2.74,14.52-10.94,17.52v2.19c-2.53,2.32-6.27-.25-8.76,2.19-5.57,2.91-12-.83-17.52,2.19-10.34,4.89-21.39,2.74-32.18,3.27-11.9.59-23.87-1.43-35.71,1.11-2.1,1-3.69,3.52-6.56,2.19Z"/><path class="cls-33" d="M170.67,78.63l4.38,2.19c2.45,9.82-5.05,10.31-10.91,10.24-6.5-.08-13-.1-19.56-.46-4.19-.24-7.92.57-11.13,3.36-11.3,4.22-23.13,5.6-35,6.57-1.46,2-3.29,3.94-4.29,6.19a125,125,0,0,0-4.77,12.88c-1.49,4.68-4.3,9.68-3.68,14.16,2.21,16.05-2.69,30.71-7,45.6C79.43,162,80,144.58,81,127.2c.17-3,1.81-6,3-8.92.55-1.28,2.67-2.34,2.58-3.38C84.86,93.64,105.36,95.83,115.4,87c7.84-6.91,14.24-7.84,24.75-4.87C149.27,84.68,160.42,80.06,170.67,78.63Z"/><path class="cls-36" d="M89.65,214.4,96.22,221c1.88,3.9,3.69,7.83,5.7,11.66.47.89,2.2,1.3,2.37,2.13,2,9.65,9.81,16.56,12.85,24.89s6.5,9.57,13.66,9.62,15.76-2.84,20.17,6.45c-8,0-15.92.12-23.88,0-12.28-.23-30-12.35-32.25-23.35C92.29,239.85,91.31,227.06,89.65,214.4Z"/><path class="cls-33" d="M280.16,150.89c-2.18-9.73-5.31-19.36-6.32-29.21-1.2-11.67-4.56-20-17.71-21.71-2.43-.31-4.43-3.92-6.62-6,13.76-3.47,21.45,3.47,26.27,15.33,6.74,7.07,2.93,16,4.38,24.08v17.52Z"/><path class="cls-36" d="M98.41,100.53c10.89-6.39,23.18-5.32,35-6.57-3.62,2.07-7.49,6.23-10.82,5.84-13.14-1.54-18.63,7-24.22,16.06Z"/><path class="cls-33" d="M166.29,280.09c4.15-.73,8.27-1.91,12.44-2.11,18.47-.91,37-1.54,55.45-2.27-4.61,1.46-9.18,4.05-13.82,4.18C202.35,280.38,184.32,280.09,166.29,280.09Z"/><path class="cls-36" d="M91.84,150.89c-7.69,20.19-4.83,40.76-2.19,61.32-9.67-6.43-3.4-16-4.36-24-1.11-9.23-.64-18.76.3-28C85.92,156.89,89.66,154,91.84,150.89Z"/><path class="cls-33" d="M275.78,223.15c8.13-21.45,2.93-43.79,4.38-65.69.73,15,2.24,30,1.85,45C281.83,209.4,278,216.25,275.78,223.15Z"/><path class="cls-33" d="M260.46,269.14q5.46-8.76,10.94-17.52C267.31,257.18,273.69,269.29,260.46,269.14Z"/><path class="cls-36" d="M94,120.24,91.84,148.7Z"/><path class="cls-33" d="M234.18,275.71l17.52-2.19Z"/><path class="cls-33" d="M251.7,273.52l8.76-2.19Z"/><path class="cls-33" d="M159.73,282.28l6.56-2.19Z"/><path class="cls-33" d="M271.4,251.62l4.38-6.57Z"/><path class="cls-33" d="M275.78,109.29c-3.14-3.23-20.55-13.39-26.27-15.33-3-.73-6.18-2.5-8.95-2-11.9,2.11-22.42-1.42-32.66-6.75-8.06,2.81-15.51,7.25-25,4.66-5.74-1.57-7.27-3.82-5.7-9h46c3.76.73,7.49,1.92,11.28,2.09C242,83.24,250,81.43,254.63,90a3.31,3.31,0,0,0,2.71,1.45C272,88.7,272.81,100.08,275.78,109.29Z"/><path class="cls-33" d="M280.16,133.37l-4.38-24.08C286.66,115.6,281.76,124.79,280.16,133.37Z"/><path class="cls-36" d="M177.24,80.82c3.08,7.63,12,10.63,20.14,7.15,3.3-1.42,7-1.88,10.52-2.77C201.29,87.39,194.79,91,188,91.5,169.9,93,151.65,93.23,133.45,94c3-1.46,5.93-3.65,9.11-4.2,4.22-.73,8.67-.18,13-.18,12.1,0,12.1,0,19.48-8.76Z"/><path class="cls-37" d="M190.38,118.05c11,3.16,13.4,1.34,14.21-9.59.15-2,3.57-5.52,4.79-5.24,2.6.58,6.73,3.14,6.77,5,.32,14.34,9.43,14.7,20.19,14.36,15.36-.48,14.68-.16,13.55,14.44-.82,10.55-3.12,21.87,6.21,30.91,1.9,1.84,2.25,6.11,2,9.16-1,13.89,4.28,28.72-7.66,41.09-3.21,3.32.34,11.88-7.54,13.76-2,3.71-5.26,6.47-9.18,7.16-10.67,1.89-20,7.48-30.24,10.36-13.25-1.3-26.28,1.33-39.42,2.19-2.94,2.5-5.95,2.49-9,.27-2.57-3.06-4.1-7-7.57-9.33a14.22,14.22,0,0,1-2.79-3.39c-1-4-6.15-4.44-7.39-8.3,5.1-6,10.33-3.07,13.79,1.12,9.31,11.31,20.86,10.47,33.77,9.29,13.54-1.25,26.63-1.59,37.72-11.08,7.25-6.22,18.43-13.8,15.22-21.67-3.29-8.09-13.52-16.19-24.68-17.19-8-.71-13.5-4.92-19-9.62-4.59-3.91-2.67-7.89.65-11.29,2.93-3,7.07-8.13,10.8-3.86,7.86,9,16,6.3,24.68,3,1.63-.62,3.72.27,5-1.43-6.47-24.94-20.6-41.14-48-42.27a3.44,3.44,0,0,1-2-2.26C185.3,120.22,188.51,119.75,190.38,118.05Z"/><path class="cls-37" d="M146.59,238.48l2.19,2.19c1.93,3.11,4.53,5.73,6.57,8.76l8.75,2.19c-.06,3.28,1,7.26-.46,9.67-2,3.2-5.92,5.18-9,7.68-1.94-2.59-5.43-5.11-5.55-7.78-.38-9.12-5-11.77-13.35-11.88-14.29-.19-19.47-6.39-19.9-21-.26-8.92,3.35-18.91-7.1-25.65-2.09-1.34-1.31-7.46-1.5-11.39-.22-4.73.68-9.62-.18-14.2-3-15.79,7.4-26.5,13.7-38.88,1.71-3.35,1.9-7.72,1.92-11.62,0-4.72,1.14-11.5,6.05-7.66,10.83,8.48,20.7,2.39,31,1.37.12.55.25,1.11.38,1.66a12.59,12.59,0,0,1-11.71,8.54c-20.16.38-22.84,15.36-24.68,29.73-1.47,11.44-1,23.16-2.53,34.71-.64,4.77,0,8.88,6,11.18,6.76,2.61,6.66,9.75,7.53,15.84a14.8,14.8,0,0,1,.14,3.12c-.5,3.74-.75,7.54,4.39,7.95C143,233.27,144.67,235.93,146.59,238.48Z"/><path class="cls-37" d="M203.52,249.43l39.42-17.52v6.55c0,12.59.23,12-10.84,7.64-4.16-1.62-9.78.24-14.7.86C212.75,247.55,208.15,248.59,203.52,249.43Z"/><path class="cls-37" d="M164.1,251.62c13.14-.8,25.79-10.28,39.42-2.19-1.5,1.25-3.61,2.21-4.38,3.81-3.49,7.23-11,6.81-14.28,3.45C178.39,250,171.22,252.2,164.1,251.62Z"/><path class="cls-37" d="M190.38,118.05,186,122.42c-6.61,4-13.19,4.57-19.69-.25,0-.65,0-1.29,0-1.93C176.91,109.55,177.42,109.51,190.38,118.05Z"/><path class="cls-37" d="M159.73,120.24h6.56A4.57,4.57,0,0,1,159.73,120.24Z"/><path class="cls-38" d="M186,124.61c13.57-5.13,22.87,4.33,33.31,9.78,12.8,6.67,12.12,21.62,19.16,31.91,2.75,4,2.58,7.63-5.52,5.68-6.5-1.56-14.17,2-21.37,2.87a8.72,8.72,0,0,1-5.93-1.81c-1.67-1.37-2.5-3.77-3.7-5.73-2.63,2.5-5.5,4.8-7.75,7.6-.75.93-.48,4.23.25,4.59,6.32,3.12,12.9,5.71,19.29,8.69,4.8,2.23,9.52,4.65,14.11,7.28,1.49.85,2.29,2.84,3.7,3.93,3.68,2.81,11.11,6.51,10.68,7.91-2,6.49-4.86,13.77-9.77,18.08-11.26,9.89-22.81,20.49-40.12,17.64-3.36-.55-7.06,1.2-10.63,1.61-11.8,1.37-23.16,1.83-31.23-9.69-2.82-4-7-8.17-12.65-3-4.88.09-6.27-2.14-4.38-6.57h0c.16-8.05.08-15.51-8.39-20.63-5.65-3.41-5.82-17.13-1.27-22.08,3.49-3.8,6.41-1.57,7.12,2.07,1.8,9.13,6.31,8.87,14.17,6.93,5.76-1.42,13.65-5.27,18.86,2.82,1,1.6,3.19,2.25,4.52.13,1.23-2-.27-3.4-1.79-4.47-5.89-4.14-11.11-9.27-19.43-8.61-5.76.45-23.48-12.46-24.64-16.89-1.95-7.37,6.14-25.69,13.32-29.22,8.12-4,16.42-8.27,24.7-11.11C168,121.73,177.54,122.43,186,124.61Z"/><path class="cls-37" d="M186,124.61c-19.22-3.59-35.49,5.6-50.66,14.47-6.22,3.64-7.71,15.38-11.31,23.45a1.1,1.1,0,0,0,.34,1c7.59,5.27,15.44,15.1,22.77,14.72,12.64-.64,17,10.11,26.33,12.79-1.28,2.63-2,5.92-4,7.64-1.43,1.21-6.55.92-6.82.16-4.43-12.35-15.43-5.89-19.51-3.67-11,5.94-12.46.42-14.05-7.72-.32-1.6-.8-3.17-1.44-5.68-6.72,14.89-6.12,14.39,2.62,25,3.88,4.72,9.17,11.21,3.2,18.55-3.06-7.39-1.48-17.56-13.19-19.91-1.52-.31-2.42-8.6-2-13,1.75-16.41,4-32.78,6.46-49.09,1.36-8.82,6.91-13,16-14.66,6.6-1.19,12.64-5.5,18.93-8.42h6.56L186,122.42Z"/><path class="cls-37" d="M133.45,225.34l4.38,6.57,8.76,6.57c-3.44-1.47-6.76-3.5-10.34-4.3C129.67,232.71,130.31,229.57,133.45,225.34Z"/><path class="cls-37" d="M155.35,249.43l-6.57-8.76Z"/><path class="cls-39" d="M192.27,196.05l-1.84,2.1c-.64-.62-1.65-1.17-1.81-1.9s.73-1.44,1.15-2.17Z"/><path class="cls-40" d="M178.64,172.24c-.27.61-.4,1.55-.83,1.72s-1.18-.42-1.79-.68c.27-.61.39-1.56.83-1.73S178,172,178.64,172.24Z"/></svg>