<svg id="Слой_1" data-name="Слой 1" xmlns="http://www.w3.org/2000/svg" viewBox="0 0 370 370"><defs><style>.cls-1{fill:#302416;}.cls-2{fill:#2b1a0d;}.cls-3{fill:#261a0b;}.cls-4{fill:#130301;}.cls-5{fill:#2d1e0f;}.cls-6{fill:#1b0d03;}.cls-7{fill:#130200;}.cls-8{fill:#0c0201;}.cls-9{fill:#010000;}.cls-10{fill:#0f0200;}.cls-11{fill:#251a0f;}.cls-12{fill:#0b0800;}.cls-13{fill:#0d0100;}.cls-14{fill:#030000;}.cls-15{fill:#2c1f11;}.cls-16{fill:#2a1d0f;}.cls-17{fill:#817a74;}.cls-18{fill:#1d1302;}.cls-19{fill:#6e6862;}.cls-20{fill:#7c7169;}.cls-21{fill:#827c76;}.cls-22{fill:#716b65;}.cls-23{fill:#887d76;}.cls-24{fill:#433428;}.cls-25{fill:#2c1f0f;}.cls-26{fill:#7f7a71;}.cls-27{fill:#2e1c0c;}.cls-28{fill:#170400;}.cls-29{fill:#0f0000;}.cls-30{fill:#332215;}.cls-31{fill:#1c0e02;}.cls-32{fill:#281e0f;}.cls-33{fill:#746b64;}.cls-34{fill:#322418;}.cls-35{fill:#695d54;}.cls-36{fill:#1a0f04;}.cls-37{fill:#1f1405;}.cls-38{fill:#483027;}.cls-39{fill:#3a2519;}.cls-40{fill:#130d02;}.cls-41{fill:#181205;}.cls-42{fill:#302c1c;}.cls-43{fill:#362820;}.cls-44{fill:#150200;}.cls-45{fill:#190904;}.cls-46{fill:#2b140a;}.cls-47{fill:#2b2416;}.cls-48{fill:#685f53;}.cls-49{fill:#1a0c01;}.cls-50{fill:#0a0300;}.cls-51{fill:#190900;}.cls-52{fill:#382918;}.cls-53{fill:#372d1d;}.cls-54{fill:#281909;}.cls-55{fill:#140300;}.cls-56{fill:#38301c;}.cls-57{fill:#352319;}.cls-58{fill:#140500;}.cls-59{fill:#1e0f05;}.cls-60{fill:#4b3c32;}.cls-61{fill:#1d0d00;}.cls-62{fill:#a49b98;}.cls-63{fill:#706964;}.cls-64{fill:#85807c;}.cls-65{fill:#837d77;}.cls-66{fill:#8b8881;}.cls-67{fill:#8c8883;}.cls-68{fill:#69665f;}.cls-69{fill:#96928b;}.cls-70{fill:#4e4642;}.cls-71{fill:#7b7670;}.cls-72{fill:#6d6761;}.cls-73{fill:#3c2d1e;}.cls-74{fill:#0a0402;}</style></defs><title>2dotМонтажная область 1</title><circle cx="110.98" cy="258.49" r="33"/><path class="cls-1" d="M95.91,285.86l-3.34-3.5.8-1.12a9.43,9.43,0,0,1,2.34-1.45c2.78-1.62,5.31-3.87,8.86-3.52,1.4.41,2,1.71,2.94,2.63s2,.31.59,0,.33-1.71-.59-.61c-.64-.84-1-1.8-2-2.3a16.76,16.76,0,0,0-3.61,0,7.18,7.18,0,0,1-4.57-2.73c-2.42-4.28-3.5-8.38,1.6-11.61a6.25,6.25,0,0,1,2.83-.45,5.76,5.76,0,0,1,2.36,1.2c1,1.23,1.28,2.89,2.48,4,.72.38,1.4.76,2.14,1.09a8.85,8.85,0,0,0,3.83.59A6.78,6.78,0,0,0,116,266.2c1.39-1.64,2.09-3.7,3.23-5.51,1.38-1.86,2.74-3.76,5.13-4.46,5,1,3.26,5.91,5,8.78a12.54,12.54,0,0,0,1.52,2.93,7,7,0,0,0,3.24.14,6.65,6.65,0,0,1,2.54.46,4.21,4.21,0,0,1,2.29,3.35,5.42,5.42,0,0,1-3.06,4.86v0c-1.13.54-2.08,1.39-3.2,1.9a3,3,0,0,0-1.6,1.42,4,4,0,0,1-2.41,2,8.31,8.31,0,0,0-2.63,1.62c-.76.8-1.27,1.79-2,2.64l-1.13.54c-.89.21-1.74.44-2.61.72C112,289.4,103.65,292,95.91,285.86Z"/><path class="cls-2" d="M90.88,233.26c4.36-5.1,10.31-5.26,16.31-5.26.87,1.7,2.48,1.29,3.93,1.35,6.94-1.1,12.8,2.61,19.12,4.29a4.14,4.14,0,0,1,3.56,3.41,6.73,6.73,0,0,1-2.7,3.21c-3.17,2.06-7.76,2.74-7.73,8a11.29,11.29,0,0,1-1,4.13A5.24,5.24,0,0,1,120,254a8.24,8.24,0,0,1-5.77-1.17c-2-1.43-4-2.92-5.21-5.25a5.51,5.51,0,0,1,0-3c-1.18.45-1,1.72-1.47,2.56-.68,1.16-1.29,2.36-2,3.5-2.12,2.63-2.71,6.3-5.64,8.38a3.68,3.68,0,0,1-2.79.39,5.23,5.23,0,0,1-2.47-3.41,10.5,10.5,0,0,1-.29-2.8A10.34,10.34,0,0,1,95,250.6a14.27,14.27,0,0,1,1.24-2.35,25.45,25.45,0,0,0,1.9-3.38c.28-.79.63-1.56,1-2.32a11.92,11.92,0,0,1,1.75-2.9c.38-.42.78-.87,1.13-1.28a6.62,6.62,0,0,1-1.64.77,4.69,4.69,0,0,1-2,.2,7.52,7.52,0,0,1-2.09-.62A22.08,22.08,0,0,1,93.29,237a9.33,9.33,0,0,1-1.77-1.55A3.57,3.57,0,0,1,90.88,233.26Z"/><path class="cls-3" d="M96.54,258.38l2,.7c.16.37.32.73.49,1.1-.13.37-.25.75-.37,1.12a8.75,8.75,0,0,1-1.88,1.38c-.68.33-1.36.67-2,1.05-.51.59-1,1.15-1.56,1.73a6.15,6.15,0,0,1-2,1.31,8.22,8.22,0,0,1-2.42.22,12.12,12.12,0,0,1-2.38-.49,12.38,12.38,0,0,1-2.23-.9,17.51,17.51,0,0,0-3.24-1.47,13.48,13.48,0,0,1-.58-11.42c1.24-.67,1.91-1.88,2.78-2.9,2.18-4.41,2.76-10.34,9.7-10.23a7.56,7.56,0,0,1,2.59.95A8.63,8.63,0,0,1,98,243.66a9.37,9.37,0,0,1,.69,3.88,2.39,2.39,0,0,1-1.37,2h0c-1.62,1-2.59,2.14-1.42,4.07v0C96.72,255.1,95.72,256.86,96.54,258.38Z"/><path class="cls-4" d="M130.24,233.64c-7.63,1.78-14.2-4.14-21.74-3a2,2,0,0,1-.06-1.79c.28-.55.48-.8.62-.75l-.17-.12c1.07.65,2-.33,3-.33C118.75,227.28,125.14,228.49,130.24,233.64Z"/><path class="cls-5" d="M141.84,251.36a1.34,1.34,0,0,1,.09,1.75,9.73,9.73,0,0,1-.11,2.35,6.84,6.84,0,0,1-1.66,1.69,6,6,0,0,1-3.47.6,3.5,3.5,0,0,1-2.92-3.1c-.51-.89,2-1.07.49-2.21a12.15,12.15,0,0,1-1.55-1.66,7.73,7.73,0,0,1-1.58-3.27,6.21,6.21,0,0,1,.44-2.52,5.2,5.2,0,0,1,1.82-1.82,4.81,4.81,0,0,1,3.73.39,8.48,8.48,0,0,1,2.43,2.73c.35,1.09.34,2.29,1,3.28A3.7,3.7,0,0,1,141.84,251.36Z"/><path class="cls-6" d="M88.9,278.76a1.34,1.34,0,0,1-1.32-1.36,3.76,3.76,0,0,1-1.27-2.14l-.11-.13c-.62-.81-1-1.81-1.65-2.57l0,.09a8,8,0,0,1-.25-2.62,4.66,4.66,0,0,1,1.1-2.35,5.74,5.74,0,0,1,2.3-1.12l1.25-.14,1.2.16,1,.53a5.53,5.53,0,0,1,1,1.91c.19.61.35,1.25.52,1.87A3.52,3.52,0,0,0,94,272.21a5.26,5.26,0,0,1,1.8,1.05c.23.32.43.62.65.94s.16.77.25,1.16a7.6,7.6,0,0,1-.41,2.46,6.63,6.63,0,0,1-1.54,2.1,5.11,5.11,0,0,1-2.53.72C90.91,280.4,89.58,280.16,88.9,278.76Z"/><path class="cls-7" d="M137.94,245.45l-4.32-1.65a4.21,4.21,0,0,1-2.56-5.46l2.74-1.29,6.51,6.94c.12.43.24.86.37,1.3-.26.37-.51.74-.76,1.12l-1.34.24Z"/><path class="cls-7" d="M143.22,263.11l-3,8.29c-.53,2.2-.85,3.11-2.39,4.61-.62.11-1.35.91-2,.74.57-2.13,1.15-4.26,1.72-6.38a22.82,22.82,0,0,1-.75-2.81,11.82,11.82,0,0,1,1.29-5.69,7.84,7.84,0,0,1,2.95-3.25c.48-.07.78-1.35,1.27-1.42.51.21.76,2.08,1.18,2.45A7.74,7.74,0,0,1,143.22,263.11Z"/><path class="cls-8" d="M83.09,251.36l-2.73,1.35c.22-4.48,1-8.75,4.36-12.1a1.87,1.87,0,0,1,2.43,1.61C86,245.35,85.9,249,83.09,251.36Z"/><path class="cls-7" d="M127.52,280.57l2.54-1.54a1.46,1.46,0,0,1,1.05-1.75l4.78-.55c-.82,3.71-3.88,5.22-6.78,6.88a2.26,2.26,0,0,1-2.62-.65A1.89,1.89,0,0,1,127.52,280.57Z"/><path class="cls-9" d="M80.94,264.13c1.15-2.92,2.66-2.47,4.34-.47a3.18,3.18,0,0,1,.54,3.63c-.49.74-.94,1.49-1.37,2.26l-1.23.47L82,267.12c-.36-.94-.74-1.88-1.07-2.84Z"/><path class="cls-10" d="M90.88,233.26l2.75,1.31a3.69,3.69,0,0,1-.34,2.94c-1.94,1.46-3.6,4.12-6.48,1.49a4.6,4.6,0,0,1,1.07-2.81C88.4,234.72,89,233.37,90.88,233.26Z"/><path class="cls-11" d="M90.59,281.9a1.49,1.49,0,0,0-1.44-1.19,14.25,14.25,0,0,0-.25-1.95l4.62,1.38.4.77-.5.7a4.66,4.66,0,0,0-.85.75C91.91,282.19,91.26,282,90.59,281.9Z"/><path class="cls-3" d="M87.88,236.19l-.34,2.72a1.73,1.73,0,0,1-1,2.35c-.6-.21-1.2-.42-1.79-.65C85.05,238.62,85.8,236.93,87.88,236.19Z"/><path class="cls-12" d="M140.14,250.68l-1.13-3,.1-1.38.61-.3,1.22-.29.48,1.16a10.62,10.62,0,0,0-.53,2c.43.65.47,1.14.1,1.47S140.35,250.76,140.14,250.68Z"/><path class="cls-2" d="M111.85,227.63l-3,.33Z"/><path class="cls-13" d="M109.06,228.08c-.19.85-.37,1.69-.56,2.54L107.19,228A1.32,1.32,0,0,1,109.06,228.08Z"/><path class="cls-14" d="M142.43,256.18l.13,2.22-.3-.62-.67.19a1.45,1.45,0,0,1-2-.59,1.7,1.7,0,0,1,1.32-1.71l0,0Q142.05,254.8,142.43,256.18Z"/><path class="cls-15" d="M142.43,256.18l-.78-.22-.75-.32c.34-.84.69-1.68,1-2.53C142.1,254.14,142.27,255.16,142.43,256.18Z"/><path class="cls-3" d="M81,264.28,82,267.12A2.09,2.09,0,0,1,81,264.28Z"/><path class="cls-11" d="M85.49,270.43c-.29.74-.59,1.48-.89,2.22L83.22,270a1.2,1.2,0,0,1,.64-1.16A1.92,1.92,0,0,1,85.49,270.43Z"/><path class="cls-15" d="M140.14,250.68a8.89,8.89,0,0,1,.75-1.84l1,2.52C141.26,251.15,140.7,250.93,140.14,250.68Z"/><path class="cls-11" d="M84.55,272.56l1.65,2.57Z"/><path class="cls-11" d="M86.31,275.26c.43.71.85,1.43,1.27,2.14C87.16,276.69,86.74,276,86.31,275.26Z"/><path class="cls-16" d="M134.73,253.49l3.39,3.39c.22.36.43.72.64,1.09a10.23,10.23,0,0,1,.6,5,23,23,0,0,1-1.88,4.8c-1,.88-2.43.85-3.61,1.35l-.75,2a2.2,2.2,0,0,1-2.1,0,2.37,2.37,0,0,1-.55-2c0-1.32-1-.16-1.37-.58a1.94,1.94,0,0,1-1.31-1.55c-3.7-2.54-1.09-7.32-3.65-10.27a1.93,1.93,0,0,1-2.2-.16,4.63,4.63,0,0,1-1-2.16c.08-.4.16-.8.25-1.19.21-.67.43-1.33.66-2a2.78,2.78,0,0,1,3.19.05c.21,0,.48.6.38.3-.45-1.34.74.34.41-1.09a5.06,5.06,0,0,1,2.11-1.36c2.75-.13,5.52-.37,7.46,2.17l.1.18a1.32,1.32,0,0,1,0,1.53C135.13,253.39,134.89,253.55,134.73,253.49Z"/><path class="cls-11" d="M95,276.13l.68-2.1a2.38,2.38,0,0,1,2.7-1.31l6.15,2.13a1.35,1.35,0,0,1,0,1.51c-.31.39-.54.56-.7.51-2.77,2.34-4.69,6.15-9.28,5.34a12.81,12.81,0,0,1-1-2.09v0c.26-.69.51-1.38.76-2.07.68-.24,1-.61,1-1.1S95.14,276.2,95,276.13Z"/><path class="cls-17" d="M102,262.35a16.66,16.66,0,0,1-2.07-.56l-.54-1.26a77,77,0,0,1,2.48-7.62,4,4,0,0,1,1.51-1.83,2.63,2.63,0,0,1,2.1.48c.09.33.2.68.32,1a6,6,0,0,1,1.6-1.53,4.36,4.36,0,0,1,2.31-.36,4.82,4.82,0,0,1,2,1.44,6.81,6.81,0,0,1,1.15,3.79,8,8,0,0,1-1.39,4,6.81,6.81,0,0,1-2.29,1.8C106.9,262.69,104.34,261.15,102,262.35Z"/><path class="cls-18" d="M103.78,276.87l.72-2,2.8-1.17,1.24,2.53c.47,2.3,4.3-1,4.22,2.68-.06,2.66-1.43,3.77-3.56,4.41-2.63.8-2.54-1.43-3.21-2.93A27.4,27.4,0,0,0,103.78,276.87Z"/><path class="cls-19" d="M112.87,271c-2.88,1.58-4.46-.57-6.22-2.18a1.32,1.32,0,0,0-2.09-.72c-3.89-.91-.56-3.07-.8-4.62-.51-3.24,1.73-2.54,3.53-2.46a22.42,22.42,0,0,0,2.69.65,5.21,5.21,0,0,1,1.92,1.84,14.78,14.78,0,0,1,1.2,3.73A8.54,8.54,0,0,1,112.87,271Z"/><path class="cls-6" d="M98.35,272.72,95.65,274h0a7.47,7.47,0,0,0-1.43-2.19,8.43,8.43,0,0,1-3.27-4v0c-1-1.12-.79-1.8.71-2l.7-2.09.62-.85a6,6,0,0,1,1.83-1.05l1-.27a4.15,4.15,0,0,0,2-.38h0c1.06-1,1.76-.78,2.09.63h0C96.41,265,99,269.09,98.35,272.72Z"/><path class="cls-20" d="M122.6,255.83c.5.32,1,.62,1.54.91-.8,2.08-1.19,4.42-3.46,5.6l-1,.47-1-.37a4.27,4.27,0,0,1-1.27-1.65,9.08,9.08,0,0,0-2.45-2.07c-.24-.33-.46-.65-.69-1,0-.42-.07-.83-.11-1.25a5.08,5.08,0,0,1,1.15-2.29c1.71-1.26,3.41-.62,5.12,0A4.55,4.55,0,0,1,122.6,255.83Z"/><path class="cls-21" d="M118.3,261.4l2.38.94c-.46,2.13.61,4.86-2.35,6a5.51,5.51,0,0,1-5.39-.76,4.55,4.55,0,0,1-1.2-2.5,5.29,5.29,0,0,1,2.45-3.35,6.62,6.62,0,0,1,2.73-.67Z"/><path class="cls-22" d="M112.09,266.09l6.23,2.25L112.87,271l-1.47-2.9c-.18-.44-.36-.87-.53-1.31Z"/><path class="cls-23" d="M109.18,262.37l-5.42,1.12a3.29,3.29,0,0,1-1.74-1.14c1.81-3.73,4.68-2.7,7.56-1.68l.32,1Z"/><path class="cls-24" d="M127.79,267l2,.64a1.27,1.27,0,0,1,1.94.84c-.24.64-.45,1.28-.64,1.93.4.67.42,1.19,0,1.56s-.63.5-.83.44C127.91,271.35,127,269.59,127.79,267Z"/><path class="cls-15" d="M133.87,269.11l2.75-1.34c1.09-1,1.74-.8,2,.68l-1,1.92Z"/><path class="cls-25" d="M127,282.83l-2.9,1.14-.07-.54-.21-1,.89-.44,2.78-1.45C127.36,281.32,127.19,282.07,127,282.83Z"/><path class="cls-15" d="M130.33,272.42c.27-.67.53-1.33.78-2l2,.69Z"/><path class="cls-26" d="M104.56,268.11c1.07-.83,1.75-.55,2.09.72Z"/><path class="cls-27" d="M131.11,277.28a3.85,3.85,0,0,1-1.05,1.75,7.06,7.06,0,0,1,.2-1.54C130.3,277.34,130.82,277.34,131.11,277.28Z"/><path class="cls-28" d="M108.54,276.21c-.42-.84-.83-1.69-1.25-2.54Z"/><path class="cls-11" d="M124.74,282a6.86,6.86,0,0,1-.68,1.42,6.6,6.6,0,0,1-.07-1.25C124,282.11,124.48,282.08,124.74,282Z"/><path class="cls-29" d="M93.52,280.12l1,2.09a2.32,2.32,0,0,1-1.08-.6A4.16,4.16,0,0,1,93.52,280.12Z"/><path class="cls-30" d="M131.06,238.34q1.27,2.73,2.56,5.46c-.27.7-.53,1.41-.8,2.11-1.68.78-3.26,1.87-5.23,1.52-.91.3-.75-2.07-2.06-.87a3,3,0,0,1,.06,3.16,3.06,3.06,0,0,1-2.19.81,3.92,3.92,0,0,1-2.89-2.06C119.87,240.77,124.5,238.55,131.06,238.34Z"/><path class="cls-31" d="M104.32,249.46l3.26-14.38c4.24,4.49,3.18,8.39,2.11,12.29a2.06,2.06,0,0,1,.13,1.58c-.18.52-.33.77-.42.73a15,15,0,0,1-3.54,1.33l-1.22-.33C104.53,250.27,104.43,249.86,104.32,249.46Z"/><path class="cls-32" d="M98,247.48l-1.31-2.74a3.86,3.86,0,0,1-.35-2.19,3.81,3.81,0,0,1,.63-2.12c.78-.84,1.93-1.06,2.82-1.72a8.23,8.23,0,0,1,1.71-1.34l.13-.07a1.44,1.44,0,0,1,2,.75l-2.18,6.14a3.28,3.28,0,0,0-1.7,1.7A2.48,2.48,0,0,1,98,247.48Z"/><path class="cls-33" d="M108.46,248.8a4.57,4.57,0,0,0,1.23-1.43c2.33.43,4.36,1.35,5.59,3.53a2.14,2.14,0,0,1-.87,2.8,3.79,3.79,0,0,1-4.13-1.89c-.64-.19-1.29-.37-1.94-.53l-.87-.62A2.81,2.81,0,0,1,108.46,248.8Z"/><path class="cls-34" d="M100,261.8l-2.09-.63.66-2.09c1.57-3.41,1.5-7.82,5.77-9.62l-.08.64c.57.52.71,1,.43,1.35s-.55.58-.75.52Z"/><path class="cls-35" d="M114.34,253.16c.31-.75.62-1.51.94-2.26l5.9,2.33-.35.22c.51.55.62,1,.32,1.37s-.56.54-.75.48l-4.92.68-1.4.25-1-1A1.68,1.68,0,0,1,114.34,253.16Z"/><path class="cls-36" d="M95.93,253.6c-1.05-.57-2.76-1-1.86-2.55.52-.86,2.15-1,3.28-1.52C96.88,250.89,96.41,252.24,95.93,253.6Z"/><path class="cls-37" d="M120.51,248.47l4.14,1.36a1.26,1.26,0,0,1,1.91.83c-.21.67-.43,1.33-.65,2h0l-4.09-1.42Z"/><path class="cls-38" d="M92.64,236.45a17.6,17.6,0,0,1,1-1.88,14.9,14.9,0,0,0,1.82.6,3.61,3.61,0,0,1,.07,3c-.78.79-1.84,1.35-2.77.82S91.85,237.35,92.64,236.45Z"/><path class="cls-39" d="M98.25,240.59l-.83,2.15a1.32,1.32,0,0,1-2-.77h0c-1-1.23-.47-2.36.23-3.48l1.19-.48c.66.22,1.31.43,2,.63l.57,1.25Z"/><path class="cls-40" d="M96.54,258.38c-.2-1.6-.41-3.2-.62-4.8C96.13,255.18,96.34,256.78,96.54,258.38Z"/><path class="cls-41" d="M98,247.48c.25-.67.49-1.34.73-2a1.34,1.34,0,0,1,2,.67l-3.46,3.4Z"/><path class="cls-42" d="M100.8,246.14l-2-.67,2.69-1.28C101.24,244.84,101,245.49,100.8,246.14Z"/><path class="cls-43" d="M101.53,237.37c-.19.65-.4,1.29-.62,1.93a1.31,1.31,0,0,1-2.07-.69l0,0Z"/><path class="cls-44" d="M94.86,237.22c.2-.68.39-1.36.58-2.05L96.88,238h0C95.8,238.71,95.14,238.46,94.86,237.22Z"/><path class="cls-45" d="M103.63,238.05l-2-.75C102.71,236.5,103.34,236.82,103.63,238.05Z"/><path class="cls-46" d="M94.86,237.22l2,.78-1.38,4c-8.44-2.56-7.42,7.34-12.37,9.39l3.42-10.1,1-2.35,5.1-2.46C93,237.69,93.76,238,94.86,237.22Z"/><path class="cls-47" d="M83.94,268.26l1.35-4.6,2.29.72c.29,1,1.71,1.42,1.37,2.73l-2.87,1.42A1.51,1.51,0,0,1,83.94,268.26Z"/><path class="cls-48" d="M93.11,261.73l2.55-1.3c.45.6.52,1.09.22,1.5s-.56.6-.74.53h0l-1.32.46Z"/><path class="cls-1" d="M95.14,262.46a8.3,8.3,0,0,0,.52-2l2.23.73Z"/><path class="cls-49" d="M95.41,242l2,.77c-.23.67-.46,1.33-.7,2C96.28,243.82,95.85,242.9,95.41,242Z"/><path class="cls-50" d="M92.37,263.71a8.36,8.36,0,0,1-.14-1.65c0-.13.57-.22.88-.33l.09-.05a1.42,1.42,0,0,1-.1,1.59c-.35.39-.6.56-.77.5Z"/><path class="cls-51" d="M89,267.11c-.46-.91-.92-1.82-1.37-2.73l2.06.71c.42.66.45,1.18.1,1.56s-.62.55-.81.48Z"/><path class="cls-52" d="M88.93,267.13l.71-2,2,.71c-.23.68-.47,1.36-.71,2Z"/><path class="cls-53" d="M126.56,250.66l-1.91-.83c.2-.65.42-1.3.65-2,2.27-.53,4.56-2,6.81.07l3.28,3.35Z"/><path class="cls-54" d="M132.11,248l-6.81-.07L124,245.16a1.33,1.33,0,0,1,2,.64l6.83.11Z"/><path class="cls-15" d="M140.92,255.67c-.28.63-.53,1.28-.76,1.93a1.31,1.31,0,0,1-2-.66v-.06Z"/><path class="cls-55" d="M134.73,253.49c.23-.67.48-1.34.76-2a8.61,8.61,0,0,1,.13,1.67C135.6,253.29,135,253.38,134.73,253.49Z"/><path class="cls-9" d="M139.11,246.26a7,7,0,0,1-.1,1.38l-1.08-2.19A6.49,6.49,0,0,1,139.11,246.26Z"/><path class="cls-1" d="M91,267.81c2.2.87,4.65,1.43,5.39,4.18a13.27,13.27,0,0,1-2.72,1.29h0a1.59,1.59,0,0,1-2.14.15c-.75-1-.62-2.34-1.11-3.45Z"/><path class="cls-11" d="M91.54,272.55l2,.74c-.56,1-1,2.81-2.51,1.9-.85-.5-1-2.17-1.46-3.32A1.2,1.2,0,0,1,91.54,272.55Z"/><path class="cls-9" d="M83.94,268.26l2.14.27c-.18.64-.37,1.27-.59,1.9l-1.63-1.57Z"/><path class="cls-56" d="M91.54,272.55l-1-.32-1-.36a16.67,16.67,0,0,1,.72-1.89C90.74,270.84,91.14,271.7,91.54,272.55Z"/><path class="cls-11" d="M93.62,273.28,96.34,272,95.65,274Z"/><path class="cls-57" d="M95,276.13a9.88,9.88,0,0,1,.16,1.62c0,.12-.55.21-.85.32C94.48,277.42,94.71,276.77,95,276.13Z"/><path class="cls-58" d="M138.13,256.94c.68.23,1.35.45,2,.66.48.14,1,.26,1.43.37l-1.05,4.3c-1,1-1.57.7-1.81-.6Z"/><path class="cls-59" d="M138.73,261.67c.6.21,1.21.41,1.82.6l-2,6.18-2-.68Q137.67,264.73,138.73,261.67Z"/><path class="cls-60" d="M120.4,255.3c.16-.62.31-1.23.43-1.85l1.77,2.38Z"/><path class="cls-61" d="M125.91,252.66l.58.64c-.19-.22-.37-.44-.56-.65Z"/><path class="cls-15" d="M131.75,268.49c-.64-.29-1.29-.57-1.94-.84C130.91,266.9,131.54,267.2,131.75,268.49Z"/><path class="cls-62" d="M109.18,262.37c.1-.58.24-1.14.39-1.7a17.09,17.09,0,0,0,.53-1.72,2.67,2.67,0,0,1,3.53-.44,3.14,3.14,0,0,1,1.3,2.18,3.41,3.41,0,0,1-1.56,2,3.61,3.61,0,0,1-2.55.08A10.35,10.35,0,0,0,109.18,262.37Z"/><path class="cls-63" d="M114.23,260,110.1,259l1.47-4.48c.86-.68,1.46-.45,1.83.54l.41.34a15,15,0,0,1,.89,2.15l.35.57A1.48,1.48,0,0,1,114.23,260Z"/><path class="cls-33" d="M103.91,252a8.41,8.41,0,0,1,.32-1.87,6,6,0,0,0,2.06-.21,1.15,1.15,0,0,1,1.67.62l.38.77c-.32.62-.62,1.26-.88,1.91-.83.59-1.44.38-1.85-.52Z"/><path class="cls-64" d="M113.4,255q-.91-.25-1.83-.54l-1.29-2.66,4.06,1.35A7.68,7.68,0,0,1,113.4,255Z"/><path class="cls-65" d="M106.8,255l.56.67-.6-.67Z"/><path class="cls-66" d="M105.61,252.67a7.38,7.38,0,0,1,1.85.52L106.8,255h0C106.38,254.25,106,253.46,105.61,252.67Z"/><path class="cls-22" d="M110.82,262.78l2.7-.91c.46.69.51,1.25.15,1.67s-.65.61-.86.54q-.34,1-.72,2l0,0a1.34,1.34,0,0,1-2.06-.73Z"/><path class="cls-67" d="M110.07,265.34l2.06.73-.73,2C111,267.19,110.51,266.27,110.07,265.34Z"/><path class="cls-1" d="M92.33,263.77l.87-2.09a16.27,16.27,0,0,0,1.93.79Z"/><path class="cls-68" d="M117,258.63c1-.78,1.68-.57,2,.68l-1.28.47Z"/><path class="cls-69" d="M114.23,260a6.19,6.19,0,0,1,.82-2c.66.18,1.31.36,2,.57l0,0a1.54,1.54,0,0,1,0,1.6c-.3.45-.53.64-.67.59a1.55,1.55,0,0,1-2.09-.9Z"/><path class="cls-70" d="M114.7,257.5c-.3-.72-.59-1.44-.89-2.15a15.93,15.93,0,0,1,1.67.63A3.93,3.93,0,0,1,114.7,257.5Z"/><path class="cls-71" d="M116.28,260.59c.26-.64.49-1.29.71-1.94l2,.66-.72,2.09h0l-1.36.49Z"/><path class="cls-19" d="M114.19,259.94l2.09.65-.06.26c.39.61.43,1.11.1,1.49s-.58.53-.76.47l-2.75,1.27.71-2.21C113.77,261.24,114,260.59,114.19,259.94Z"/><path class="cls-72" d="M115.56,262.81c.21-.66.43-1.31.66-2,.69.15,1.38.33,2.06.54Z"/><path class="cls-73" d="M126,245.8l-2-.64C125,244.36,125.65,244.53,126,245.8Z"/><path class="cls-34" d="M108,250.51l-.87-.22-.8-.4,2.18-1.09A5.63,5.63,0,0,1,108,250.51Z"/><path class="cls-74" d="M98.84,238.61l2.07.69-2.66,1.29C98.43,239.93,98.62,239.27,98.84,238.61Z"/><circle cx="259.02" cy="111.51" r="33"/><path class="cls-1" d="M270.28,140.65l-4.83.3c-.11-.44-.22-.88-.34-1.33a10,10,0,0,1,.39-2.72c.55-3.17.46-6.55,3-9.05,1.21-.81,2.58-.42,3.9-.56s1.51-1.31.34-.47-1.09-1.36-.85.06c-1,0-2-.37-3,.06a16.19,16.19,0,0,0-2.36,2.73,7.18,7.18,0,0,1-5,1.74c-4.84-.9-8.67-2.71-7.86-8.7a6.45,6.45,0,0,1,1.47-2.45,5.92,5.92,0,0,1,2.45-1c1.56,0,3,.88,4.65.67.75-.31,1.48-.59,2.21-1a8.79,8.79,0,0,0,2.91-2.54,6.8,6.8,0,0,0,.84-3.78c-.36-2.12-1.48-4-2.14-6-.53-2.27-1.12-4.52-.12-6.8,4-3.14,6.63,1.3,9.95,1.81a12.49,12.49,0,0,0,3.22.72,6.92,6.92,0,0,0,2.19-2.4,6.82,6.82,0,0,1,2-1.64,4.25,4.25,0,0,1,4,.4,5.41,5.41,0,0,1,1.74,5.47h0c-.31,1.21-.27,2.49-.6,3.67a3,3,0,0,0,0,2.14,4,4,0,0,1,0,3.13,9,9,0,0,0-.45,3c.13,1.09.56,2.12.75,3.22-.1.41-.2.8-.32,1.21-.41.82-.78,1.62-1.13,2.47C283.34,130.61,280,138.67,270.28,140.65Z"/><path class="cls-2" d="M226.78,110.66c-1.11-6.62,2.6-11.28,6.46-15.87,1.87.43,2.59-1.07,3.56-2.14,3.63-6,10.24-8.13,15.59-11.88a4.13,4.13,0,0,1,4.9-.53,6.73,6.73,0,0,1,.72,4.13c-.46,3.76-2.89,7.71,1.12,11a11.38,11.38,0,0,1,2.51,3.44,5.18,5.18,0,0,1-.23,2.89,8.28,8.28,0,0,1-4.6,3.66c-2.42.66-4.85,1.22-7.37.62a5.63,5.63,0,0,1-2.26-1.93c-.4,1.19.7,1.84,1,2.77.44,1.27,1,2.51,1.38,3.79.64,3.31,3.08,6.12,2.79,9.71a3.76,3.76,0,0,1-1.5,2.39,5.18,5.18,0,0,1-4.2-.31,10.47,10.47,0,0,1-2.33-1.57,10.07,10.07,0,0,1-1.65-2.19,14.29,14.29,0,0,1-1-2.46,25.33,25.33,0,0,0-1.36-3.64c-.43-.72-.79-1.48-1.15-2.24a12.18,12.18,0,0,1-1.09-3.21c-.08-.55-.16-1.15-.25-1.68a6.82,6.82,0,0,1-.47,1.76,4.79,4.79,0,0,1-1.15,1.68,7.23,7.23,0,0,1-1.82,1.19,21.57,21.57,0,0,1-3.21,1.16,9.58,9.58,0,0,1-2.31.36A3.63,3.63,0,0,1,226.78,110.66Z"/><path class="cls-3" d="M249.65,122.48l1.82-1.07,1.15.33.63,1a9,9,0,0,1-.15,2.32c-.19.73-.37,1.47-.5,2.23.12.76.21,1.53.32,2.3a6,6,0,0,1-.28,2.37,8.09,8.09,0,0,1-1.39,2,12.6,12.6,0,0,1-1.9,1.51,13.15,13.15,0,0,1-2.13,1.13,16.78,16.78,0,0,0-3.2,1.53c-4-1-7.19-3.14-9.12-6.91.28-1.37-.21-2.66-.44-4-2-4.5-6.13-8.76-1.59-14a7.64,7.64,0,0,1,2.4-1.37,8.71,8.71,0,0,1,4.06,0,9.28,9.28,0,0,1,3.42,2,2.39,2.39,0,0,1,.64,2.34v0c-.31,1.86,0,3.36,2.2,3.71h0C247.26,120.24,248,122.14,249.65,122.48Z"/><path class="cls-4" d="M252.39,80.77c-3.55,7-12.3,8.21-16.3,14.7a1.92,1.92,0,0,1-1.41-1.1c-.24-.57-.3-.89-.17-1l-.21,0c1.2-.4,1-1.71,1.66-2.48C240.13,85.47,245.17,81.36,252.39,80.77Z"/><path class="cls-5" d="M273.42,83.29a1.35,1.35,0,0,1,1.4,1.06,9.37,9.37,0,0,1,1.73,1.6,6.7,6.7,0,0,1,.22,2.36,5.93,5.93,0,0,1-1.77,3,3.5,3.5,0,0,1-4.25.23c-1-.18.49-2.25-1.38-1.79a12.39,12.39,0,0,1-2.27.12,7.69,7.69,0,0,1-3.51-.9,6.07,6.07,0,0,1-1.65-2,5.22,5.22,0,0,1-.23-2.57,4.79,4.79,0,0,1,2.7-2.6,8.37,8.37,0,0,1,3.66-.1c1.05.42,2,1.2,3.16,1.32A3.65,3.65,0,0,1,273.42,83.29Z"/><path class="cls-6" d="M260.33,141.45a1.33,1.33,0,0,1-1.88.13,3.69,3.69,0,0,1-2.46-.41h-.17c-1-.05-2-.44-3-.39l.1,0a8.1,8.1,0,0,1-2.17-1.5,4.72,4.72,0,0,1-1.09-2.35,5.73,5.73,0,0,1,.63-2.48l.69-1,.9-.82,1.07-.46a5.68,5.68,0,0,1,2.11.47c.58.25,1.18.54,1.76.81a3.59,3.59,0,0,0,1.83-.13,5.55,5.55,0,0,1,2-.71l1.13.11,1,.56a7.7,7.7,0,0,1,1.62,1.89,6.77,6.77,0,0,1,.62,2.53,5.15,5.15,0,0,1-1.08,2.4C262.88,141,261.84,141.83,260.33,141.45Z"/><path class="cls-7" d="M266.39,82.48l-4.05,2.24a4.21,4.21,0,0,1-5.82-1.55l.77-2.93,9.5-.52,1.23.55c.13.44.25.87.37,1.31l-.67,1.17Z"/><path class="cls-7" d="M283.3,89.79l4.43,7.63c1.34,1.81,1.84,2.64,2,4.78-.31.55-.17,1.63-.7,2-1.25-1.81-2.51-3.61-3.77-5.42a22.52,22.52,0,0,1-2.64-1.23,12,12,0,0,1-3.52-4.65,7.83,7.83,0,0,1-.59-4.35c.26-.42-.53-1.47-.27-1.89.49-.25,2.08.76,2.64.67A7.84,7.84,0,0,1,283.3,89.79Z"/><path class="cls-8" d="M235.62,128.27l-.72,2.95c-3.29-3-6-6.4-6.46-11.12a1.87,1.87,0,0,1,2.8-.82C232.88,122.19,235.6,124.57,235.62,128.27Z"/><path class="cls-7" d="M286.57,113.05l.45-2.94a1.46,1.46,0,0,1-.66-1.93l2.65-4c2.31,3,1.5,6.33.91,9.62a2.28,2.28,0,0,1-2.18,1.59A1.9,1.9,0,0,1,286.57,113.05Z"/><path class="cls-9" d="M244,138.13c-1.5-2.76-.18-3.63,2.43-3.63a3.18,3.18,0,0,1,3.12,1.93c.25.84.54,1.68.85,2.5-.14.42-.28.83-.43,1.25l-3-1c-1-.33-1.92-.64-2.86-1Z"/><path class="cls-10" d="M226.78,110.66l2.76-1.26a3.67,3.67,0,0,1,2,2.15c-.13,2.42.84,5.41-3,5.92a4.59,4.59,0,0,1-1.46-2.62C226.3,113.5,225.68,112.14,226.78,110.66Z"/><path class="cls-11" d="M263.83,142.17a1.5,1.5,0,0,0-1.84.34,15.07,15.07,0,0,0-1.66-1.06l4-2.65.84.19.22.83a4.74,4.74,0,0,0,0,1.13C264.9,141.35,264.36,141.75,263.83,142.17Z"/><path class="cls-3" d="M227.09,114.85l1.87,2a1.74,1.74,0,0,1,1.13,2.3c-.54.33-1.09.65-1.65.95C227.13,118.57,226.32,116.91,227.09,114.85Z"/><path class="cls-12" d="M271.81,84.16l-3.06-1.1-1-1,.17-.66.56-1.12,1.19.38a10.45,10.45,0,0,0,1.2,1.7c.78.09,1.17.38,1.19.87S272,84,271.81,84.16Z"/><path class="cls-2" d="M236,91l-1.66,2.48Z"/><path class="cls-13" d="M234.51,93.41l1.58,2.06-2.85-.68A1.32,1.32,0,0,1,234.51,93.41Z"/><path class="cls-14" d="M277.49,85.94l1.79,1.33-.68-.17-.28.63a1.45,1.45,0,0,1-1.73,1.15,1.7,1.7,0,0,1-.46-2.11h0C276.16,85.81,276.62,85.54,277.49,85.94Z"/><path class="cls-15" d="M277.49,85.94l-.67.46-.73.37-1.27-2.42Z"/><path class="cls-3" d="M244.15,138.21l2.86,1A2.08,2.08,0,0,1,244.15,138.21Z"/><path class="cls-11" d="M251.76,138.69l1.13,2.12-2.9-.63a1.22,1.22,0,0,1-.48-1.25A2,2,0,0,1,251.76,138.69Z"/><path class="cls-15" d="M271.81,84.16a8.73,8.73,0,0,1-.93-1.76l2.54.89C272.89,83.6,272.36,83.89,271.81,84.16Z"/><path class="cls-11" d="M252.79,140.79l3,.39Z"/><path class="cls-11" d="M256,141.17l2.46.41Z"/><path class="cls-16" d="M270.48,90.11l4.77-.42,1.25.21a10.24,10.24,0,0,1,4.21,2.76,22.2,22.2,0,0,1,2.45,4.52c0,1.37-.9,2.41-1.28,3.63l1.05,1.86a2.17,2.17,0,0,1-1.34,1.62,2.33,2.33,0,0,1-1.87-.86c-1-.87-.78.68-1.33.68a1.91,1.91,0,0,1-2,0c-4.33,1.19-6.32-3.88-10.22-3.82a1.91,1.91,0,0,1-1.54,1.58,4.69,4.69,0,0,1-2.31-.61l-.75-1c-.37-.59-.73-1.19-1.09-1.79a2.74,2.74,0,0,1,2.08-2.41c.12-.18.77,0,.48-.1-1.32-.52.73-.35-.57-1a4.92,4.92,0,0,1,.32-2.49c1.66-2.19,3.26-4.47,6.46-4.32l.2,0c.68.16,1.06.5,1.14,1S270.63,90,270.48,90.11Z"/><path class="cls-11" d="M262.23,135.12l-1.17-1.88a2.37,2.37,0,0,1,.73-2.91l5.58-3.34a1.33,1.33,0,0,1,1.15,1c.1.5.08.78-.06.87,0,3.62,1.69,7.55-1.88,10.54a13.44,13.44,0,0,1-2.24-.59h0c-.37-.64-.73-1.28-1.1-1.91q.38-1-.21-1.47C262.66,135.12,262.39,135,262.23,135.12Z"/><path class="cls-17" d="M256.21,120.85a17.65,17.65,0,0,1-1.75,1.22l-1.32-.4a77.13,77.13,0,0,1-4.24-6.8,4,4,0,0,1-.43-2.33,2.64,2.64,0,0,1,1.72-1.3c.31.14.65.28,1,.4a5.88,5.88,0,0,1-.14-2.21,4.4,4.4,0,0,1,1.21-2,4.87,4.87,0,0,1,2.41-.63,6.85,6.85,0,0,1,3.65,1.56,8,8,0,0,1,2.16,3.63,7,7,0,0,1-.1,2.91C259.61,117.33,256.79,118.3,256.21,120.85Z"/><path class="cls-18" d="M268.46,128.84c-.36-.62-.72-1.24-1.09-1.85.31-1,.61-1.93.91-2.89l2.74.67c2.06,1.13,2-3.92,4.76-1.5,2,1.76,2,3.52,1.09,5.56-1.08,2.53-2.73,1-4.31.57A27.89,27.89,0,0,0,268.46,128.84Z"/><path class="cls-19" d="M269.83,118.11c-.65,3.22-3.31,3-5.68,3.37a1.31,1.31,0,0,0-1.89,1.13c-3.2,2.39-2.71-1.55-4.05-2.36-2.81-1.7-.83-3,.38-4.29a21,21,0,0,0,2.23-1.64,5.16,5.16,0,0,1,2.64-.28,14.51,14.51,0,0,1,3.63,1.48A8.58,8.58,0,0,1,269.83,118.11Z"/><path class="cls-6" d="M261.79,130.33c-.24,1-.49,1.94-.73,2.91h0a7.34,7.34,0,0,0-2.59-.31,8.47,8.47,0,0,1-5.2-.09h0c-1.52.07-1.88-.55-1.1-1.85l-1.15-1.88-.26-1a6.1,6.1,0,0,1,.37-2.07l.45-1a4.15,4.15,0,0,0,1-1.82v0q-.12-2.17,1.83-1.2h0C254.63,126.84,259.4,127.53,261.79,130.33Z"/><path class="cls-20" d="M264.46,100.89c.57-.18,1.13-.37,1.69-.59,1.08,2,2.62,3.76,2.06,6.26l-.26,1-.93.53a4.31,4.31,0,0,1-2.08-.09,9.09,9.09,0,0,0-3.16.54c-.41,0-.79-.07-1.2-.11l-1-.72a5.1,5.1,0,0,1-1-2.35c.14-2.12,1.72-3,3.3-3.91A4.61,4.61,0,0,1,264.46,100.89Z"/><path class="cls-21" d="M266,107.77l2.24-1.21c1.33,1.72,4.11,2.65,3.08,5.66a5.48,5.48,0,0,1-4.05,3.63,4.53,4.53,0,0,1-2.68-.69,5.26,5.26,0,0,1-1-4,6.53,6.53,0,0,1,1.25-2.53Z"/><path class="cls-22" d="M265.55,115.55l5.74-3.33-1.47,5.89-3.16-.74-1.35-.43Z"/><path class="cls-23" d="M260.83,115.38c-.87,1.62-1.75,3.24-2.62,4.87a3.32,3.32,0,0,1-2,.6c-1.69-3.79,1-5.33,3.58-6.87l.95.38Z"/><path class="cls-24" d="M276.37,104.12l1.79-1.14A1.26,1.26,0,0,1,280,102c.33.59.69,1.17,1.07,1.73q1.15.18,1.23,1c0,.51,0,.81-.21.92C279.76,106.81,277.81,106.41,276.37,104.12Z"/><path class="cls-15" d="M281.88,100.81l.75-3c-.09-1.49.51-1.85,1.78-1.08l.84,2Z"/><path class="cls-25" d="M288,114.87l-1,3-.45-.3-.88-.46.23-1c.23-1,.46-2,.68-3.06Z"/><path class="cls-15" d="M282.13,105.65c-.33-.63-.67-1.26-1-1.88l1.82-1.1C282.66,103.66,282.4,104.66,282.13,105.65Z"/><path class="cls-26" d="M262.26,122.61c.05-1.35.7-1.69,1.89-1.13Z"/><path class="cls-27" d="M286.36,108.18a3.91,3.91,0,0,1,.66,1.93,7.51,7.51,0,0,1-1-1.14C285.89,108.84,286.22,108.45,286.36,108.18Z"/><path class="cls-28" d="M271,124.77l-2.74-.68Z"/><path class="cls-11" d="M285.89,116.11a6.83,6.83,0,0,1,.65,1.43,5.8,5.8,0,0,1-1-.75C285.48,116.74,285.77,116.35,285.89,116.11Z"/><path class="cls-29" d="M264.34,138.79l2.25.59a2.4,2.4,0,0,1-1.16.44A4.11,4.11,0,0,1,264.34,138.79Z"/><path class="cls-30" d="M256.52,83.17l5.82,1.55c.37.66.74,1.31,1.1,2-.47,1.79-.66,3.7-2.19,5-.37.89-2.08-.75-2,1a3,3,0,0,1,2.46,2,3.09,3.09,0,0,1-.79,2.19,3.87,3.87,0,0,1-3.43.89C251.18,93.3,252.46,88.33,256.52,83.17Z"/><path class="cls-31" d="M247.82,110.79l-8.91-11.74c6.17-.36,8.48,3,10.77,6.29a2,2,0,0,1,1.3.92c.28.47.37.74.28.79a15.53,15.53,0,0,1-1.25,3.56l-1,.72Z"/><path class="cls-32" d="M242.26,114.33l-2.94-.76a4.95,4.95,0,0,1-3.12-3c-.14-1.14.43-2.16.5-3.27a7.89,7.89,0,0,1,.08-2.17l0-.14a1.45,1.45,0,0,1,1.84-1L242,109.6a3.25,3.25,0,0,0,.2,2.39A2.46,2.46,0,0,1,242.26,114.33Z"/><path class="cls-33" d="M250,107.19a4.54,4.54,0,0,0-.31-1.85c1.83-1.51,3.84-2.47,6.3-2a2.14,2.14,0,0,1,1.59,2.46,3.8,3.8,0,0,1-4.12,1.95c-.55.37-1.1.75-1.64,1.14l-1,.27A2.75,2.75,0,0,1,250,107.19Z"/><path class="cls-34" d="M254.48,122.06l-1.83,1.2-1.18-1.85c-1.6-3.4-5-6.18-3.65-10.61l.44.48c.76-.1,1.2.08,1.31.54s.09.79-.09.9Z"/><path class="cls-35" d="M257.1,105.51,256,103.33l5.57-3-.05.41q1.13-.06,1.26.63c.09.49.06.78-.12.89L260,106.45c-.23.41-.47.82-.71,1.23l-1.41.13A1.69,1.69,0,0,1,257.1,105.51Z"/><path class="cls-36" d="M245.6,119.88c-1.12.43-2.57,1.44-3.15-.22-.32-.94.59-2.31,1-3.49Z"/><path class="cls-37" d="M257.49,97.76l3.7-2.29a1.27,1.27,0,0,1,1.86-.94c.38.6.75,1.19,1.11,1.79v0l-3.71,2.22Z"/><path class="cls-38" d="M230.35,111.37a17.73,17.73,0,0,1-.81-2,15.28,15.28,0,0,0,1.64-1,3.64,3.64,0,0,1,2.36,1.89c.1,1.11-.15,2.28-1.16,2.65S230.53,112.55,230.35,111.37Z"/><path class="cls-39" d="M237.13,109.73l1.11,2a1.33,1.33,0,0,1-1.88,1l0,0c-1.56,0-2.11-1.15-2.52-2.41l.41-1.22c.58-.36,1.17-.73,1.74-1.11l1.33.36C237.28,108.83,237.21,109.28,237.13,109.73Z"/><path class="cls-40" d="M249.65,122.48l-4.07-2.61Z"/><path class="cls-41" d="M242.26,114.33c-.35-.62-.7-1.23-1.07-1.85a1.35,1.35,0,0,1,1.83-1.13c.12,1.61.25,3.23.37,4.84C243,115.57,242.64,115,242.26,114.33Z"/><path class="cls-42" d="M243,111.35c-.61.39-1.21.76-1.83,1.13l.75-2.88C242.31,110.18,242.66,110.76,243,111.35Z"/><path class="cls-43" d="M236.78,105.15c.37.56.73,1.14,1.08,1.72A1.32,1.32,0,0,1,236,108h0Z"/><path class="cls-44" d="M232.37,110.17c-.39-.6-.79-1.19-1.19-1.77l3.09.72,0,0C234.12,110.4,233.49,110.74,232.37,110.17Z"/><path class="cls-45" d="M238.64,104c-.61.35-1.22.7-1.84,1C236.87,103.69,237.52,103.41,238.64,104Z"/><path class="cls-46" d="M232.37,110.17l1.87-1c.71,1.2,1.43,2.4,2.15,3.6-7.39,4.82.85,10.41-.77,15.52l-5.53-9.12c-.38-.76-.76-1.53-1.13-2.3.46-1.83.93-3.66,1.39-5.49C231.55,111.86,232.24,111.49,232.37,110.17Z"/><path class="cls-47" d="M249.1,138.49q-1.32-2-2.65-4l2-1.29c.95.41,2.19-.4,3,.71l-.76,3.1A1.52,1.52,0,0,1,249.1,138.49Z"/><path class="cls-48" d="M250,127.27l.65-2.79c.75,0,1.17.31,1.29.8s.1.81-.06.9v0c-.16.44-.33.87-.5,1.3Z"/><path class="cls-1" d="M251.88,126.18a8.86,8.86,0,0,0-1.23-1.7l2-1.24C252.39,124.22,252.13,125.2,251.88,126.18Z"/><path class="cls-49" d="M236.36,112.8l1.88-1c.37.61.73,1.21,1.08,1.82Z"/><path class="cls-50" d="M251.05,129.11a8.81,8.81,0,0,1-1.35-1c-.1-.1.19-.58.3-.89l0-.1c.69.21,1.08.58,1.16,1.1s0,.82-.11.91Z"/><path class="cls-51" d="M251.45,133.92l-3-.71,1.88-1.12c.77.1,1.19.41,1.26.92s0,.83-.16.93Z"/><path class="cls-52" d="M251.45,133.94l-1.1-1.85,1.85-1.1c.37.62.73,1.24,1.1,1.85Z"/><path class="cls-53" d="M263.05,94.53l-1.86.94c-.37-.58-.73-1.16-1.07-1.75,1.05-2.09,1.38-4.79,4.42-5.17l4.69-.36Z"/><path class="cls-54" d="M264.54,88.55l-4.43,5.17L257.16,93A1.34,1.34,0,0,1,259,91.85l4.47-5.16Z"/><path class="cls-15" d="M276.13,86.77c.3.62.63,1.23,1,1.82a1.31,1.31,0,0,1-1.82,1.13l-.05,0C275.54,88.71,275.84,87.74,276.13,86.77Z"/><path class="cls-55" d="M270.48,90.11c-.37-.61-.72-1.24-1.05-1.87a8.81,8.81,0,0,1,1.36,1C270.89,89.31,270.59,89.8,270.48,90.11Z"/><path class="cls-9" d="M267.76,82.1a7.64,7.64,0,0,1,1,1l-2.38-.59A7.43,7.43,0,0,1,267.76,82.1Z"/><path class="cls-1" d="M253.27,132.84c2.09-1.13,4.08-2.64,6.67-1.44a13.27,13.27,0,0,1-.76,2.91l0,0a1.58,1.58,0,0,1-1.26,1.73c-1.27-.09-2.19-1-3.36-1.37Z"/><path class="cls-11" d="M257.28,135.43l1.88-1.08c.44,1.1,1.53,2.55-.16,3.14-.93.32-2.31-.64-3.48-1C255.73,135.48,256.3,135.1,257.28,135.43Z"/><path class="cls-9" d="M249.1,138.49l1.59-1.47c.37.55.73,1.11,1.07,1.67l-2.24.25Z"/><path class="cls-56" d="M257.28,135.43l-.87.54-.89.5a13.16,13.16,0,0,1-1-1.76Z"/><path class="cls-11" d="M259.18,134.31c.25-1,.51-1.94.76-2.91l1.12,1.84Z"/><path class="cls-57" d="M262.23,135.12a8.22,8.22,0,0,1,1.33.91c.1.09-.18.56-.29.86C262.9,136.31,262.55,135.72,262.23,135.12Z"/><path class="cls-58" d="M275.3,89.72l1.82-1.13c.41-.27.81-.56,1.2-.86l2.62,3.57c.09,1.36-.48,1.65-1.63,1Z"/><path class="cls-59" d="M279.31,92.31c.55-.33,1.09-.66,1.63-1l3.48,5.47-1.8,1.08Z"/><path class="cls-60" d="M262.64,102.24c-.36-.52-.74-1-1.14-1.52l3,.17Z"/><path class="cls-61" d="M264.16,96.32l.87,0h-.86Z"/><path class="cls-15" d="M280,102c-.63.3-1.26.62-1.88.94C278.28,101.65,278.92,101.37,280,102Z"/><path class="cls-62" d="M260.83,115.38c-.37-.45-.72-.92-1-1.4s-.63-1-1-1.51a2.69,2.69,0,0,1,1.93-3,3.26,3.26,0,0,1,2.51.41,3.43,3.43,0,0,1,.54,2.49,3.69,3.69,0,0,1-1.59,2A10.14,10.14,0,0,0,260.83,115.38Z"/><path class="cls-63" d="M262.3,110l-3.49,2.47-2.49-4c0-1.1.6-1.41,1.6-1.06l.52-.1a15.5,15.5,0,0,1,2.22.71l.66.1A1.49,1.49,0,0,1,262.3,110Z"/><path class="cls-33" d="M249.48,112.72a8.78,8.78,0,0,1-1.22-1.44,5.86,5.86,0,0,0,1.16-1.72,1.15,1.15,0,0,1,1.55-.88l.84.2a17.47,17.47,0,0,0,.9,1.91c-.09,1-.64,1.35-1.6,1.08Z"/><path class="cls-64" d="M257.92,107.41c-.53.36-1.06.72-1.6,1.06l-2.87-.73,3.65-2.23A7.64,7.64,0,0,1,257.92,107.41Z"/><path class="cls-65" d="M253.69,112.49h.88l-.9,0Z"/><path class="cls-66" d="M251.11,111.87a7.69,7.69,0,0,1,1.59-1.08l1,1.7,0,0Z"/><path class="cls-22" d="M262.2,114.39l1-2.65c.83.09,1.29.4,1.38,1s.05.89-.14,1c.37.61.73,1.22,1.07,1.85v0a1.33,1.33,0,0,1-1.88,1.11Z"/><path class="cls-67" d="M263.68,116.61l1.88-1.11,1.1,1.87Z"/><path class="cls-1" d="M251.07,129.18l-1-2a14.15,14.15,0,0,0,1.85-1C251.6,127.2,251.34,128.19,251.07,129.18Z"/><path class="cls-68" d="M263,107c.05-1.28.65-1.65,1.81-1.1l-.46,1.28Z"/><path class="cls-69" d="M262.3,110a5.93,5.93,0,0,1-1-1.88c.55-.4,1.11-.78,1.69-1.14v0a1.57,1.57,0,0,1,1.2,1.07c.15.52.15.81,0,.89a1.57,1.57,0,0,1-2,1Z"/><path class="cls-70" d="M260.66,108l-2.22-.71a15.64,15.64,0,0,1,1.55-.86A3.78,3.78,0,0,1,260.66,108Z"/><path class="cls-71" d="M264,108.8c-.32-.61-.67-1.21-1-1.8l1.81-1.12c.38.63.76,1.26,1.15,1.89l0,0-.5,1.35Z"/><path class="cls-19" d="M262.19,110,264,108.8l.16.21c.72.1,1.13.39,1.2.88s0,.79-.12.89c-.27,1-.53,1.94-.8,2.92-.41-.66-.82-1.31-1.24-2S262.57,110.55,262.19,110Z"/><path class="cls-72" d="M265.28,110.78q-.55-.89-1.08-1.77a20.89,20.89,0,0,1,1.74-1.22Z"/><path class="cls-73" d="M259,91.85c-.6.39-1.2.77-1.81,1.14C257.19,91.71,257.77,91.29,259,91.85Z"/><path class="cls-34" d="M251,108.68l-.73.52-.82.36.57-2.37A6.1,6.1,0,0,1,251,108.68Z"/><path class="cls-74" d="M236,108l1.86-1.14c-.24.95-.49,1.91-.73,2.87C236.74,109.17,236.36,108.6,236,108Z"/></svg>