<svg id="Слой_1" data-name="Слой 1" xmlns="http://www.w3.org/2000/svg" viewBox="0 0 370 370"><defs><style>.cls-1{fill:#302416;}.cls-2{fill:#2b1a0d;}.cls-3{fill:#261a0b;}.cls-4{fill:#130301;}.cls-5{fill:#2d1e0f;}.cls-6{fill:#1b0d03;}.cls-7{fill:#130200;}.cls-8{fill:#0c0201;}.cls-9{fill:#010000;}.cls-10{fill:#0f0200;}.cls-11{fill:#251a0f;}.cls-12{fill:#0b0800;}.cls-13{fill:#0d0100;}.cls-14{fill:#030000;}.cls-15{fill:#2c1f11;}.cls-16{fill:#2a1d0f;}.cls-17{fill:#817a74;}.cls-18{fill:#1d1302;}.cls-19{fill:#6e6862;}.cls-20{fill:#7c7169;}.cls-21{fill:#827c76;}.cls-22{fill:#716b65;}.cls-23{fill:#887d76;}.cls-24{fill:#433428;}.cls-25{fill:#2c1f0f;}.cls-26{fill:#7f7a71;}.cls-27{fill:#2e1c0c;}.cls-28{fill:#170400;}.cls-29{fill:#0f0000;}.cls-30{fill:#332215;}.cls-31{fill:#1c0e02;}.cls-32{fill:#281e0f;}.cls-33{fill:#746b64;}.cls-34{fill:#322418;}.cls-35{fill:#695d54;}.cls-36{fill:#1a0f04;}.cls-37{fill:#1f1405;}.cls-38{fill:#483027;}.cls-39{fill:#3a2519;}.cls-40{fill:#130d02;}.cls-41{fill:#181205;}.cls-42{fill:#302c1c;}.cls-43{fill:#362820;}.cls-44{fill:#150200;}.cls-45{fill:#190904;}.cls-46{fill:#2b140a;}.cls-47{fill:#2b2416;}.cls-48{fill:#685f53;}.cls-49{fill:#1a0c01;}.cls-50{fill:#0a0300;}.cls-51{fill:#190900;}.cls-52{fill:#382918;}.cls-53{fill:#372d1d;}.cls-54{fill:#281909;}.cls-55{fill:#140300;}.cls-56{fill:#38301c;}.cls-57{fill:#352319;}.cls-58{fill:#140500;}.cls-59{fill:#1e0f05;}.cls-60{fill:#4b3c32;}.cls-61{fill:#1d0d00;}.cls-62{fill:#a49b98;}.cls-63{fill:#706964;}.cls-64{fill:#85807c;}.cls-65{fill:#837d77;}.cls-66{fill:#8b8881;}.cls-67{fill:#8c8883;}.cls-68{fill:#69665f;}.cls-69{fill:#96928b;}.cls-70{fill:#4e4642;}.cls-71{fill:#7b7670;}.cls-72{fill:#6d6761;}.cls-73{fill:#3c2d1e;}.cls-74{fill:#0a0402;}</style></defs><title>Монтажная область 1</title><circle cx="185" cy="185" r="33"/><path class="cls-1" d="M179.77,215.8l-4.3-2.21c.13-.43.26-.87.38-1.31a10,10,0,0,1,1.74-2.15c2.09-2.44,3.74-5.39,7.21-6.23,1.45-.08,2.44,1,3.64,1.51s2-.35.54-.23-.25-1.72-.76-.38c-.88-.58-1.57-1.36-2.65-1.51a17.2,17.2,0,0,0-3.42,1.15,7.23,7.23,0,0,1-5.22-1.07c-3.69-3.25-6.06-6.77-2.3-11.5a6.33,6.33,0,0,1,2.51-1.35,5.81,5.81,0,0,1,2.64.36c1.31.84,2.15,2.3,3.65,3,.8.12,1.57.25,2.38.32a8.75,8.75,0,0,0,3.8-.7,6.69,6.69,0,0,0,2.66-2.82c.77-2,.76-4.18,1.23-6.26.7-2.22,1.35-4.46,3.38-5.9,5.05-.65,5,4.5,7.62,6.64a12.58,12.58,0,0,0,2.4,2.27,7,7,0,0,0,3.11-.94,6.72,6.72,0,0,1,2.55-.4,4.25,4.25,0,0,1,3.26,2.41,5.42,5.42,0,0,1-1.29,5.59v0c-.88.89-1.5,2-2.4,2.85a3.06,3.06,0,0,0-1,1.87,4,4,0,0,1-1.62,2.67,8.68,8.68,0,0,0-2,2.4c-.45,1-.61,2.1-1,3.15-.29.3-.58.58-.89.87-.77.5-1.5,1-2.23,1.54C196.13,213.85,189.1,219.05,179.77,215.8Z"/><path class="cls-2" d="M157.72,167.79c2.43-6.25,8-8.36,13.66-10.34,1.39,1.33,2.78.41,4.16,0,6.2-3.33,13-1.76,19.47-2.24a4.12,4.12,0,0,1,4.48,2.05,6.66,6.66,0,0,1-1.49,3.91c-2.32,3-6.43,5.15-4.68,10.06a11.41,11.41,0,0,1,.41,4.23,5.27,5.27,0,0,1-1.68,2.37,8.27,8.27,0,0,1-5.83.79c-2.41-.67-4.79-1.43-6.65-3.24a5.62,5.62,0,0,1-.95-2.81c-1,.82-.34,1.94-.54,2.91-.27,1.31-.45,2.65-.74,4-1.15,3.18-.49,6.84-2.57,9.77a3.74,3.74,0,0,1-2.51,1.29,5.18,5.18,0,0,1-3.45-2.41,11,11,0,0,1-1.21-2.54,10.44,10.44,0,0,1-.3-2.73,14.56,14.56,0,0,1,.4-2.62,26,26,0,0,0,.69-3.83c0-.84.08-1.68.16-2.51a11.56,11.56,0,0,1,.7-3.32c.22-.52.45-1.07.65-1.57a6.77,6.77,0,0,1-1.31,1.26,4.48,4.48,0,0,1-1.85.86,7.54,7.54,0,0,1-2.17.1,21.09,21.09,0,0,1-3.35-.65,9,9,0,0,1-2.17-.87A3.54,3.54,0,0,1,157.72,167.79Z"/><path class="cls-3" d="M171.33,189.64h2.12l.82.87c0,.4,0,.8,0,1.19a8.74,8.74,0,0,1-1.32,1.92c-.54.53-1.07,1.08-1.56,1.66-.29.72-.61,1.42-.91,2.14a5.83,5.83,0,0,1-1.45,1.89,8.05,8.05,0,0,1-2.21,1,13,13,0,0,1-2.41.32,12,12,0,0,1-2.4-.12,17.47,17.47,0,0,0-3.54-.32c-2.89-2.94-4.57-6.38-4.31-10.6.95-1,1.19-2.4,1.67-3.65.61-4.88-.79-10.67,5.8-12.85a7.76,7.76,0,0,1,2.76,0,8.69,8.69,0,0,1,3.47,2.11,9.3,9.3,0,0,1,1.93,3.44,2.4,2.4,0,0,1-.64,2.34v0c-1.21,1.44-1.74,2.88,0,4.31h0C170.42,186.49,170.05,188.48,171.33,189.64Z"/><path class="cls-4" d="M195,155.2c-6.62,4.19-14.77.76-21.52,4.3a1.94,1.94,0,0,1-.65-1.67c.08-.61.2-.92.34-.92l-.2-.06c1.23.27,1.75-.95,2.69-1.28C182.07,153,188.5,152,195,155.2Z"/><path class="cls-5" d="M211.79,168.11a1.35,1.35,0,0,1,.67,1.63,9.72,9.72,0,0,1,.67,2.25,7.06,7.06,0,0,1-1,2.15,6.08,6.08,0,0,1-3.08,1.7,3.5,3.5,0,0,1-3.78-2c-.77-.67,1.58-1.68-.27-2.25a12,12,0,0,1-2-1.05,7.77,7.77,0,0,1-2.56-2.57,6.19,6.19,0,0,1-.42-2.52,5.18,5.18,0,0,1,1.12-2.32,4.8,4.8,0,0,1,3.65-.86,8.5,8.5,0,0,1,3.2,1.78c.69.91,1.07,2,2,2.76A3.61,3.61,0,0,1,211.79,168.11Z"/><path class="cls-6" d="M170.81,211.4a1.33,1.33,0,0,1-1.68-.84,3.77,3.77,0,0,1-1.91-1.61l-.14-.09c-.86-.55-1.49-1.39-2.41-1.87l.07.06a8.14,8.14,0,0,1-1.09-2.4,4.65,4.65,0,0,1,.26-2.58,5.9,5.9,0,0,1,1.81-1.81l1.13-.54,1.19-.25c.38.06.78.12,1.16.16a5.5,5.5,0,0,1,1.56,1.48c.38.51.74,1.07,1.1,1.59a3.5,3.5,0,0,0,1.65.83,5.58,5.58,0,0,1,2.05.4c.32.22.61.44.92.68l.61,1a7.41,7.41,0,0,1,.43,2.46,6.77,6.77,0,0,1-.77,2.48,5,5,0,0,1-2.15,1.52C173.26,212.29,171.92,212.5,170.81,211.4Z"/><path class="cls-7" d="M206.17,163.82l-4.62-.15a4.21,4.21,0,0,1-4.22-4.3l2.16-2.12,8.43,4.4.78,1.11c-.12.43-.23.87-.35,1.31l-1.18.66Z"/><path class="cls-7" d="M217,178.75l-.08,8.82c.22,2.24.22,3.21-.74,5.13-.55.31-1,1.31-1.61,1.34q-.24-3.28-.47-6.59a22.08,22.08,0,0,1-1.64-2.4,11.93,11.93,0,0,1-.65-5.8,7.72,7.72,0,0,1,1.72-4c.43-.24.29-1.54.72-1.77.56,0,1.41,1.72,1.93,1.92A7.8,7.8,0,0,1,217,178.75Z"/><path class="cls-8" d="M156.32,187.44c-.71.73-1.43,1.45-2.14,2.17-1.26-4.3-1.91-8.59.14-12.86a1.86,1.86,0,0,1,2.82.73C157.07,180.82,158.18,184.25,156.32,187.44Z"/><path class="cls-7" d="M207.88,200.41l1.9-2.3a1.47,1.47,0,0,1,.41-2l4.33-2.09c.45,3.78-2,6.21-4.14,8.74a2.26,2.26,0,0,1-2.68.25A1.9,1.9,0,0,1,207.88,200.41Z"/><path class="cls-9" d="M158.49,200.21c.12-3.14,1.7-3.21,3.95-1.87a3.18,3.18,0,0,1,1.7,3.25c-.22.85-.4,1.71-.55,2.58l-1,.85-2.07-2.35c-.65-.77-1.32-1.53-1.95-2.33Z"/><path class="cls-10" d="M157.72,167.79l3,.33a3.67,3.67,0,0,1,.65,2.89c-1.35,2-2,5.08-5.63,3.54a4.64,4.64,0,0,1,.09-3C155.85,170,156,168.5,157.72,167.79Z"/><path class="cls-11" d="M173.45,213.81a1.48,1.48,0,0,0-1.75-.64,14.64,14.64,0,0,0-.89-1.77l4.83-.21.62.59-.23.83a4.35,4.35,0,0,0-.56,1C174.79,213.65,174.12,213.72,173.45,213.81Z"/><path class="cls-3" d="M155.85,171.54l.58,2.68a1.74,1.74,0,0,1-.21,2.56l-1.9,0C154,174.77,154.13,172.93,155.85,171.54Z"/><path class="cls-12" d="M210,168l-2.07-2.5-.36-1.33.48-.49,1.06-.68.83.94a10.36,10.36,0,0,0,.16,2.08c.62.47.82.92.58,1.35S210.19,168,210,168Z"/><path class="cls-2" d="M175.67,155.57,173,156.85Z"/><path class="cls-13" d="M173.18,156.91c.1.86.21,1.73.31,2.59l-2.11-2.05A1.33,1.33,0,0,1,173.18,156.91Z"/><path class="cls-14" d="M213.94,172.47l.86,2.05-.5-.48-.56.4a1.46,1.46,0,0,1-2.07.1,1.71,1.71,0,0,1,.67-2.06h0Q213.13,171.29,213.94,172.47Z"/><path class="cls-15" d="M213.94,172.47l-.81.05-.81-.05c0-.91.09-1.82.14-2.73Z"/><path class="cls-3" d="M158.56,200.34l1.95,2.33A2.09,2.09,0,0,1,158.56,200.34Z"/><path class="cls-11" d="M164.86,204.66l-.12,2.39-2.16-2a1.21,1.21,0,0,1,.22-1.32A1.93,1.93,0,0,1,164.86,204.66Z"/><path class="cls-15" d="M210,168a8.74,8.74,0,0,1,.1-2l1.72,2.06C211.18,168.11,210.58,168.08,210,168Z"/><path class="cls-11" d="M164.67,207l2.41,1.87Z"/><path class="cls-11" d="M167.22,209l1.91,1.61Z"/><path class="cls-16" d="M205.78,172.47l4.32,2.08,1,.81a10.32,10.32,0,0,1,2.2,4.53,22.66,22.66,0,0,1-.2,5.14c-.69,1.18-2,1.61-3,2.46,0,.72,0,1.43-.05,2.14a2.19,2.19,0,0,1-2,.71,2.37,2.37,0,0,1-1.18-1.7c-.4-1.25-1,.19-1.49-.1a1.89,1.89,0,0,1-1.74-1c-4.33-1.18-3.45-6.55-6.83-8.5a1.94,1.94,0,0,1-2.13.58,4.64,4.64,0,0,1-1.67-1.71l-.15-1.21q0-1,0-2.1a2.75,2.75,0,0,1,3-1c.2-.1.66.41.47.16-.87-1.12.8.07,0-1.16a5.15,5.15,0,0,1,1.55-2c2.55-1,5.08-2.16,7.76-.4l.15.14a1.31,1.31,0,0,1,.47,1.45C206.13,172.23,206,172.47,205.78,172.47Z"/><path class="cls-11" d="M175.68,206.93l-.05-2.21a2.39,2.39,0,0,1,2.13-2.13h6.5a1.34,1.34,0,0,1,.48,1.43c-.16.47-.33.71-.49.71-1.85,3.12-2.41,7.35-7,8.1a12.63,12.63,0,0,1-1.62-1.65l0,0c0-.74,0-1.47,0-2.21.56-.45.74-.91.56-1.36S175.87,206.93,175.68,206.93Z"/><path class="cls-17" d="M177.81,191.59a15.29,15.29,0,0,1-2.14.15l-.92-1a76.54,76.54,0,0,1-.17-8,4,4,0,0,1,.82-2.22,2.64,2.64,0,0,1,2.14-.25c.2.29.42.58.63.85a6,6,0,0,1,1-2,4.45,4.45,0,0,1,2.07-1.11,4.92,4.92,0,0,1,2.39.7,6.79,6.79,0,0,1,2.33,3.2,7.89,7.89,0,0,1,0,4.23,6.91,6.91,0,0,1-1.57,2.45C182.53,190.3,179.6,189.7,177.81,191.59Z"/><path class="cls-18" d="M184.25,204.72c0-.71,0-1.43,0-2.14l2.26-2,2,2c1.19,2,3.73-2.35,4.86,1.14.82,2.53-.11,4-1.91,5.33-2.22,1.63-2.86-.52-4-1.71A28.1,28.1,0,0,0,184.25,204.72Z"/><path class="cls-19" d="M190.91,196.2c-2.2,2.43-4.4.92-6.6,0a1.32,1.32,0,0,0-2.21,0c-4,.42-1.54-2.72-2.27-4.1-1.55-2.9.8-3,2.52-3.49a21.16,21.16,0,0,0,2.75-.27,5.21,5.21,0,0,1,2.42,1.11,14.64,14.64,0,0,1,2.36,3.12A8.53,8.53,0,0,1,190.91,196.2Z"/><path class="cls-6" d="M177.76,202.59l-2.13,2.13h0a7.63,7.63,0,0,0-2.07-1.59,8.37,8.37,0,0,1-4.42-2.74l0,0q-2-1.07,0-2.15l0-2.21.3-1a5.82,5.82,0,0,1,1.38-1.59l.87-.59a4.19,4.19,0,0,0,1.82-1v0c.67-1.3,1.4-1.33,2.19-.1h0C173.38,195.93,177.13,199,177.76,202.59Z"/><path class="cls-20" d="M195.1,178.66c.58.14,1.16.26,1.75.35-.07,2.24.33,4.57-1.42,6.43l-.76.77-1.07,0a4.38,4.38,0,0,1-1.75-1.15,9.09,9.09,0,0,0-3-1.14c-.34-.23-.65-.47-1-.72s-.34-.75-.52-1.13a5,5,0,0,1,.34-2.54c1.2-1.76,3-1.71,4.83-1.68A4.59,4.59,0,0,1,195.1,178.66Z"/><path class="cls-21" d="M192.87,185.34l2.55.1c.27,2.16,2.18,4.39-.24,6.44a5.49,5.49,0,0,1-5.34,1.06,4.53,4.53,0,0,1-2-2,5.3,5.3,0,0,1,1.2-4,6.76,6.76,0,0,1,2.37-1.53Z"/><path class="cls-22" d="M188.55,191.81l6.63.07-4.27,4.32L188.56,194l-.93-1.07Z"/><path class="cls-23" d="M184.57,189.25l-4.74,2.85a3.28,3.28,0,0,1-2-.51c.48-4.12,3.53-4.09,6.58-4.07l.63.81Z"/><path class="cls-24" d="M203.68,187.51c.71,0,1.41,0,2.12-.06a1.26,1.26,0,0,1,2.1.16c0,.68,0,1.36,0,2,.61.5.79,1,.57,1.45s-.44.69-.65.69C205.22,191.57,203.75,190.22,203.68,187.51Z"/><path class="cls-15" d="M210.11,187.49l2.16-2.16q1-2,2.08,0c-.09.71-.19,1.42-.29,2.14Z"/><path class="cls-25" d="M208.16,202.7l-2.36,2-.24-.48-.51-.85.69-.71,2.14-2.28C208,201.17,208.07,201.94,208.16,202.7Z"/><path class="cls-15" d="M207.85,191.78c0-.71.07-1.42.08-2.14h2.13Z"/><path class="cls-26" d="M182.1,196.2c.74-1.14,1.47-1.1,2.21,0Z"/><path class="cls-27" d="M210.19,196.11a4,4,0,0,1-.41,2,7.52,7.52,0,0,1-.33-1.52C209.45,196.44,209.93,196.28,210.19,196.11Z"/><path class="cls-28" d="M188.53,202.54l-2-2Z"/><path class="cls-11" d="M205.74,202.69a6.79,6.79,0,0,1-.18,1.56,6.36,6.36,0,0,1-.48-1.15C205.06,203,205.51,202.83,205.74,202.69Z"/><path class="cls-29" d="M175.62,211.17l1.63,1.65a2.36,2.36,0,0,1-1.23-.21A4.55,4.55,0,0,1,175.62,211.17Z"/><path class="cls-30" d="M197.33,159.37l4.21,4.31c0,.75,0,1.5-.06,2.25-1.32,1.3-2.46,2.84-4.43,3.16-.77.58-1.4-1.71-2.24-.14a3,3,0,0,1,1.1,3,3.08,3.08,0,0,1-1.8,1.48,3.88,3.88,0,0,1-3.41-1C187.56,165.34,191.21,161.73,197.33,159.37Z"/><path class="cls-31" d="M175.73,178.66c-.5-4.45-1-8.9-1.65-14.65,5.49,2.85,5.77,6.88,6,10.92a2,2,0,0,1,.65,1.45c0,.55-.06.82-.16.82a15.22,15.22,0,0,1-2.9,2.42l-1.26.08Z"/><path class="cls-32" d="M169.15,178.86,167,176.7a3.77,3.77,0,0,1-1-1.95,3.87,3.87,0,0,1-.11-2.21c.47-1,1.48-1.63,2.1-2.55a8.41,8.41,0,0,1,1.18-1.83l.09-.1a1.44,1.44,0,0,1,2.11.06l0,6.51a3.27,3.27,0,0,0-1.05,2.16A2.47,2.47,0,0,1,169.15,178.86Z"/><path class="cls-33" d="M179.44,176.68a4.47,4.47,0,0,0,.68-1.75c2.35-.36,4.56-.16,6.44,1.49a2.14,2.14,0,0,1,.11,2.93,3.8,3.8,0,0,1-4.53-.43c-.67,0-1.34.08-2,.14l-1-.3A2.8,2.8,0,0,1,179.44,176.68Z"/><path class="cls-34" d="M175.7,191.75l-2.19.09-.06-2.19c.36-3.74-1.16-7.88,2.28-11l.14.64c.7.31,1,.68.84,1.13s-.33.73-.53.73Z"/><path class="cls-35" d="M186.41,178.86l.15-2.44,6.34.25-.26.33c.67.35.92.75.76,1.19s-.35.69-.55.69l-4.43,2.27-1.24.69-1.28-.61A1.68,1.68,0,0,1,186.41,178.86Z"/><path class="cls-36" d="M169.18,185.33c-1.18-.19-3-.07-2.59-1.8.2-1,1.68-1.68,2.59-2.51Z"/><path class="cls-37" d="M190.7,172.4l4.36-.07a1.26,1.26,0,0,1,2.08.14c0,.71,0,1.41,0,2.11l0,0h-4.33Z"/><path class="cls-38" d="M160.43,170.22a16.35,16.35,0,0,1,.31-2.1,15.19,15.19,0,0,0,1.91,0,3.63,3.63,0,0,1,1.07,2.84c-.48,1-1.3,1.88-2.35,1.68S160,171.33,160.43,170.22Z"/><path class="cls-39" d="M167.09,172.29l-.08,2.3a1.33,1.33,0,0,1-2.15-.06l0,0c-1.32-.84-1.22-2.07-.93-3.36l1-.84,2.07-.06.95,1Z"/><path class="cls-40" d="M171.33,189.64l-2.16-4.32Z"/><path class="cls-41" d="M169.15,178.86c0-.71,0-1.42,0-2.14a1.35,1.35,0,0,1,2.15,0c-.71,1.45-1.43,2.91-2.15,4.36C169.16,180.31,169.16,179.59,169.15,178.86Z"/><path class="cls-42" d="M171.32,176.68c-.71,0-1.43,0-2.15,0l2.13-2.09C171.31,175.32,171.32,176,171.32,176.68Z"/><path class="cls-43" d="M169.13,168.16c0,.68.05,1.35.05,2a1.31,1.31,0,0,1-2.18,0l0,0Z"/><path class="cls-44" d="M162.78,170.22c0-.71-.08-1.42-.13-2.13l2.3,2.21h0C164.16,171.32,163.45,171.29,162.78,170.22Z"/><path class="cls-45" d="M171.33,168.12c-.7,0-1.41,0-2.11-.06C170,167,170.66,167,171.33,168.12Z"/><path class="cls-46" d="M162.78,170.22l2.12.08c0,1.4,0,2.8,0,4.2-8.81.37-4.6,9.38-8.59,12.95q0-5.34-.1-10.68c.07-.84.14-1.69.2-2.54l4-4C161.21,171.26,162,171.29,162.78,170.22Z"/><path class="cls-47" d="M162.68,203.12l-.24-4.79,2.39-.07c.61.84,2.09.77,2.2,2.13l-2.24,2.28A1.5,1.5,0,0,1,162.68,203.12Z"/><path class="cls-48" d="M169.19,193.93l2-2.06c.62.42.85.86.7,1.35s-.33.74-.52.74v0c-.37.28-.73.57-1.09.86Z"/><path class="cls-1" d="M171.35,194a8.17,8.17,0,0,0-.18-2.09l2.35,0Z"/><path class="cls-49" d="M164.86,174.53l2.15.06c0,.7,0,1.41,0,2.11Z"/><path class="cls-50" d="M169.15,196.05a8.14,8.14,0,0,1-.68-1.51c0-.13.46-.4.72-.61l.07-.07a1.43,1.43,0,0,1,.43,1.54c-.2.48-.39.72-.56.72Z"/><path class="cls-51" d="M167,200.39l-2.19-2.13H167c.61.48.82,1,.61,1.43s-.41.72-.61.72Z"/><path class="cls-52" d="M167,200.41v-2.15h2.15v2.15Z"/><path class="cls-53" d="M197.14,172.47l-2.08-.14c0-.69,0-1.37,0-2.06,2-1.25,3.64-3.41,6.45-2.18l4.21,2.09Z"/><path class="cls-54" d="M201.48,168.09,195,170.27l-2.16-2.13a1.32,1.32,0,0,1,2.13-.06l6.48-2.15Z"/><path class="cls-15" d="M212.34,172.48c-.05.7-.08,1.39-.07,2.08a1.31,1.31,0,0,1-2.14,0l0,0Z"/><path class="cls-55" d="M205.78,172.47c0-.72,0-1.44.06-2.15a8.57,8.57,0,0,1,.67,1.53C206.54,172,206,172.26,205.78,172.47Z"/><path class="cls-9" d="M207.54,164.2a7.69,7.69,0,0,1,.36,1.33l-1.74-1.71A6.4,6.4,0,0,1,207.54,164.2Z"/><path class="cls-1" d="M169.15,200.39c2.37.1,4.86-.18,6.47,2.18a13.85,13.85,0,0,1-2.15,2.11l0,0a1.57,1.57,0,0,1-2,.84c-1.05-.72-1.36-2-2.19-2.89Z"/><path class="cls-11" d="M171.27,204.67l2.17,0c-.19,1.18,0,3-1.75,2.62-1-.2-1.65-1.73-2.47-2.65A1.2,1.2,0,0,1,171.27,204.67Z"/><path class="cls-9" d="M162.68,203.12l2.11-.45c0,.66.06,1.33.07,2l-2.06-.94Z"/><path class="cls-56" d="M171.27,204.67l-1,0-1,0a17,17,0,0,1,.06-2C170,203.32,170.61,204,171.27,204.67Z"/><path class="cls-11" d="M173.47,204.68l2.15-2.11c0,.71,0,1.43,0,2.15Z"/><path class="cls-57" d="M175.68,206.93a8.84,8.84,0,0,1,.68,1.47c0,.12-.44.39-.69.59C175.65,208.3,175.65,207.61,175.68,206.93Z"/><path class="cls-58" d="M210.13,174.6l2.14,0q.73,0,1.47-.12l.42,4.4c-.61,1.22-1.25,1.18-1.91,0Z"/><path class="cls-59" d="M212.25,178.88l1.91,0c.07,2.16.13,4.32.2,6.48h-2.09Q212.26,182.11,212.25,178.88Z"/><path class="cls-60" d="M192.85,178.88c0-.63-.12-1.26-.2-1.89l2.45,1.67Z"/><path class="cls-61" d="M197.18,174.58l.76.41c-.25-.14-.5-.28-.74-.43Z"/><path class="cls-15" d="M207.9,187.61l-2.1-.16C206.59,186.38,207.28,186.46,207.9,187.61Z"/><path class="cls-62" d="M184.57,189.25c-.08-.57-.15-1.15-.18-1.73s0-1.2-.07-1.8a2.68,2.68,0,0,1,3.19-1.58,3.21,3.21,0,0,1,1.94,1.63,3.35,3.35,0,0,1-.81,2.42,3.61,3.61,0,0,1-2.38.91A11.92,11.92,0,0,0,184.57,189.25Z"/><path class="cls-63" d="M188.58,185.38l-4.26.34-.09-4.71c.6-.92,1.23-.91,1.91-.09l.5.18a15.05,15.05,0,0,1,1.55,1.74l.51.42A1.48,1.48,0,0,1,188.58,185.38Z"/><path class="cls-33" d="M176.18,181.16a7.86,7.86,0,0,1-.31-1.86,5.94,5.94,0,0,0,1.87-.88,1.15,1.15,0,0,1,1.78,0l.62.6a20.82,20.82,0,0,0-.2,2.09,1.09,1.09,0,0,1-1.92.12Z"/><path class="cls-64" d="M186.14,180.92c-.63,0-1.27.07-1.91.09l-2.09-2.09,4.27-.06A7.2,7.2,0,0,1,186.14,180.92Z"/><path class="cls-65" d="M179.91,183.12l.76.45-.79-.44Z"/><path class="cls-66" d="M178,181.27a7.7,7.7,0,0,1,1.92-.12c0,.66,0,1.31,0,2h0Z"/><path class="cls-22" d="M186.26,189.1l2.25-1.74c.66.5.89,1,.69,1.52s-.41.79-.63.79c0,.72,0,1.43,0,2.14l0,0a1.34,1.34,0,0,1-2.19,0Z"/><path class="cls-67" d="M186.39,191.77h2.19c0,.72,0,1.44,0,2.17Z"/><path class="cls-1" d="M169.13,196.12c0-.75.08-1.51.13-2.26a18,18,0,0,0,2.08.12Z"/><path class="cls-68" d="M190.74,183.14c.7-1.06,1.4-1.08,2.12,0l-1.06.87Z"/><path class="cls-69" d="M188.58,185.38a6.3,6.3,0,0,1,.12-2.12q1-.09,2-.12v0a1.57,1.57,0,0,1,.49,1.53c-.14.52-.29.78-.44.78a1.58,1.58,0,0,1-2.28-.17Z"/><path class="cls-70" d="M188.19,182.84l-1.55-1.74a15.06,15.06,0,0,1,1.78.05A3.88,3.88,0,0,1,188.19,182.84Z"/><path class="cls-71" d="M190.7,185.24q0-1,0-2.07l2.13,0c0,.73,0,1.47,0,2.21h0l-1.11.9Z"/><path class="cls-19" d="M188.5,185.31l2.2-.07,0,.26c.58.45.77.91.59,1.37s-.37.7-.56.7l-2.18,2.1-.06-2.31A20,20,0,0,0,188.5,185.31Z"/><path class="cls-72" d="M190.75,187.57q0-1,0-2.07c.71-.09,1.41-.14,2.13-.16Z"/><path class="cls-73" d="M195,168.08l-2.13.06C193.55,167.05,194.26,167,195,168.08Z"/><path class="cls-34" d="M179.52,178.46l-.89.07-.89-.11,1.7-1.74A5.58,5.58,0,0,1,179.52,178.46Z"/><path class="cls-74" d="M167,170.22l2.18,0-2.09,2.1Q167,171.26,167,170.22Z"/></svg>