<svg id="Слой_1" data-name="Слой 1" xmlns="http://www.w3.org/2000/svg" viewBox="0 0 370 370"><defs><style>.cls-1{fill:#302416;}.cls-2{fill:#2b1a0d;}.cls-3{fill:#261a0b;}.cls-4{fill:#130301;}.cls-5{fill:#2d1e0f;}.cls-6{fill:#1b0d03;}.cls-7{fill:#130200;}.cls-8{fill:#0c0201;}.cls-9{fill:#010000;}.cls-10{fill:#0f0200;}.cls-11{fill:#251a0f;}.cls-12{fill:#0b0800;}.cls-13{fill:#0d0100;}.cls-14{fill:#030000;}.cls-15{fill:#2c1f11;}.cls-16{fill:#2a1d0f;}.cls-17{fill:#817a74;}.cls-18{fill:#1d1302;}.cls-19{fill:#6e6862;}.cls-20{fill:#7c7169;}.cls-21{fill:#827c76;}.cls-22{fill:#716b65;}.cls-23{fill:#887d76;}.cls-24{fill:#433428;}.cls-25{fill:#2c1f0f;}.cls-26{fill:#7f7a71;}.cls-27{fill:#2e1c0c;}.cls-28{fill:#170400;}.cls-29{fill:#0f0000;}.cls-30{fill:#332215;}.cls-31{fill:#1c0e02;}.cls-32{fill:#281e0f;}.cls-33{fill:#746b64;}.cls-34{fill:#322418;}.cls-35{fill:#695d54;}.cls-36{fill:#1a0f04;}.cls-37{fill:#1f1405;}.cls-38{fill:#483027;}.cls-39{fill:#3a2519;}.cls-40{fill:#130d02;}.cls-41{fill:#181205;}.cls-42{fill:#302c1c;}.cls-43{fill:#362820;}.cls-44{fill:#150200;}.cls-45{fill:#190904;}.cls-46{fill:#2b140a;}.cls-47{fill:#2b2416;}.cls-48{fill:#685f53;}.cls-49{fill:#1a0c01;}.cls-50{fill:#0a0300;}.cls-51{fill:#190900;}.cls-52{fill:#382918;}.cls-53{fill:#372d1d;}.cls-54{fill:#281909;}.cls-55{fill:#140300;}.cls-56{fill:#38301c;}.cls-57{fill:#352319;}.cls-58{fill:#140500;}.cls-59{fill:#1e0f05;}.cls-60{fill:#4b3c32;}.cls-61{fill:#1d0d00;}.cls-62{fill:#a49b98;}.cls-63{fill:#706964;}.cls-64{fill:#85807c;}.cls-65{fill:#837d77;}.cls-66{fill:#8b8881;}.cls-67{fill:#8c8883;}.cls-68{fill:#69665f;}.cls-69{fill:#96928b;}.cls-70{fill:#4e4642;}.cls-71{fill:#7b7670;}.cls-72{fill:#6d6761;}.cls-73{fill:#3c2d1e;}.cls-74{fill:#0a0402;}</style></defs><title>5dotМонтажная область 1</title><circle cx="110.48" cy="260" r="33"/><path class="cls-1" d="M97.87,288.58l-3.63-3.19.7-1.19a9.6,9.6,0,0,1,2.2-1.65c2.62-1.86,5-4.31,8.52-4.28,1.43.29,2.13,1.53,3.16,2.36s2,.14.58-.09.18-1.74-.64-.56c-.71-.77-1.2-1.7-2.2-2.11a17.32,17.32,0,0,0-3.6.27,7.19,7.19,0,0,1-4.8-2.31c-2.79-4.05-4.22-8,.58-11.71a6.42,6.42,0,0,1,2.77-.7,5.87,5.87,0,0,1,2.47,1c1.07,1.14,1.52,2.76,2.82,3.75.75.31,1.46.63,2.23.89a8.71,8.71,0,0,0,3.86.26,6.71,6.71,0,0,0,3.26-2.08c1.24-1.77,1.76-3.87,2.73-5.77,1.22-2,2.4-4,4.72-4.9,5.06.61,3.77,5.6,5.76,8.31a12.71,12.71,0,0,0,1.78,2.79,7,7,0,0,0,3.24-.16,7,7,0,0,1,2.57.24,4.24,4.24,0,0,1,2.57,3.14,5.4,5.4,0,0,1-2.62,5.1v0c-1.08.65-2,1.57-3,2.18a3,3,0,0,0-1.46,1.55,4,4,0,0,1-2.23,2.2,8.61,8.61,0,0,0-2.48,1.84c-.68.87-1.1,1.89-1.75,2.81l-1.07.63c-.87.29-1.7.6-2.54.95C114.21,290.7,106.12,294,97.87,288.58Z"/><path class="cls-2" d="M88.24,236.63c3.89-5.47,9.81-6.15,15.79-6.68,1,1.63,2.58,1.08,4,1,6.82-1.71,13,1.47,19.43,2.59a4.14,4.14,0,0,1,3.84,3.08,6.77,6.77,0,0,1-2.4,3.44c-3,2.33-7.5,3.41-7,8.6a11.33,11.33,0,0,1-.64,4.2,5.2,5.2,0,0,1-2.21,1.89,8.22,8.22,0,0,1-5.84-.66c-2.18-1.24-4.3-2.56-5.66-4.77a5.69,5.69,0,0,1-.23-3c-1.13.55-.8,1.79-1.23,2.68-.59,1.21-1.08,2.46-1.7,3.66-1.88,2.8-2.14,6.51-4.88,8.84a3.73,3.73,0,0,1-2.75.64A5.2,5.2,0,0,1,94,259a8.33,8.33,0,0,1-.17-5.48,14.14,14.14,0,0,1,1-2.45,26.24,26.24,0,0,0,1.6-3.54c.21-.81.49-1.61.77-2.39a11.84,11.84,0,0,1,1.49-3c.34-.45.7-.93,1-1.36a6.65,6.65,0,0,1-1.57.9,4.51,4.51,0,0,1-2,.38,7.41,7.41,0,0,1-2.14-.44A22.1,22.1,0,0,1,91,240.15a9.17,9.17,0,0,1-1.89-1.38A3.62,3.62,0,0,1,88.24,236.63Z"/><path class="cls-3" d="M96.09,261.15l2,.53.58,1-.27,1.16a8.46,8.46,0,0,1-1.74,1.53c-.65.39-1.3.79-1.93,1.23-.45.63-.93,1.24-1.4,1.86A5.87,5.87,0,0,1,91.51,270a8.07,8.07,0,0,1-2.39.43,11.5,11.5,0,0,1-2.41-.28,12.22,12.22,0,0,1-2.3-.7,17.55,17.55,0,0,0-3.35-1.18,13.46,13.46,0,0,1-1.59-11.33c1.18-.77,1.74-2,2.51-3.13,1.79-4.58,1.85-10.53,8.77-11a7.57,7.57,0,0,1,2.67.72,8.75,8.75,0,0,1,2.85,2.89,9.17,9.17,0,0,1,1,3.81,2.4,2.4,0,0,1-1.2,2.11h0c-1.53,1.09-2.39,2.36-1.05,4.18l0,0C96,257.87,95.14,259.71,96.09,261.15Z"/><path class="cls-4" d="M127.49,233.55c-7.45,2.44-14.51-2.87-21.93-1.1a2,2,0,0,1-.22-1.78c.23-.57.42-.84.56-.8l-.18-.11c1.12.56,1.92-.49,2.92-.58C115.48,228.22,122,228.86,127.49,233.55Z"/><path class="cls-5" d="M140.6,250.18a1.35,1.35,0,0,1,.24,1.74,9.73,9.73,0,0,1,.1,2.35,6.84,6.84,0,0,1-1.51,1.83,6,6,0,0,1-3.4.9,3.5,3.5,0,0,1-3.18-2.83c-.59-.84,1.94-1.25.29-2.25a12.15,12.15,0,0,1-1.69-1.51,7.7,7.7,0,0,1-1.85-3.12,6.11,6.11,0,0,1,.21-2.55,5.27,5.27,0,0,1,1.65-2,4.83,4.83,0,0,1,3.75.07,8.5,8.5,0,0,1,2.66,2.51c.45,1,.54,2.25,1.31,3.17A3.74,3.74,0,0,1,140.6,250.18Z"/><path class="cls-6" d="M90.26,282.12a1.34,1.34,0,0,1-1.43-1.23,3.82,3.82,0,0,1-1.45-2l-.12-.11c-.69-.75-1.1-1.72-1.87-2.41l.06.07a7.86,7.86,0,0,1-.48-2.58,4.65,4.65,0,0,1,.89-2.44,5.8,5.8,0,0,1,2.19-1.32l1.23-.24,1.21.05c.36.14.73.3,1.09.43a5.79,5.79,0,0,1,1.15,1.82c.25.59.46,1.22.68,1.82a3.61,3.61,0,0,0,1.39,1.2,5.3,5.3,0,0,1,1.89.89c.26.29.48.58.73.88s.23.75.35,1.14a7.67,7.67,0,0,1-.19,2.48,6.82,6.82,0,0,1-1.35,2.22,5.12,5.12,0,0,1-2.46.94C92.41,283.58,91.06,283.46,90.26,282.12Z"/><path class="cls-7" d="M136.19,244.64l-4.45-1.27a4.21,4.21,0,0,1-3-5.21l2.62-1.53,7.09,6.34.49,1.26-.66,1.19-1.31.35Z"/><path class="cls-7" d="M143,261.76l-2.24,8.53c-.33,2.23-.57,3.16-2,4.8-.61.16-1.27,1-1.89.9.38-2.16.77-4.33,1.15-6.5a24.09,24.09,0,0,1-1-2.73,12,12,0,0,1,.8-5.78,7.72,7.72,0,0,1,2.65-3.5c.47-.12.65-1.42,1.14-1.53.53.17.94,2,1.39,2.34A7.76,7.76,0,0,1,143,261.76Z"/><path class="cls-8" d="M82.08,255.35l-2.61,1.57c-.17-4.48.25-8.8,3.29-12.43a1.86,1.86,0,0,1,2.55,1.39C84.42,249.1,84.66,252.71,82.08,255.35Z"/><path class="cls-7" d="M128.9,280.54l2.39-1.76a1.48,1.48,0,0,1,.9-1.84l4.71-1c-.5,3.77-3.41,5.54-6.15,7.46a2.28,2.28,0,0,1-2.67-.42A1.89,1.89,0,0,1,128.9,280.54Z"/><path class="cls-9" d="M81.06,268.25c.88-3,2.43-2.69,4.28-.85a3.2,3.2,0,0,1,.85,3.57c-.42.78-.81,1.57-1.16,2.37l-1.19.58-1.43-2.79c-.44-.91-.9-1.81-1.32-2.73Z"/><path class="cls-10" d="M88.24,236.63l2.85,1.06a3.68,3.68,0,0,1-.07,3c-1.81,1.63-3.23,4.42-6.33,2a4.65,4.65,0,0,1,.82-2.89C85.9,238.3,86.42,236.9,88.24,236.63Z"/><path class="cls-11" d="M92.23,285.1a1.49,1.49,0,0,0-1.54-1.05,14.49,14.49,0,0,0-.43-1.93l4.74,1,.45.72-.43.75a4.67,4.67,0,0,0-.78.82C93.57,285.28,92.9,285.18,92.23,285.1Z"/><path class="cls-3" d="M85.51,239.81l-.09,2.74a1.73,1.73,0,0,1-.83,2.43c-.61-.15-1.22-.31-1.83-.49C82.9,242.48,83.51,240.73,85.51,239.81Z"/><path class="cls-12" d="M138.85,249.66l-1.39-2.94,0-1.38L138,245l1.2-.4.57,1.12a10.85,10.85,0,0,0-.35,2c.49.61.56,1.09.23,1.45S139.06,249.71,138.85,249.66Z"/><path class="cls-2" d="M108.64,229.18l-2.92.58Z"/><path class="cls-13" d="M105.9,229.87c-.11.86-.22,1.72-.34,2.58L104,230A1.33,1.33,0,0,1,105.9,229.87Z"/><path class="cls-14" d="M141.61,254.94l.33,2.19-.36-.59-.65.25a1.45,1.45,0,0,1-2-.41,1.69,1.69,0,0,1,1.16-1.82l0,0C140.76,253.9,141.28,254,141.61,254.94Z"/><path class="cls-15" d="M141.61,254.94l-.8-.16-.78-.25.81-2.61C141.1,252.92,141.35,253.93,141.61,254.94Z"/><path class="cls-3" d="M81.09,268.4l1.32,2.73A2.09,2.09,0,0,1,81.09,268.4Z"/><path class="cls-11" d="M86.14,274.12l-.69,2.29-1.61-2.49a1.23,1.23,0,0,1,.54-1.22A1.93,1.93,0,0,1,86.14,274.12Z"/><path class="cls-15" d="M138.85,249.66a8.35,8.35,0,0,1,.58-1.9l1.17,2.42C140,250,139.42,249.85,138.85,249.66Z"/><path class="cls-11" d="M85.39,276.34l1.87,2.41C86.64,277.94,86,277.14,85.39,276.34Z"/><path class="cls-11" d="M87.38,278.86l1.45,2Z"/><path class="cls-16" d="M133.7,252.93l3.68,3.07c.24.35.49.69.73,1a10.38,10.38,0,0,1,1,4.93,23,23,0,0,1-1.46,4.94c-1,1-2.34,1.06-3.48,1.66-.18.69-.37,1.37-.56,2.06a2.2,2.2,0,0,1-2.09.2,2.33,2.33,0,0,1-.72-1.93c-.09-1.31-1-.07-1.42-.46A1.9,1.9,0,0,1,128,267c-3.91-2.21-1.74-7.2-4.54-9.92a1.93,1.93,0,0,1-2.21,0,4.6,4.6,0,0,1-1.2-2.07l.15-1.2c.15-.69.32-1.37.48-2.05a2.76,2.76,0,0,1,3.18-.23c.21-.05.54.56.41.27-.57-1.3.77.27.31-1.12a5,5,0,0,1,2-1.55c2.72-.37,5.46-.85,7.62,1.51l.11.17a1.31,1.31,0,0,1,.1,1.52C134.09,252.79,133.87,253,133.7,252.93Z"/><path class="cls-11" d="M96.08,279l.49-2.16a2.38,2.38,0,0,1,2.58-1.54l6.31,1.58a1.35,1.35,0,0,1,.12,1.5c-.28.42-.49.61-.65.57-2.56,2.58-4.14,6.54-8.78,6.14a12.91,12.91,0,0,1-1.17-2l0,0,.57-2.13c.65-.31,1-.7.88-1.19S96.26,279,96.08,279Z"/><path class="cls-17" d="M101.9,264.63a16.65,16.65,0,0,1-2.11-.38L99.14,263a74.26,74.26,0,0,1,1.8-7.81,4,4,0,0,1,1.34-1.95,2.61,2.61,0,0,1,2.13.29c.12.32.26.66.41,1a5.94,5.94,0,0,1,1.46-1.66,4.51,4.51,0,0,1,2.27-.57,4.89,4.89,0,0,1,2.15,1.26,6.82,6.82,0,0,1,1.48,3.68,8.06,8.06,0,0,1-1,4.1,7.09,7.09,0,0,1-2.13,2C106.78,264.53,104.1,263.23,101.9,264.63Z"/><path class="cls-18" d="M104.93,278.93c.18-.69.36-1.38.53-2.07l2.69-1.41,1.46,2.41c.66,2.25,4.19-1.36,4.43,2.3.18,2.65-1.09,3.88-3.15,4.71-2.55,1-2.65-1.21-3.46-2.64A28.33,28.33,0,0,0,104.93,278.93Z"/><path class="cls-19" d="M113.47,272.3c-2.73,1.82-4.49-.18-6.4-1.62a1.32,1.32,0,0,0-2.14-.54c-4-.56-.82-3-1.2-4.53-.79-3.19,1.5-2.68,3.3-2.76a23.06,23.06,0,0,0,2.73.41,5.26,5.26,0,0,1,2.08,1.66,14.87,14.87,0,0,1,1.52,3.61A8.57,8.57,0,0,1,113.47,272.3Z"/><path class="cls-6" d="M99.15,275.28l-2.58,1.54h0A7.54,7.54,0,0,0,95,274.77,8.35,8.35,0,0,1,91.35,271v0c-1.12-1-.94-1.72.53-2.09l.52-2.15.54-.91a6.05,6.05,0,0,1,1.72-1.2l1-.36a4.12,4.12,0,0,0,2-.56l0,0c1-1.09,1.69-.94,2.15.44h0C96.54,267.75,99.43,271.61,99.15,275.28Z"/><path class="cls-20" d="M121.83,256.32c.52.28,1.06.53,1.61.77-.62,2.15-.8,4.51-3,5.89l-.92.55-1-.28a4.22,4.22,0,0,1-1.41-1.53,9.21,9.21,0,0,0-2.62-1.85c-.27-.31-.52-.61-.77-.93-.09-.41-.15-.81-.22-1.23a5,5,0,0,1,.94-2.38c1.59-1.41,3.34-.92,5.1-.44A4.65,4.65,0,0,1,121.83,256.32Z"/><path class="cls-21" d="M118,262.26l2.45.72c-.27,2.16,1,4.78-1.82,6.18a5.49,5.49,0,0,1-5.43-.28,4.51,4.51,0,0,1-1.41-2.39,5.28,5.28,0,0,1,2.14-3.55,6.47,6.47,0,0,1,2.67-.9Z"/><path class="cls-22" d="M112.25,267.47l6.41,1.69-5.19,3.14-1.73-2.76-.64-1.26Z"/><path class="cls-23" d="M109,264l-5.3,1.6a3.23,3.23,0,0,1-1.83-1c1.48-3.88,4.43-3.11,7.37-2.34l.42.94Z"/><path class="cls-24" d="M128,267l2.07.46a1.26,1.26,0,0,1,2,.67c-.18.65-.34,1.31-.47,2,.46.63.53,1.15.19,1.55s-.59.56-.79.51C128.48,271.32,127.39,269.65,128,267Z"/><path class="cls-15" d="M134.21,268.56l2.63-1.57c1-1.12,1.67-.95,2,.5-.27.67-.54,1.33-.82,2Z"/><path class="cls-25" d="M128.61,282.83l-2.79,1.39-.11-.53-.3-.95.85-.51,2.64-1.69C128.8,281.3,128.7,282.06,128.61,282.83Z"/><path class="cls-15" d="M131,272.17c.21-.68.41-1.37.6-2.06l2.07.51Z"/><path class="cls-26" d="M104.93,270.14c1-.92,1.7-.7,2.14.54Z"/><path class="cls-27" d="M132.19,276.94a4,4,0,0,1-.9,1.84,8,8,0,0,1,.06-1.55C131.39,277.08,131.9,277,132.19,276.94Z"/><path class="cls-28" d="M109.61,277.86l-1.47-2.42Z"/><path class="cls-11" d="M126.26,282.23a7.65,7.65,0,0,1-.55,1.47,6,6,0,0,1-.19-1.24C125.52,282.38,126,282.31,126.26,282.23Z"/><path class="cls-29" d="M95,283.07c.39.67.79,1.34,1.17,2a2.36,2.36,0,0,1-1.13-.5A4.45,4.45,0,0,1,95,283.07Z"/><path class="cls-30" d="M128.71,238.16l3,5.21c-.2.73-.4,1.45-.61,2.18-1.6.92-3.08,2.15-5.07,2-.89.37-.93-2-2.14-.69a3,3,0,0,1,.35,3.14,3.09,3.09,0,0,1-2.11,1,3.89,3.89,0,0,1-3.06-1.8C117.78,241.56,122.2,239,128.71,238.16Z"/><path class="cls-31" d="M103.05,251.58c.6-4.43,1.21-8.87,2-14.61,4.62,4.11,3.91,8.08,3.19,12.07a2,2,0,0,1,.27,1.56c-.14.53-.26.79-.36.76a15.23,15.23,0,0,1-3.4,1.64l-1.24-.23Z"/><path class="cls-32" d="M96.62,250.17l-1.55-2.62a5,5,0,0,1-.1-4.32c.7-.9,1.83-1.22,2.66-2a8.34,8.34,0,0,1,1.59-1.49l.11-.07a1.43,1.43,0,0,1,2,.57l-1.63,6.31a3.23,3.23,0,0,0-1.54,1.84A2.5,2.5,0,0,1,96.62,250.17Z"/><path class="cls-33" d="M107.13,250.56a4.51,4.51,0,0,0,1.09-1.53c2.36.23,4.46,1,5.88,3a2.13,2.13,0,0,1-.62,2.86,3.8,3.8,0,0,1-4.29-1.52c-.65-.14-1.31-.25-2-.35l-.93-.55A2.85,2.85,0,0,1,107.13,250.56Z"/><path class="cls-34" d="M99.81,264.26l-2.15-.44.48-2.14c1.27-3.54.81-7.93,4.91-10.1l0,.65c.61.47.79.91.55,1.31s-.5.63-.7.58Z"/><path class="cls-35" d="M113.36,254.39c.24-.78.49-1.55.74-2.33l6.08,1.8-.33.25c.56.5.71.95.45,1.34s-.52.59-.71.54l-4.85,1.11-1.37.37-1.1-.91A1.69,1.69,0,0,1,113.36,254.39Z"/><path class="cls-36" d="M95.07,256.45c-1.1-.48-2.85-.8-2.08-2.38.43-.9,2.05-1.22,3.13-1.8Z"/><path class="cls-37" d="M119.1,249.18l4.24,1a1.26,1.26,0,0,1,2,.65l-.48,2.05h0l-4.2-1.05Z"/><path class="cls-38" d="M90.28,239.65a17.57,17.57,0,0,1,.81-2,17.89,17.89,0,0,0,1.86.44,3.59,3.59,0,0,1,.34,3c-.71.86-1.72,1.51-2.69,1.06S89.57,240.61,90.28,239.65Z"/><path class="cls-39" d="M96.23,243.28l-.64,2.22a1.33,1.33,0,0,1-2.07-.59h.06c-1.08-1.14-.69-2.31-.08-3.49l1.14-.58c.67.16,1.35.31,2,.45l.69,1.2Z"/><path class="cls-40" d="M96.09,261.15c-.35-1.57-.69-3.15-1-4.72C95.4,258,95.74,259.58,96.09,261.15Z"/><path class="cls-41" d="M96.62,250.17c.19-.69.37-1.38.54-2.08a1.36,1.36,0,0,1,2.1.49q-1.58,1.86-3.16,3.7C96.27,251.57,96.45,250.87,96.62,250.17Z"/><path class="cls-42" d="M99.26,248.58c-.7-.15-1.4-.31-2.1-.49l2.57-1.5C99.58,247.25,99.42,247.92,99.26,248.58Z"/><path class="cls-43" d="M99.22,239.78c-.14.67-.29,1.33-.45,2a1.32,1.32,0,0,1-2.12-.51v0Z"/><path class="cls-44" d="M92.55,240.23c.14-.7.28-1.4.4-2.1.57.9,1.13,1.8,1.69,2.7h0C93.62,241.63,92.94,241.43,92.55,240.23Z"/><path class="cls-45" d="M101.36,240.28c-.68-.18-1.35-.37-2-.57C100.31,238.82,101,239.08,101.36,240.28Z"/><path class="cls-46" d="M92.55,240.23l2,.59-1,4.08c-8.63-1.81-6.75,8-11.5,10.45q1.28-5.19,2.52-10.37c.28-.81.55-1.62.82-2.43l4.87-2.9C90.78,240.85,91.53,241.07,92.55,240.23Z"/><path class="cls-47" d="M84.41,272.1l.93-4.7,2.34.51c.38,1,1.84,1.27,1.61,2.61l-2.73,1.66A1.49,1.49,0,0,1,84.41,272.1Z"/><path class="cls-48" d="M93,264.79l2.43-1.51c.5.55.61,1,.35,1.47s-.5.64-.68.59h0l-1.27.57Z"/><path class="cls-1" d="M95.06,265.34a8.94,8.94,0,0,0,.33-2.07l2.29.53Z"/><path class="cls-49" d="M93.52,244.91l2.07.59c-.17.68-.34,1.37-.52,2.05Z"/><path class="cls-50" d="M92.41,266.83a7.64,7.64,0,0,1-.29-1.63c0-.13.55-.27.84-.41l.09-.06a1.43,1.43,0,0,1,0,1.6q-.47.63-.72.57Z"/><path class="cls-51" d="M89.29,270.52l-1.6-2.61,2.11.54c.48.61.56,1.13.24,1.54s-.57.6-.77.55Z"/><path class="cls-52" d="M89.27,270.54l.53-2.09,2.09.53c-.18.69-.35,1.39-.53,2.08Z"/><path class="cls-53" d="M125.32,250.82l-2-.65c.15-.67.31-1.33.48-2,2.22-.73,4.37-2.41,6.79-.53l3.57,3.05Z"/><path class="cls-54" d="M130.6,247.64l-6.79.53-1.57-2.6a1.33,1.33,0,0,1,2.08.47l6.81-.49Z"/><path class="cls-15" d="M140.06,254.56a19.69,19.69,0,0,0-.58,2,1.31,1.31,0,0,1-2.08-.49l0-.06Z"/><path class="cls-55" d="M133.7,252.93c.17-.69.36-1.38.58-2.07a8.63,8.63,0,0,1,.28,1.65C134.56,252.65,134,252.79,133.7,252.93Z"/><path class="cls-9" d="M137.43,245.34a8.09,8.09,0,0,1,0,1.39l-1.27-2.09A7.19,7.19,0,0,1,137.43,245.34Z"/><path class="cls-1" d="M91.35,271c2.27.67,4.75,1,5.73,3.69a13.47,13.47,0,0,1-2.59,1.53h0a1.57,1.57,0,0,1-2.11.33c-.84-1-.84-2.27-1.42-3.34Z"/><path class="cls-11" d="M92.36,275.71l2.09.56c-.47,1.09-.72,2.88-2.34,2.11-.88-.43-1.18-2.08-1.74-3.18A1.21,1.21,0,0,1,92.36,275.71Z"/><path class="cls-9" d="M84.41,272.1l2.15.08c-.12.65-.26,1.3-.42,1.94l-1.76-1.41Z"/><path class="cls-56" d="M92.36,275.71l-1-.23-1-.28a14.32,14.32,0,0,1,.55-1.94Z"/><path class="cls-11" d="M94.49,276.26l2.59-1.53c-.17.7-.34,1.4-.5,2.1Z"/><path class="cls-57" d="M96.08,279a8.9,8.9,0,0,1,.3,1.59c0,.12-.53.27-.81.4C95.71,280.3,95.88,279.63,96.08,279Z"/><path class="cls-58" d="M137.4,256.06l2.08.49c.48.09,1,.17,1.45.24-.22,1.46-.44,2.91-.67,4.37-.89,1-1.5.84-1.86-.43Z"/><path class="cls-59" d="M138.4,260.73c.62.15,1.24.3,1.87.43q-.71,3.16-1.4,6.33l-2-.5Z"/><path class="cls-60" d="M119.59,256c.1-.63.19-1.26.27-1.88.65.74,1.31,1.47,2,2.21Z"/><path class="cls-61" d="M124.84,252.87l.63.59-.61-.6Z"/><path class="cls-15" d="M132.05,268.14c-.66-.24-1.33-.46-2-.67C131.07,266.62,131.73,266.87,132.05,268.14Z"/><path class="cls-62" d="M109,264a16.93,16.93,0,0,1,.24-1.72,17.8,17.8,0,0,0,.38-1.76,2.67,2.67,0,0,1,3.48-.75,3.22,3.22,0,0,1,1.48,2.06,3.42,3.42,0,0,1-1.37,2.14,3.61,3.61,0,0,1-2.54.3A11.85,11.85,0,0,0,109,264Z"/><path class="cls-63" d="M113.86,261.24l-4.21-.71c.35-1.53.71-3.06,1.06-4.59.81-.75,1.42-.58,1.88.38l.44.3a14.47,14.47,0,0,1,1.07,2.07l.4.53A1.48,1.48,0,0,1,113.86,261.24Z"/><path class="cls-33" d="M102.87,254.12a8.52,8.52,0,0,1,.15-1.89,6,6,0,0,0,2-.39,1.14,1.14,0,0,1,1.71.47l.45.73c-.27.65-.5,1.31-.71,2-.77.66-1.4.5-1.89-.36Z"/><path class="cls-64" d="M112.59,256.32c-.63-.12-1.25-.24-1.88-.38-.5-.85-1-1.69-1.52-2.54l4.17,1A7.86,7.86,0,0,1,112.59,256.32Z"/><path class="cls-65" d="M106,256.92l.62.62-.65-.61Z"/><path class="cls-66" d="M104.62,254.67a8,8,0,0,1,1.89.35c-.16.64-.33,1.27-.5,1.9h0C105.53,256.18,105.08,255.42,104.62,254.67Z"/><path class="cls-22" d="M110.7,264.28l2.6-1.14q.8,1,.3,1.65c-.32.46-.59.66-.8.61-.17.69-.35,1.38-.55,2.07l0,0a1.33,1.33,0,0,1-2.11-.54Z"/><path class="cls-67" d="M110.18,266.9l2.11.54c-.18.7-.36,1.4-.55,2.1Z"/><path class="cls-1" d="M92.37,266.9c.23-.73.45-1.45.68-2.17a15.29,15.29,0,0,0,2,.62Z"/><path class="cls-68" d="M116.5,259.6c.94-.86,1.63-.71,2.06.5l-1.23.58Z"/><path class="cls-69" d="M113.86,261.24a6.09,6.09,0,0,1,.64-2c.67.12,1.34.25,2,.39l0,0a1.58,1.58,0,0,1,.11,1.61c-.27.46-.48.68-.62.64a1.57,1.57,0,0,1-2.17-.72Z"/><path class="cls-70" d="M114.1,258.69,113,256.62a16.66,16.66,0,0,1,1.71.48A3.87,3.87,0,0,1,114.1,258.69Z"/><path class="cls-71" d="M116,261.62c.19-.66.37-1.33.53-2l2.08.48c-.18.72-.35,1.44-.53,2.16h0l-1.3.6Z"/><path class="cls-19" d="M113.8,261.15l2.15.47,0,.26c.44.58.52,1.07.23,1.48s-.53.58-.71.54l-2.63,1.5c.17-.75.34-1.5.5-2.26A19.3,19.3,0,0,0,113.8,261.15Z"/><path class="cls-72" d="M115.43,263.9c.15-.68.31-1.35.48-2,.7.09,1.4.21,2.09.37Z"/><path class="cls-73" d="M124.32,246l-2.08-.47C123.16,244.69,123.87,244.8,124.32,246Z"/><path class="cls-34" d="M106.77,252.31l-.88-.14-.83-.33,2.07-1.28A5.81,5.81,0,0,1,106.77,252.31Z"/><path class="cls-74" d="M96.65,241.26l2.12.51-2.54,1.52C96.35,242.61,96.49,241.93,96.65,241.26Z"/><circle cx="185.52" cy="186.07" r="33"/><path class="cls-1" d="M188.48,217.17l-4.73-1,0-1.37a9.65,9.65,0,0,1,1.12-2.52c1.38-2.9,2.21-6.18,5.34-7.89,1.39-.45,2.61.29,3.91.51s1.81-.85.46-.36-.69-1.61-.83-.17c-1-.33-1.87-.91-2.95-.77a16.88,16.88,0,0,0-3,2,7.15,7.15,0,0,1-5.32.32c-4.41-2.17-7.61-5-5.21-10.5a6.6,6.6,0,0,1,2.08-2,5.77,5.77,0,0,1,2.64-.33c1.49.47,2.67,1.66,4.29,1.9.81-.1,1.59-.17,2.38-.31a8.94,8.94,0,0,0,3.5-1.67,6.83,6.83,0,0,0,1.83-3.41c.22-2.14-.36-4.23-.44-6.36.1-2.33.15-4.66,1.73-6.58,4.71-1.94,6,3,9.08,4.43a12.43,12.43,0,0,0,2.91,1.57,7,7,0,0,0,2.76-1.72,6.76,6.76,0,0,1,2.36-1,4.18,4.18,0,0,1,3.77,1.48,5.39,5.39,0,0,1,.21,5.73h0c-.63,1.08-.94,2.32-1.58,3.37a3,3,0,0,0-.52,2.07,4,4,0,0,1-.87,3,8.58,8.58,0,0,0-1.26,2.81c-.18,1.09,0,2.19-.16,3.31l-.63,1.08c-.62.68-1.19,1.35-1.75,2.06C203.77,211,198.33,217.89,188.48,217.17Z"/><path class="cls-2" d="M154.71,176.54c.72-6.67,5.55-10.15,10.51-13.53,1.68.92,2.78-.33,4-1.09,5.12-4.82,12.05-5.06,18.22-7.23a4.14,4.14,0,0,1,4.86.82,6.75,6.75,0,0,1-.42,4.16c-1.47,3.5-4.88,6.64-1.91,10.93a11.63,11.63,0,0,1,1.49,4,5.37,5.37,0,0,1-1,2.73,8.3,8.3,0,0,1-5.43,2.28c-2.5,0-5-.14-7.26-1.4a5.71,5.71,0,0,1-1.65-2.47c-.71,1,.18,2,.24,2.94.08,1.34.25,2.68.31,4-.28,3.36,1.3,6.73,0,10.1a3.77,3.77,0,0,1-2.08,1.9,5.22,5.22,0,0,1-4-1.44,10.42,10.42,0,0,1-1.83-2.14,10.54,10.54,0,0,1-1-2.55,13.69,13.69,0,0,1-.3-2.64,26.48,26.48,0,0,0-.33-3.87c-.22-.81-.36-1.65-.5-2.47a12.11,12.11,0,0,1-.19-3.39c.08-.55.16-1.15.22-1.68a6.78,6.78,0,0,1-.93,1.56,4.79,4.79,0,0,1-1.56,1.31,7.75,7.75,0,0,1-2.08.66,21.52,21.52,0,0,1-3.4.24,9,9,0,0,1-2.32-.28A3.58,3.58,0,0,1,154.71,176.54Z"/><path class="cls-3" d="M173.53,194.11c.68-.18,1.36-.37,2.05-.54l1,.62.33,1.15a9.06,9.06,0,0,1-.77,2.19c-.38.65-.75,1.32-1.08,2-.09.77-.21,1.53-.32,2.3a5.84,5.84,0,0,1-.91,2.2,7.73,7.73,0,0,1-1.87,1.55,12.21,12.21,0,0,1-2.24.94,12.81,12.81,0,0,1-2.35.51,17.34,17.34,0,0,0-3.5.61,13.47,13.47,0,0,1-6.92-9.12c.65-1.24.53-2.62.66-4-.67-4.87-3.53-10.09,2.26-13.91a7.57,7.57,0,0,1,2.68-.68,8.68,8.68,0,0,1,3.9,1.14,9.25,9.25,0,0,1,2.76,2.81,2.43,2.43,0,0,1,0,2.43v0c-.8,1.7-.94,3.23,1.12,4.16h0C171.84,191.3,172,193.32,173.53,194.11Z"/><path class="cls-4" d="M187.45,154.69c-5.31,5.77-14.07,4.58-19.67,9.75a2,2,0,0,1-1.06-1.45c-.08-.61-.05-.93.09-1h-.21c1.26-.06,1.44-1.38,2.27-1.94C174.37,155.9,180.33,153.3,187.45,154.69Z"/><path class="cls-5" d="M207,162.8a1.34,1.34,0,0,1,1.06,1.4,8.81,8.81,0,0,1,1.23,2,6.66,6.66,0,0,1-.42,2.33,5.9,5.9,0,0,1-2.53,2.44,3.49,3.49,0,0,1-4.15-.92c-.92-.44,1.08-2-.85-2.1a12.83,12.83,0,0,1-2.21-.49,7.75,7.75,0,0,1-3.14-1.82,6.09,6.09,0,0,1-1.06-2.33,5.26,5.26,0,0,1,.47-2.53,4.88,4.88,0,0,1,3.31-1.78,8.4,8.4,0,0,1,3.54.9c.91.69,1.58,1.69,2.69,2.13A3.69,3.69,0,0,1,207,162.8Z"/><path class="cls-6" d="M178.69,215.26a1.34,1.34,0,0,1-1.85-.38,3.76,3.76,0,0,1-2.26-1.06l-.16,0c-1-.31-1.81-1-2.81-1.18l.08,0a8.16,8.16,0,0,1-1.67-2,4.53,4.53,0,0,1-.42-2.56,5.72,5.72,0,0,1,1.27-2.22l1-.82,1.08-.54,1.16-.15a5.68,5.68,0,0,1,1.89,1c.5.39,1,.84,1.48,1.25a3.56,3.56,0,0,0,1.8.38,5.22,5.22,0,0,1,2.08-.15c.37.13.71.27,1.07.41l.86.82a7.26,7.26,0,0,1,1,2.26,6.69,6.69,0,0,1-.09,2.6,5.09,5.09,0,0,1-1.69,2C181.27,215.48,180,216,178.69,215.26Z"/><path class="cls-7" d="M200.46,160.12l-4.5,1.06a4.21,4.21,0,0,1-5.19-3.06l1.54-2.61,9.28,2.06,1,.87v1.35l-1,1Z"/><path class="cls-7" d="M214.77,171.73l2.2,8.54c.8,2.11,1.05,3,.62,5.15-.45.44-.6,1.51-1.2,1.71q-1.09-3.12-2.17-6.24A23.22,23.22,0,0,1,212,179a12.08,12.08,0,0,1-2.13-5.44,7.8,7.8,0,0,1,.61-4.34c.36-.34-.12-1.56.24-1.89.55-.11,1.81,1.29,2.36,1.36A7.86,7.86,0,0,1,214.77,171.73Z"/><path class="cls-8" d="M158.46,195.89l-1.5,2.64c-2.34-3.82-4.08-7.8-3.2-12.45a1.87,1.87,0,0,1,2.91,0C157.46,189.29,159.43,192.32,158.46,195.89Z"/><path class="cls-7" d="M211.63,195l1.23-2.71a1.46,1.46,0,0,1-.12-2l3.64-3.14c1.41,3.53-.27,6.5-1.73,9.51a2.26,2.26,0,0,1-2.53.93A1.88,1.88,0,0,1,211.63,195Z"/><path class="cls-9" d="M163.88,207.65c-.7-3.06.8-3.54,3.32-2.84a3.2,3.2,0,0,1,2.49,2.7c0,.88.06,1.76.14,2.64l-.75,1.09-2.61-1.74c-.84-.58-1.68-1.14-2.49-1.74Z"/><path class="cls-10" d="M154.71,176.54l3-.47a3.67,3.67,0,0,1,1.38,2.63c-.78,2.29-.66,5.43-4.52,4.88a4.64,4.64,0,0,1-.7-2.93C153.48,179.15,153.25,177.67,154.71,176.54Z"/><path class="cls-11" d="M181.86,216.9a1.48,1.48,0,0,0-1.86-.17,15.27,15.27,0,0,0-1.31-1.47l4.6-1.47.75.42v.86a4.6,4.6,0,0,0-.28,1.09C183.11,216.39,182.48,216.64,181.86,216.9Z"/><path class="cls-3" d="M153.87,180.65l1.26,2.44a1.73,1.73,0,0,1,.47,2.52c-.61.17-1.23.33-1.84.47C152.9,184.25,152.58,182.44,153.87,180.65Z"/><path class="cls-12" d="M205.23,163.2l-2.65-1.88-.69-1.19.33-.6.85-.93,1.05.69a10,10,0,0,0,.69,2c.72.29,1,.68.91,1.15S205.44,163.14,205.23,163.2Z"/><path class="cls-2" d="M168.87,160.08,166.6,162Z"/><path class="cls-13" d="M166.81,162c.33.81.65,1.61,1,2.42L165.22,163A1.33,1.33,0,0,1,166.81,162Z"/><path class="cls-14" d="M210.22,166.46l1.35,1.75-.6-.34-.44.53a1.46,1.46,0,0,1-2,.64,1.69,1.69,0,0,1,.13-2.16h0C209,166,209.49,165.83,210.22,166.46Z"/><path class="cls-15" d="M210.22,166.46l-.78.25-.8.16-.57-2.67Z"/><path class="cls-3" d="M164,207.76l2.49,1.74A2.09,2.09,0,0,1,164,207.76Z"/><path class="cls-11" d="M171.18,210.29l.51,2.34-2.61-1.39a1.22,1.22,0,0,1-.13-1.33A1.92,1.92,0,0,1,171.18,210.29Z"/><path class="cls-15" d="M205.23,163.2a9.89,9.89,0,0,1-.43-1.94L207,162.8C206.42,163,205.83,163.09,205.23,163.2Z"/><path class="cls-11" d="M171.61,212.59l2.81,1.18Z"/><path class="cls-11" d="M174.58,213.82l2.26,1.06Z"/><path class="cls-16" d="M202.33,168.57l4.72.89,1.14.53a10.37,10.37,0,0,1,3.31,3.8,23.27,23.27,0,0,1,1.14,5c-.36,1.32-1.52,2.07-2.22,3.15l.51,2.07a2.21,2.21,0,0,1-1.73,1.2,2.37,2.37,0,0,1-1.57-1.34c-.71-1.1-.93.45-1.46.3a1.92,1.92,0,0,1-1.95-.54c-4.49,0-5-5.44-8.81-6.44a1.93,1.93,0,0,1-1.91,1.11,4.54,4.54,0,0,1-2.05-1.22c-.16-.37-.31-.74-.47-1.12l-.57-2a2.77,2.77,0,0,1,2.66-1.76c.16-.14.74.23.49,0-1.13-.86.8-.14-.28-1.13a5.16,5.16,0,0,1,1-2.32c2.2-1.65,4.35-3.41,7.39-2.4l.18.09c.61.35.89.77.83,1.28S202.5,168.53,202.33,168.57Z"/><path class="cls-11" d="M182.22,209.67l-.62-2.12a2.38,2.38,0,0,1,1.5-2.61l6.28-1.7a1.32,1.32,0,0,1,.83,1.26c0,.5-.13.77-.29.81-1,3.5-.42,7.73-4.66,9.64a12.81,12.81,0,0,1-2-1.17h0l-.54-2.13c.42-.59.49-1.08.19-1.47S182.4,209.62,182.22,209.67Z"/><path class="cls-17" d="M180.29,194.31a17.85,17.85,0,0,1-2,.7l-1.16-.74a76.75,76.75,0,0,1-2.24-7.69,4,4,0,0,1,.22-2.36,2.59,2.59,0,0,1,2-.79c.26.22.55.45.83.65a5.78,5.78,0,0,1,.46-2.17,4.39,4.39,0,0,1,1.71-1.6,4.89,4.89,0,0,1,2.49.05,6.83,6.83,0,0,1,3.08,2.49,8,8,0,0,1,1.1,4.08,6.93,6.93,0,0,1-.88,2.77C184.51,191.84,181.53,192,180.29,194.31Z"/><path class="cls-18" d="M189.92,205.31c-.17-.69-.36-1.38-.54-2.07L191,200.7l2.46,1.39c1.68,1.64,3-3.24,5-.16,1.45,2.23.94,3.92-.46,5.65-1.72,2.14-2.9.24-4.3-.62A28.68,28.68,0,0,0,189.92,205.31Z"/><path class="cls-19" d="M194.14,195.35c-1.5,2.93-4,2-6.37,1.71a1.31,1.31,0,0,0-2.13.58c-3.73,1.44-2.2-2.23-3.27-3.37-2.24-2.4,0-3.07,1.53-4a21.86,21.86,0,0,0,2.59-1,5.13,5.13,0,0,1,2.62.44,14.44,14.44,0,0,1,3.09,2.41A8.47,8.47,0,0,1,194.14,195.35Z"/><path class="cls-6" d="M183.1,204.94l-1.5,2.61h0a7.34,7.34,0,0,0-2.42-1,8.41,8.41,0,0,1-5-1.5l0,0c-1.48-.35-1.67-1-.57-2.08l-.59-2.12,0-1.06a6.06,6.06,0,0,1,.91-1.9l.69-.79a4.28,4.28,0,0,0,1.49-1.47v0c.31-1.43,1-1.65,2.08-.66h0C177.14,199.65,181.55,201.6,183.1,204.94Z"/><path class="cls-20" d="M193.63,177.33c.59,0,1.19-.06,1.78-.12.51,2.18,1.51,4.33.3,6.58l-.53.94s-1.05.25-1.05.26a4.35,4.35,0,0,1-2-.66A9.37,9.37,0,0,0,189,184c-.39-.13-.75-.28-1.13-.43-.27-.32-.53-.64-.79-1a4.91,4.91,0,0,1-.34-2.54c.7-2,2.47-2.43,4.23-2.87A4.57,4.57,0,0,1,193.63,177.33Z"/><path class="cls-21" d="M193.22,184.36l2.48-.57c.82,2,3.25,3.67,1.44,6.29a5.52,5.52,0,0,1-4.88,2.4,4.58,4.58,0,0,1-2.4-1.39,5.3,5.3,0,0,1,.14-4.15,6.6,6.6,0,0,1,1.88-2.09Z"/><path class="cls-22" d="M190.72,191.73l6.42-1.65-3,5.27-2.86-1.56-1.17-.79C190.31,192.58,190.51,192.15,190.72,191.73Z"/><path class="cls-23" d="M186.22,190.29l-3.85,4a3.29,3.29,0,0,1-2.08,0c-.6-4.11,2.35-4.88,5.3-5.64l.82.61Z"/><path class="cls-24" d="M204.22,183.65l2-.61a1.26,1.26,0,0,1,2.07-.4c.16.66.34,1.31.56,2,.71.32,1,.74.92,1.25s-.24.78-.45.84C206.76,187.16,205,186.24,204.22,183.65Z"/><path class="cls-15" d="M210.42,182l1.52-2.66c.32-1.45,1-1.64,2-.55l.27,2.14Z"/><path class="cls-25" d="M212.49,197.15l-1.75,2.57-.36-.4-.72-.69.49-.86c.49-.92,1-1.84,1.48-2.76C211.91,195.72,212.2,196.43,212.49,197.15Z"/><path class="cls-15" d="M209.35,186.69c-.14-.7-.3-1.4-.47-2.09l2.05-.57Z"/><path class="cls-26" d="M185.64,197.64c.41-1.29,1.13-1.44,2.13-.58Z"/><path class="cls-27" d="M212.74,190.26a3.93,3.93,0,0,1,.12,2,7.22,7.22,0,0,1-.71-1.38C212.11,190.77,212.53,190.48,212.74,190.26Z"/><path class="cls-28" d="M193.49,202.09,191,200.7Z"/><path class="cls-11" d="M210.15,197.77a7.44,7.44,0,0,1,.23,1.55,7,7,0,0,1-.76-1C209.58,198.26,210,198,210.15,197.77Z"/><path class="cls-29" d="M183.27,213.78l2,1.17a2.39,2.39,0,0,1-1.24.12A4.43,4.43,0,0,1,183.27,213.78Z"/><path class="cls-30" d="M190.77,158.12l5.19,3.06c.18.73.35,1.47.53,2.2-.94,1.59-1.64,3.38-3.46,4.2-.6.76-1.8-1.29-2.2.44a3,3,0,0,1,1.83,2.58,3.08,3.08,0,0,1-1.35,1.9,3.93,3.93,0,0,1-3.55-.07C182.89,166.42,185.47,162,190.77,158.12Z"/><path class="cls-31" d="M174.93,182.36l-5.4-13.72c6,1.33,7.35,5.14,8.67,9a2,2,0,0,1,1,1.24q.23.79.06.84a15,15,0,0,1-2.17,3.08l-1.19.41Z"/><path class="cls-32" d="M168.62,184.27,166,182.73a4.9,4.9,0,0,1-2.2-3.71c.17-1.13,1-2,1.36-3a8.54,8.54,0,0,1,.66-2.08l.07-.12a1.44,1.44,0,0,1,2.05-.49l1.66,6.3a3.22,3.22,0,0,0-.45,2.36A2.51,2.51,0,0,1,168.62,184.27Z"/><path class="cls-33" d="M178,179.48a4.56,4.56,0,0,0,.21-1.87c2.17-1,4.36-1.34,6.6-.23a2.13,2.13,0,0,1,.86,2.8,3.79,3.79,0,0,1-4.48.76c-.64.21-1.27.42-1.9.66l-1.07,0A2.79,2.79,0,0,1,178,179.48Z"/><path class="cls-34" d="M178.29,195l-2.08.66-.63-2.1c-.63-3.71-3.17-7.31-.65-11.21l.29.58c.77.11,1.14.4,1.12.88s-.13.79-.33.84Z"/><path class="cls-35" d="M185.29,179.78c-.16-.8-.32-1.6-.49-2.4L191,176l-.15.38c.73.16,1.08.48,1,.95s-.16.77-.36.82l-3.69,3.33c-.33.34-.67.67-1,1l-1.4-.26A1.69,1.69,0,0,1,185.29,179.78Z"/><path class="cls-36" d="M170.34,190.5c-1.2.12-2.87.7-3-1.06-.06-1,1.19-2.06,1.86-3.1C169.59,187.73,170,189.12,170.34,190.5Z"/><path class="cls-37" d="M187.76,172.43l4.18-1.21a1.27,1.27,0,0,1,2.05-.4c.2.68.4,1.35.59,2v0L190.41,174Z"/><path class="cls-38" d="M158,178.19a16.79,16.79,0,0,1-.25-2.12,14.33,14.33,0,0,0,1.84-.52,3.62,3.62,0,0,1,1.76,2.46c-.19,1.1-.76,2.16-1.83,2.24S157.81,179.37,158,178.19Z"/><path class="cls-39" d="M164.93,178.45l.52,2.24a1.33,1.33,0,0,1-2.1.5l.05,0c-1.5-.47-1.73-1.68-1.77-3l.71-1.07c.67-.18,1.33-.38,2-.59l1.19.71C165.31,177.62,165.12,178,164.93,178.45Z"/><path class="cls-40" d="M173.53,194.11l-3.21-3.62Z"/><path class="cls-41" d="M168.62,184.27c-.17-.7-.34-1.39-.53-2.08a1.35,1.35,0,0,1,2.06-.6c-.31,1.59-.63,3.18-.94,4.77C169,185.66,168.82,185,168.62,184.27Z"/><path class="cls-42" d="M170.15,181.59c-.68.22-1.37.41-2.06.6l1.51-2.57C169.79,180.28,170,180.94,170.15,181.59Z"/><path class="cls-43" d="M165.82,173.93c.21.65.4,1.3.58,1.95a1.31,1.31,0,0,1-2.1.6h0Z"/><path class="cls-44" d="M160.22,177.58c-.21-.68-.44-1.35-.67-2l2.79,1.53,0,0C161.84,178.28,161.15,178.44,160.22,177.58Z"/><path class="cls-45" d="M167.94,173.32c-.69.17-1.37.34-2.05.49C166.31,172.56,167,172.46,167.94,173.32Z"/><path class="cls-46" d="M160.22,177.58l2.08-.48c.36,1.35.73,2.7,1.1,4.05-8.42,2.65-2,10.26-4.94,14.74q-1.43-5.14-2.86-10.28c-.16-.84-.31-1.68-.47-2.52.94-1.64,1.89-3.27,2.83-4.9C159,179,159.75,178.82,160.22,177.58Z"/><path class="cls-47" d="M168.68,209.37q-.74-2.28-1.48-4.56l2.3-.7c.8.66,2.22.21,2.67,1.49l-1.57,2.79A1.51,1.51,0,0,1,168.68,209.37Z"/><path class="cls-48" d="M172.58,198.81,174,196.3c.7.24,1,.61,1,1.12s-.12.8-.31.85v0l-.83,1.12Z"/><path class="cls-1" d="M174.67,198.27a9.28,9.28,0,0,0-.71-2l2.25-.65C175.7,196.52,175.19,197.4,174.67,198.27Z"/><path class="cls-49" d="M163.35,181.19l2.1-.5c.19.68.37,1.36.55,2Z"/><path class="cls-50" d="M173.09,200.87a8.58,8.58,0,0,1-1.05-1.29c-.07-.11.34-.51.54-.77l0-.09a1.42,1.42,0,0,1,.82,1.37c-.07.52-.18.8-.35.85Z"/><path class="cls-51" d="M172.17,205.6l-2.67-1.49,2.1-.56c.72.3,1,.71,1,1.23s-.21.8-.41.85Z"/><path class="cls-52" d="M172.16,205.63l-.56-2.08,2.08-.56c.19.69.38,1.38.56,2.08Z"/><path class="cls-53" d="M194,170.82l-2.05.4c-.19-.65-.38-1.31-.56-2,1.58-1.73,2.63-4.24,5.67-3.79l4.6.93Z"/><path class="cls-54" d="M197.05,165.46l-5.67,3.78-2.64-1.49a1.33,1.33,0,0,1,2-.62l5.71-3.75Z"/><path class="cls-15" d="M208.68,166.88c.12.68.28,1.36.46,2a1.31,1.31,0,0,1-2,.59l0,0C207.59,168.6,208.13,167.74,208.68,166.88Z"/><path class="cls-55" d="M202.33,168.57c-.19-.69-.35-1.39-.5-2.09a9.28,9.28,0,0,1,1,1.31C203,167.91,202.53,168.3,202.33,168.57Z"/><path class="cls-9" d="M201.89,160.13a7.5,7.5,0,0,1,.69,1.19l-2.12-1.2A6.84,6.84,0,0,1,201.89,160.13Z"/><path class="cls-1" d="M174.22,205.05c2.31-.52,4.64-1.43,6.81.42a13.5,13.5,0,0,1-1.52,2.6l0,0a1.59,1.59,0,0,1-1.68,1.33c-1.2-.43-1.84-1.58-2.87-2.23Z"/><path class="cls-11" d="M177.38,208.64l2.1-.54c.13,1.19.78,2.87-1,3-1,.06-2-1.23-3.07-1.92A1.2,1.2,0,0,1,177.38,208.64Z"/><path class="cls-9" d="M168.68,209.37l1.92-1c.21.63.41,1.26.58,1.9l-2.23-.38Z"/><path class="cls-56" d="M177.38,208.64l-1,.28-1,.24a14.71,14.71,0,0,1-.47-2Z"/><path class="cls-11" d="M179.51,208.07l1.52-2.6c.19.7.38,1.39.58,2.08Z"/><path class="cls-57" d="M182.22,209.67a8.65,8.65,0,0,1,1,1.24c.07.11-.33.49-.51.75C182.55,211,182.37,210.34,182.22,209.67Z"/><path class="cls-58" d="M207.09,169.5l2-.59c.47-.16.93-.33,1.39-.51.52,1.38,1,2.76,1.55,4.15-.27,1.33-.9,1.46-1.83.53Z"/><path class="cls-59" d="M210.25,173.08l1.84-.53,1.86,6.2-2,.55C211.37,177.23,210.81,175.15,210.25,173.08Z"/><path class="cls-60" d="M191.51,178.13c-.21-.6-.44-1.19-.68-1.78l2.8,1Z"/><path class="cls-61" d="M194.58,172.85l.84.2-.83-.23Z"/><path class="cls-15" d="M208.32,182.64c-.69.12-1.38.26-2.07.4C206.73,181.8,207.42,181.69,208.32,182.64Z"/><path class="cls-62" d="M186.22,190.29a16,16,0,0,1-.63-1.62c-.15-.59-.33-1.16-.53-1.72a2.67,2.67,0,0,1,2.66-2.36,3.23,3.23,0,0,1,2.31,1.07,3.39,3.39,0,0,1-.16,2.54,3.6,3.6,0,0,1-2.07,1.51A10,10,0,0,0,186.22,190.29Z"/><path class="cls-63" d="M189.08,185.51c-1.34.48-2.69,1-4,1.44-.43-1.51-.87-3-1.3-4.53.33-1,.95-1.2,1.82-.59l.53,0a14.78,14.78,0,0,1,1.94,1.28l.61.27A1.48,1.48,0,0,1,189.08,185.51Z"/><path class="cls-33" d="M176,184.66a8.37,8.37,0,0,1-.79-1.72,5.85,5.85,0,0,0,1.59-1.34,1.13,1.13,0,0,1,1.72-.42l.75.42c.09.7.2,1.39.35,2.07-.35,1-1,1.13-1.82.61Z"/><path class="cls-64" d="M185.57,181.83c-.61.21-1.21.41-1.82.59-.86-.49-1.72-1-2.57-1.48l4.11-1.16A7.46,7.46,0,0,1,185.57,181.83Z"/><path class="cls-65" d="M180.12,185.57l.85.24-.87-.21Z"/><path class="cls-66" d="M177.81,184.28a7.8,7.8,0,0,1,1.82-.61c.17.64.33,1.27.49,1.9l0,0Z"/><path class="cls-22" d="M187.8,189.71l1.72-2.27c.78.31,1.13.74,1.07,1.29s-.2.87-.41.93c.2.68.37,1.37.54,2.07l0,0a1.34,1.34,0,0,1-2.11.56Z"/><path class="cls-67" d="M188.63,192.25l2.11-.56.54,2.1Z"/><path class="cls-1" d="M173.09,200.94c-.16-.74-.31-1.48-.47-2.22a15.73,15.73,0,0,0,2-.43Z"/><path class="cls-68" d="M190.58,182.79c.4-1.21,1.08-1.41,2-.57l-.79,1.11Z"/><path class="cls-69" d="M189.08,185.51a6,6,0,0,1-.43-2.08c.64-.23,1.28-.44,1.93-.64v0a1.57,1.57,0,0,1,.87,1.34c0,.54-.08.83-.22.87a1.56,1.56,0,0,1-2.24.43Z"/><path class="cls-70" d="M188,183.16l-1.95-1.28a17,17,0,0,1,1.74-.42A3.93,3.93,0,0,1,188,183.16Z"/><path class="cls-71" d="M191.09,184.82c-.15-.67-.32-1.34-.51-2l2-.6.6,2.14h0l-.85,1.17Z"/><path class="cls-19" d="M189,185.46l2.1-.64.09.25c.67.29,1,.68.92,1.17s-.17.77-.36.82l-1.56,2.6-.66-2.22A19.25,19.25,0,0,0,189,185.46Z"/><path class="cls-72" d="M191.74,187.06c-.19-.66-.38-1.33-.56-2,.66-.27,1.33-.5,2-.71Z"/><path class="cls-73" d="M190.78,167.13l-2,.62C189.11,166.52,189.78,166.27,190.78,167.13Z"/><path class="cls-34" d="M178.53,181.18l-.84.3-.88.13c.39-.72.79-1.42,1.18-2.13A5.63,5.63,0,0,1,178.53,181.18Z"/><path class="cls-74" d="M164.3,176.48l2.1-.6-1.47,2.57C164.7,177.8,164.49,177.14,164.3,176.48Z"/><circle cx="110.52" cy="111.07" r="33"/><path class="cls-1" d="M82.86,125.58c-.29-1.59-.58-3.18-.86-4.76l1.28-.5a9.82,9.82,0,0,1,2.76.09c3.21.18,6.56-.3,9.32,2,1,1.11.72,2.52,1,3.81s1.48,1.35.51.29,1.22-1.25-.16-.84a6.68,6.68,0,0,0-.4-3,16.92,16.92,0,0,0-3-2,7.23,7.23,0,0,1-2.31-4.8c.35-4.9,1.71-8.92,7.75-8.79a6.32,6.32,0,0,1,2.61,1.18,5.82,5.82,0,0,1,1.3,2.31c.13,1.56-.53,3.11-.13,4.7.39.7.75,1.4,1.19,2.08a8.57,8.57,0,0,0,2.86,2.6,6.71,6.71,0,0,0,3.85.41c2.07-.61,3.78-1.93,5.73-2.81,2.18-.79,4.36-1.63,6.74-.9,3.57,3.63-.54,6.73-.67,10.09a12.66,12.66,0,0,0-.35,3.29,7,7,0,0,0,2.63,1.9,6.61,6.61,0,0,1,1.86,1.79,4.19,4.19,0,0,1,.06,4.05,5.4,5.4,0,0,1-5.23,2.36h0c-1.24-.17-2.5,0-3.72-.19a3,3,0,0,0-2.11.31,4,4,0,0,1-3.11.32,8.91,8.91,0,0,0-3.09-.1c-1.07.26-2,.8-3.12,1.11l-1.23-.17c-.86-.32-1.7-.59-2.58-.84C94.32,137.41,85.92,135,82.86,125.58Z"/><path class="cls-2" d="M107.69,78.94c6.44-1.85,11.49,1.3,16.5,4.61-.21,1.91,1.35,2.45,2.53,3.3,6.4,2.91,9.24,9.24,13.58,14.13a4.12,4.12,0,0,1,1.08,4.8,6.7,6.7,0,0,1-4,1.19c-3.79,0-8-2-10.84,2.37a11.46,11.46,0,0,1-3.12,2.89,5.24,5.24,0,0,1-2.91.1,8.31,8.31,0,0,1-4.16-4.16c-.92-2.32-1.76-4.67-1.45-7.25a5.67,5.67,0,0,1,1.66-2.46c-1.23-.27-1.75.91-2.63,1.33-1.21.58-2.38,1.25-3.61,1.81-3.22,1-5.74,3.76-9.33,3.88a3.75,3.75,0,0,1-2.55-1.22,5.25,5.25,0,0,1-.17-4.2,8.48,8.48,0,0,1,3.28-4.39,14.64,14.64,0,0,1,2.33-1.28,25.64,25.64,0,0,0,3.46-1.77c.67-.5,1.38-1,2.1-1.39a12.1,12.1,0,0,1,3.06-1.46c.54-.13,1.13-.29,1.64-.43a7,7,0,0,1-1.79-.27,4.84,4.84,0,0,1-1.81-.95,7.68,7.68,0,0,1-1.39-1.68,20.59,20.59,0,0,1-1.51-3,8.92,8.92,0,0,1-.62-2.26A3.52,3.52,0,0,1,107.69,78.94Z"/><path class="cls-3" d="M98.55,103l1.27,1.69c-.06.39-.13.79-.19,1.18l-.94.74a9,9,0,0,1-2.32.11c-.75-.1-1.51-.19-2.27-.24-.74.21-1.49.39-2.25.58a6,6,0,0,1-2.38,0,7.9,7.9,0,0,1-2.14-1.15,11.65,11.65,0,0,1-1.72-1.72,12.86,12.86,0,0,1-1.36-2,17.1,17.1,0,0,0-1.89-3,13.49,13.49,0,0,1,5.82-9.85c1.4.13,2.63-.51,3.92-.89,4.25-2.46,8-7.09,13.73-3.17a7.62,7.62,0,0,1,1.64,2.22,8.8,8.8,0,0,1,.43,4,9.22,9.22,0,0,1-1.56,3.62,2.43,2.43,0,0,1-2.26.91h0c-1.87-.1-3.34.35-3.42,2.61v0C100.5,100.38,98.7,101.29,98.55,103Z"/><path class="cls-4" d="M140.3,101c-7.35-2.73-9.56-11.29-16.46-14.52a2,2,0,0,1,.93-1.53c.54-.3.85-.39.94-.28l-.08-.2c.53,1.14,1.82.82,2.65,1.37C134.23,89.33,138.89,93.87,140.3,101Z"/><path class="cls-5" d="M140.2,122.15a1.36,1.36,0,0,1-.9,1.52,9.55,9.55,0,0,1-1.39,1.9,6.78,6.78,0,0,1-2.32.49,6,6,0,0,1-3.22-1.41,3.52,3.52,0,0,1-.72-4.2c.07-1,2.29.23,1.63-1.58a11.31,11.31,0,0,1-.38-2.23,7.75,7.75,0,0,1,.49-3.6,6.34,6.34,0,0,1,1.75-1.86,5.26,5.26,0,0,1,2.53-.52,4.81,4.81,0,0,1,2.89,2.39,8.42,8.42,0,0,1,.52,3.62c-.3,1.1-1,2.1-1,3.29A3.64,3.64,0,0,1,140.2,122.15Z"/><path class="cls-6" d="M80.92,115.79a1.36,1.36,0,0,1-.35-1.86,3.8,3.8,0,0,1,.13-2.49l0-.17a28.19,28.19,0,0,0,0-3v.1A7.87,7.87,0,0,1,82,106a4.68,4.68,0,0,1,2.21-1.36,5.74,5.74,0,0,1,2.54.34l1.12.58.91.79.58,1a5.54,5.54,0,0,1-.23,2.14c-.18.61-.4,1.23-.6,1.84a3.58,3.58,0,0,0,.33,1.81,5.3,5.3,0,0,1,.93,1.87c0,.39,0,.75,0,1.14s-.29.73-.43,1.11a7.37,7.37,0,0,1-1.7,1.82,6.73,6.73,0,0,1-2.44.9,5.1,5.1,0,0,1-2.51-.8C81.69,118.27,80.72,117.33,80.92,115.79Z"/><path class="cls-7" d="M140.2,115.08l-2.69-3.77a4.22,4.22,0,0,1,.87-6l3,.43,1.61,9.38c-.14.43-.28.86-.41,1.29l-1.26.51-1.24-.53Z"/><path class="cls-7" d="M134.86,132.71,127.8,138c-1.65,1.54-2.42,2.12-4.53,2.52-.59-.25-1.64,0-2-.47l5-4.36a21.4,21.4,0,0,1,.92-2.77,11.87,11.87,0,0,1,4.22-4,7.72,7.72,0,0,1,4.25-1.09c.45.21,1.4-.7,1.84-.49.31.47-.51,2.16-.36,2.7A7.79,7.79,0,0,1,134.86,132.71Z"/><path class="cls-8" d="M91.2,89.74l-3-.39c2.65-3.61,5.68-6.73,10.31-7.68a1.87,1.87,0,0,1,1.14,2.68C96.92,86.32,94.87,89.29,91.2,89.74Z"/><path class="cls-7" d="M112.13,138.61l3,.12a1.47,1.47,0,0,1,1.85-.88l4.28,2.18c-2.73,2.64-6.12,2.21-9.45,2a2.28,2.28,0,0,1-1.83-2A1.91,1.91,0,0,1,112.13,138.61Z"/><path class="cls-9" d="M82.36,99.2c2.57-1.81,3.58-.59,3.88,2a3.2,3.2,0,0,1-1.55,3.33c-.82.34-1.61.72-2.39,1.13L81,105.37l.62-3.07c.22-1,.42-2,.67-3Z"/><path class="cls-10" d="M107.69,78.94l1.57,2.6a3.69,3.69,0,0,1-1.91,2.27c-2.42.15-5.28,1.45-6.23-2.33a4.62,4.62,0,0,1,2.44-1.75C104.81,78.79,106.09,78,107.69,78.94Z"/><path class="cls-11" d="M80.6,119.34a1.48,1.48,0,0,0-.54-1.78,16.06,16.06,0,0,0,.86-1.77l3.1,3.7-.1.86-.8.31a4.73,4.73,0,0,0-1.12.16C81.55,120.31,81.08,119.82,80.6,119.34Z"/><path class="cls-3" d="M103.56,79.73l-1.78,2.08a1.72,1.72,0,0,1-2.15,1.39q-.59-.75-1.14-1.53C99.86,80.19,101.42,79.2,103.56,79.73Z"/><path class="cls-12" d="M139.15,120.65l.74-3.16.84-1.09.68.09,1.18.43-.24,1.23a10.27,10.27,0,0,0-1.56,1.38c0,.78-.24,1.21-.72,1.28S139.29,120.83,139.15,120.65Z"/><path class="cls-2" d="M128.28,85.82l-2.65-1.37Z"/><path class="cls-13" d="M125.71,84.65l-1.87,1.81c.11-1,.23-1.94.35-2.91A1.33,1.33,0,0,1,125.71,84.65Z"/><path class="cls-14" d="M138,126.51l-1.12,1.92.09-.69-.66-.21A1.44,1.44,0,0,1,135,126a1.69,1.69,0,0,1,2-.71v0C138,125.16,138.33,125.6,138,126.51Z"/><path class="cls-15" d="M138,126.51l-.53-.62-.45-.68,2.25-1.54C138.88,124.61,138.45,125.56,138,126.51Z"/><path class="cls-3" d="M82.3,99.34l-.67,3A2.09,2.09,0,0,1,82.3,99.34Z"/><path class="cls-11" d="M82.68,107l-2,1.36.3-2.95a1.21,1.21,0,0,1,1.18-.62A1.92,1.92,0,0,1,82.68,107Z"/><path class="cls-15" d="M139.15,120.65a9.7,9.7,0,0,1,1.64-1.12c-.2.87-.4,1.75-.59,2.62Q139.65,121.43,139.15,120.65Z"/><path class="cls-11" d="M80.71,108.22l0,3Z"/><path class="cls-11" d="M80.7,111.44c0,.83-.08,1.66-.13,2.49C80.62,113.1,80.66,112.27,80.7,111.44Z"/><path class="cls-16" d="M133.08,120l1,4.7c0,.42,0,.84-.07,1.26a10.26,10.26,0,0,1-2.26,4.5,22.43,22.43,0,0,1-4.21,2.95c-1.36.17-2.5-.62-3.76-.86L122,133.81a2.17,2.17,0,0,1-1.76-1.14,2.33,2.33,0,0,1,.64-2c.75-1.08-.76-.69-.83-1.24a1.91,1.91,0,0,1-.24-2c-1.68-4.16,3.13-6.72,2.63-10.59a1.92,1.92,0,0,1-1.75-1.34,4.69,4.69,0,0,1,.35-2.37l.86-.85,1.66-1.3a2.76,2.76,0,0,1,2.63,1.8c.19.1.07.77.15.47.37-1.37.43.68.94-.69a5.24,5.24,0,0,1,2.52,0c2.36,1.41,4.8,2.73,5,5.93l0,.2q-.14,1.05-.87,1.26C133.48,120.15,133.19,120.15,133.08,120Z"/><path class="cls-11" d="M87.43,117l1.73-1.38a2.37,2.37,0,0,1,3,.4l4,5.16a1.32,1.32,0,0,1-.84,1.25c-.48.16-.77.18-.87.05-3.6.42-7.31,2.53-10.69-.67a12.64,12.64,0,0,1,.33-2.29v0l1.77-1.3c.7.17,1.18,0,1.43-.38S87.55,117.1,87.43,117Z"/><path class="cls-17" d="M100.92,109.35a18,18,0,0,1-1.41-1.61l.24-1.35a75.08,75.08,0,0,1,6.28-5,4,4,0,0,1,2.26-.69,2.65,2.65,0,0,1,1.49,1.55c-.11.33-.21.68-.29,1a5.64,5.64,0,0,1,2.18-.39,4.37,4.37,0,0,1,2.13,1,4.8,4.8,0,0,1,.89,2.32,6.75,6.75,0,0,1-1.13,3.8,8,8,0,0,1-3.36,2.56,6.78,6.78,0,0,1-2.9.23C104.8,112.32,103.51,109.63,100.92,109.35Z"/><path class="cls-18" d="M94.38,122.43l1.71-1.3,3,.57-.36,2.8c-.88,2.18,4.13,1.55,2,4.56-1.52,2.19-3.27,2.36-5.4,1.72-2.64-.79-1.33-2.6-1.06-4.22A28.39,28.39,0,0,0,94.38,122.43Z"/><path class="cls-19" d="M105.19,122.56c-3.27-.28-3.4-2.94-4-5.25a1.32,1.32,0,0,0-1.34-1.76c-2.74-2.91,1.23-2.87,1.88-4.29,1.37-3,2.85-1.16,4.31-.11a22.48,22.48,0,0,0,1.88,2,5.08,5.08,0,0,1,.58,2.59,14.47,14.47,0,0,1-1.05,3.77A8.51,8.51,0,0,1,105.19,122.56Z"/><path class="cls-6" d="M92.14,116l-3-.4h0a7.69,7.69,0,0,0,0-2.62,8.35,8.35,0,0,1-.5-5.17v0c-.24-1.5.33-1.93,1.72-1.31l1.73-1.35,1-.37a5.78,5.78,0,0,1,2.11.13l1,.34a4.21,4.21,0,0,0,1.92.81h0c1.43-.25,1.9.31,1.4,1.68v0C94.79,108.45,94.65,113.27,92.14,116Z"/><path class="cls-20" d="M121.69,115.27c.24.54.5,1.08.78,1.6-1.82,1.3-3.44,3-6,2.76l-1.07-.13-.63-.87a4.32,4.32,0,0,1-.15-2.08,9.11,9.11,0,0,0-.9-3.07c0-.41,0-.8,0-1.21.19-.38.39-.73.59-1.1a5,5,0,0,1,2.22-1.27c2.13-.11,3.19,1.36,4.27,2.82A4.68,4.68,0,0,1,121.69,115.27Z"/><path class="cls-21" d="M115,117.54l1.47,2.09c-1.56,1.52-2.17,4.39-5.28,3.71a5.5,5.5,0,0,1-4.07-3.6,4.49,4.49,0,0,1,.39-2.75,5.26,5.26,0,0,1,3.88-1.45,6.61,6.61,0,0,1,2.65,1Z"/><path class="cls-22" d="M107.25,118l4,5.32-6-.78c.13-1.08.25-2.16.37-3.24.1-.46.19-.92.28-1.38Z"/><path class="cls-23" d="M106.88,113.31l-5.14-2a3.33,3.33,0,0,1-.82-1.91c3.57-2.12,5.4.33,7.23,2.77l-.26,1Z"/><path class="cls-24" d="M119.84,127.46l1.33,1.65a1.26,1.26,0,0,1,1.15,1.77c-.55.39-1.08.81-1.59,1.25,0,.78-.31,1.22-.82,1.33s-.81.07-.94-.1C117.55,131.14,117.73,129.16,119.84,127.46Z"/><path class="cls-15" d="M123.75,132.56l3,.4c1.47-.25,1.9.3,1.28,1.66l-1.88,1.06Z"/><path class="cls-25" d="M110.48,140.22l-3-.64.24-.49.36-.92,1,.12,3.12.32Z"/><path class="cls-15" d="M119,133.36c.59-.4,1.18-.81,1.76-1.23.43.56.86,1.13,1.3,1.68Z"/><path class="cls-26" d="M99.86,115.55c1.35-.1,1.76.51,1.34,1.76C100.76,116.72,100.31,116.14,99.86,115.55Z"/><path class="cls-27" d="M117,137.85a4,4,0,0,1-1.85.88,7.66,7.66,0,0,1,1-1.17C116.24,137.46,116.66,137.74,117,137.85Z"/><path class="cls-28" d="M98.71,124.5l.36-2.8Z"/><path class="cls-11" d="M109,138.29a7.35,7.35,0,0,1-1.34.81,6.33,6.33,0,0,1,.62-1.08C108.34,138,108.76,138.19,109,138.29Z"/><path class="cls-29" d="M84,119.47l-.33,2.29a2.33,2.33,0,0,1-.57-1.1A4.2,4.2,0,0,1,84,119.47Z"/><path class="cls-30" d="M138.38,105.35l-.87,6-1.83,1.32c-1.83-.27-3.75-.24-5.2-1.61-.93-.26.52-2.15-1.24-1.87a3,3,0,0,1-1.69,2.67,3.1,3.1,0,0,1-2.27-.53A3.92,3.92,0,0,1,124,108C127.72,101.2,132.8,101.91,138.38,105.35Z"/><path class="cls-31" d="M110,99.86c3.24-3.09,6.47-6.19,10.65-10.19,1.06,6.09-2,8.76-5,11.42a2,2,0,0,1-.76,1.39c-.44.33-.69.46-.76.37a15.11,15.11,0,0,1-3.68-.84c-.27-.32-.55-.63-.83-1C109.69,100.66,109.82,100.26,110,99.86Z"/><path class="cls-32" d="M105.8,94.74l.43-3a3.85,3.85,0,0,1,.91-2,3.9,3.9,0,0,1,1.69-1.42c1.11-.26,2.2.19,3.3.13a8.35,8.35,0,0,1,2.17-.18l.14,0A1.43,1.43,0,0,1,115.67,90l-5.2,3.92a3.32,3.32,0,0,0-2.36.47A2.43,2.43,0,0,1,105.8,94.74Z"/><path class="cls-33" d="M113.78,101.6a4.38,4.38,0,0,0,1.8-.51c1.71,1.65,2.89,3.53,2.72,6A2.14,2.14,0,0,1,116,109a3.79,3.79,0,0,1-2.4-3.86c-.43-.51-.87-1-1.33-1.51l-.38-1A2.87,2.87,0,0,1,113.78,101.6Z"/><path class="cls-34" d="M99.52,107.76l-1.4-1.68,1.7-1.38c3.2-2,5.57-5.69,10.13-4.84l-.43.49c.19.75.06,1.2-.38,1.36s-.78.18-.91,0Z"/><path class="cls-35" d="M116.27,108.48c.67-.46,1.35-.91,2-1.36l3.63,5.19h-.41c.13.75,0,1.19-.49,1.33s-.76.14-.89,0l-4.48-2.15-1.3-.57c-.1-.46-.2-.93-.29-1.39A1.68,1.68,0,0,1,116.27,108.48Z"/><path class="cls-36" d="M100.68,98.69c-.56-1.06-1.73-2.39-.15-3.15.9-.43,2.37.32,3.57.54Z"/><path class="cls-37" d="M124,108l2.7,3.42a1.26,1.26,0,0,1,1.14,1.74c-.54.44-1.09.88-1.65,1.31h0c-.88-1.15-1.76-2.29-2.63-3.44C123.72,110,123.86,109,124,108Z"/><path class="cls-38" d="M107.39,82.57a18.71,18.71,0,0,1,1.86-1,17.46,17.46,0,0,0,1.18,1.51,3.59,3.59,0,0,1-1.61,2.56c-1.08.23-2.28.11-2.76-.84S106.24,82.88,107.39,82.57Z"/><path class="cls-39" d="M109.79,89.12l-1.88,1.33a1.32,1.32,0,0,1-1.26-1.75l0,0c-.13-1.56.91-2.23,2.11-2.78l1.26.26c.43.55.86,1.08,1.3,1.61l-.21,1.36C110.7,89.17,110.25,89.14,109.79,89.12Z"/><path class="cls-40" d="M98.55,103l2.13-4.34Z"/><path class="cls-41" d="M105.8,94.74l1.72-1.27a1.34,1.34,0,0,1,1.33,1.68l-4.77.93Z"/><path class="cls-42" d="M108.85,95.15c-.45-.55-.9-1.11-1.33-1.68l3,.42Z"/><path class="cls-43" d="M114.3,88.24c-.52.44-1,.86-1.58,1.28a1.32,1.32,0,0,1-1.35-1.72v0Z"/><path class="cls-44" d="M108.81,84.44c.55-.46,1.09-.92,1.62-1.39l-.36,3.16,0,0Q108.15,86.21,108.81,84.44Z"/><path class="cls-45" d="M115.67,90c-.41-.57-.83-1.14-1.23-1.71C115.76,88.17,116.12,88.78,115.67,90Z"/><path class="cls-46" d="M108.81,84.44,110,86.18l-3.34,2.55c-5.63-6.79-10.24,2-15.5,1l8.43-6.54,2.15-1.39,5.61.76C107,83.82,107.49,84.47,108.81,84.44Z"/><path class="cls-47" d="M82.59,104.29l3.66-3.09,1.51,1.86c-.31,1,.65,2.14-.37,3l-3.17-.39A1.51,1.51,0,0,1,82.59,104.29Z"/><path class="cls-48" d="M93.84,103.91l2.84.33c0,.74-.17,1.19-.65,1.36s-.79.2-.9.05h0l-1.35-.34C93.78,104.83,93.81,104.37,93.84,103.91Z"/><path class="cls-1" d="M95.13,105.65a9,9,0,0,0,1.55-1.41l1.45,1.83Z"/><path class="cls-49" d="M106.65,88.7l1.26,1.75c-.56.44-1.12.86-1.69,1.28C106.37,90.72,106.51,89.71,106.65,88.7Z"/><path class="cls-50" d="M92.12,105.16a9.7,9.7,0,0,1,.79-1.46c.09-.1.61.13.93.21h.1a1.41,1.41,0,0,1-1,1.27c-.5.14-.81.14-.91,0Z"/><path class="cls-51" d="M87.39,106.1c.13-1,.25-2,.37-3l1.32,1.74c0,.78-.27,1.23-.77,1.36s-.82.11-.94,0Z"/><path class="cls-52" d="M87.37,106.11l1.71-1.31,1.31,1.71-1.72,1.31Z"/><path class="cls-53" d="M127.84,113.14l-1.14-1.74c.53-.44,1.07-.86,1.62-1.27,2.19.81,4.91.83,5.64,3.81.3,1.54.59,3.08.89,4.61Z"/><path class="cls-54" d="M134,113.94l-5.64-3.81c.13-1,.25-2,.38-3a1.33,1.33,0,0,1,1.34,1.66l5.64,3.86Z"/><path class="cls-15" d="M137.05,125.24a20,20,0,0,0-1.7,1.2,1.31,1.31,0,0,1-1.32-1.68l0-.05Z"/><path class="cls-55" d="M133.08,120c.57-.44,1.15-.86,1.75-1.26a9.06,9.06,0,0,1-.81,1.47C133.93,120.33,133.41,120.09,133.08,120Z"/><path class="cls-9" d="M140.73,116.4a8.2,8.2,0,0,1-.84,1.1c.1-.81.2-1.62.31-2.43A7.23,7.23,0,0,1,140.73,116.4Z"/><path class="cls-1" d="M88.68,107.79c1.36,1.94,3.09,3.76,2.18,6.46a13.64,13.64,0,0,1-3-.42l0,0a1.58,1.58,0,0,1-1.87-1c-.06-1.27.77-2.3,1-3.5Z"/><path class="cls-11" d="M86.56,112.07l1.29,1.74c-1,.57-2.36,1.81-3.15.2-.42-.89.38-2.36.62-3.57C86.33,110.53,86.77,111.06,86.56,112.07Z"/><path class="cls-9" d="M82.59,104.29l1.63,1.42c-.5.43-1,.85-1.54,1.25-.16-.73-.33-1.47-.5-2.2Z"/><path class="cls-56" d="M86.56,112.07l-.64-.8-.6-.83A15.83,15.83,0,0,1,87,109.26C86.83,110.2,86.69,111.14,86.56,112.07Z"/><path class="cls-11" d="M87.88,113.83l3,.42-1.7,1.32Z"/><path class="cls-57" d="M87.43,117a9.26,9.26,0,0,1-.75,1.43c-.08.1-.58-.12-.89-.19C86.32,117.75,86.87,117.34,87.43,117Z"/><path class="cls-58" d="M134,124.76q.65.84,1.32,1.68c.32.37.65.74,1,1.09l-3.25,3c-1.34.25-1.69-.29-1.18-1.5Z"/><path class="cls-59" d="M131.91,129c.39.51.78,1,1.19,1.5l-5,4.08c-.43-.55-.86-1.1-1.28-1.66Z"/><path class="cls-60" d="M120.14,113.61c.48-.42.94-.86,1.39-1.31,0,1,.1,2,.16,3Z"/><path class="cls-61" d="M126.19,114.45l.13.85c0-.28-.07-.57-.1-.85Z"/><path class="cls-15" d="M122.32,130.88c-.37-.6-.75-1.19-1.15-1.77C122.51,129.08,122.86,129.69,122.32,130.88Z"/><path class="cls-62" d="M106.88,113.31c.41-.42.83-.82,1.27-1.2s.94-.74,1.39-1.14a2.68,2.68,0,0,1,3.19,1.58,3.22,3.22,0,0,1-.12,2.53,3.38,3.38,0,0,1-2.41.82,3.61,3.61,0,0,1-2.18-1.34A9.6,9.6,0,0,0,106.88,113.31Z"/><path class="cls-63" d="M112.39,114.15,109.54,111l3.69-2.93c1.1-.08,1.47.43,1.24,1.47l.15.51a14.83,14.83,0,0,1-.45,2.28l0,.67A1.48,1.48,0,0,1,112.39,114.15Z"/><path class="cls-33" d="M108.23,101.73a8.44,8.44,0,0,1,1.29-1.38,5.88,5.88,0,0,0,1.84,1,1.15,1.15,0,0,1,1,1.44l-.11.85a20.36,20.36,0,0,0-1.78,1.11c-1,0-1.42-.47-1.26-1.46Z"/><path class="cls-64" d="M114.47,109.51c-.42-.48-.84-1-1.24-1.47.13-1,.27-2,.4-2.93.88,1.12,1.76,2.24,2.63,3.37A7.78,7.78,0,0,1,114.47,109.51Z"/><path class="cls-65" d="M108.94,105.89l.1.87-.13-.89Z"/><path class="cls-66" d="M109.26,103.25a8,8,0,0,1,1.26,1.46l-1.58,1.18,0,0C109,105,109.14,104.13,109.26,103.25Z"/><path class="cls-22" d="M108,114.56l2.75.73c0,.83-.25,1.32-.79,1.48s-.88.15-1,0c-.56.44-1.14.87-1.72,1.28h0a1.35,1.35,0,0,1-1.32-1.75Z"/><path class="cls-67" d="M106,116.28,107.3,118l-1.74,1.29Z"/><path class="cls-1" d="M92.06,105.19c.62-.43,1.25-.85,1.88-1.27a15.32,15.32,0,0,0,1.17,1.72Z"/><path class="cls-68" d="M115.48,114.51c1.27-.09,1.71.46,1.3,1.68l-1.33-.32Z"/><path class="cls-69" d="M112.39,114.15a6.35,6.35,0,0,1,1.76-1.19c.46.51.9,1,1.33,1.55h0a1.56,1.56,0,0,1-.92,1.32c-.5.2-.79.24-.89.12a1.57,1.57,0,0,1-1.24-1.91Z"/><path class="cls-70" d="M114.17,112.3l.45-2.29a16,16,0,0,1,1,1.45A3.87,3.87,0,0,1,114.17,112.3Z"/><path class="cls-71" d="M113.78,115.75c.57-.39,1.13-.8,1.67-1.23l1.32,1.67L115,117.54v0l-1.4-.34C113.67,116.7,113.73,116.22,113.78,115.75Z"/><path class="cls-19" d="M112.4,114.05l1.38,1.7-.19.18c0,.73-.26,1.16-.73,1.3s-.78.12-.9,0l-3-.46,1.8-1.45C111.33,114.9,111.88,114.49,112.4,114.05Z"/><path class="cls-72" d="M112,117.2c.54-.43,1.08-.86,1.63-1.27.5.51,1,1,1.42,1.59Z"/><path class="cls-73" d="M130,108.77l-1.34-1.66C130,107,130.46,107.52,130,108.77Z"/><path class="cls-34" d="M112.41,102.75l-.6-.66-.45-.78,2.42.29A5.78,5.78,0,0,1,112.41,102.75Z"/><path class="cls-74" d="M111.37,87.8l1.35,1.72-2.93-.4C110.3,88.66,110.83,88.22,111.37,87.8Z"/><circle cx="259.52" cy="259.07" r="33"/><path class="cls-1" d="M228.37,256.78q.88-2.25,1.79-4.5l1.35.26a9.55,9.55,0,0,1,2.29,1.53c2.63,1.84,5.73,3.21,6.89,6.59.21,1.44-.72,2.52-1.16,3.76s.54,1.93.27.52,1.7-.41.32-.79a6.78,6.78,0,0,0,1.25-2.78,17.08,17.08,0,0,0-1.46-3.3,7.18,7.18,0,0,1,.57-5.3c2.88-4,6.16-6.67,11.22-3.37a6.32,6.32,0,0,1,1.59,2.37,5.83,5.83,0,0,1-.11,2.66c-.72,1.39-2.09,2.36-2.6,3.91,0,.81-.1,1.59-.09,2.4a8.84,8.84,0,0,0,1.06,3.72,6.76,6.76,0,0,0,3,2.38c2.08.58,4.24.36,6.35.64,2.28.48,4.57.92,6.2,2.8,1.12,5-4,5.43-5.9,8.22a12.74,12.74,0,0,0-2,2.6,6.92,6.92,0,0,0,1.24,3,6.78,6.78,0,0,1,.63,2.5,4.22,4.22,0,0,1-2.09,3.47,5.4,5.4,0,0,1-5.69-.76h0c-1-.8-2.14-1.31-3.07-2.12a3.05,3.05,0,0,0-1.95-.87,4,4,0,0,1-2.82-1.36,8.7,8.7,0,0,0-2.56-1.71c-1.05-.35-2.16-.41-3.23-.71-.33-.26-.64-.52-1-.8-.57-.72-1.14-1.4-1.75-2.07C231.85,272.88,226,266.37,228.37,256.78Z"/><path class="cls-2" d="M274.08,230.29c6.46,1.83,9.08,7.17,11.58,12.63-1.18,1.5-.14,2.79.41,4.13,3.89,5.86,3,12.73,4.07,19.18a4.13,4.13,0,0,1-1.62,4.65,6.79,6.79,0,0,1-4-1.11c-3.2-2-5.73-5.92-10.45-3.72a11.47,11.47,0,0,1-4.18.81,5.27,5.27,0,0,1-2.52-1.45,8.28,8.28,0,0,1-1.33-5.73c.44-2.46,1-4.9,2.59-6.92a5.57,5.57,0,0,1,2.71-1.21c-.9-.88-2-.16-2.94-.26-1.33-.15-2.68-.2-4-.37-3.27-.84-6.85.16-10-1.64a3.76,3.76,0,0,1-1.52-2.37,5.22,5.22,0,0,1,2.08-3.67,8.34,8.34,0,0,1,5.1-2,14.72,14.72,0,0,1,2.65.14,26.36,26.36,0,0,0,3.87.33c.84-.08,1.68-.08,2.52-.08a12.19,12.19,0,0,1,3.37.38l1.63.5a6.89,6.89,0,0,1-1.39-1.18,4.75,4.75,0,0,1-1-1.76,7.86,7.86,0,0,1-.3-2.15,21.27,21.27,0,0,1,.33-3.39,8.72,8.72,0,0,1,.67-2.25A3.52,3.52,0,0,1,274.08,230.29Z"/><path class="cls-3" d="M253.61,245.9c.07.7.13,1.41.19,2.11l-.79.9-1.18.13a8.62,8.62,0,0,1-2-1.13c-.58-.48-1.18-1-1.8-1.4-.75-.22-1.48-.46-2.22-.7a6,6,0,0,1-2-1.26,8.2,8.2,0,0,1-1.21-2.11,12,12,0,0,1-.55-2.37,12.83,12.83,0,0,1-.11-2.4,17.55,17.55,0,0,0,0-3.55A13.43,13.43,0,0,1,252,228.83c1.12.85,2.5,1,3.8,1.31,4.91.15,10.54-1.79,13.34,4.56a7.72,7.72,0,0,1,.22,2.75,8.81,8.81,0,0,1-1.78,3.66,9.32,9.32,0,0,1-3.23,2.25,2.43,2.43,0,0,1-2.4-.42h0c-1.54-1.07-3-1.46-4.29.41v0C256.66,244.7,254.65,244.52,253.61,245.9Z"/><path class="cls-4" d="M290.14,266.23c-4.8-6.2-2.16-14.64-6.31-21a2,2,0,0,1,1.6-.8c.61,0,.93.11.94.26l0-.21c-.15,1.25,1.11,1.65,1.53,2.56C291.14,253.13,292.7,259.44,290.14,266.23Z"/><path class="cls-5" d="M278.87,284.15a1.36,1.36,0,0,1-1.56.82,10.06,10.06,0,0,1-2.18.88,6.87,6.87,0,0,1-2.23-.81,6,6,0,0,1-2-2.9,3.51,3.51,0,0,1,1.6-3.95c.6-.83,1.83,1.41,2.22-.48a12,12,0,0,1,.86-2.1,7.8,7.8,0,0,1,2.31-2.79,6.08,6.08,0,0,1,2.47-.65,5,5,0,0,1,2.42.89,4.82,4.82,0,0,1,1.2,3.55,8.41,8.41,0,0,1-1.47,3.35c-.84.77-1.94,1.27-2.55,2.29A3.74,3.74,0,0,1,278.87,284.15Z"/><path class="cls-6" d="M231.9,247.44a1.34,1.34,0,0,1,.68-1.76,3.75,3.75,0,0,1,1.43-2l.06-.16c.48-.9,1.25-1.61,1.65-2.57l-.06.08a7.86,7.86,0,0,1,2.28-1.31,4.57,4.57,0,0,1,2.59,0,5.71,5.71,0,0,1,2,1.63c.22.36.43.73.64,1.08l.36,1.15c0,.39,0,.79,0,1.17a5.8,5.8,0,0,1-1.33,1.7c-.47.43-1,.84-1.48,1.25a3.43,3.43,0,0,0-.67,1.71,5.63,5.63,0,0,1-.2,2.08l-.59,1c-.32.24-.63.46-.95.71a7.25,7.25,0,0,1-2.41.65,6.71,6.71,0,0,1-2.54-.52,5,5,0,0,1-1.71-2C231.24,250,230.91,248.65,231.9,247.44Z"/><path class="cls-7" d="M282.61,278.15l-.29-4.62a4.2,4.2,0,0,1,3.88-4.6l2.32,1.95-3.59,8.81-1,.88-1.33-.23-.78-1.11Z"/><path class="cls-7" d="M268.76,290.3l-8.78.75c-2.22.44-3.17.53-5.18-.25-.36-.52-1.39-.85-1.49-1.48l6.51-1.09a26.61,26.61,0,0,1,2.24-1.86,12,12,0,0,1,5.71-1.19,7.67,7.67,0,0,1,4.18,1.33c.28.41,1.56.14,1.83.56,0,.55-1.57,1.56-1.73,2.09A7.81,7.81,0,0,1,268.76,290.3Z"/><path class="cls-8" d="M254.38,230.75,252,228.83c4.16-1.67,8.38-2.72,12.82-1.08a1.87,1.87,0,0,1-.46,2.88C261.05,230.87,257.73,232.31,254.38,230.75Z"/><path class="cls-7" d="M246.34,283.31l2.47,1.67a1.46,1.46,0,0,1,2,.22l2.49,4.12c-3.72.79-6.37-1.36-9.09-3.3a2.27,2.27,0,0,1-.5-2.65A1.89,1.89,0,0,1,246.34,283.31Z"/><path class="cls-9" d="M241.88,234.12c3.13-.18,3.35,1.39,2.24,3.75a3.21,3.21,0,0,1-3.08,2c-.87-.14-1.75-.24-2.62-.3l-.95-.93,2.15-2.28c.71-.72,1.4-1.46,2.13-2.16Z"/><path class="cls-10" d="M274.08,230.29l0,3a3.72,3.72,0,0,1-2.82.92c-2.13-1.16-5.24-1.56-4.05-5.27a4.62,4.62,0,0,1,3-.2C271.72,228.64,273.21,228.66,274.08,230.29Z"/><path class="cls-11" d="M229.75,250.29a1.49,1.49,0,0,0,.48-1.8,14.59,14.59,0,0,0,1.67-1.05c.22,1.6.45,3.19.67,4.79l-.53.67-.85-.15a5,5,0,0,0-1-.47C230,251.62,229.9,251,229.75,250.29Z"/><path class="cls-3" d="M270.17,228.78l-2.61.83a1.74,1.74,0,0,1-2.57,0c-.06-.63-.11-1.26-.15-1.9C266.78,227.22,268.63,227.2,270.17,228.78Z"/><path class="cls-12" d="M278.77,282.33l2.3-2.29,1.29-.49.53.43.78,1-.86.92a10.1,10.1,0,0,0-2.05.35c-.41.67-.84.9-1.29.71S278.8,282.55,278.77,282.33Z"/><path class="cls-2" d="M287.94,247l-1.53-2.56Z"/><path class="cls-13" d="M286.37,244.66l-2.54.54,1.83-2.28A1.32,1.32,0,0,1,286.37,244.66Z"/><path class="cls-14" d="M274.73,286.7l-2,1.05.44-.54-.46-.52a1.47,1.47,0,0,1-.29-2.06,1.68,1.68,0,0,1,2.1.48l0,0Q275.84,285.79,274.73,286.7Z"/><path class="cls-15" d="M274.73,286.7l-.12-.8,0-.82,2.73-.11Z"/><path class="cls-3" d="M241.75,234.2l-2.13,2.16A2.09,2.09,0,0,1,241.75,234.2Z"/><path class="cls-11" d="M238.05,240.88l-2.39.11,1.81-2.35a1.22,1.22,0,0,1,1.33.1A1.94,1.94,0,0,1,238.05,240.88Z"/><path class="cls-15" d="M278.77,282.33a9.48,9.48,0,0,1,2-.09l-1.89,1.91C278.81,283.55,278.78,282.94,278.77,282.33Z"/><path class="cls-11" d="M235.72,240.91l-1.65,2.57Z"/><path class="cls-11" d="M234,243.64l-1.43,2Z"/><path class="cls-16" d="M274,278.58l-1.66,4.49-.72,1a10.4,10.4,0,0,1-4.3,2.63,22.66,22.66,0,0,1-5.14.28c-1.24-.57-1.78-1.85-2.73-2.72l-2.13.16a2.18,2.18,0,0,1-.89-1.9,2.37,2.37,0,0,1,1.58-1.33c1.21-.52-.28-1-.05-1.49a1.93,1.93,0,0,1,.86-1.83c.77-4.43,6.21-4.05,7.82-7.61a1.92,1.92,0,0,1-.77-2.06,4.6,4.6,0,0,1,1.54-1.82l1.19-.27,2.09-.23a2.77,2.77,0,0,1,1.28,2.92c.12.18-.34.69-.11.47,1-1,0,.82,1.16-.08a5.11,5.11,0,0,1,2.12,1.35c1.26,2.44,2.63,4.86,1.13,7.69l-.12.16a1.32,1.32,0,0,1-1.4.61C274.23,278.9,274,278.75,274,278.58Z"/><path class="cls-11" d="M236.81,251.87l2.2-.26a2.39,2.39,0,0,1,2.32,1.91L242,260a1.34,1.34,0,0,1-1.37.61c-.49-.12-.74-.26-.76-.42-3.28-1.55-7.55-1.71-8.72-6.21a12,12,0,0,1,1.49-1.77l0,0,2.2-.18c.5.52,1,.66,1.41.44S236.83,252.05,236.81,251.87Z"/><path class="cls-17" d="M252.28,252.54a16.88,16.88,0,0,1-.35-2.11l.92-1a76.71,76.71,0,0,1,8-.93,4,4,0,0,1,2.29.61,2.62,2.62,0,0,1,.44,2.11c-.26.22-.53.47-.78.71a5.86,5.86,0,0,1,2.06.82,4.45,4.45,0,0,1,1.3,2,4.87,4.87,0,0,1-.47,2.44,6.82,6.82,0,0,1-3,2.63,8,8,0,0,1-4.21.4,6.85,6.85,0,0,1-2.58-1.34C254,257.11,254.34,254.14,252.28,252.54Z"/><path class="cls-18" d="M239.82,260.19,242,260l2.23,2.05-1.78,2.19c-1.9,1.38,2.69,3.49-.68,4.95-2.44,1.05-4,.27-5.49-1.4-1.82-2.06.25-2.9,1.33-4.14A29,29,0,0,0,239.82,260.19Z"/><path class="cls-19" d="M248.93,266c-2.63-2-1.33-4.29-.61-6.57a1.31,1.31,0,0,0-.22-2.19c-.79-3.92,2.57-1.79,3.87-2.66,2.74-1.81,3,.52,3.71,2.19a22.76,22.76,0,0,0,.53,2.71,5.25,5.25,0,0,1-.87,2.51,14.86,14.86,0,0,1-2.89,2.65A8.57,8.57,0,0,1,248.93,266Z"/><path class="cls-6" d="M241.33,253.52,239,251.61h0a7.4,7.4,0,0,0,1.4-2.21,8.39,8.39,0,0,1,2.3-4.65v0c.58-1.4,1.3-1.47,2.14-.2l2.19-.24,1,.21a5.75,5.75,0,0,1,1.71,1.22l.67.82a4.29,4.29,0,0,0,1.2,1.71h0c1.35.55,1.46,1.27.31,2.17v0C247.54,248.54,244.88,252.55,241.33,253.52Z"/><path class="cls-20" d="M266.79,268.53c-.08.59-.15,1.18-.19,1.77-2.23.14-4.52.77-6.53-.81l-.84-.68s-.07-1.07-.08-1.07a4.27,4.27,0,0,1,1-1.84,9.22,9.22,0,0,0,.86-3.09c.2-.36.4-.69.61-1l1.09-.63a5,5,0,0,1,2.56.1c1.86,1,2,2.84,2.13,4.65A4.64,4.64,0,0,1,266.79,268.53Z"/><path class="cls-21" d="M259.93,266.94c0,.85.09,1.7.14,2.55-2.13.47-4.16,2.59-6.44.36a5.49,5.49,0,0,1-1.55-5.21,4.55,4.55,0,0,1,1.77-2.13,5.26,5.26,0,0,1,4.06.83,6.5,6.5,0,0,1,1.75,2.21Z"/><path class="cls-22" d="M253.08,263.25c.18,2.2.37,4.4.55,6.6l-4.7-3.84,2-2.55c.33-.34.65-.68,1-1Z"/><path class="cls-23" d="M255.25,259.05,252,254.59a3.23,3.23,0,0,1,.31-2.05c4.15.09,4.41,3.13,4.68,6.16l-.75.71Z"/><path class="cls-24" d="M258.78,277.91c.09.7.17,1.4.26,2.1a1.26,1.26,0,0,1,0,2.11c-.68.05-1.35.12-2,.22-.44.65-.91.88-1.39.7s-.73-.37-.75-.58C254.89,279.82,256.09,278.24,258.78,277.91Z"/><path class="cls-15" d="M259.41,284.3l2.36,1.95q2.07.84.21,2.08l-2.16-.1C259.69,286.92,259.55,285.61,259.41,284.3Z"/><path class="cls-25" d="M244.09,283.8l-2.25-2.15.46-.29.8-.59.77.62,2.47,1.92Z"/><path class="cls-15" d="M254.93,282.46l2.14-.12c.06.71.14,1.41.21,2.12Z"/><path class="cls-26" d="M248.1,257.25c1.2.62,1.23,1.36.22,2.19C248.25,258.71,248.17,258,248.1,257.25Z"/><path class="cls-27" d="M250.84,285.2a3.89,3.89,0,0,1-2-.22,7.38,7.38,0,0,1,1.47-.47C250.44,284.5,250.65,285,250.84,285.2Z"/><path class="cls-28" d="M242.4,264.24l1.79-2.19Z"/><path class="cls-11" d="M243.87,281.39a6.86,6.86,0,0,1-1.57,0,6.51,6.51,0,0,1,1.1-.59C243.48,280.75,243.71,281.17,243.87,281.39Z"/><path class="cls-29" d="M232.59,252.21l-1.5,1.77a2.49,2.49,0,0,1,.1-1.24A4.1,4.1,0,0,1,232.59,252.21Z"/><path class="cls-30" d="M286.2,268.93l-3.89,4.6-2.25.15c-1.41-1.19-3.06-2.18-3.56-4.11-.65-.71,1.57-1.55-.07-2.25a3,3,0,0,1-2.84,1.38,3.07,3.07,0,0,1-1.65-1.65,3.93,3.93,0,0,1,.66-3.49C279.34,259.77,283.28,263.06,286.2,268.93Z"/><path class="cls-31" d="M265,249.25l14.43-3c-2.32,5.73-6.31,6.39-10.3,7.05a2,2,0,0,1-1.38.77c-.55.05-.83,0-.84-.08a15,15,0,0,1-2.68-2.66c-.07-.41-.13-.83-.2-1.24Z"/><path class="cls-32" d="M264.14,242.71l1.95-2.33a3.74,3.74,0,0,1,1.84-1.23,3.93,3.93,0,0,1,2.19-.32c1.08.37,1.77,1.32,2.74,1.85a8.42,8.42,0,0,1,1.93,1l.11.09a1.44,1.44,0,0,1,.14,2.1l-6.49.58a3.26,3.26,0,0,0-2.25-.84A2.46,2.46,0,0,1,264.14,242.71Z"/><path class="cls-33" d="M267.29,252.75a4.51,4.51,0,0,0,1.8.52c.58,2.3.59,4.52-.87,6.55a2.15,2.15,0,0,1-2.91.38,3.8,3.8,0,0,1,0-4.55c-.1-.66-.2-1.32-.33-2l.2-1A2.81,2.81,0,0,1,267.29,252.75Z"/><path class="cls-34" d="M251.93,250.45c-.1-.72-.21-1.45-.31-2.17l2.18-.27c3.76,0,7.74-1.89,11.16,1.24l-.62.19c-.24.73-.59,1.05-1,.95s-.76-.26-.78-.46Z"/><path class="cls-35" d="M265.77,259.9l2.44-.08c.12,2.11.23,4.22.35,6.33l-.35-.22c-.28.69-.66,1-1.11.86s-.73-.28-.75-.48l-2.67-4.2-.81-1.17c.17-.44.33-.89.49-1.33A1.69,1.69,0,0,1,265.77,259.9Z"/><path class="cls-36" d="M257.7,243.36c.08-1.2-.21-3,1.54-2.76,1,.11,1.84,1.52,2.75,2.35Z"/><path class="cls-37" d="M272.6,263.56l.49,4.33a1.26,1.26,0,0,1,.05,2.08l-2.09.24,0,0-.42-4.31Z"/><path class="cls-38" d="M271.92,233.21a18.83,18.83,0,0,1,2.12.12,17.23,17.23,0,0,0,.2,1.9,3.62,3.62,0,0,1-2.72,1.33c-1-.38-2-1.12-1.89-2.18S270.77,232.87,271.92,233.21Z"/><path class="cls-39" d="M270.49,240l-2.3.14a1.33,1.33,0,0,1-.14-2.15l0,.05c.71-1.39,1.95-1.41,3.26-1.24l.93.88c.07.69.16,1.37.25,2.06l-.9,1Z"/><path class="cls-40" d="M253.61,245.9l4.1-2.56Z"/><path class="cls-41" d="M264.14,242.71l2.13-.18a1.35,1.35,0,0,1,.24,2.14L262,242.94Z"/><path class="cls-42" d="M266.51,244.67c-.09-.71-.17-1.42-.24-2.14l2.28,1.92Z"/><path class="cls-43" d="M274.79,241.68c-.67.1-1.34.18-2,.25a1.31,1.31,0,0,1-.23-2.17l0,0Z"/><path class="cls-44" d="M272.14,235.55l2.1-.32-2,2.49v0C271.18,237,271.13,236.32,272.14,235.55Z"/><path class="cls-45" d="M275,243.87c-.05-.7-.1-1.4-.14-2.1C276.07,242.39,276,243.1,275,243.87Z"/><path class="cls-46" d="M272.14,235.55l.12,2.13-4.18.4c-1.2-8.74-9.77-3.69-13.7-7.33l10.61-1.1,2.56,0,4.37,3.61C271,234.09,271,234.87,272.14,235.55Z"/><path class="cls-47" d="M239.38,238.56l4.74-.69.3,2.38c-.78.68-.58,2.15-1.91,2.39l-2.49-2A1.5,1.5,0,0,1,239.38,238.56Z"/><path class="cls-48" d="M249.14,244.18l2.23,1.77c-.35.66-.77.93-1.26.83s-.78-.26-.8-.45h0l-1-1C248.6,244.93,248.87,244.55,249.14,244.18Z"/><path class="cls-1" d="M249.31,246.33a8.59,8.59,0,0,0,2.07-.38c.08.78.17,1.56.26,2.34Z"/><path class="cls-49" d="M268.05,238c.05.72.09,1.44.14,2.15l-2.1.2Z"/><path class="cls-50" d="M247,244.33a9,9,0,0,1,1.44-.81c.13-.05.45.42.68.66l.08.06a1.43,1.43,0,0,1-1.49.57c-.5-.15-.76-.31-.78-.49Z"/><path class="cls-51" d="M242.51,242.64c.63-.8,1.27-1.59,1.91-2.39l.21,2.17q-.63,1-1.38.75c-.49-.16-.75-.34-.77-.54Z"/><path class="cls-52" d="M242.48,242.63l2.15-.21c.07.72.13,1.43.2,2.15l-2.14.2Z"/><path class="cls-53" d="M273.14,270c0-.69,0-1.39-.05-2.08.68-.09,1.36-.16,2-.22,1.44,1.84,3.74,3.3,2.78,6.21l-1.68,4.39Z"/><path class="cls-54" d="M277.91,273.88q-1.38-3.11-2.78-6.21l1.92-2.36a1.33,1.33,0,0,1,.26,2.12c.92,2.08,1.83,4.17,2.75,6.25Z"/><path class="cls-15" d="M274.56,285.11q-1,0-2.07.12a1.31,1.31,0,0,1-.24-2.12l.05,0Z"/><path class="cls-55" d="M274,278.58c.71-.07,1.43-.12,2.15-.15a8.49,8.49,0,0,1-1.47.81C274.51,279.29,274.19,278.81,274,278.58Z"/><path class="cls-9" d="M282.36,279.55a8.76,8.76,0,0,1-1.29.49c.51-.64,1-1.27,1.54-1.9A7.44,7.44,0,0,1,282.36,279.55Z"/><path class="cls-1" d="M242.7,244.75c.13,2.36.64,4.82-1.55,6.64a13.76,13.76,0,0,1-2.31-1.93l0,0a1.59,1.59,0,0,1-1-1.88c.63-1.11,1.87-1.54,2.68-2.45Z"/><path class="cls-11" d="M238.64,247.26l.18,2.16c-1.19-.07-3,.29-2.77-1.49.1-1,1.56-1.81,2.41-2.71A1.2,1.2,0,0,1,238.64,247.26Z"/><path class="cls-9" d="M239.38,238.56c.22.69.43,1.38.64,2.06-.65.11-1.31.19-2,.26.25-.71.49-1.42.74-2.14Z"/><path class="cls-56" d="M238.64,247.26l-.11-1-.07-1a15.07,15.07,0,0,1,2-.13Z"/><path class="cls-11" d="M238.84,249.46l2.31,1.93-2.15.22C239,250.89,238.9,250.18,238.84,249.46Z"/><path class="cls-57" d="M236.81,251.87a8.92,8.92,0,0,1-1.4.81c-.11,0-.42-.4-.64-.63Q235.79,251.92,236.81,251.87Z"/><path class="cls-58" d="M272.25,283.11c.08.71.15,1.42.24,2.12.08.49.16,1,.26,1.46l-4.34.83c-1.27-.49-1.29-1.13-.22-1.9Z"/><path class="cls-59" d="M268.19,285.62c.07.64.14,1.27.22,1.9l-6.43.81-.21-2.08Z"/><path class="cls-60" d="M266.35,266.31c.63-.11,1.25-.24,1.87-.38-.48.86-1,1.73-1.43,2.6C266.64,267.79,266.5,267.05,266.35,266.31Z"/><path class="cls-61" d="M271.05,270.21l-.34.8.36-.78Z"/><path class="cls-15" d="M259.09,282.12c0-.7,0-1.41,0-2.11C260.19,280.69,260.17,281.4,259.09,282.12Z"/><path class="cls-62" d="M255.25,259.05c.56-.14,1.13-.26,1.71-.35s1.19-.13,1.78-.24a2.67,2.67,0,0,1,1.87,3,3.18,3.18,0,0,1-1.44,2.09,3.34,3.34,0,0,1-2.47-.58,3.6,3.6,0,0,1-1.14-2.29A10.54,10.54,0,0,0,255.25,259.05Z"/><path class="cls-63" d="M259.48,262.67c-.24-1.4-.49-2.8-.74-4.21l4.68-.53c1,.5,1,1.14.28,1.9l-.14.51A14.22,14.22,0,0,1,262,262l-.36.56A1.49,1.49,0,0,1,259.48,262.67Z"/><path class="cls-33" d="M262.51,249.93a8.24,8.24,0,0,1,1.83-.49,5.78,5.78,0,0,0,1.05,1.79,1.14,1.14,0,0,1,.13,1.77l-.54.67a18.39,18.39,0,0,0-2.1,0c-.89-.51-.95-1.15-.3-1.9C262.55,251.16,262.53,250.54,262.51,249.93Z"/><path class="cls-64" d="M263.7,259.83c-.11-.63-.2-1.26-.28-1.9l1.89-2.28c.15,1.42.31,2.83.46,4.25A8,8,0,0,1,263.7,259.83Z"/><path class="cls-65" d="M260.92,253.83l-.38.79.36-.82Z"/><path class="cls-66" d="M262.58,251.77a7.61,7.61,0,0,1,.3,1.9l-2,.16,0,0Z"/><path class="cls-22" d="M255.56,260.71l1.95,2.08c-.43.71-.92,1-1.46.83s-.82-.34-.84-.55l-2.13.18,0,0a1.34,1.34,0,0,1-.2-2.18Z"/><path class="cls-67" d="M252.92,261.1c.06.73.13,1.45.2,2.18l-2.17.18Z"/><path class="cls-1" d="M247,244.32l2.27-.08a16.08,16.08,0,0,0,.08,2.08Z"/><path class="cls-68" d="M261.91,264.61c1.13.59,1.22,1.29.22,2.11l-1-1Z"/><path class="cls-69" d="M259.48,262.67a6.35,6.35,0,0,1,2.13-.08c.12.67.22,1.35.3,2h0a1.55,1.55,0,0,1-1.48.63c-.53-.09-.8-.21-.82-.36a1.57,1.57,0,0,1,0-2.28Z"/><path class="cls-70" d="M262,262l1.59-1.7a15,15,0,0,1,.12,1.77A3.81,3.81,0,0,1,262,262Z"/><path class="cls-71" d="M259.82,264.77c.69,0,1.38-.09,2.07-.17l.24,2.12-2.2.22v0l-1-1Z"/><path class="cls-19" d="M259.55,262.59l.27,2.18-.26.05c-.39.61-.83.85-1.31.71s-.72-.3-.74-.49l-2.3-2,2.3-.28C258.19,262.75,258.87,262.69,259.55,262.59Z"/><path class="cls-72" d="M257.51,265c.68-.09,1.37-.16,2.06-.22.15.69.27,1.39.36,2.09Z"/><path class="cls-73" d="M277.31,267.43c-.09-.71-.18-1.41-.26-2.12C278.2,265.89,278.33,266.59,277.31,267.43Z"/><path class="cls-34" d="M265.52,253l-.16-.88,0-.89,1.9,1.52A5.92,5.92,0,0,1,265.52,253Z"/><path class="cls-74" d="M272.54,239.76c.07.72.15,1.44.23,2.17L270.49,240C271.17,239.93,271.85,239.83,272.54,239.76Z"/><circle cx="258.48" cy="110" r="33"/><path class="cls-1" d="M276.4,135.59,271.79,137l-.65-1.21a9.35,9.35,0,0,1-.27-2.74c-.24-3.21-1.13-6.47.75-9.5,1-1.08,2.41-1,3.65-1.48s1.15-1.64.22-.55-1.39-1-.81.26c-1,.21-2.07.14-2.94.79a17.08,17.08,0,0,0-1.63,3.22,7.19,7.19,0,0,1-4.47,2.9c-4.91.29-9.06-.55-9.71-6.56a6.4,6.4,0,0,1,.84-2.73,5.84,5.84,0,0,1,2.12-1.59c1.53-.32,3.15.13,4.68-.47.65-.48,1.3-.92,1.92-1.44a8.82,8.82,0,0,0,2.21-3.17,6.7,6.7,0,0,0-.09-3.87c-.86-2-2.4-3.51-3.52-5.33-1.06-2.06-2.17-4.12-1.74-6.57,3.14-4,6.74-.32,10.09-.63a12.56,12.56,0,0,0,3.3-.07,7.08,7.08,0,0,0,1.55-2.85,6.55,6.55,0,0,1,1.54-2.07,4.19,4.19,0,0,1,4-.58,5.43,5.43,0,0,1,3,4.89h0c0,1.25.34,2.48.3,3.71a3,3,0,0,0,.56,2.06,3.94,3.94,0,0,1,.73,3,8.82,8.82,0,0,0,.29,3.07c.39,1,1.05,1.93,1.5,3,0,.42,0,.81,0,1.24-.2.9-.36,1.77-.5,2.67C286.68,122.71,285.32,131.35,276.4,135.59Z"/><path class="cls-2" d="M227,116.91c-2.65-6.15-.18-11.57,2.47-17,1.92,0,2.26-1.66,2.95-2.93,2.07-6.72,8-10.35,12.28-15.28a4.14,4.14,0,0,1,4.62-1.69A6.73,6.73,0,0,1,251,83.9c.45,3.76-1,8.18,3.73,10.44A11.42,11.42,0,0,1,258,97.07a5.34,5.34,0,0,1,.48,2.87,8.31,8.31,0,0,1-3.6,4.65c-2.19,1.22-4.41,2.35-7,2.37a5.65,5.65,0,0,1-2.65-1.33c-.1,1.25,1.13,1.61,1.66,2.44.73,1.13,1.55,2.2,2.26,3.35,1.41,3.06,4.45,5.21,5,8.76a3.75,3.75,0,0,1-.88,2.68,5.24,5.24,0,0,1-4.15.7,8.37,8.37,0,0,1-4.77-2.69,14.29,14.29,0,0,1-1.56-2.14,25,25,0,0,0-2.2-3.21c-.59-.6-1.12-1.25-1.65-1.9a12,12,0,0,1-1.83-2.85c-.21-.53-.44-1.08-.65-1.58a6.51,6.51,0,0,1,0,1.82,4.47,4.47,0,0,1-.71,1.91,7.26,7.26,0,0,1-1.48,1.6,22.48,22.48,0,0,1-2.83,1.89,9.06,9.06,0,0,1-2.16.9A3.58,3.58,0,0,1,227,116.91Z"/><path class="cls-3" d="M252,122.9l1.52-1.48,1.19,0,.86.83a8.87,8.87,0,0,1,.4,2.29c0,.75,0,1.52.06,2.28.3.71.57,1.43.86,2.16a5.9,5.9,0,0,1,.29,2.36,7.89,7.89,0,0,1-.86,2.27,12.17,12.17,0,0,1-1.49,1.92,13,13,0,0,1-1.79,1.61,16.06,16.06,0,0,0-2.75,2.26c-4.12-.07-7.73-1.33-10.51-4.52,0-1.41-.84-2.54-1.38-3.77-3-3.9-8-7-4.9-13.22a7.69,7.69,0,0,1,2-1.91,8.78,8.78,0,0,1,4-.94,9.4,9.4,0,0,1,3.79,1.09,2.41,2.41,0,0,1,1.18,2.12v0c.15,1.87.78,3.27,3,3.06h0C249.16,121.3,250.29,123,252,122.9Z"/><path class="cls-4" d="M244.67,81.75c-1.77,7.64-10,10.92-12.3,18.19a2,2,0,0,1-1.63-.74c-.37-.49-.5-.79-.4-.89l-.19.1c1.07-.67.58-1.9,1-2.8C233.89,89.26,237.79,84.06,244.67,81.75Z"/><path class="cls-5" d="M265.68,79.15a1.35,1.35,0,0,1,1.62.69A10.1,10.1,0,0,1,269.36,81a6.81,6.81,0,0,1,.79,2.24,6,6,0,0,1-1,3.37,3.48,3.48,0,0,1-4.07,1.25c-1,.07-.06-2.3-1.77-1.41a11.81,11.81,0,0,1-2.17.66,7.81,7.81,0,0,1-3.63,0,6.28,6.28,0,0,1-2.07-1.51,5.15,5.15,0,0,1-.83-2.43,4.85,4.85,0,0,1,2-3.18,8.4,8.4,0,0,1,3.53-1c1.13.15,2.2.69,3.39.52A3.65,3.65,0,0,1,265.68,79.15Z"/><path class="cls-6" d="M266.94,138.75a1.33,1.33,0,0,1-1.8.58,3.78,3.78,0,0,1-2.48.2l-.17,0c-1,.2-2,.05-3,.35h.1a8.35,8.35,0,0,1-2.46-.94,4.67,4.67,0,0,1-1.63-2,5.82,5.82,0,0,1,0-2.56l.43-1.18.67-1,.94-.7a5.55,5.55,0,0,1,2.15,0c.63.09,1.28.24,1.9.35a3.48,3.48,0,0,0,1.75-.56,5.52,5.52,0,0,1,1.74-1.16c.39-.07.75-.11,1.13-.16l1.15.29a7.31,7.31,0,0,1,2,1.45,6.75,6.75,0,0,1,1.2,2.3,5.12,5.12,0,0,1-.47,2.59C269.3,137.67,268.5,138.76,266.94,138.75Z"/><path class="cls-7" d="M258.66,80.05l-3.39,3.15a4.22,4.22,0,0,1-6-.1l0-3,9.1-2.78,1.33.24c.23.39.45.78.67,1.17-.12.44-.25.87-.37,1.31Z"/><path class="cls-7" d="M276.84,83.09,283,89.43c1.74,1.44,2.41,2.12,3.08,4.17-.17.61.22,1.62-.2,2.09l-5-4.36a25.18,25.18,0,0,1-2.85-.56,12.1,12.1,0,0,1-4.54-3.67A7.72,7.72,0,0,1,271.88,83c.14-.47-.87-1.3-.72-1.77.42-.36,2.2.23,2.72,0A7.74,7.74,0,0,1,276.84,83.09Z"/><path class="cls-8" d="M239.79,131.89v3c-3.92-2.17-7.4-4.77-8.93-9.25a1.86,1.86,0,0,1,2.51-1.46C235.67,126.65,238.87,128.31,239.79,131.89Z"/><path class="cls-7" d="M285.59,104.88l-.26-3a1.46,1.46,0,0,1-1.11-1.72l1.61-4.52c3,2.37,3,5.78,3.19,9.12a2.25,2.25,0,0,1-1.74,2.06A1.9,1.9,0,0,1,285.59,104.88Z"/><path class="cls-9" d="M250.3,139.45c-2.11-2.32-1-3.48,1.49-4.11a3.19,3.19,0,0,1,3.5,1.12c.44.76.92,1.5,1.43,2.22L256.6,140l-3.13-.23c-1-.08-2-.16-3-.28Z"/><path class="cls-10" d="M227,116.91l2.39-1.89a3.68,3.68,0,0,1,2.49,1.61c.46,2.38,2.11,5.05-1.52,6.47a4.61,4.61,0,0,1-2.05-2.2C227.19,119.79,226.26,118.62,227,116.91Z"/><path class="cls-11" d="M270.51,138.61a1.51,1.51,0,0,0-1.71.78,13.61,13.61,0,0,0-1.86-.64l3.28-3.54.86,0,.41.76a5.18,5.18,0,0,0,.3,1.09C271.35,137.56,270.92,138.08,270.51,138.61Z"/><path class="cls-3" d="M228.28,120.9l2.3,1.5a1.73,1.73,0,0,1,1.65,2c-.45.45-.91.89-1.37,1.32C229.21,124.51,228,123.09,228.28,120.9Z"/><path class="cls-12" d="M264.33,80.38l-3.23-.33-1.19-.7v-.68l.27-1.22,1.26.08A10.71,10.71,0,0,0,263,78.9c.78-.11,1.24.08,1.37.55S264.49,80.22,264.33,80.38Z"/><path class="cls-2" d="M231.17,95.61l-1,2.8Z"/><path class="cls-13" d="M230.34,98.31l2,1.63-2.93,0A1.32,1.32,0,0,1,230.34,98.31Z"/><path class="cls-14" d="M270.28,80.75l2.05.86h-.7l-.12.68a1.46,1.46,0,0,1-1.4,1.53,1.69,1.69,0,0,1-1-1.94h0C269,80.94,269.34,80.56,270.28,80.75Z"/><path class="cls-15" d="M270.28,80.75l-.55.6-.62.54c-.6-.69-1.21-1.37-1.81-2Z"/><path class="cls-3" d="M250.45,139.49l3,.28A2.09,2.09,0,0,1,250.45,139.49Z"/><path class="cls-11" d="M258,138.13l1.6,1.79-3,.08a1.21,1.21,0,0,1-.77-1.09A1.93,1.93,0,0,1,258,138.13Z"/><path class="cls-15" d="M264.33,80.38A9.32,9.32,0,0,1,263,78.9l2.68.25Q265,79.79,264.33,80.38Z"/><path class="cls-11" d="M259.46,139.92l3-.35Z"/><path class="cls-11" d="M262.66,139.53l2.48-.2Z"/><path class="cls-16" d="M264.47,86.48,269,84.92l1.26-.09A10.23,10.23,0,0,1,275,86.49a23.24,23.24,0,0,1,3.47,3.81c.34,1.32-.3,2.55-.38,3.83l1.47,1.55a2.18,2.18,0,0,1-.91,1.89,2.34,2.34,0,0,1-2-.38c-1.16-.61-.59.84-1.12,1a1.93,1.93,0,0,1-2,.49c-3.91,2.2-7.06-2.24-10.83-1.25a1.94,1.94,0,0,1-1.11,1.91,4.72,4.72,0,0,1-2.39,0l-1-.75-1.49-1.47a2.75,2.75,0,0,1,1.44-2.84c.07-.21.76-.17.44-.21-1.4-.19.63-.52-.8-.85a5.19,5.19,0,0,1-.29-2.5c1.1-2.52,2.1-5.11,5.24-5.73H263a1.3,1.3,0,0,1,1.35.7Q264.65,86.3,264.47,86.48Z"/><path class="cls-11" d="M267.26,132.15l-1.59-1.54a2.39,2.39,0,0,1,0-3L270.3,123a1.34,1.34,0,0,1,1.35.68c.22.46.27.74.15.86.88,3.52,3.45,6.93.71,10.68a12.83,12.83,0,0,1-2.32,0h0l-1.52-1.59c.08-.72-.11-1.18-.56-1.37S267.39,132,267.26,132.15Z"/><path class="cls-17" d="M258,119.74a18,18,0,0,1-1.42,1.61l-1.37-.07a77.82,77.82,0,0,1-5.75-5.59,4,4,0,0,1-1-2.16,2.6,2.6,0,0,1,1.35-1.67c.34.06.7.12,1,.16a5.89,5.89,0,0,1-.66-2.12,4.3,4.3,0,0,1,.69-2.23,4.85,4.85,0,0,1,2.19-1.19,6.85,6.85,0,0,1,3.91.64,8,8,0,0,1,3,3,7,7,0,0,1,.6,2.85C260.45,115.51,257.94,117.13,258,119.74Z"/><path class="cls-18" d="M271.8,124.56c-.49-.52-1-1-1.5-1.54.07-1,.13-2,.19-3h2.82c2.27.59,1-4.3,4.26-2.61,2.36,1.23,2.76,3,2.4,5.14-.45,2.72-2.41,1.64-4.05,1.59A29,29,0,0,0,271.8,124.56Z"/><path class="cls-19" d="M270.55,113.82c.15,3.28-2.48,3.74-4.69,4.63-1.09,0-1.61.46-1.57,1.55-2.54,3.09-3-.86-4.5-1.32-3.14-1-1.52-2.67-.65-4.25a24,24,0,0,0,1.76-2.13,5.13,5.13,0,0,1,2.5-.91,14.63,14.63,0,0,1,3.88.57A8.41,8.41,0,0,1,270.55,113.82Z"/><path class="cls-6" d="M265.68,127.6c0,1,0,2,0,3h0a7.38,7.38,0,0,0-2.6.32,8.39,8.39,0,0,1-5.06,1.15h0c-1.46.43-2-.08-1.52-1.53L255,129l-.5-.93a6,6,0,0,1-.14-2.1l.21-1a4.17,4.17,0,0,0,.57-2v0c-.42-1.39.07-1.93,1.49-1.61l0,0C257.89,125.94,262.69,125.46,265.68,127.6Z"/><path class="cls-20" d="M261.21,98.39c.51-.31,1-.64,1.5-1,1.51,1.64,3.44,3,3.5,5.58v1.07l-.77.74a4.29,4.29,0,0,1-2.05.41,9,9,0,0,0-2.93,1.29l-1.2.18-1.17-.45a5.05,5.05,0,0,1-1.54-2c-.38-2.1.94-3.34,2.26-4.59A4.52,4.52,0,0,1,261.21,98.39Z"/><path class="cls-21" d="M264.33,104.71c.62-.58,1.25-1.15,1.88-1.72,1.71,1.35,4.63,1.59,4.35,4.75a5.49,5.49,0,0,1-3.05,4.5,4.41,4.41,0,0,1-2.78,0,5.29,5.29,0,0,1-1.93-3.66,6.68,6.68,0,0,1,.61-2.75C263.71,105.43,264,105.07,264.33,104.71Z"/><path class="cls-22" d="M265.79,112.35l4.77-4.61c0,2,0,4.05,0,6.08l-3.25,0-1.41-.1C265.86,113.29,265.82,112.82,265.79,112.35Z"/><path class="cls-23" d="M261.17,113.32l-1.38,5.36a3.27,3.27,0,0,1-1.79,1.06c-2.55-3.27-.37-5.4,1.82-7.52l1,.13Z"/><path class="cls-24" d="M273.54,98.66,275,97.13c.06-1,.57-1.5,1.61-1.37.46.5.94,1,1.44,1.43.78-.07,1.26.14,1.43.63s.17.8,0,1C277.49,100.47,275.5,100.54,273.54,98.66Z"/><path class="cls-15" d="M278.1,94.13l0-3.06q-.66-2.13,1.47-1.47l1.3,1.73Z"/><path class="cls-25" d="M287.4,106.32c-.08,1-.17,2.07-.25,3.1l-.51-.17-1-.24v-1c0-1-.05-2.09-.08-3.14Z"/><path class="cls-15" d="M279.51,98.77c-.47-.54-1-1.06-1.45-1.58l1.51-1.51Z"/><path class="cls-26" d="M264.29,120c-.28-1.33.27-1.81,1.56-1.55Z"/><path class="cls-27" d="M284.22,100.2a4,4,0,0,1,1.11,1.72,7.2,7.2,0,0,1-1.29-.85C283.92,101,284.15,100.5,284.22,100.2Z"/><path class="cls-28" d="M273.31,120h0Z"/><path class="cls-11" d="M285.67,108a7.2,7.2,0,0,1,1,1.23,6.19,6.19,0,0,1-1.15-.48C285.42,108.72,285.6,108.28,285.67,108Z"/><path class="cls-29" d="M270.19,135.21l2.32,0a2.28,2.28,0,0,1-1,.71A4.42,4.42,0,0,1,270.19,135.21Z"/><path class="cls-30" d="M249.25,83.1l6,.1,1.55,1.65c0,1.85.24,3.75-.94,5.36-.14,1-2.19-.24-1.69,1.47a2.38,2.38,0,0,1,2.62,3.65,3.92,3.92,0,0,1-3.12,1.7C246.49,94.2,246.55,89.07,249.25,83.1Z"/><path class="cls-31" d="M247.44,112,236,102.73c5.9-1.82,8.93.84,12,3.52a2.05,2.05,0,0,1,1.48.58c.39.4.54.63.47.71a15.26,15.26,0,0,1-.37,3.75l-.84.95Z"/><path class="cls-32" d="M242.89,116.77l-3,0a3.81,3.81,0,0,1-2.12-.65,3.87,3.87,0,0,1-1.63-1.5c-.4-1.06-.09-2.2-.29-3.29a7.78,7.78,0,0,1-.45-2.13V109a1.45,1.45,0,0,1,1.54-1.44l4.55,4.67a3.26,3.26,0,0,0,.78,2.27A2.49,2.49,0,0,1,242.89,116.77Z"/><path class="cls-33" d="M248.67,108a4.43,4.43,0,0,0-.74-1.73c1.42-1.9,3.14-3.31,5.63-3.46a2.15,2.15,0,0,1,2.14,2,3.8,3.8,0,0,1-3.53,2.88q-.67.73-1.32,1.5l-.95.52A2.87,2.87,0,0,1,248.67,108Z"/><path class="cls-34" d="M256.6,121.33c-.49.54-1,1.08-1.49,1.61l-1.58-1.52c-2.37-2.92-6.36-4.79-6.09-9.42l.54.36c.72-.28,1.18-.21,1.4.21s.27.75.13.89Z"/><path class="cls-35" d="M255.17,104.63l-1.61-1.84,4.69-4.27.05.41c.72-.22,1.18-.11,1.37.32s.24.74.1.88l-1.56,4.72c-.13.46-.26.91-.4,1.37l-1.34.46A1.7,1.7,0,0,1,255.17,104.63Z"/><path class="cls-36" d="M247.46,121.34c-1,.69-2.15,2-3.11.55-.54-.84,0-2.38.08-3.61Z"/><path class="cls-37" d="M253.69,97l3.05-3.12c0-1,.59-1.44,1.58-1.35.51.48,1,1,1.51,1.47v0l-3.07,3Z"/><path class="cls-38" d="M230.61,116.74a17.4,17.4,0,0,1-1.25-1.71,17.2,17.2,0,0,0,1.34-1.36,3.63,3.63,0,0,1,2.75,1.26c.36,1,.4,2.25-.49,2.85S231.07,117.85,230.61,116.74Z"/><path class="cls-39" d="M236.81,113.53l1.56,1.69a1.33,1.33,0,0,1-1.58,1.47l0,0c-1.53.33-2.33-.62-3-1.74l.09-1.28q.74-.74,1.44-1.5l1.37,0Z"/><path class="cls-40" d="M252,122.9l-4.57-1.55Z"/><path class="cls-41" d="M242.89,116.77c-.49-.52-1-1-1.49-1.55a1.34,1.34,0,0,1,1.51-1.53q.75,2.3,1.52,4.61Z"/><path class="cls-42" d="M242.91,113.69c-.5.52-1,1-1.51,1.53,0-1,0-2,0-3C241.94,112.72,242.42,113.2,242.91,113.69Z"/><path class="cls-43" d="M235.36,109.16c.49.46,1,.93,1.46,1.41,0,1.05-.45,1.6-1.53,1.56h0C235.33,111.14,235.34,110.15,235.36,109.16Z"/><path class="cls-44" d="M232.28,115.09c-.52-.48-1.05-1-1.58-1.42l3.18,0,0,0C234,114.91,233.51,115.38,232.28,115.09Z"/><path class="cls-45" d="M236.89,107.58,235.35,109C235.1,107.72,235.66,107.3,236.89,107.58Z"/><path class="cls-46" d="M232.28,115.09c.53-.47,1.05-1,1.57-1.44l3,3c-6,6.45,3.32,9.9,3,15.25l-7.56-7.53-1.65-2c0-1.9,0-3.78,0-5.67C231.9,116.93,232.48,116.41,232.28,115.09Z"/><path class="cls-47" d="M255.33,138.57l-3.53-3.23c.54-.58,1.1-1.16,1.65-1.74,1,.17,2-.92,3.06,0v3.2A1.51,1.51,0,0,1,255.33,138.57Z"/><path class="cls-48" d="M253.51,127.46l0-2.86c.73-.14,1.21,0,1.44.47s.29.76.16.89v0l-.18,1.38Z"/><path class="cls-1" d="M255.07,126a8.66,8.66,0,0,0-1.6-1.36l1.64-1.68C255.09,123.93,255.08,125,255.07,126Z"/><path class="cls-49" d="M236.79,116.69l1.58-1.47c.5.5,1,1,1.48,1.51Z"/><path class="cls-50" d="M255,129a8.74,8.74,0,0,1-1.55-.6c-.11-.07.05-.61.09-.94v-.1a1.41,1.41,0,0,1,1.39.8c.2.48.24.78.11.9Z"/><path class="cls-51" d="M256.51,133.57l-3.06,0,1.55-1.54c.77-.09,1.26.11,1.45.6s.21.79.06.94Z"/><path class="cls-52" d="M256.51,133.6,255,132.06l1.53-1.51,1.52,1.53Z"/><path class="cls-53" d="M258.32,92.56l-1.58,1.35q-.75-.7-1.47-1.44c.52-2.28.2-5,3.06-6.09l4.46-1.46Z"/><path class="cls-54" d="M258.33,86.38l-3.06,6.09h-3a1.33,1.33,0,0,1,1.48-1.54c1-2,2.07-4.06,3.11-6.08Z"/><path class="cls-15" d="M269.15,81.88c.44.53.91,1,1.4,1.53a1.31,1.31,0,0,1-1.49,1.53l-.06,0Z"/><path class="cls-55" d="M264.47,86.48c-.51-.51-1-1-1.47-1.57a8.36,8.36,0,0,1,1.55.62C264.67,85.6,264.5,86.15,264.47,86.48Z"/><path class="cls-9" d="M259.91,79.35a9,9,0,0,1,1.2.7h-2.45A7.67,7.67,0,0,1,259.91,79.35Z"/><path class="cls-1" d="M258,132.08c1.75-1.59,3.33-3.54,6.13-3a13.77,13.77,0,0,1,0,3v0a1.59,1.59,0,0,1-.81,2c-1.26.22-2.38-.47-3.59-.52Z"/><path class="cls-11" d="M262.53,133.64l1.57-1.5c.69,1,2.09,2.11.59,3.09-.82.54-2.39-.07-3.62-.16C261,134.06,261.5,133.56,262.53,133.64Z"/><path class="cls-9" d="M255.33,138.57c.39-.6.79-1.2,1.19-1.8.49.44,1,.9,1.44,1.36l-2.12.78Z"/><path class="cls-56" d="M262.53,133.64l-.71.73-.75.7a14.63,14.63,0,0,1-1.37-1.47Z"/><path class="cls-11" d="M264.11,132.1c0-1,0-2,0-3l1.53,1.52Z"/><path class="cls-57" d="M267.26,132.15a8.92,8.92,0,0,1,1.52.56c.11.07,0,.59-.08.91Q268,132.92,267.26,132.15Z"/><path class="cls-58" d="M269.06,84.94l1.49-1.53c.33-.37.65-.74,1-1.12l3.4,2.83c.42,1.3-.07,1.72-1.34,1.37Z"/><path class="cls-59" d="M273.57,86.49c.45-.45.9-.9,1.34-1.37l4.68,4.48c-.49.49-1,1-1.47,1.47C276.6,89.55,275.09,88,273.57,86.49Z"/><path class="cls-60" d="M259.77,100.13c-.48-.41-1-.82-1.47-1.2l2.92-.54Z"/><path class="cls-61" d="M259.83,94l.83-.24-.83.21Z"/><path class="cls-15" d="M276.62,95.76c-.55.45-1.08.91-1.61,1.37C274.81,95.81,275.37,95.38,276.62,95.76Z"/><path class="cls-62" d="M261.17,113.32c-.47-.35-.92-.71-1.35-1.1s-.86-.84-1.31-1.23a2.68,2.68,0,0,1,1.16-3.37,3.23,3.23,0,0,1,2.53-.2,3.34,3.34,0,0,1,1.11,2.28,3.59,3.59,0,0,1-1.05,2.33A10.33,10.33,0,0,0,261.17,113.32Z"/><path class="cls-63" d="M261.3,107.75,258.5,111q-1.68-1.65-3.37-3.29c-.22-1.08.24-1.52,1.3-1.41l.48-.22a15.2,15.2,0,0,1,2.33.15l.66-.07A1.5,1.5,0,0,1,261.3,107.75Z"/><path class="cls-33" d="M249.51,113.46a8,8,0,0,1-1.53-1.1,5.94,5.94,0,0,0,.71-2,1.15,1.15,0,0,1,1.29-1.22h.87a20.71,20.71,0,0,0,1.33,1.64c.16,1-.3,1.46-1.29,1.43Z"/><path class="cls-64" d="M256.43,106.29l-1.3,1.41-3,0,3-3.05A7.82,7.82,0,0,1,256.43,106.29Z"/><path class="cls-65" d="M253.54,112.23l.85-.21-.86.24Z"/><path class="cls-66" d="M250.89,112.25a8.35,8.35,0,0,1,1.28-1.44l1.37,1.42v0Z"/><path class="cls-22" d="M262.26,112l.37-2.82c.83-.11,1.35.09,1.57.6s.26.85.11,1c.5.51,1,1,1.48,1.54v0a1.34,1.34,0,0,1-1.56,1.53Z"/><path class="cls-67" d="M264.23,113.83l1.56-1.53,1.51,1.56Z"/><path class="cls-1" d="M255,129.06l-1.5-1.7a14.63,14.63,0,0,0,1.57-1.38C255,127,255,128,255,129.06Z"/><path class="cls-68" d="M261.26,104.64c-.25-1.24.24-1.75,1.5-1.5l-.15,1.36Z"/><path class="cls-69" d="M261.3,107.75a6.3,6.3,0,0,1-1.41-1.59c.45-.52.9-1,1.37-1.52v0a1.55,1.55,0,0,1,1.42.74q.4.7.24.87a1.57,1.57,0,0,1-1.74,1.48Z"/><path class="cls-70" d="M259.24,106.22l-2.33-.15a15,15,0,0,1,1.3-1.22A4,4,0,0,1,259.24,106.22Z"/><path class="cls-71" d="M262.7,106.16c-.46-.51-.94-1-1.43-1.49l1.49-1.53,1.57,1.57,0,0c-.05.47-.11,1-.16,1.43Z"/><path class="cls-19" d="M261.19,107.76c.51-.53,1-1.06,1.51-1.6l.21.17q1.08-.12,1.38.57c.19.46.22.75.09.89,0,1-.05,2-.07,3l-1.68-1.6A17.91,17.91,0,0,0,261.19,107.76Z"/><path class="cls-72" d="M264.38,107.79c-.5-.48-1-1-1.47-1.46.44-.56.9-1.09,1.39-1.6C264.33,105.75,264.35,106.77,264.38,107.79Z"/><path class="cls-73" d="M253.71,90.93c-.49.52-1,1-1.48,1.54C252,91.22,252.41,90.68,253.71,90.93Z"/><path class="cls-34" d="M250,109.19l-.57.68-.71.54c0-.81,0-1.62,0-2.43A5.74,5.74,0,0,1,250,109.19Z"/><path class="cls-74" d="M235.29,112.13l1.53-1.56c0,1,0,2,0,3C236.28,113.08,235.78,112.61,235.29,112.13Z"/></svg>