<svg id="Слой_1" data-name="Слой 1" xmlns="http://www.w3.org/2000/svg" viewBox="0 0 370 370"><defs><style>.cls-1{fill:#302416;}.cls-2{fill:#2b1a0d;}.cls-3{fill:#261a0b;}.cls-4{fill:#130301;}.cls-5{fill:#2d1e0f;}.cls-6{fill:#1b0d03;}.cls-7{fill:#130200;}.cls-8{fill:#0c0201;}.cls-9{fill:#010000;}.cls-10{fill:#0f0200;}.cls-11{fill:#251a0f;}.cls-12{fill:#0b0800;}.cls-13{fill:#0d0100;}.cls-14{fill:#030000;}.cls-15{fill:#2c1f11;}.cls-16{fill:#2a1d0f;}.cls-17{fill:#817a74;}.cls-18{fill:#1d1302;}.cls-19{fill:#6e6862;}.cls-20{fill:#7c7169;}.cls-21{fill:#827c76;}.cls-22{fill:#716b65;}.cls-23{fill:#887d76;}.cls-24{fill:#433428;}.cls-25{fill:#2c1f0f;}.cls-26{fill:#7f7a71;}.cls-27{fill:#2e1c0c;}.cls-28{fill:#170400;}.cls-29{fill:#0f0000;}.cls-30{fill:#332215;}.cls-31{fill:#1c0e02;}.cls-32{fill:#281e0f;}.cls-33{fill:#746b64;}.cls-34{fill:#322418;}.cls-35{fill:#695d54;}.cls-36{fill:#1a0f04;}.cls-37{fill:#1f1405;}.cls-38{fill:#483027;}.cls-39{fill:#3a2519;}.cls-40{fill:#130d02;}.cls-41{fill:#181205;}.cls-42{fill:#302c1c;}.cls-43{fill:#362820;}.cls-44{fill:#150200;}.cls-45{fill:#190904;}.cls-46{fill:#2b140a;}.cls-47{fill:#2b2416;}.cls-48{fill:#685f53;}.cls-49{fill:#1a0c01;}.cls-50{fill:#0a0300;}.cls-51{fill:#190900;}.cls-52{fill:#382918;}.cls-53{fill:#372d1d;}.cls-54{fill:#281909;}.cls-55{fill:#140300;}.cls-56{fill:#38301c;}.cls-57{fill:#352319;}.cls-58{fill:#140500;}.cls-59{fill:#1e0f05;}.cls-60{fill:#4b3c32;}.cls-61{fill:#1d0d00;}.cls-62{fill:#a49b98;}.cls-63{fill:#706964;}.cls-64{fill:#85807c;}.cls-65{fill:#837d77;}.cls-66{fill:#8b8881;}.cls-67{fill:#8c8883;}.cls-68{fill:#69665f;}.cls-69{fill:#96928b;}.cls-70{fill:#4e4642;}.cls-71{fill:#7b7670;}.cls-72{fill:#6d6761;}.cls-73{fill:#3c2d1e;}.cls-74{fill:#0a0402;}</style></defs><title>6dotМонтажная область 1</title><circle cx="110.46" cy="260.5" r="33"/><path class="cls-1" d="M84.85,242.62l3.83-3,1,.92a9.6,9.6,0,0,1,1.19,2.48c1.32,2.93,3.28,5.69,2.56,9.18-.55,1.35-1.91,1.8-2.92,2.65s-.52,1.93,0,.58,1.67.52.67-.52a6.62,6.62,0,0,0,2.5-1.75,17.34,17.34,0,0,0,.43-3.58,7.15,7.15,0,0,1,3.19-4.26c4.52-2,8.71-2.6,11.38,2.82a6.59,6.59,0,0,1,.15,2.86,5.86,5.86,0,0,1-1.45,2.22c-1.33.83-3,1-4.23,2.05-.45.67-.9,1.31-1.31,2a8.83,8.83,0,0,0-1,3.74,6.64,6.64,0,0,0,1.42,3.6c1.48,1.56,3.45,2.48,5.13,3.8,1.71,1.57,3.45,3.12,3.89,5.57-1.57,4.84-6.22,2.62-9.26,4.05a13.15,13.15,0,0,0-3.07,1.2,7,7,0,0,0-.48,3.22,6.91,6.91,0,0,1-.73,2.47,4.23,4.23,0,0,1-3.57,1.92,5.42,5.42,0,0,1-4.51-3.56h0c-.42-1.18-1.16-2.22-1.55-3.39a3,3,0,0,0-1.24-1.74,4,4,0,0,1-1.72-2.61,8.62,8.62,0,0,0-1.34-2.78c-.72-.84-1.64-1.45-2.41-2.26-.15-.4-.28-.77-.42-1.18-.12-.91-.26-1.78-.44-2.67C79.62,258.24,77.92,249.66,84.85,242.62Z"/><path class="cls-2" d="M137.68,243.18c4.61,4.87,4.14,10.81,3.51,16.77-1.79.69-1.56,2.33-1.77,3.77.36,7-3.94,12.46-6.29,18.56a4.13,4.13,0,0,1-3.76,3.17,6.67,6.67,0,0,1-2.91-3c-1.72-3.38-1.9-8-7.09-8.53a11.44,11.44,0,0,1-4-1.44,5.26,5.26,0,0,1-1.43-2.53,8.29,8.29,0,0,1,1.78-5.61c1.63-1.9,3.33-3.72,5.77-4.63a5.59,5.59,0,0,1,2.94.34c-.33-1.21-1.61-1.13-2.39-1.73-1.08-.8-2.21-1.53-3.27-2.37-2.38-2.39-6-3.36-7.74-6.49a3.77,3.77,0,0,1-.09-2.82,5.21,5.21,0,0,1,3.65-2.09,10.65,10.65,0,0,1,2.82,0,10.45,10.45,0,0,1,2.59.89,14.11,14.11,0,0,1,2.2,1.48,25.23,25.23,0,0,0,3.17,2.25c.76.37,1.48.79,2.2,1.22a12.17,12.17,0,0,1,2.7,2.05c.38.42.78.87,1.15,1.26a6.87,6.87,0,0,1-.59-1.72,4.68,4.68,0,0,1,0-2,7.74,7.74,0,0,1,.85-2,21.41,21.41,0,0,1,2-2.74,9,9,0,0,1,1.72-1.59A3.56,3.56,0,0,1,137.68,243.18Z"/><path class="cls-3" d="M112.11,246.15c-.31.64-.61,1.28-.92,1.91l-1.14.37L109,248a9,9,0,0,1-1.17-2c-.25-.72-.52-1.43-.83-2.13-.53-.57-1-1.15-1.55-1.73a5.79,5.79,0,0,1-1.09-2.12,7.92,7.92,0,0,1,0-2.43,11.82,11.82,0,0,1,.74-2.32,12.7,12.7,0,0,1,1.13-2.12A17.06,17.06,0,0,0,108,230c3.9-1.36,7.72-1.41,11.42.63a10.66,10.66,0,0,0,2.6,3.07c4.15,2.64,10,3.84,9.14,10.73a7.75,7.75,0,0,1-1.22,2.48,8.71,8.71,0,0,1-3.39,2.24,9.32,9.32,0,0,1-3.93.28,2.41,2.41,0,0,1-1.84-1.58h0c-.79-1.71-1.86-2.8-3.9-1.84h0C115.34,246.68,113.7,245.49,112.11,246.15Z"/><path class="cls-4" d="M133.13,282.28c-1-7.78,5.62-13.68,5.31-21.3a2,2,0,0,1,1.79.13c.51.33.74.57.68.7l.14-.16c-.77,1,.11,2,0,3C140.68,271.53,138.8,277.76,133.13,282.28Z"/><path class="cls-5" d="M114.29,291.94a1.35,1.35,0,0,1-1.76-.1,9.12,9.12,0,0,1-2.32-.36,6.84,6.84,0,0,1-1.51-1.83,5.93,5.93,0,0,1-.22-3.51,3.49,3.49,0,0,1,3.39-2.57c.93-.41.85,2.14,2.15.72a11.48,11.48,0,0,1,1.81-1.37,7.75,7.75,0,0,1,3.41-1.22,6,6,0,0,1,2.46.7,5.19,5.19,0,0,1,1.63,2,4.83,4.83,0,0,1-.79,3.67,8.59,8.59,0,0,1-3,2.13c-1.12.24-2.32.1-3.37.67A3.72,3.72,0,0,1,114.29,291.94Z"/><path class="cls-6" d="M92.65,236.39a1.33,1.33,0,0,1,1.49-1.16,3.7,3.7,0,0,1,2.26-1l.14-.1c.87-.54,1.9-.75,2.73-1.38l-.09,0a8.29,8.29,0,0,1,2.63,0,4.63,4.63,0,0,1,2.22,1.34,5.79,5.79,0,0,1,.87,2.41v1.25c-.09.39-.19.79-.28,1.18s-.44.66-.64,1a5.61,5.61,0,0,1-2,.78c-.62.13-1.28.21-1.91.32a3.52,3.52,0,0,0-1.45,1.13,5.36,5.36,0,0,1-1.23,1.68c-.34.2-.66.36-1,.55l-1.19.12a7.47,7.47,0,0,1-2.4-.67,6.67,6.67,0,0,1-1.92-1.75,5.14,5.14,0,0,1-.45-2.59C90.8,238.22,91.18,236.92,92.65,236.39Z"/><path class="cls-7" d="M120.57,288.68l2.11-4.11a4.21,4.21,0,0,1,5.69-2l1,2.86-7.59,5.75-1.33.23-1-.88c0-.45-.07-.9-.1-1.35Z"/><path class="cls-7" d="M102.46,292.07l-7.94-3.85c-2.12-.75-3-1.16-4.32-2.86,0-.63-.76-1.44-.53-2l6.16,2.39a23.31,23.31,0,0,1,2.88-.45,11.83,11.83,0,0,1,5.51,1.89,7.69,7.69,0,0,1,2.92,3.27c0,.49,1.27.92,1.29,1.42-.27.48-2.16.54-2.57.91A7.78,7.78,0,0,1,102.46,292.07Z"/><path class="cls-8" d="M120.5,233.52l-1-2.86c4.43.69,8.59,1.94,11.57,5.62a1.86,1.86,0,0,1-1.86,2.24C126.18,237,122.59,236.57,120.5,233.52Z"/><path class="cls-7" d="M86.75,274.61,88,277.3a1.46,1.46,0,0,1,1.63,1.23c0,1.6,0,3.2,0,4.81-3.6-1.22-4.78-4.42-6.13-7.48a2.26,2.26,0,0,1,.93-2.53A1.88,1.88,0,0,1,86.75,274.61Z"/><path class="cls-9" d="M108,230c2.79,1.45,2.18,2.91,0,4.37a3.21,3.21,0,0,1-3.67.15,25.26,25.26,0,0,0-2.1-1.6c-.11-.43-.22-.85-.34-1.28l3-.86c1-.27,1.94-.54,2.93-.77Z"/><path class="cls-10" d="M137.68,243.18l-1.59,2.59a3.67,3.67,0,0,1-2.89-.64c-1.25-2.09-3.72-4-.8-6.61a4.64,4.64,0,0,1,2.68,1.36C136.49,240.56,137.76,241.34,137.68,243.18Z"/><path class="cls-11" d="M89.34,237.75a1.5,1.5,0,0,0,1.34-1.31,14.44,14.44,0,0,0,2-.05c-.62,1.49-1.25,3-1.87,4.46l-.8.31-.65-.57a5,5,0,0,0-.65-.93C88.92,239,89.14,238.39,89.34,237.75Z"/><path class="cls-3" d="M135.08,239.88l-2.67-.62a1.72,1.72,0,0,1-2.22-1.27c.27-.58.54-1.15.83-1.71C133,236.81,134.56,237.74,135.08,239.88Z"/><path class="cls-12" d="M115.14,290.32l3.14-.8,1.36.25.24.64.16,1.24-1.21.35a10.34,10.34,0,0,0-1.94-.74c-.69.36-1.18.34-1.47-.05S115,290.52,115.14,290.32Z"/><path class="cls-2" d="M141.06,264.63c0-1,0-2,0-3C141.05,262.64,141.05,263.64,141.06,264.63Z"/><path class="cls-13" d="M140.91,261.81l-2.47-.83,2.75-1A1.34,1.34,0,0,1,140.91,261.81Z"/><path class="cls-14" d="M109.43,292l-2.22-.11.65-.23-.12-.69a1.45,1.45,0,0,1,.79-1.91,1.7,1.7,0,0,1,1.57,1.49l0,0C110.61,291.38,110.37,291.87,109.43,292Z"/><path class="cls-15" d="M109.43,292l.3-.76.4-.71,2.4,1.29Z"/><path class="cls-3" d="M107.88,230l-2.93.77A2.08,2.08,0,0,1,107.88,230Z"/><path class="cls-11" d="M101.29,233.89l-2.11-1.13,2.75-1.09a1.23,1.23,0,0,1,1.1.76A2,2,0,0,1,101.29,233.89Z"/><path class="cls-15" d="M115.14,290.32a8.94,8.94,0,0,1,1.75.94l-2.6.68C114.55,291.39,114.83,290.85,115.14,290.32Z"/><path class="cls-11" d="M99.27,232.72l-2.73,1.38Z"/><path class="cls-11" d="M96.4,234.2l-2.26,1Z"/><path class="cls-16" d="M112.92,284.64l-3.73,3-1.15.52a10.44,10.44,0,0,1-5,.07,23.91,23.91,0,0,1-4.57-2.38c-.77-1.13-.59-2.51-1-3.74l-1.91-.95a2.17,2.17,0,0,1,.21-2.09,2.37,2.37,0,0,1,2-.34c1.31.18.26-1,.72-1.3a1.93,1.93,0,0,1,1.68-1.14c2.92-3.41,7.4-.31,10.6-2.54a1.94,1.94,0,0,1,.39-2.17,4.61,4.61,0,0,1,2.26-.78l1.16.37,1.91.87a2.77,2.77,0,0,1-.38,3.17c0,.22-.65.42-.35.35,1.39-.31-.41.7,1,.52a5,5,0,0,1,1.13,2.24c-.16,2.75-.21,5.53-3,7.19l-.19.08a1.31,1.31,0,0,1-1.5-.19C113,285.05,112.84,284.79,112.92,284.64Z"/><path class="cls-11" d="M94.61,242.7l2,.9a2.39,2.39,0,0,1,1,2.83l-2.77,5.89a1.34,1.34,0,0,1-1.49-.18c-.36-.35-.51-.6-.44-.74-2-3-5.62-5.33-4.33-9.8a12.89,12.89,0,0,1,2.19-.76h0l2,1c.17.7.5,1.07,1,1.09S94.53,242.87,94.61,242.7Z"/><path class="cls-17" d="M107.57,251.18a18,18,0,0,1,.78-2l1.31-.4a77.34,77.34,0,0,1,7.32,3.27,4,4,0,0,1,1.65,1.69,2.62,2.62,0,0,1-.69,2c-.34.06-.7.13-1,.21a5.83,5.83,0,0,1,1.35,1.76,4.42,4.42,0,0,1,.11,2.34,4.84,4.84,0,0,1-1.65,1.86,6.81,6.81,0,0,1-3.89.74,8,8,0,0,1-3.82-1.8,6.77,6.77,0,0,1-1.54-2.47C106.72,256,108.52,253.61,107.57,251.18Z"/><path class="cls-18" d="M93,251.4l1.93.92.87,2.91-2.65,1c-2.34.22.53,4.38-3.11,3.91-2.64-.34-3.59-1.82-4-4-.52-2.7,1.69-2.37,3.26-2.88A28.3,28.3,0,0,0,93,251.4Z"/><path class="cls-19" d="M97.81,261.05c-1.26-3,1-4.37,2.83-6a1.32,1.32,0,0,0,.94-2c1.31-3.78,3.11-.24,4.67-.31,3.28-.16,2.35,2,2.08,3.77a22.38,22.38,0,0,0-.93,2.6,5.28,5.28,0,0,1-2,1.72,14.82,14.82,0,0,1-3.84.79A8.49,8.49,0,0,1,97.81,261.05Z"/><path class="cls-6" d="M97.65,246.43l-1-2.83h0A7.67,7.67,0,0,0,99,242.42a8.38,8.38,0,0,1,4.35-2.83h0c1.22-.9,1.87-.6,1.94.92l2,.92.79.71a6.13,6.13,0,0,1,.85,1.92l.16,1.05a4.09,4.09,0,0,0,.15,2.08v0c.88,1.16.6,1.84-.85,2l0,0C105.54,245.32,101.2,247.42,97.65,246.43Z"/><path class="cls-20" d="M111.88,272.34c-.37.46-.73.94-1.07,1.43-2-1-4.27-1.65-5.2-4l-.37-1s.48-1,.47-1a4.45,4.45,0,0,1,1.78-1.09,9,9,0,0,0,2.32-2.21c.35-.21.7-.39,1.06-.58l1.25,0a5,5,0,0,1,2.15,1.39c1.08,1.84.26,3.46-.54,5.09A4.6,4.6,0,0,1,111.88,272.34Z"/><path class="cls-21" d="M106.79,267.47l-1.18,2.26c-2.07-.68-4.9.1-5.72-3a5.51,5.51,0,0,1,1.33-5.28,4.47,4.47,0,0,1,2.61-.92,5.26,5.26,0,0,1,3.07,2.78,6.8,6.8,0,0,1,.38,2.79C107.12,266.58,107,267,106.79,267.47Z"/><path class="cls-22" d="M102.79,260.79l-2.9,6c-.69-1.9-1.38-3.81-2.08-5.71l3-1.16c.46-.13.91-.25,1.36-.39C102.41,259.93,102.6,260.36,102.79,260.79Z"/><path class="cls-23" d="M106.8,258.29q-.27-2.75-.55-5.5a3.32,3.32,0,0,1,1.32-1.61c3.52,2.2,2.2,4.94.87,7.69l-1,.22Z"/><path class="cls-24" d="M100.21,276.31c-.29.65-.57,1.3-.85,1.95a1.26,1.26,0,0,1-1,1.83c-.61-.31-1.22-.59-1.85-.84-.71.33-1.23.29-1.56-.11s-.43-.69-.34-.88C95.88,276,97.73,275.22,100.21,276.31Z"/><path class="cls-15" d="M97.48,282.13l1,2.88c.9,1.19.61,1.82-.88,1.89l-1.81-1.18Z"/><path class="cls-25" d="M84.56,273.88c-.27-1-.55-2-.83-3h.55l1-.11.34.93c.39,1,.77,1.94,1.15,2.92Z"/><path class="cls-15" d="M94.57,278.26c.63.34,1.26.67,1.9,1l-.9,1.93Z"/><path class="cls-26" d="M101.58,253.1c.71,1.14.36,1.79-.94,2C101,254.43,101.26,253.76,101.58,253.1Z"/><path class="cls-27" d="M89.65,278.53A4,4,0,0,1,88,277.3a7.54,7.54,0,0,1,1.51.35C89.67,277.72,89.62,278.22,89.65,278.53Z"/><path class="cls-28" d="M93.1,256.19l2.65-1Z"/><path class="cls-11" d="M85.6,271.69a7.55,7.55,0,0,1-1.33-.82,6.48,6.48,0,0,1,1.25.05C85.6,270.94,85.58,271.42,85.6,271.69Z"/><path class="cls-29" d="M90.81,240.84l-2.19.76a2.33,2.33,0,0,1,.71-1A4.38,4.38,0,0,1,90.81,240.84Z"/><path class="cls-30" d="M128.37,282.59l-5.69,2-2-1c-.6-1.75-1.52-3.45-1-5.36-.2-.94,2.14-.53,1.09-2a3,3,0,0,1-3.15-.27,3.1,3.1,0,0,1-.58-2.26,4,4,0,0,1,2.36-2.66C127.14,271.21,128.85,276.05,128.37,282.59Z"/><path class="cls-31" d="M120.15,254.83l13.95,4.76c-4.91,3.74-8.68,2.28-12.45.8a2,2,0,0,1-1.58,0c-.5-.23-.73-.4-.68-.5a14.87,14.87,0,0,1-1-3.65c.15-.39.31-.78.46-1.18Z"/><path class="cls-32" d="M122.78,248.79l2.87-1a3.79,3.79,0,0,1,2.21-.13,3.94,3.94,0,0,1,2,.85c.75.87.85,2,1.41,3a8.1,8.1,0,0,1,1.16,1.85l.05.13a1.43,1.43,0,0,1-1,1.88l-5.88-2.82a3.26,3.26,0,0,0-1.51-1.87A2.46,2.46,0,0,1,122.78,248.79Z"/><path class="cls-33" d="M120.37,259a4.53,4.53,0,0,0,1.28,1.37c-.67,2.27-1.8,4.19-4.1,5.19a2.14,2.14,0,0,1-2.69-1.16,3.79,3.79,0,0,1,2.32-3.91c.26-.62.5-1.24.73-1.87l.71-.81A2.83,2.83,0,0,1,120.37,259Z"/><path class="cls-34" d="M108.33,249.2c.29-.67.57-1.34.85-2l2,.89c3.23,1.92,7.62,2.31,9,6.75l-.63-.15c-.58.51-1,.61-1.39.28s-.52-.61-.43-.79Z"/><path class="cls-35" d="M115.41,264.4l2.14,1.17q-1.45,2.82-2.93,5.62l-.19-.36c-.6.45-1.07.51-1.4.17s-.48-.61-.39-.79l-.16-5-.09-1.42,1.1-.89A1.68,1.68,0,0,1,115.41,264.4Z"/><path class="cls-36" d="M116.92,246.05c.68-1,1.33-2.63,2.73-1.58.8.6.8,2.25,1.17,3.42Z"/><path class="cls-37" d="M119.42,271l-1.8,4a1.26,1.26,0,0,1-1,1.82l-1.92-.86v0c.61-1.3,1.23-2.61,1.84-3.92Z"/><path class="cls-38" d="M134.32,244.59a18.77,18.77,0,0,1,1.77,1.18,17,17,0,0,0-.8,1.74,3.57,3.57,0,0,1-3-.25c-.71-.86-1.15-2-.52-2.84S133.51,243.71,134.32,244.59Z"/><path class="cls-39" d="M129.61,249.73l-2.05-1a1.33,1.33,0,0,1,1-1.92v.06c1.32-.84,2.39-.23,3.43.59.12.41.23.83.35,1.24-.29.62-.56,1.26-.83,1.89l-1.3.44C130,250.57,129.8,250.15,129.61,249.73Z"/><path class="cls-40" d="M112.11,246.15l4.83-.1Z"/><path class="cls-41" d="M122.78,248.79c.64.32,1.28.63,1.93.93a1.35,1.35,0,0,1-.89,2l-3-3.8Z"/><path class="cls-42" d="M123.82,251.68c.29-.66.58-1.31.89-2,.33.94.65,1.88,1,2.81Z"/><path class="cls-43" d="M132.47,253.34c-.63-.26-1.25-.54-1.86-.82a1.32,1.32,0,0,1,.9-2h0C131.82,251.48,132.14,252.41,132.47,253.34Z"/><path class="cls-44" d="M133.32,246.71c.65.28,1.31.54,2,.8l-3,1.14,0-.05C131.74,247.49,132.06,246.86,133.32,246.71Z"/><path class="cls-45" d="M131.57,255.35c.31-.63.62-1.26,1-1.88C133.2,254.6,132.82,255.2,131.57,255.35Z"/><path class="cls-46" d="M133.32,246.71c-.33.63-.66,1.26-1,1.89l-3.8-1.78c3.43-8.13-6.52-8.17-8-13.3l9.69,4.47,2.22,1.27c.64,1.78,1.27,3.56,1.91,5.33C133.05,244.86,132.68,245.55,133.32,246.71Z"/><path class="cls-47" d="M103.61,232.58,108,234.4c-.32.73-.63,1.47-1,2.2-1,.19-1.6,1.56-2.87,1.08l-1.11-3A1.51,1.51,0,0,1,103.61,232.58Z"/><path class="cls-48" d="M109.14,242.38l1,2.68c-.63.38-1.14.4-1.51.06s-.53-.62-.45-.79v0c-.1-.45-.21-.9-.31-1.36Z"/><path class="cls-1" d="M108.19,244.33a9.06,9.06,0,0,0,2,.73l-1,2.14C108.86,246.24,108.52,245.29,108.19,244.33Z"/><path class="cls-49" d="M128.53,246.76l-1,1.92-1.91-.9Z"/><path class="cls-50" d="M107.24,241.44a9.06,9.06,0,0,1,1.65,0c.14,0,.17.6.25.91l0,.1a1.43,1.43,0,0,1-1.58-.27c-.35-.39-.49-.66-.42-.82Z"/><path class="cls-51" d="M104.22,237.68l2.87-1.08-.94,2c-.69.35-1.21.33-1.56,0s-.47-.68-.38-.87Z"/><path class="cls-52" d="M104.21,237.65l1.94.92c-.3.65-.61,1.3-.92,2l-1.94-.92C103.59,239,103.9,238.3,104.21,237.65Z"/><path class="cls-53" d="M116.6,276.82l1-1.82c.63.28,1.25.56,1.87.86.3,2.32,1.53,4.74-.78,6.76L115,285.53C115.55,282.63,116.08,279.72,116.6,276.82Z"/><path class="cls-54" d="M118.71,282.62l.78-6.76,2.86-1.05a1.33,1.33,0,0,1-.86,1.95c-.28,2.27-.55,4.53-.83,6.79Z"/><path class="cls-15" d="M110.1,290.57c-.6-.35-1.22-.67-1.85-1a1.32,1.32,0,0,1,.88-1.95h.06C109.49,288.63,109.8,289.6,110.1,290.57Z"/><path class="cls-55" d="M112.92,284.64c.65.3,1.29.62,1.92,1a8.51,8.51,0,0,1-1.68-.05C113,285.53,113,285,112.92,284.64Z"/><path class="cls-9" d="M119.64,289.77a8.81,8.81,0,0,1-1.36-.25l2.3-.84A7,7,0,0,1,119.64,289.77Z"/><path class="cls-1" d="M103.31,239.59c-1.09,2.1-1.91,4.47-4.72,4.92a13.69,13.69,0,0,1-1-2.84v0a1.58,1.58,0,0,1,.07-2.14c1.11-.64,2.4-.38,3.56-.74Z"/><path class="cls-11" d="M98.54,239.68c-.32.65-.64,1.3-1,1.95-1-.67-2.7-1.26-1.62-2.7.58-.79,2.26-.76,3.45-1.1A1.2,1.2,0,0,1,98.54,239.68Z"/><path class="cls-9" d="M103.61,232.58c-.16.7-.33,1.4-.5,2.1-.61-.25-1.22-.51-1.82-.79l1.73-1.46Z"/><path class="cls-56" d="M98.54,239.68l.42-.93.46-.92a15.25,15.25,0,0,1,1.8.92Z"/><path class="cls-11" d="M97.59,241.67c.33,1,.67,1.89,1,2.84l-2-.9Z"/><path class="cls-57" d="M94.61,242.7a8.76,8.76,0,0,1-1.62,0c-.12,0-.16-.57-.23-.87C93.39,242.09,94,242.38,94.61,242.7Z"/><path class="cls-58" d="M109.13,287.66c-.3.65-.59,1.3-.88,1.95q-.27.69-.51,1.38l-4.16-1.49c-.84-1.08-.53-1.64.78-1.75Z"/><path class="cls-59" d="M104.36,287.75c-.27.58-.53,1.16-.78,1.75l-5.94-2.6c.29-.63.58-1.26.88-1.89Z"/><path class="cls-60" d="M112.64,270.21c.59.22,1.19.43,1.8.62l-2.56,1.51Z"/><path class="cls-61" d="M114.68,276l-.69.51.7-.49Z"/><path class="cls-15" d="M98.32,280.09c.35-.61.7-1.22,1-1.83C100,279.43,99.62,280,98.32,280.09Z"/><path class="cls-62" d="M106.8,258.29c.56.17,1.1.36,1.64.58a16.17,16.17,0,0,0,1.66.7,2.69,2.69,0,0,1,.07,3.56,3.21,3.21,0,0,1-2.31,1.06,3.37,3.37,0,0,1-1.84-1.76,3.63,3.63,0,0,1,.2-2.55A10.76,10.76,0,0,0,106.8,258.29Z"/><path class="cls-63" d="M108.59,263.57c.5-1.33,1-2.66,1.51-4l4.3,1.94c.58.93.3,1.5-.73,1.77l-.38.37a15.93,15.93,0,0,1-2.24.65l-.6.29A1.49,1.49,0,0,1,108.59,263.57Z"/><path class="cls-33" d="M117.7,254.16a8.21,8.21,0,0,1,1.82.51,5.81,5.81,0,0,0,0,2.08,1.14,1.14,0,0,1-.79,1.59l-.81.3a20.57,20.57,0,0,0-1.81-1.08c-.5-.89-.22-1.47.72-1.78C117.11,255.24,117.4,254.7,117.7,254.16Z"/><path class="cls-64" d="M113.67,263.28c.23-.6.47-1.19.73-1.77l2.78-1-1.77,3.89A8,8,0,0,1,113.67,263.28Z"/><path class="cls-65" d="M114.34,256.7l-.73.49.73-.52Z"/><path class="cls-66" d="M116.82,255.78a7.61,7.61,0,0,1-.71,1.78l-1.77-.86v0Z"/><path class="cls-22" d="M106.22,259.88l.61,2.78c-.73.39-1.29.38-1.67,0s-.54-.72-.45-.91c-.65-.3-1.29-.61-1.92-.94l0,0a1.33,1.33,0,0,1,.93-2Z"/><path class="cls-67" d="M103.74,258.87l-.93,2-2-.95Z"/><path class="cls-1" d="M107.18,241.39l2,1.09a14.79,14.79,0,0,0-1,1.83C107.85,243.34,107.52,242.37,107.18,241.39Z"/><path class="cls-68" d="M109.69,266.48c.67,1.08.38,1.73-.89,1.92l-.33-1.32Z"/><path class="cls-69" d="M108.59,263.57a6.2,6.2,0,0,1,1.87,1c-.25.64-.5,1.26-.77,1.89l0,0a1.56,1.56,0,0,1-1.59-.21c-.41-.35-.58-.6-.52-.73a1.57,1.57,0,0,1,1.13-2Z"/><path class="cls-70" d="M111.05,264.3l2.24-.65a15.68,15.68,0,0,1-.81,1.58A3.85,3.85,0,0,1,111.05,264.3Z"/><path class="cls-71" d="M107.81,265.54c.61.33,1.23.63,1.86.92l-.87,1.94-2-.93v0l-.33-1.39Z"/><path class="cls-19" d="M108.69,263.53c-.3.67-.59,1.34-.88,2l-.25-.08c-.65.32-1.15.3-1.49-.06s-.47-.63-.39-.8c-.32-1-.64-1.92-1-2.87l2.12.93C107.44,263,108.05,263.27,108.69,263.53Z"/><path class="cls-72" d="M105.68,264.6c.63.27,1.26.56,1.89.86-.23.67-.48,1.33-.77,2C106.43,266.49,106.06,265.55,105.68,264.6Z"/><path class="cls-73" d="M121.49,276.76c.28-.65.57-1.3.86-1.95C123,275.89,122.79,276.56,121.49,276.76Z"/><path class="cls-34" d="M118.72,258.34l.31-.84.48-.75c.29.76.57,1.52.86,2.27A5.69,5.69,0,0,1,118.72,258.34Z"/><path class="cls-74" d="M131.51,250.53l-.9,2c-.34-.93-.67-1.86-1-2.79C130.25,250,130.89,250.25,131.51,250.53Z"/><circle cx="111.5" cy="109.57" r="33"/><path class="cls-1" d="M85.34,126.64c-.43-1.55-.87-3.1-1.3-4.65l1.23-.62a10.14,10.14,0,0,1,2.75-.18c3.21-.12,6.5-.91,9.47,1.07,1,1,1,2.44,1.36,3.7s1.6,1.2.53.24,1.11-1.36-.23-.82a6.65,6.65,0,0,0-.69-3,16.48,16.48,0,0,0-3.16-1.73,7.2,7.2,0,0,1-2.76-4.56c-.12-4.92.85-9,6.88-9.5a6.45,6.45,0,0,1,2.7.93,5.74,5.74,0,0,1,1.52,2.18c.27,1.54-.23,3.14.31,4.69.46.66.89,1.32,1.39,2a8.87,8.87,0,0,0,3.09,2.32,6.71,6.71,0,0,0,3.87,0c2-.8,3.59-2.28,5.44-3.34,2.1-1,4.19-2,6.63-1.53,3.9,3.27.1,6.75.29,10.11a12.58,12.58,0,0,0,0,3.3,6.94,6.94,0,0,0,2.8,1.64,6.88,6.88,0,0,1,2,1.61,4.19,4.19,0,0,1,.44,4,5.38,5.38,0,0,1-5,2.85h0c-1.25,0-2.49.25-3.72.17a3,3,0,0,0-2.08.5,3.92,3.92,0,0,1-3.06.62,8.62,8.62,0,0,0-3.08.2c-1,.35-2,1-3,1.39l-1.25,0c-.89-.23-1.75-.42-2.64-.59C97.88,137.34,89.28,135.7,85.34,126.64Z"/><path class="cls-2" d="M105.62,77.85c6.24-2.45,11.57.2,16.87,3,0,1.92,1.58,2.32,2.83,3,6.65,2.29,10.08,8.32,14.86,12.77a4.13,4.13,0,0,1,1.54,4.68,6.73,6.73,0,0,1-3.89,1.57c-3.77.33-8.14-1.23-10.56,3.38a11.33,11.33,0,0,1-2.83,3.18,5.27,5.27,0,0,1-2.88.38,8.32,8.32,0,0,1-4.54-3.75c-1.14-2.22-2.2-4.49-2.13-7.08a5.58,5.58,0,0,1,1.41-2.6c-1.24-.15-1.65,1.06-2.49,1.57-1.15.7-2.25,1.47-3.42,2.15-3.11,1.31-5.35,4.28-8.92,4.74a3.71,3.71,0,0,1-2.65-1,5.22,5.22,0,0,1-.57-4.17,10.89,10.89,0,0,1,1-2.61,10.69,10.69,0,0,1,1.79-2.06,14.24,14.24,0,0,1,2.2-1.5,25.62,25.62,0,0,0,3.28-2.09c.62-.57,1.29-1.08,2-1.59a12.54,12.54,0,0,1,2.91-1.74c.53-.19,1.1-.39,1.6-.59a6.49,6.49,0,0,1-1.82-.1,4.66,4.66,0,0,1-1.88-.77,7.5,7.5,0,0,1-1.55-1.53,22.23,22.23,0,0,1-1.8-2.9,9.33,9.33,0,0,1-.83-2.19A3.62,3.62,0,0,1,105.62,77.85Z"/><path class="cls-3" d="M98.81,102.68l1.44,1.57-.09,1.19-.86.83a8.94,8.94,0,0,1-2.3.33c-.75,0-1.52,0-2.28,0-.72.27-1.45.52-2.19.78a5.76,5.76,0,0,1-2.37.22,7.61,7.61,0,0,1-2.24-.94,11.49,11.49,0,0,1-1.87-1.55,11.83,11.83,0,0,1-1.54-1.84,17.4,17.4,0,0,0-2.17-2.81c.2-4.12,1.58-7.69,4.86-10.36,1.4,0,2.56-.76,3.81-1.26,4-2.86,7.3-7.82,13.37-4.47a7.91,7.91,0,0,1,1.85,2.06,8.66,8.66,0,0,1,.8,4,9.2,9.2,0,0,1-1.21,3.75,2.39,2.39,0,0,1-2.15,1.12h0c-1.88.08-3.3.67-3.17,2.93v0C100.51,99.88,98.8,101,98.81,102.68Z"/><path class="cls-4" d="M140.18,96.69c-7.57-2-10.58-10.32-17.77-12.88a2,2,0,0,1,.79-1.61c.5-.36.81-.48.91-.37l-.1-.19c.64,1.08,1.89.63,2.77,1.1C133,85.68,138.11,89.75,140.18,96.69Z"/><path class="cls-5" d="M142.1,117.78a1.36,1.36,0,0,1-.75,1.59,9.86,9.86,0,0,1-1.2,2,7.26,7.26,0,0,1-2.26.71,6,6,0,0,1-3.34-1.11,3.49,3.49,0,0,1-1.12-4.1c0-1,2.3,0,1.47-1.73a11.26,11.26,0,0,1-.59-2.19,7.78,7.78,0,0,1,.14-3.62,6.22,6.22,0,0,1,1.57-2,5.14,5.14,0,0,1,2.46-.76,4.79,4.79,0,0,1,3.11,2.1,8.29,8.29,0,0,1,.86,3.55c-.19,1.13-.77,2.19-.63,3.38A3.75,3.75,0,0,1,142.1,117.78Z"/><path class="cls-6" d="M82.49,117.08a1.33,1.33,0,0,1-.53-1.81,3.8,3.8,0,0,1-.11-2.49l0-.17c-.17-1,0-2-.25-3v.1a8.25,8.25,0,0,1,1-2.43,4.7,4.7,0,0,1,2.07-1.56,5.82,5.82,0,0,1,2.56.1l1.16.46,1,.71c.22.31.45.65.67,1a5.61,5.61,0,0,1,0,2.16c-.12.62-.29,1.27-.42,1.89a3.57,3.57,0,0,0,.5,1.77,5.17,5.17,0,0,1,1.1,1.77c.06.39.09.75.13,1.13s-.22.76-.33,1.15a7.09,7.09,0,0,1-1.51,2,6.68,6.68,0,0,1-2.34,1.13,5.12,5.12,0,0,1-2.58-.55C83.49,119.48,82.43,118.64,82.49,117.08Z"/><path class="cls-7" d="M141.43,110.74l-3-3.5a4.21,4.21,0,0,1,.3-6l3,.14,2.49,9.18c-.1.44-.19.89-.29,1.33l-1.19.63-1.3-.42Z"/><path class="cls-7" d="M137.79,128.8l-6.53,5.92c-1.5,1.69-2.2,2.34-4.27,2.94-.6-.19-1.62.17-2.08-.27l4.52-4.82a21.45,21.45,0,0,1,.65-2.83,12,12,0,0,1,3.82-4.41,7.7,7.7,0,0,1,4.13-1.48c.46.16,1.32-.83,1.79-.67.35.44-.31,2.2-.11,2.72A7.75,7.75,0,0,1,137.79,128.8Z"/><path class="cls-8" d="M90.24,90.17l-3-.09c2.29-3.85,5-7.24,9.53-8.63A1.86,1.86,0,0,1,98.11,84C95.61,86.22,93.85,89.38,90.24,90.17Z"/><path class="cls-7" d="M115.72,136.84l3-.17a1.48,1.48,0,0,1,1.76-1l4.47,1.76c-2.47,2.89-5.88,2.78-9.22,2.89a2.26,2.26,0,0,1-2-1.81A1.89,1.89,0,0,1,115.72,136.84Z"/><path class="cls-9" d="M82.34,100.44c2.38-2,3.51-.94,4,1.62a3.2,3.2,0,0,1-1.23,3.46c-.78.41-1.53.87-2.27,1.35l-1.31-.17.33-3.11c.12-1,.22-2,.38-3Z"/><path class="cls-10" d="M105.62,77.85l1.81,2.45a3.72,3.72,0,0,1-1.68,2.44c-2.4.38-5.12,1.94-6.42-1.73a4.64,4.64,0,0,1,2.26-2C102.74,78,103.94,77.09,105.62,77.85Z"/><path class="cls-11" d="M82.51,120.65a1.47,1.47,0,0,0-.72-1.72,15.28,15.28,0,0,0,.7-1.85l3.43,3.4v.86l-.77.39A4.52,4.52,0,0,0,84,122C83.54,121.53,83,121.08,82.51,120.65Z"/><path class="cls-3" d="M101.59,79,100,81.28a1.73,1.73,0,0,1-2,1.58c-.44-.46-.86-.93-1.28-1.41C98,79.84,99.41,78.71,101.59,79Z"/><path class="cls-12" d="M140.91,116.39l.44-3.22.73-1.17.68,0,1.22.31-.12,1.25a10.2,10.2,0,0,0-1.42,1.52q.12,1.17-.6,1.35C141.37,116.57,141.07,116.55,140.91,116.39Z"/><path class="cls-2" d="M126.78,82.74,124,81.64Z"/><path class="cls-13" d="M124.11,81.83l-1.7,2c0-1,0-2,.08-2.94A1.34,1.34,0,0,1,124.11,81.83Z"/><path class="cls-14" d="M140.35,122.32l-.93,2,0-.69-.68-.15a1.45,1.45,0,0,1-1.48-1.45,1.71,1.71,0,0,1,2-.9v0C140.2,121,140.57,121.39,140.35,122.32Z"/><path class="cls-15" d="M140.35,122.32l-.59-.57-.51-.63,2.1-1.75C141,120.36,140.68,121.34,140.35,122.32Z"/><path class="cls-3" d="M82.29,100.58l-.38,3A2.08,2.08,0,0,1,82.29,100.58Z"/><path class="cls-11" d="M83.4,108.13l-1.84,1.54c0-1,0-2,0-3A1.22,1.22,0,0,1,82.7,106,1.92,1.92,0,0,1,83.4,108.13Z"/><path class="cls-15" d="M140.91,116.39a9.36,9.36,0,0,1,1.53-1.28c-.12.89-.23,1.78-.34,2.67C141.68,117.33,141.29,116.87,140.91,116.39Z"/><path class="cls-11" d="M81.56,109.57l.25,3C81.73,111.6,81.64,110.59,81.56,109.57Z"/><path class="cls-11" d="M81.85,112.78c0,.83.08,1.66.11,2.49C81.93,114.44,81.89,113.61,81.85,112.78Z"/><path class="cls-16" d="M134.81,116.32l1.41,4.59c0,.42,0,.84.05,1.26a10.25,10.25,0,0,1-1.82,4.69,21.86,21.86,0,0,1-3.91,3.34c-1.34.3-2.54-.38-3.82-.5l-1.6,1.42a2.18,2.18,0,0,1-1.86-1,2.33,2.33,0,0,1,.45-2c.64-1.14-.83-.61-.94-1.15a1.91,1.91,0,0,1-.43-2c-2.07-4,2.47-7,1.6-10.79a1.92,1.92,0,0,1-1.86-1.17,4.62,4.62,0,0,1,.12-2.39l.78-.93c.5-.49,1-1,1.52-1.45a2.76,2.76,0,0,1,2.79,1.54c.21.08.15.76.2.45.23-1.4.49.64.87-.77a5,5,0,0,1,2.51-.21c2.48,1.18,5,2.26,5.56,5.42v.21a1.31,1.31,0,0,1-.74,1.33C135.22,116.42,134.93,116.45,134.81,116.32Z"/><path class="cls-11" d="M89.08,117.62l1.59-1.54a2.38,2.38,0,0,1,3,.12L98.09,121a1.34,1.34,0,0,1-.72,1.33c-.46.2-.74.24-.86.12-3.54.76-7,3.22-10.7.35a13.75,13.75,0,0,1,.11-2.31v0L87.56,119c.72.1,1.18-.07,1.39-.52S89.2,117.76,89.08,117.62Z"/><path class="cls-17" d="M101.78,108.77a16.65,16.65,0,0,1-1.56-1.47c0-.45.08-.91.11-1.36a77.84,77.84,0,0,1,5.78-5.57,4,4,0,0,1,2.19-.9,2.68,2.68,0,0,1,1.63,1.41c-.08.33-.15.69-.2,1a5.7,5.7,0,0,1,2.14-.59,4.38,4.38,0,0,1,2.21.76,4.85,4.85,0,0,1,1.11,2.23,6.75,6.75,0,0,1-.77,3.89,8,8,0,0,1-3.1,2.87,6.85,6.85,0,0,1-2.87.5C105.93,111.36,104.39,108.8,101.78,108.77Z"/><path class="cls-18" d="M96.51,122.41c.53-.48,1.06-1,1.58-1.45l3,.29-.09,2.82c-.67,2.25,4.26,1.14,2.46,4.34-1.3,2.32-3,2.66-5.21,2.23-2.7-.54-1.56-2.46-1.45-4.11A28.78,28.78,0,0,0,96.51,122.41Z"/><path class="cls-19" d="M107.29,121.51c-3.28,0-3.66-2.6-4.47-4.84.08-1.09-.42-1.62-1.5-1.62-3-2.64,1-3,1.46-4.46,1.08-3.1,2.72-1.43,4.27-.51a22.66,22.66,0,0,0,2.07,1.84,5.13,5.13,0,0,1,.83,2.52,14.91,14.91,0,0,1-.69,3.86A8.54,8.54,0,0,1,107.29,121.51Z"/><path class="cls-6" d="M93.67,116.2l-3-.12h0a7.67,7.67,0,0,0-.24-2.61,8.35,8.35,0,0,1-1-5.09v0c-.38-1.48.15-2,1.58-1.47l1.61-1.51,1-.47a5.92,5.92,0,0,1,2.1-.07l1,.24a4.29,4.29,0,0,0,2,.64h0c1.4-.38,1.92.13,1.55,1.55v0C95.59,108.46,95.91,113.27,93.67,116.2Z"/><path class="cls-20" d="M123,112.68q.45.78.93,1.53c-1.68,1.46-3.13,3.35-5.68,3.32l-1.08,0-.71-.8a4.4,4.4,0,0,1-.35-2,8.92,8.92,0,0,0-1.19-3c-.05-.41-.09-.79-.13-1.2l.48-1.15a5,5,0,0,1,2.09-1.48c2.11-.31,3.31,1.06,4.52,2.41A4.57,4.57,0,0,1,123,112.68Z"/><path class="cls-21" d="M116.6,115.59l1.66,1.94c-1.41,1.66-1.74,4.57-4.9,4.19a5.5,5.5,0,0,1-4.4-3.2,4.52,4.52,0,0,1,.12-2.77,5.28,5.28,0,0,1,3.73-1.81,6.65,6.65,0,0,1,2.73.7Z"/><path class="cls-22" d="M108.91,116.8l4.45,4.92-6.07-.21.06-3.25.15-1.41Z"/><path class="cls-23" d="M108.09,112.15l-5.31-1.56a3.29,3.29,0,0,1-1-1.82c3.36-2.44,5.41-.19,7.46,2.07l-.17,1Z"/><path class="cls-24" d="M122.34,125c.49.51,1,1,1.48,1.51,1,.09,1.48.62,1.31,1.65-.51.45-1,.92-1.47,1.4,0,.79-.18,1.25-.68,1.4s-.8.15-.94,0C120.41,128.88,120.4,126.89,122.34,125Z"/><path class="cls-15" d="M126.72,129.7l3.05.12c1.44-.4,1.92.11,1.43,1.52l-1.77,1.24Z"/><path class="cls-25" d="M114.23,138.6l-3.09-.35.19-.51.27-1,1,0,3.13,0Z"/><path class="cls-15" d="M122,131c.55-.46,1.09-.92,1.62-1.4l1.46,1.56Z"/><path class="cls-26" d="M101.32,115.05c1.33-.23,1.8.33,1.5,1.61Z"/><path class="cls-27" d="M120.45,135.62a4.07,4.07,0,0,1-1.76,1,7.18,7.18,0,0,1,.9-1.26C119.7,135.3,120.15,135.54,120.45,135.62Z"/><path class="cls-28" d="M101,124.07l.09-2.83Z"/><path class="cls-11" d="M112.59,136.81a7.06,7.06,0,0,1-1.26.93,5.83,5.83,0,0,1,.52-1.13C111.89,136.54,112.33,136.74,112.59,136.81Z"/><path class="cls-29" d="M85.92,120.45c0,.78-.07,1.55-.11,2.32a2.37,2.37,0,0,1-.67-1A4.53,4.53,0,0,1,85.92,120.45Z"/><path class="cls-30" d="M138.69,101.23l-.3,6-1.7,1.49c-1.84-.09-3.75.12-5.32-1.11-1-.17.3-2.18-1.42-1.74a3,3,0,0,1-1.43,2.82,3.1,3.1,0,0,1-2.31-.31,3.92,3.92,0,0,1-1.59-3.18C127.68,98.11,132.81,98.33,138.69,101.23Z"/><path class="cls-31" d="M109.87,98.47l9.63-11.16c1.63,6-1.13,8.9-3.91,11.84a2,2,0,0,1-.63,1.46c-.4.37-.64.52-.72.44a15.22,15.22,0,0,1-3.74-.48l-.91-.87C109.68,99.29,109.77,98.88,109.87,98.47Z"/><path class="cls-32" d="M105.25,93.77l.13-3a5,5,0,0,1,2.27-3.67c1.08-.37,2.21,0,3.3-.19a8.22,8.22,0,0,1,2.15-.38h.13a1.43,1.43,0,0,1,1.39,1.58l-4.81,4.4a3.26,3.26,0,0,0-2.29.7A2.49,2.49,0,0,1,105.25,93.77Z"/><path class="cls-33" d="M113.84,99.84a4.65,4.65,0,0,0,1.75-.69c1.86,1.48,3.21,3.24,3.28,5.74a2.14,2.14,0,0,1-2.08,2.07,3.79,3.79,0,0,1-2.76-3.62c-.48-.47-1-.93-1.47-1.37l-.48-1A2.81,2.81,0,0,1,113.84,99.84Z"/><path class="cls-34" d="M100.23,107.33l-1.55-1.55,1.57-1.53c3-2.28,5-6.2,9.61-5.78l-.37.53c.25.72.17,1.19-.26,1.39s-.76.25-.9.1Z"/><path class="cls-35" d="M117,106.44l1.89-1.55,4.12,4.83-.41,0c.19.73.07,1.18-.36,1.37s-.75.21-.89.06l-4.67-1.71L115.3,109l-.42-1.36A1.69,1.69,0,0,1,117,106.44Z"/><path class="cls-36" d="M100.52,98.19c-.66-1-2-2.22-.44-3.13.85-.51,2.38.09,3.61.2Z"/><path class="cls-37" d="M124.62,105.21l3,3.15c1,.07,1.42.63,1.3,1.62l-1.52,1.46h0q-1.49-1.57-3-3.17Z"/><path class="cls-38" d="M105.67,81.5a17.08,17.08,0,0,1,1.76-1.2,15.73,15.73,0,0,0,1.32,1.39,3.62,3.62,0,0,1-1.36,2.7c-1.06.33-2.26.33-2.83-.58S104.55,81.92,105.67,81.5Z"/><path class="cls-39" d="M108.68,87.79l-1.74,1.51a1.33,1.33,0,0,1-1.42-1.63l.06,0c-.28-1.54.68-2.3,1.83-3l1.28.14c.47.5,1,1,1.45,1.48,0,.46-.06.91-.08,1.37Z"/><path class="cls-40" d="M98.81,102.68l1.71-4.51Z"/><path class="cls-41" d="M105.25,93.77q.8-.7,1.59-1.44a1.35,1.35,0,0,1,1.49,1.55l-4.66,1.38Z"/><path class="cls-42" d="M108.33,93.88c-.51-.5-1-1-1.49-1.55l3,.14C109.32,93,108.83,93.42,108.33,93.88Z"/><path class="cls-43" d="M113.1,86.49c-.48.48-1,1-1.46,1.41-1,0-1.58-.5-1.51-1.58v0Z"/><path class="cls-44" d="M107.27,83.22c.5-.5,1-1,1.48-1.53l-.06,3.18,0,0Q106.78,85.05,107.27,83.22Z"/><path class="cls-45" d="M114.62,88.07c-.47-.52-.93-1-1.39-1.58C114.54,86.28,115,86.85,114.62,88.07Z"/><path class="cls-46" d="M107.27,83.22l1.38,1.62-3.07,2.85c-6.26-6.22-10,3-15.34,2.48L98,82.86l2-1.58,5.67.22C105.44,82.78,106,83.38,107.27,83.22Z"/><path class="cls-47" d="M83.05,105.48l3.35-3.42,1.68,1.71c-.21,1,.85,2.06-.07,3.06l-3.2-.1A1.5,1.5,0,0,1,83.05,105.48Z"/><path class="cls-48" d="M94.21,104l2.86.06c.11.73-.06,1.2-.51,1.42s-.77.26-.9.13h0l-1.38-.22C94.24,105,94.23,104.49,94.21,104Z"/><path class="cls-1" d="M95.66,105.64a9,9,0,0,0,1.41-1.55l1.63,1.69Z"/><path class="cls-49" d="M105.52,87.67c.47.55,1,1.09,1.42,1.63-.52.48-1,1-1.56,1.43C105.43,89.71,105.48,88.69,105.52,87.67Z"/><path class="cls-50" d="M92.63,105.44a8.65,8.65,0,0,1,.64-1.53c.08-.11.61.07.94.12h.1a1.42,1.42,0,0,1-.84,1.36c-.49.18-.79.21-.91.08Z"/><path class="cls-51" d="M88,106.83c0-1,0-2,.07-3.06l1.48,1.6c.07.78-.15,1.25-.64,1.43s-.8.18-.94,0Z"/><path class="cls-52" d="M88,106.83l1.58-1.46c.49.53,1,1,1.46,1.58l-1.58,1.47Z"/><path class="cls-53" d="M128.94,110l-1.31-1.62c.5-.48,1-1,1.5-1.42,2.26.6,5,.36,6,3.26l1.32,4.5Z"/><path class="cls-54" d="M135.11,110.2l-6-3.26.09-3a1.34,1.34,0,0,1,1.5,1.53l6,3.3Z"/><path class="cls-15" d="M139.26,121.15a20.56,20.56,0,0,0-1.58,1.36A1.32,1.32,0,0,1,136.2,121l0,0Z"/><path class="cls-55" d="M134.81,116.32q.8-.73,1.62-1.41a8.75,8.75,0,0,1-.67,1.53C135.68,116.56,135.14,116.37,134.81,116.32Z"/><path class="cls-9" d="M142.08,112a8.31,8.31,0,0,1-.73,1.18c0-.82.05-1.64.07-2.45A6.68,6.68,0,0,1,142.08,112Z"/><path class="cls-1" d="M89.44,108.39c1.54,1.8,3.44,3.44,2.8,6.22a13.19,13.19,0,0,1-3-.14h0a1.6,1.6,0,0,1-2-.87c-.18-1.26.55-2.36.65-3.58Z"/><path class="cls-11" d="M87.74,112.85l1.45,1.61c-1,.66-2.18,2-3.11.49-.51-.84.15-2.38.27-3.61C87.37,111.34,87.85,111.82,87.74,112.85Z"/><path class="cls-9" d="M83.05,105.48l1.76,1.25c-.46.48-.93,1-1.41,1.4-.24-.71-.48-1.43-.71-2.15C82.7,106,83.05,105.48,83.05,105.48Z"/><path class="cls-56" d="M87.74,112.85l-.71-.74-.68-.77A14.88,14.88,0,0,1,87.88,110C87.83,111,87.79,111.9,87.74,112.85Z"/><path class="cls-11" d="M89.23,114.47l3,.14-1.57,1.48Z"/><path class="cls-57" d="M89.08,117.62a9.46,9.46,0,0,1-.62,1.5c-.07.1-.59-.07-.9-.11C88.05,118.52,88.55,118.06,89.08,117.62Z"/><path class="cls-58" d="M136.2,121c.49.52,1,1,1.48,1.55.36.34.72.67,1.09,1l-3,3.3c-1.31.38-1.71-.12-1.32-1.38Z"/><path class="cls-59" d="M134.5,125.42c.43.47.88.93,1.33,1.38l-4.63,4.54c-.48-.5-1-1-1.43-1.52Z"/><path class="cls-60" d="M121.32,111.18c.43-.46.85-.94,1.25-1.43.15,1,.3,2,.44,2.94Z"/><path class="cls-61" d="M127.42,111.44l.21.84-.18-.84Z"/><path class="cls-15" d="M125.13,128.16c-.42-.55-.86-1.1-1.31-1.65C125.15,126.36,125.56,126.93,125.13,128.16Z"/><path class="cls-62" d="M108.09,112.15a16.08,16.08,0,0,1,1.15-1.31c.44-.41.87-.83,1.27-1.27a2.67,2.67,0,0,1,3.33,1.26,3.21,3.21,0,0,1,.12,2.54,3.36,3.36,0,0,1-2.32,1,3.59,3.59,0,0,1-2.29-1.13A10.38,10.38,0,0,0,108.09,112.15Z"/><path class="cls-63" d="M113.65,112.46l-3.14-2.9,3.4-3.26c1.08-.19,1.51.29,1.37,1.34l.2.49a15.07,15.07,0,0,1-.23,2.32l0,.66A1.49,1.49,0,0,1,113.65,112.46Z"/><path class="cls-33" d="M108.33,100.49A8.39,8.39,0,0,1,109.49,99a6,6,0,0,0,1.92.78,1.14,1.14,0,0,1,1.18,1.33l0,.86c-.57.4-1.13.82-1.67,1.27-1,.13-1.45-.34-1.39-1.33Z"/><path class="cls-64" d="M115.28,107.64c-.47-.44-.92-.88-1.37-1.34l.12-3,2.94,3.1A7.41,7.41,0,0,1,115.28,107.64Z"/><path class="cls-65" d="M109.44,104.56l.18.86-.22-.87Z"/><path class="cls-66" d="M109.5,101.91a7.62,7.62,0,0,1,1.39,1.33l-1.46,1.32h0C109.44,103.67,109.47,102.79,109.5,101.91Z"/><path class="cls-22" d="M109.35,113.28l2.8.47c.09.83-.13,1.34-.65,1.54s-.86.24-1,.08c-.51.49-1,1-1.58,1.43h0a1.34,1.34,0,0,1-1.48-1.61Z"/><path class="cls-67" d="M107.48,115.19,109,116.8l-1.61,1.46C107.39,117.24,107.44,116.22,107.48,115.19Z"/><path class="cls-1" d="M92.56,105.47,94.31,104a17,17,0,0,0,1.33,1.61Z"/><path class="cls-68" d="M116.76,112.53c1.26-.22,1.75.29,1.45,1.54l-1.35-.19Z"/><path class="cls-69" d="M113.65,112.46a6,6,0,0,1,1.65-1.35c.5.46,1,.93,1.46,1.42h0a1.57,1.57,0,0,1-.79,1.4c-.48.25-.77.32-.88.21a1.58,1.58,0,0,1-1.42-1.78Z"/><path class="cls-70" d="M115.25,110.45c.08-.78.15-1.55.23-2.32a14.77,14.77,0,0,1,1.17,1.34A3.82,3.82,0,0,1,115.25,110.45Z"/><path class="cls-71" d="M115.2,113.92c.52-.45,1-.91,1.54-1.39l1.47,1.54-1.61,1.52,0,0-1.42-.2C115.17,114.88,115.18,114.4,115.2,113.92Z"/><path class="cls-19" d="M113.65,112.36l1.54,1.56-.17.2c.06.72-.15,1.18-.61,1.36s-.76.2-.89.06l-3-.17,1.65-1.62A19.89,19.89,0,0,0,113.65,112.36Z"/><path class="cls-72" d="M113.52,115.54c.49-.48,1-1,1.5-1.43.54.46,1.06,1,1.56,1.45Z"/><path class="cls-73" d="M130.72,105.43c-.51-.51-1-1-1.5-1.53C130.48,103.66,131,104.14,130.72,105.43Z"/><path class="cls-34" d="M112.59,101.11l-.66-.6-.52-.73,2.43.06A5.79,5.79,0,0,1,112.59,101.11Z"/><path class="cls-74" d="M110.13,86.32l1.51,1.59-3-.12C109.15,87.29,109.63,86.8,110.13,86.32Z"/><circle cx="109.5" cy="185.57" r="33"/><path class="cls-1" d="M117.16,215.86l-4.83-.28c-.06-.45-.11-.9-.18-1.36a9.8,9.8,0,0,1,.72-2.66c.93-3.08,1.25-6.45,4.08-8.61,1.3-.66,2.62-.12,3.94-.09s1.66-1.12.41-.43-.93-1.48-.85,0a6.59,6.59,0,0,0-3-.31,17.09,17.09,0,0,0-2.67,2.43,7.18,7.18,0,0,1-5.2,1.12c-4.69-1.47-8.28-3.74-6.75-9.58a6.47,6.47,0,0,1,1.75-2.26,5.91,5.91,0,0,1,2.56-.73c1.54.24,2.9,1.24,4.53,1.23.78-.22,1.55-.41,2.31-.67a9,9,0,0,0,3.2-2.18,6.78,6.78,0,0,0,1.29-3.65c-.11-2.15-1-4.13-1.4-6.23-.26-2.31-.57-4.62.7-6.76,4.36-2.63,6.42,2.09,9.66,3a12.56,12.56,0,0,0,3.11,1.11,7,7,0,0,0,2.46-2.12,6.59,6.59,0,0,1,2.18-1.39,4.23,4.23,0,0,1,4,.88,5.4,5.4,0,0,1,1.08,5.64h0c-.46,1.17-.57,2.44-1,3.57a3.06,3.06,0,0,0-.2,2.13,4,4,0,0,1-.4,3.1,8.59,8.59,0,0,0-.82,3c0,1.1.3,2.17.35,3.29-.15.39-.3.76-.46,1.16-.5.76-1,1.52-1.42,2.31C131.34,207.47,127,215.07,117.16,215.86Z"/><path class="cls-2" d="M77.59,180.84c-.29-6.7,4-10.88,8.33-15,1.81.65,2.7-.75,3.8-1.69,4.33-5.54,11.14-6.84,16.91-9.92a4.14,4.14,0,0,1,4.92.07,6.65,6.65,0,0,1,.22,4.18c-.91,3.68-3.8,7.31-.22,11.09a11.43,11.43,0,0,1,2.08,3.71,5.22,5.22,0,0,1-.58,2.85,8.24,8.24,0,0,1-5,3.08c-2.48.36-5,.63-7.39-.28a5.73,5.73,0,0,1-2-2.19c-.54,1.13.48,1.91.69,2.88.28,1.31.66,2.6.91,3.92.24,3.37,2.32,6.46,1.6,10a3.73,3.73,0,0,1-1.78,2.19,5.21,5.21,0,0,1-4.13-.81,8.48,8.48,0,0,1-3.5-4.21,15.15,15.15,0,0,1-.7-2.56,26,26,0,0,0-.91-3.78A24.88,24.88,0,0,1,90,182a11.66,11.66,0,0,1-.7-3.31c0-.56,0-1.17,0-1.7a6.91,6.91,0,0,1-.69,1.68,4.5,4.5,0,0,1-1.34,1.53,7.72,7.72,0,0,1-2,1,22.17,22.17,0,0,1-3.32.76,9.18,9.18,0,0,1-2.34.08A3.62,3.62,0,0,1,77.59,180.84Z"/><path class="cls-3" d="M98.87,195.34l1.94-.85,1.1.47.51,1.08a8.85,8.85,0,0,1-.44,2.28c-.27.71-.54,1.42-.76,2.15,0,.78,0,1.55,0,2.33a5.94,5.94,0,0,1-.56,2.31,8,8,0,0,1-1.62,1.82A11.3,11.3,0,0,1,97,208.19a12.67,12.67,0,0,1-2.24.87,17.57,17.57,0,0,0-3.37,1.13,13.48,13.48,0,0,1-8.22-7.95c.45-1.33.12-2.68,0-4-1.41-4.71-5-9.44.12-14.1a7.51,7.51,0,0,1,2.54-1.07,8.68,8.68,0,0,1,4,.53,9.26,9.26,0,0,1,3.15,2.36,2.37,2.37,0,0,1,.36,2.4v0c-.53,1.81-.44,3.33,1.74,3.94h0C96.77,192.82,97.23,194.79,98.87,195.34Z"/><path class="cls-4" d="M106.63,154.26c-4.37,6.51-13.21,6.67-18,12.63a1.92,1.92,0,0,1-1.26-1.27c-.17-.59-.19-.91-.06-1l-.21,0c1.23-.25,1.21-1.58,1.94-2.26C93.89,157.45,99.38,154,106.63,154.26Z"/><path class="cls-5" d="M127.19,159.3a1.34,1.34,0,0,1,1.27,1.22,9.67,9.67,0,0,1,1.52,1.8,6.75,6.75,0,0,1-.06,2.37,6,6,0,0,1-2.13,2.8,3.49,3.49,0,0,1-4.24-.28c-1-.3.76-2.17-1.16-2a12.15,12.15,0,0,1-2.26-.15,7.79,7.79,0,0,1-3.38-1.31,6,6,0,0,1-1.4-2.15,5.09,5.09,0,0,1,.08-2.57,4.83,4.83,0,0,1,3-2.26,8.51,8.51,0,0,1,3.65.34c1,.55,1.81,1.44,3,1.7A3.64,3.64,0,0,1,127.19,159.3Z"/><path class="cls-6" d="M107.19,215.46a1.34,1.34,0,0,1-1.89-.1,3.72,3.72,0,0,1-2.39-.7l-.17,0c-1-.16-1.92-.67-3-.74l.1,0a7.84,7.84,0,0,1-2-1.75,4.61,4.61,0,0,1-.8-2.46,5.68,5.68,0,0,1,.92-2.39l.82-.95,1-.71,1.13-.32a5.67,5.67,0,0,1,2,.72c.55.32,1.1.68,1.65,1a3.43,3.43,0,0,0,1.83.1,5.52,5.52,0,0,1,2-.47l1.11.25,1,.68a7.47,7.47,0,0,1,1.38,2.08,6.83,6.83,0,0,1,.3,2.58,5,5,0,0,1-1.36,2.25C109.78,215.29,108.64,216,107.19,215.46Z"/><path class="cls-7" d="M120.31,157.65,116,159.38a4.22,4.22,0,0,1-5.6-2.23l1.12-2.82,9.5.63,1.15.7.21,1.33-.81,1.09Z"/><path class="cls-7" d="M136.22,167l3.48,8.1c1.12,2,1.5,2.84,1.4,5-.38.51-.37,1.59-.93,1.88l-3.09-5.83a23.19,23.19,0,0,1-2.47-1.54,12.05,12.05,0,0,1-2.94-5.05,7.77,7.77,0,0,1-.06-4.38c.3-.39-.35-1.52,0-1.91.52-.19,2,1,2.53,1A7.85,7.85,0,0,1,136.22,167Z"/><path class="cls-8" d="M84.25,199.39l-1.08,2.85c-2.89-3.42-5.22-7.09-5.06-11.82a1.86,1.86,0,0,1,2.87-.48C82.26,193,84.67,195.72,84.25,199.39Z"/><path class="cls-7" d="M136.66,190.43l.8-2.86a1.48,1.48,0,0,1-.42-2l3.12-3.66c1.93,3.27.72,6.46-.26,9.66a2.26,2.26,0,0,1-2.36,1.31A1.9,1.9,0,0,1,136.66,190.43Z"/><path class="cls-9" d="M91.39,210.19c-1.15-2.91.26-3.62,2.86-3.31a3.22,3.22,0,0,1,2.87,2.29c.14.87.32,1.73.54,2.59-.19.4-.39.79-.58,1.19l-2.84-1.33c-.91-.43-1.83-.86-2.72-1.33Z"/><path class="cls-10" d="M77.59,180.84l2.9-.92a3.67,3.67,0,0,1,1.76,2.39c-.42,2.39.18,5.47-3.72,5.51A4.68,4.68,0,0,1,77.4,185C76.78,183.61,76.32,182.18,77.59,180.84Z"/><path class="cls-11" d="M110.57,216.6a1.46,1.46,0,0,0-1.86.11,15.06,15.06,0,0,0-1.52-1.25l4.33-2.15.8.29.12.86a4.68,4.68,0,0,0-.11,1.12C111.74,215.91,111.15,216.24,110.57,216.6Z"/><path class="cls-3" d="M77.4,185,79,187.25a1.73,1.73,0,0,1,.85,2.42c-.58.26-1.16.51-1.75.75C77,188.74,76.39,187,77.4,185Z"/><path class="cls-12" d="M125.49,160l-2.9-1.46-.86-1.07.24-.64.69-1.05,1.14.53a10.74,10.74,0,0,0,1,1.83c.77.18,1.12.52,1.08,1S125.7,159.88,125.49,160Z"/><path class="cls-2" d="M89.08,162.42l-1.94,2.26Z"/><path class="cls-13" d="M87.35,164.65l1.32,2.24-2.75-1A1.33,1.33,0,0,1,87.35,164.65Z"/><path class="cls-14" d="M130.92,162.43l1.61,1.53-.64-.25-.36.59a1.46,1.46,0,0,1-1.86.93,1.68,1.68,0,0,1-.2-2.15h0C129.61,162.13,130.11,161.92,130.92,162.43Z"/><path class="cls-15" d="M130.92,162.43l-.72.37-.77.28c-.32-.86-.65-1.71-1-2.56Z"/><path class="cls-3" d="M91.52,210.29l2.72,1.33A2.08,2.08,0,0,1,91.52,210.29Z"/><path class="cls-11" d="M99,211.69c.28.74.57,1.49.86,2.23l-2.8-1a1.22,1.22,0,0,1-.33-1.3A2,2,0,0,1,99,211.69Z"/><path class="cls-15" d="M125.49,160a9.76,9.76,0,0,1-.71-1.86l2.41,1.19C126.64,159.55,126.07,159.77,125.49,160Z"/><path class="cls-11" d="M99.78,213.9l3,.74Z"/><path class="cls-11" d="M102.91,214.66l2.39.7Z"/><path class="cls-16" d="M123.45,165.72l4.79.15,1.22.36a10.34,10.34,0,0,1,3.85,3.25,23.21,23.21,0,0,1,1.89,4.78c-.16,1.36-1.19,2.28-1.72,3.46.27.65.55,1.31.82,2a2.2,2.2,0,0,1-1.52,1.44,2.32,2.32,0,0,1-1.76-1.08c-.87-1-.85.58-1.4.52a1.93,1.93,0,0,1-2-.24c-4.44.67-5.8-4.61-9.68-5a2,2,0,0,1-1.72,1.39,4.64,4.64,0,0,1-2.22-.89l-.63-1-.87-1.91a2.78,2.78,0,0,1,2.36-2.15c.14-.16.77.12.49,0-1.25-.68.77-.26-.45-1.08a5.06,5.06,0,0,1,.62-2.44c1.92-2,3.77-4,6.93-3.5l.2.07c.65.25,1,.62,1,1.13S123.61,165.65,123.45,165.72Z"/><path class="cls-11" d="M109.83,209.4l-.93-2a2.38,2.38,0,0,1,1.08-2.81l5.94-2.64a1.34,1.34,0,0,1,1,1.12c0,.5,0,.78-.16.85-.43,3.6.76,7.7-3.14,10.24a12.86,12.86,0,0,1-2.15-.86h0c-.29-.68-.58-1.35-.86-2,.33-.64.31-1.13,0-1.48S110,209.32,109.83,209.4Z"/><path class="cls-17" d="M105.59,194.51a17.06,17.06,0,0,1-1.89,1l-1.26-.55a77.23,77.23,0,0,1-3.39-7.27,3.89,3.89,0,0,1-.14-2.36,2.62,2.62,0,0,1,1.86-1.09c.29.18.61.36.91.52a5.87,5.87,0,0,1,.13-2.21,4.44,4.44,0,0,1,1.44-1.85,4.86,4.86,0,0,1,2.47-.32,6.78,6.78,0,0,1,3.43,2,8.07,8.07,0,0,1,1.71,3.87,7.08,7.08,0,0,1-.45,2.88C109.38,191.43,106.46,192.05,105.59,194.51Z"/><path class="cls-18" d="M116.78,203.92c-.28-.66-.57-1.31-.86-2,.42-.92.84-1.84,1.25-2.76l2.64,1c1.91,1.37,2.47-3.66,4.91-.92,1.77,2,1.53,3.73.41,5.65-1.38,2.38-2.83.69-4.35.05A28,28,0,0,0,116.78,203.92Z"/><path class="cls-19" d="M119.43,193.43c-1,3.12-3.65,2.63-6,2.66a1.31,1.31,0,0,0-2,.89c-3.47,2-2.51-1.86-3.74-2.83-2.59-2-.47-3,.9-4.2a24.81,24.81,0,0,0,2.41-1.36,5.18,5.18,0,0,1,2.65,0,15,15,0,0,1,3.43,1.91A8.43,8.43,0,0,1,119.43,193.43Z"/><path class="cls-6" d="M110,204.59l-1.08,2.81h0a7.65,7.65,0,0,0-2.54-.63,8.31,8.31,0,0,1-5.14-.72h0c-1.52-.11-1.81-.77-.87-2l-.92-2L99.33,201a6.11,6.11,0,0,1,.62-2l.56-.9a4.21,4.21,0,0,0,1.25-1.67v0c.09-1.46.75-1.78,2-1h0C103.29,200.27,107.94,201.52,110,204.59Z"/><path class="cls-20" d="M116.18,175.69c.59-.1,1.17-.23,1.75-.38.83,2.07,2.15,4.05,1.29,6.46l-.38,1-1,.42a4.37,4.37,0,0,1-2.06-.34,8.87,8.87,0,0,0-3.2.16l-1.18-.26-.93-.84a5,5,0,0,1-.72-2.46c.39-2.09,2.07-2.78,3.74-3.48A4.65,4.65,0,0,1,116.18,175.69Z"/><path class="cls-21" d="M116.85,182.71l2.37-.94c1.11,1.87,3.76,3.13,2.37,6a5.5,5.5,0,0,1-4.45,3.12,4.5,4.5,0,0,1-2.58-1,5.3,5.3,0,0,1-.5-4.12,6.57,6.57,0,0,1,1.54-2.35Z"/><path class="cls-22" d="M115.5,190.37l6.09-2.61-2.16,5.67-3.06-1.11-1.28-.6C115.22,191.27,115.36,190.82,115.5,190.37Z"/><path class="cls-23" d="M110.83,189.64l-3.19,4.51a3.26,3.26,0,0,1-2,.36c-1.22-4,1.58-5.18,4.37-6.38l.91.48Z"/><path class="cls-24" d="M127.61,180.33l1.91-.91a1.27,1.27,0,0,1,2-.71c.26.63.54,1.25.85,1.85.75.21,1.12.58,1.1,1.1s-.12.81-.31.89C130.66,183.42,128.77,182.78,127.61,180.33Z"/><path class="cls-15" d="M133.48,177.72l1.1-2.86c.1-1.49.73-1.77,1.91-.85.19.69.39,1.38.59,2.07Z"/><path class="cls-25" d="M137.84,192.41c-.44.94-.89,1.88-1.33,2.81l-.42-.34-.82-.57.35-.92c.35-1,.7-2,1-3Z"/><path class="cls-15" d="M133.15,182.55c-.25-.67-.52-1.33-.79-2l1.94-.87Z"/><path class="cls-26" d="M111.38,197c.21-1.33.9-1.59,2-.89Z"/><path class="cls-27" d="M137,185.57a4,4,0,0,1,.43,2,7.17,7.17,0,0,1-.91-1.26C136.49,186.17,136.87,185.82,137,185.57Z"/><path class="cls-28" d="M119.81,200.19l-2.64-1Z"/><path class="cls-11" d="M135.62,193.39a7.16,7.16,0,0,1,.47,1.49,6.75,6.75,0,0,1-.91-.86C135.14,194,135.47,193.61,135.62,193.39Z"/><path class="cls-29" d="M111.49,213.3l2.16.86a2.55,2.55,0,0,1-1.21.3A4.43,4.43,0,0,1,111.49,213.3Z"/><path class="cls-30" d="M110.43,157.15l5.6,2.23c.28.7.57,1.4.86,2.09-.69,1.72-1.11,3.6-2.79,4.68-.47.84-2-1-2.1.77a3,3,0,0,1,2.2,2.27,3.1,3.1,0,0,1-1,2.09,4,4,0,0,1-3.53.47C103.91,166.55,105.78,161.77,110.43,157.15Z"/><path class="cls-31" d="M98.47,183.52,91,170.78c6.17.39,8.06,4,9.93,7.55a2,2,0,0,1,1.18,1.06c.22.51.28.78.19.83a15.45,15.45,0,0,1-1.68,3.38l-1.12.58Z"/><path class="cls-32" d="M92.52,186.36l-2.82-1.11A4.93,4.93,0,0,1,87,181.91c0-1.14.69-2.1.89-3.18a8.25,8.25,0,0,1,.34-2.15l0-.13a1.42,1.42,0,0,1,2-.8l2.6,6a3.26,3.26,0,0,0-.09,2.4A2.46,2.46,0,0,1,92.52,186.36Z"/><path class="cls-33" d="M101.05,180.2a4.37,4.37,0,0,0-.08-1.87c2-1.28,4.11-2,6.5-1.24a2.14,2.14,0,0,1,1.28,2.64,3.82,3.82,0,0,1-4.32,1.44q-.9.44-1.77.93l-1.07.14A2.86,2.86,0,0,1,101.05,180.2Z"/><path class="cls-34" d="M103.72,195.5l-2,1c-.32-.67-.63-1.33-1-2-1.18-3.57-4.24-6.74-2.34-11l.38.53q1.16,0,1.23.69c.06.51,0,.8-.19.88Z"/><path class="cls-35" d="M108.32,179.38c-.29-.76-.57-1.52-.85-2.29l5.89-2.32-.1.39c.76.06,1.15.32,1.18.79s0,.78-.23.86l-3.13,3.86c-.29.38-.57.76-.86,1.13l-1.42,0A1.69,1.69,0,0,1,108.32,179.38Z"/><path class="cls-36" d="M95.17,192.26c-1.16.3-2.73,1.13-3.1-.59-.21-1,.86-2.22,1.36-3.35Z"/><path class="cls-37" d="M109.63,171.75l4-1.83a1.27,1.27,0,0,1,2-.71c.3.64.6,1.27.89,1.91v0l-4,1.76Z"/><path class="cls-38" d="M81.06,182a17.75,17.75,0,0,1-.57-2.05,15.18,15.18,0,0,0,1.74-.79,3.62,3.62,0,0,1,2.12,2.16c0,1.11-.43,2.25-1.47,2.49S81.09,183.17,81.06,182Z"/><path class="cls-39" d="M88,181.17l.85,2.14a1.33,1.33,0,0,1-2,.82l0,0c-1.55-.24-2-1.4-2.21-2.7l.54-1.16c.63-.29,1.25-.58,1.87-.89l1.28.52C88.24,180.29,88.11,180.73,88,181.17Z"/><path class="cls-40" d="M98.87,195.34l-3.72-3.08Z"/><path class="cls-41" d="M92.52,186.36c-.27-.66-.55-1.32-.84-2a1.34,1.34,0,0,1,1.95-.9l-.21,4.85Z"/><path class="cls-42" d="M93.63,183.49q-1,.47-1.95.9c.37-.92.73-1.85,1.1-2.77C93.07,182.24,93.35,182.86,93.63,183.49Z"/><path class="cls-43" d="M88.19,176.58c.29.6.58,1.22.86,1.83a1.31,1.31,0,0,1-2,.91h0C87.46,178.41,87.82,177.49,88.19,176.58Z"/><path class="cls-44" d="M83.2,181c-.31-.64-.64-1.27-1-1.9l3,1.09,0,0C84.91,181.47,84.25,181.74,83.2,181Z"/><path class="cls-45" d="M90.18,175.65l-2,.8C88.45,175.14,89.13,174.94,90.18,175.65Z"/><path class="cls-46" d="M83.2,181l2-.79,1.71,3.84c-7.92,3.89-.42,10.44-2.64,15.31l-4.39-9.72c-.29-.8-.57-1.61-.85-2.41.68-1.77,1.37-3.53,2-5.29C82.19,182.61,82.92,182.33,83.2,181Z"/><path class="cls-47" d="M96.4,211.16l-2.15-4.28,2.16-1c.89.53,2.22-.13,2.87,1.07l-1.13,3A1.5,1.5,0,0,1,96.4,211.16Z"/><path class="cls-48" d="M98.65,200.13l1-2.68c.73.12,1.12.44,1.18.94s0,.82-.17.89v0l-.65,1.23Z"/><path class="cls-1" d="M100.64,199.28a9.06,9.06,0,0,0-1-1.83l2.13-1C101.38,197.4,101,198.34,100.64,199.28Z"/><path class="cls-49" d="M86.85,184.13l2-.82c.29.64.58,1.29.86,1.94Z"/><path class="cls-50" d="M99.46,202.09A8.69,8.69,0,0,1,98.23,201c-.08-.11.27-.56.42-.85l0-.09c.66.29,1,.7,1,1.23s0,.82-.22.89Z"/><path class="cls-51" d="M99.28,206.91l-2.87-1.07,2-.88c.75.19,1.13.55,1.14,1.07s-.08.82-.27.9Z"/><path class="cls-52" d="M99.28,206.93l-.87-2,2-.87.87,2Z"/><path class="cls-53" d="M115.55,169.21l-2,.71c-.3-.62-.58-1.24-.86-1.87,1.3-1.94,2-4.59,5-4.6l4.7.21Z"/><path class="cls-54" d="M117.75,163.45l-5,4.6L109.89,167a1.32,1.32,0,0,1,1.93-.91l5.07-4.59Z"/><path class="cls-15" d="M129.47,163.08c.22.66.48,1.3.76,1.93a1.31,1.31,0,0,1-1.94.9l0,0Z"/><path class="cls-55" d="M123.45,165.72c-.29-.66-.56-1.32-.81-2a8.29,8.29,0,0,1,1.23,1.13C124,165,123.6,165.42,123.45,165.72Z"/><path class="cls-9" d="M121.73,157.44a7.61,7.61,0,0,1,.87,1.08l-2.29-.87A6.86,6.86,0,0,1,121.73,157.44Z"/><path class="cls-1" d="M101.22,206.05c2.2-.87,4.37-2.12,6.79-.62a13.25,13.25,0,0,1-1.1,2.8l0,0a1.58,1.58,0,0,1-1.46,1.57c-1.25-.24-2-1.28-3.17-1.77Z"/><path class="cls-11" d="M104.89,209.11l2-.85c.31,1.16,1.21,2.72-.54,3.11-1,.21-2.21-.91-3.33-1.44A1.21,1.21,0,0,1,104.89,209.11Z"/><path class="cls-9" d="M96.4,211.16l1.75-1.26c.31.59.59,1.19.87,1.79l-2.26,0Z"/><path class="cls-56" d="M104.89,209.11l-.93.43-.95.4a15.39,15.39,0,0,1-.76-1.88Z"/><path class="cls-11" d="M106.91,208.23c.37-.93.73-1.86,1.1-2.8.3.66.6,1.31.89,2Z"/><path class="cls-57" d="M109.83,209.4a9,9,0,0,1,1.22,1.07c.08.09-.25.53-.39.81C110.36,210.66,110.08,210,109.83,209.4Z"/><path class="cls-58" d="M128.29,165.91c.65-.29,1.3-.59,1.94-.9.44-.22.87-.46,1.3-.71l2.16,3.86c-.07,1.36-.67,1.58-1.73.81Z"/><path class="cls-59" d="M132,169q.87-.39,1.74-.81l2.79,5.85-1.91.85Z"/><path class="cls-60" d="M114.21,176.81c-.3-.56-.61-1.11-.94-1.65l2.91.54Z"/><path class="cls-61" d="M116.44,171.12l.86.07-.85-.09Z"/><path class="cls-15" d="M131.51,178.71c-.67.23-1.33.46-2,.71C129.81,178.12,130.48,177.91,131.51,178.71Z"/><path class="cls-62" d="M110.83,189.64c-.31-.49-.6-1-.87-1.51a16.16,16.16,0,0,0-.79-1.62,2.69,2.69,0,0,1,2.28-2.74,3.25,3.25,0,0,1,2.44.71,3.35,3.35,0,0,1,.23,2.54,3.61,3.61,0,0,1-1.81,1.8A9.74,9.74,0,0,0,110.83,189.64Z"/><path class="cls-63" d="M112.93,184.48l-3.76,2-2-4.28c.17-1.08.76-1.33,1.71-.86l.53,0a15,15,0,0,1,2.12,1l.64.17A1.49,1.49,0,0,1,112.93,184.48Z"/><path class="cls-33" d="M99.89,185.62a8.27,8.27,0,0,1-1-1.57,5.72,5.72,0,0,0,1.37-1.57,1.14,1.14,0,0,1,1.64-.68l.8.3a20.4,20.4,0,0,0,.67,2c-.21,1-.8,1.26-1.71.88Z"/><path class="cls-64" d="M108.9,181.37c-.56.3-1.13.59-1.71.86l-2.76-1.06,3.89-1.79A7.82,7.82,0,0,1,108.9,181.37Z"/><path class="cls-65" d="M104.09,185.9l.87.11-.89-.08Z"/><path class="cls-66" d="M101.61,185a7.28,7.28,0,0,1,1.71-.88c.25.6.51,1.2.77,1.8l0,0Z"/><path class="cls-22" d="M112.31,188.82l1.35-2.51c.81.19,1.23.56,1.26,1.12s-.07.89-.26,1c.29.65.57,1.3.84,2v0a1.33,1.33,0,0,1-2,.87Z"/><path class="cls-67" d="M113.51,191.2l2-.87c.29.66.58,1.33.86,2Z"/><path class="cls-1" d="M99.47,202.16c-.26-.71-.53-1.42-.79-2.12a16.31,16.31,0,0,0,1.95-.74C100.25,200.25,99.86,201.21,99.47,202.16Z"/><path class="cls-68" d="M114,181.56c.21-1.26.85-1.56,1.93-.87l-.61,1.21Z"/><path class="cls-69" d="M112.93,184.48a6.18,6.18,0,0,1-.74-2c.6-.32,1.2-.63,1.81-.92v0a1.59,1.59,0,0,1,1.07,1.21c.08.53.05.83-.09.89a1.57,1.57,0,0,1-2.15.76Z"/><path class="cls-70" d="M111.55,182.31l-2.12-1a16.76,16.76,0,0,1,1.65-.67A3.79,3.79,0,0,1,111.55,182.31Z"/><path class="cls-71" d="M114.81,183.49c-.25-.64-.52-1.28-.81-1.91l1.93-.89c.31.67.61,1.34.92,2h0l-.66,1.28Z"/><path class="cls-19" d="M112.83,184.44l2-.95.13.23c.71.18,1.07.52,1.09,1s-.06.79-.23.86l-1.14,2.81c-.33-.7-.66-1.4-1-2.1A19.37,19.37,0,0,0,112.83,184.44Z"/><path class="cls-72" d="M115.8,185.6c-.3-.62-.58-1.25-.86-1.88.61-.36,1.24-.7,1.88-1Z"/><path class="cls-73" d="M111.82,166.06l-1.93.91C110.07,165.7,110.7,165.36,111.82,166.06Z"/><path class="cls-34" d="M101.85,181.8l-.79.43-.85.25.84-2.28A5.71,5.71,0,0,1,101.85,181.8Z"/><path class="cls-74" d="M87.07,179.32l2-.91L88,181.18C87.66,180.57,87.35,180,87.07,179.32Z"/><circle cx="260.5" cy="184.57" r="33"/><path class="cls-1" d="M257.06,215.62l-4.42-2c.1-.44.21-.89.31-1.34a9.54,9.54,0,0,1,1.6-2.24c1.95-2.56,3.43-5.6,6.84-6.63,1.45-.17,2.49.81,3.72,1.29s1.95-.46.53-.26-.35-1.71-.78-.34c-.91-.52-1.65-1.26-2.73-1.35a17.36,17.36,0,0,0-3.35,1.34,7.18,7.18,0,0,1-5.27-.77c-3.88-3-6.44-6.4-3-11.34a6.51,6.51,0,0,1,2.44-1.5,6,6,0,0,1,2.65.21c1.36.77,2.28,2.18,3.82,2.74.8.07,1.58.16,2.39.18a8.69,8.69,0,0,0,3.76-.92,6.8,6.8,0,0,0,2.49-3c.65-2.06.51-4.22.87-6.33.56-2.25,1.09-4.52,3-6.08,5-.94,5.27,4.2,8,6.19a12.88,12.88,0,0,0,2.53,2.13,6.9,6.9,0,0,0,3-1.13,6.71,6.71,0,0,1,2.53-.53,4.2,4.2,0,0,1,3.39,2.21,5.4,5.4,0,0,1-1,5.66v0c-.84.94-1.39,2.08-2.23,3a3,3,0,0,0-.94,1.93,4,4,0,0,1-1.46,2.76,8.61,8.61,0,0,0-1.81,2.5c-.39,1-.48,2.14-.83,3.2-.27.32-.54.62-.83.93-.74.54-1.44,1.08-2.14,1.67C273.28,212.74,266.56,218.33,257.06,215.62Z"/><path class="cls-2" d="M232.27,169c2.07-6.38,7.51-8.81,13-11.11,1.46,1.25,2.79.25,4.15-.25,6-3.67,12.83-2.5,19.31-3.36a4.14,4.14,0,0,1,4.59,1.79,6.74,6.74,0,0,1-1.26,4c-2.14,3.12-6.12,5.5-4.1,10.3a11.39,11.39,0,0,1,.65,4.21,5.17,5.17,0,0,1-1.53,2.46,8.31,8.31,0,0,1-5.78,1.13c-2.44-.53-4.86-1.15-6.82-2.85a5.64,5.64,0,0,1-1.11-2.75c-.91.86-.23,1.95-.37,2.93-.2,1.32-.3,2.67-.52,4-1,3.23-.09,6.85-2,9.9a3.74,3.74,0,0,1-2.43,1.43,5.18,5.18,0,0,1-3.58-2.21,8.42,8.42,0,0,1-1.81-5.17,14.65,14.65,0,0,1,.24-2.64,25.12,25.12,0,0,0,.47-3.86c0-.84,0-1.68,0-2.52a11.71,11.71,0,0,1,.5-3.35c.19-.53.39-1.1.56-1.61a6.56,6.56,0,0,1-1.23,1.34,4.69,4.69,0,0,1-1.8,1,7.19,7.19,0,0,1-2.16.22,21.44,21.44,0,0,1-3.38-.45,9.23,9.23,0,0,1-2.22-.75A3.58,3.58,0,0,1,232.27,169Z"/><path class="cls-3" d="M247.12,190l2.12-.12.87.83c0,.39,0,.79.09,1.18a8.61,8.61,0,0,1-1.21,2c-.5.56-1,1.14-1.46,1.75-.25.73-.52,1.45-.79,2.19a5.86,5.86,0,0,1-1.33,2,8,8,0,0,1-2.15,1.13,12.16,12.16,0,0,1-2.39.46,12,12,0,0,1-2.4,0,16.85,16.85,0,0,0-3.55-.11A13.47,13.47,0,0,1,230,191c.89-1.09,1.05-2.47,1.46-3.75.33-4.9-1.41-10.6,5-13.16a7.54,7.54,0,0,1,2.76-.12,8.68,8.68,0,0,1,3.59,1.91,9.32,9.32,0,0,1,2.13,3.32,2.39,2.39,0,0,1-.51,2.37v0c-1.12,1.51-1.57,3,.25,4.31v0C246,186.9,245.78,188.91,247.12,190Z"/><path class="cls-4" d="M268.78,154.24c-6.37,4.57-14.7,1.62-21.24,5.54a2,2,0,0,1-.74-1.63c0-.62.14-.93.29-.94l-.21,0c1.24.19,1.69-1.06,2.61-1.44C255.73,152.76,262.1,151.43,268.78,154.24Z"/><path class="cls-5" d="M286.28,166.16a1.36,1.36,0,0,1,.76,1.59,9.62,9.62,0,0,1,.79,2.22,7,7,0,0,1-.88,2.19,5.94,5.94,0,0,1-3,1.88,3.5,3.5,0,0,1-3.88-1.74c-.81-.63,1.47-1.77-.4-2.23a12.39,12.39,0,0,1-2.06-.94,7.69,7.69,0,0,1-2.71-2.42,6.11,6.11,0,0,1-.56-2.49,5.26,5.26,0,0,1,1-2.38,4.85,4.85,0,0,1,3.6-1.07,8.41,8.41,0,0,1,3.29,1.6c.75.86,1.2,2,2.2,2.63A3.69,3.69,0,0,1,286.28,166.16Z"/><path class="cls-6" d="M247.86,211.75a1.33,1.33,0,0,1-1.73-.75,3.73,3.73,0,0,1-2-1.5l-.15-.07a30.25,30.25,0,0,0-2.51-1.73l.07.05a8.08,8.08,0,0,1-1.23-2.32,4.7,4.7,0,0,1,.12-2.6,5.76,5.76,0,0,1,1.7-1.91l1.1-.6,1.17-.32,1.16.09a5.66,5.66,0,0,1,1.65,1.39c.41.49.8,1,1.19,1.53a3.58,3.58,0,0,0,1.69.73,5.24,5.24,0,0,1,2.07.28c.33.2.63.4,1,.62l.67,1a7.24,7.24,0,0,1,.56,2.42,6.71,6.71,0,0,1-.61,2.53,5.18,5.18,0,0,1-2.07,1.64C250.35,212.5,249,212.79,247.86,211.75Z"/><path class="cls-7" d="M280.41,162.21l-4.62.12a4.22,4.22,0,0,1-4.46-4.05l2-2.25,8.67,3.91.84,1.06-.27,1.33-1.14.73Z"/><path class="cls-7" d="M292.05,176.49l.43,8.81c.35,2.23.41,3.19-.44,5.16-.54.35-.91,1.36-1.54,1.44-.28-2.18-.56-4.37-.85-6.55a22.07,22.07,0,0,1-1.77-2.31,12,12,0,0,1-1-5.75,7.73,7.73,0,0,1,1.48-4.13c.42-.26.2-1.55.62-1.8.56,0,1.51,1.63,2,1.81A7.69,7.69,0,0,1,292.05,176.49Z"/><path class="cls-8" d="M232,188.67,230,191c-1.51-4.22-2.4-8.47-.6-12.85a1.87,1.87,0,0,1,2.86.56C232.37,182,233.69,185.38,232,188.67Z"/><path class="cls-7" d="M284.24,198.64l1.75-2.4a1.46,1.46,0,0,1,.31-2l4.2-2.34c.66,3.74-1.59,6.31-3.63,9a2.27,2.27,0,0,1-2.67.4A1.89,1.89,0,0,1,284.24,198.64Z"/><path class="cls-9" d="M234.92,201.29c-.07-3.14,1.51-3.3,3.83-2.1a3.18,3.18,0,0,1,1.88,3.15c-.17.86-.3,1.73-.4,2.61l-1,.91-2.19-2.24c-.7-.73-1.41-1.45-2.08-2.2Z"/><path class="cls-10" d="M232.27,169l3,.16a3.71,3.71,0,0,1,.82,2.85c-1.23,2.09-1.75,5.18-5.42,3.85a4.67,4.67,0,0,1-.09-3C230.54,171.26,230.61,169.77,232.27,169Z"/><path class="cls-11" d="M250.63,214a1.48,1.48,0,0,0-1.78-.54,14.59,14.59,0,0,0-1-1.71l4.81-.49.65.55-.18.84a4.39,4.39,0,0,0-.5,1Z"/><path class="cls-3" d="M230.62,172.82l.74,2.64a1.73,1.73,0,0,1-.06,2.56c-.63,0-1.27.07-1.9.09C228.94,176.15,229,174.3,230.62,172.82Z"/><path class="cls-12" d="M284.45,166.19l-2.2-2.38-.44-1.31.45-.51,1-.74.89.89a10.12,10.12,0,0,0,.28,2.06q1,.66.66,1.32C284.89,166,284.68,166.18,284.45,166.19Z"/><path class="cls-2" d="M249.49,155.73l-2.61,1.44Z"/><path class="cls-13" d="M247.09,157.21l.45,2.57-2.22-1.93A1.34,1.34,0,0,1,247.09,157.21Z"/><path class="cls-14" d="M288.68,170.4l1,2-.52-.46-.54.43a1.47,1.47,0,0,1-2.07.22,1.7,1.7,0,0,1,.56-2.09h0C287.55,169.67,288.09,169.64,288.68,170.4Z"/><path class="cls-15" d="M288.68,170.4l-.82.09h-.81c0-.91,0-1.82,0-2.73Z"/><path class="cls-3" d="M235,201.42l2.08,2.2A2.07,2.07,0,0,1,235,201.42Z"/><path class="cls-11" d="M241.53,205.36c0,.8,0,1.59,0,2.39l-2.28-1.89a1.24,1.24,0,0,1,.15-1.33A1.93,1.93,0,0,1,241.53,205.36Z"/><path class="cls-15" d="M284.45,166.19a9.45,9.45,0,0,1,0-2c.61.66,1.22,1.31,1.84,2Q285.37,166.22,284.45,166.19Z"/><path class="cls-11" d="M241.48,207.7l2.51,1.73Z"/><path class="cls-11" d="M244.14,209.5l2,1.5Z"/><path class="cls-16" d="M280.53,170.86l4.43,1.83,1,.76a10.36,10.36,0,0,1,2.47,4.39,23.25,23.25,0,0,1,.09,5.14c-.62,1.22-1.91,1.72-2.82,2.63,0,.72.06,1.43.08,2.14a2.18,2.18,0,0,1-1.93.82,2.34,2.34,0,0,1-1.27-1.63c-.47-1.22-1,.25-1.49,0a1.91,1.91,0,0,1-1.8-.92c-4.39-.93-3.82-6.35-7.31-8.1a1.92,1.92,0,0,1-2.09.7,4.65,4.65,0,0,1-1.77-1.61c-.08-.4-.15-.8-.22-1.19q-.09-1-.15-2.1a2.76,2.76,0,0,1,3-1.18c.19-.11.68.37.47.14-.93-1.07.81,0,0-1.17a5,5,0,0,1,1.43-2.06c2.49-1.18,4.95-2.46,7.72-.85l.16.13a1.31,1.31,0,0,1,.56,1.41C280.86,170.61,280.7,170.85,280.53,170.86Z"/><path class="cls-11" d="M252.47,207l-.18-2.2a2.39,2.39,0,0,1,2-2.25l6.49-.39a1.34,1.34,0,0,1,.56,1.4c-.13.49-.28.73-.45.74-1.66,3.23-2,7.49-6.53,8.49a13.15,13.15,0,0,1-1.71-1.55l0,0-.09-2.2c.53-.49.69-1,.48-1.4S252.65,207,252.47,207Z"/><path class="cls-17" d="M253.71,191.57a15.31,15.31,0,0,1-2.13.27l-1-1a76.74,76.74,0,0,1-.63-8,4,4,0,0,1,.69-2.26,2.62,2.62,0,0,1,2.12-.36c.22.27.45.55.68.8a5.88,5.88,0,0,1,.9-2,4.45,4.45,0,0,1,2-1.22,4.84,4.84,0,0,1,2.42.56,6.91,6.91,0,0,1,2.52,3.06,8,8,0,0,1,.24,4.22,6.87,6.87,0,0,1-1.43,2.54C258.34,190,255.39,189.58,253.71,191.57Z"/><path class="cls-18" d="M260.89,204.3c0-.71-.07-1.42-.11-2.14l2.14-2.15,2.12,1.87c1.31,1.94,3.58-2.57,4.91.85,1,2.49.13,4-1.59,5.44-2.12,1.75-2.89-.35-4.09-1.48A29.31,29.31,0,0,0,260.89,204.3Z"/><path class="cls-19" d="M267.05,195.41c-2.06,2.56-4.34,1.18-6.59.38a1.32,1.32,0,0,0-2.2.13c-3.95.65-1.7-2.63-2.51-4-1.71-2.81.63-3,2.32-3.63a23.12,23.12,0,0,0,2.73-.43,5.28,5.28,0,0,1,2.48,1,14.17,14.17,0,0,1,2.53,3A8.57,8.57,0,0,1,267.05,195.41Z"/><path class="cls-6" d="M254.29,202.55l-2,2.25h0a7.54,7.54,0,0,0-2.15-1.47,8.36,8.36,0,0,1-4.57-2.48l0,0c-1.38-.64-1.42-1.35-.12-2.15l-.16-2.2.25-1a6.1,6.1,0,0,1,1.28-1.66l.84-.64a4.1,4.1,0,0,0,1.75-1.14v0c.6-1.33,1.32-1.4,2.18-.22h0C249.53,196.16,253.45,199,254.29,202.55Z"/><path class="cls-20" d="M270.22,177.66c.59.11,1.18.19,1.77.25.05,2.24.59,4.55-1.05,6.5l-.71.81s-1.08,0-1.07.05a4.28,4.28,0,0,1-1.81-1.05,9.15,9.15,0,0,0-3.05-1c-.36-.21-.68-.43-1-.66l-.58-1.1a5.06,5.06,0,0,1,.19-2.56c1.1-1.82,2.91-1.88,4.73-2A4.59,4.59,0,0,1,270.22,177.66Z"/><path class="cls-21" d="M268.38,184.46l2.56-.05c.39,2.15,2.42,4.26.12,6.45a5.48,5.48,0,0,1-5.26,1.36,4.53,4.53,0,0,1-2.07-1.85,5.27,5.27,0,0,1,1-4,6.47,6.47,0,0,1,2.27-1.67Z"/><path class="cls-22" d="M264.44,191.17l6.62-.31c-1.34,1.52-2.68,3-4,4.55l-2.48-2.11-1-1Z"/><path class="cls-23" d="M260.32,188.84,255.75,192a3.29,3.29,0,0,1-2-.39c.24-4.14,3.29-4.29,6.33-4.44l.68.77Z"/><path class="cls-24" d="M279.3,186l2.11-.19a1.27,1.27,0,0,1,2.11,0c0,.68.07,1.35.15,2,.63.46.84.93.64,1.41s-.39.72-.6.73C281.07,190,279.53,188.71,279.3,186Z"/><path class="cls-15" d="M285.71,185.61l2-2.28c.62-1.36,1.31-1.41,2.09-.13-.06.71-.12,1.43-.17,2.15Z"/><path class="cls-25" d="M284.65,200.91l-2.24,2.16-.27-.47-.56-.81.65-.75,2-2.4C284.38,199.39,284.51,200.15,284.65,200.91Z"/><path class="cls-15" d="M283.71,190c0-.72,0-1.43,0-2.14l2.12-.14Z"/><path class="cls-26" d="M258.26,195.92c.67-1.18,1.4-1.18,2.2-.13Z"/><path class="cls-27" d="M286.3,194.22a4.11,4.11,0,0,1-.3,2,6.9,6.9,0,0,1-.41-1.49C285.57,194.59,286.05,194.39,286.3,194.22Z"/><path class="cls-28" d="M265,201.88,262.91,200Z"/><path class="cls-11" d="M282.23,201a6.87,6.87,0,0,1-.09,1.57,6.76,6.76,0,0,1-.54-1.12C281.57,201.41,282,201.19,282.23,201Z"/><path class="cls-29" d="M252.65,211.24l1.72,1.56a2.44,2.44,0,0,1-1.23-.14A4.28,4.28,0,0,1,252.65,211.24Z"/><path class="cls-30" d="M271.33,158.28l4.46,4.05c0,.75,0,1.51.07,2.26-1.25,1.36-2.3,3-4.24,3.4-.74.63-1.5-1.62-2.25,0a3,3,0,0,1,1.27,2.89,3,3,0,0,1-1.71,1.59,3.9,3.9,0,0,1-3.46-.79C261.93,164.8,265.36,161,271.33,158.28Z"/><path class="cls-31" d="M250.89,178.78l-2.5-14.53c5.64,2.53,6.16,6.53,6.66,10.55a2,2,0,0,1,.73,1.41c0,.55,0,.83-.11.83a14.68,14.68,0,0,1-2.76,2.58l-1.25.16Z"/><path class="cls-32" d="M244.32,179.36l-2.25-2a5,5,0,0,1-1.4-4.09c.4-1.07,1.38-1.72,2-2.67a8.21,8.21,0,0,1,1.07-1.89l.09-.11a1.43,1.43,0,0,1,2.1-.07l.34,6.51a3.29,3.29,0,0,0-.92,2.22A2.47,2.47,0,0,1,244.32,179.36Z"/><path class="cls-33" d="M254.47,176.58a4.5,4.5,0,0,0,.58-1.78c2.32-.5,4.55-.42,6.52,1.12a2.13,2.13,0,0,1,.27,2.91,3.81,3.81,0,0,1-4.55-.16c-.66.07-1.32.15-2,.25l-1.05-.24A2.84,2.84,0,0,1,254.47,176.58Z"/><path class="cls-34" d="M251.61,191.85l-2.18.22c-.07-.73-.13-1.46-.19-2.19.14-3.76-1.61-7.8,1.65-11.1l.17.63c.72.26,1,.62.91,1.08s-.29.75-.49.76Z"/><path class="cls-35" d="M261.56,178.36c0-.81,0-1.63,0-2.44l6.34-.11-.24.33c.69.31,1,.7.83,1.15s-.31.71-.51.72l-4.3,2.52-1.19.77-1.32-.54A1.7,1.7,0,0,1,261.56,178.36Z"/><path class="cls-36" d="M244.73,185.82c-1.19-.13-2.95.09-2.69-1.65.14-1,1.58-1.78,2.44-2.66C244.57,183,244.65,184.38,244.73,185.82Z"/><path class="cls-37" d="M265.47,171.67l4.34-.33a1.27,1.27,0,0,1,2.09,0c.06.7.11,1.4.16,2.1l0,0-4.32.26Z"/><path class="cls-38" d="M235.12,171.24a16.7,16.7,0,0,1,.19-2.12,15.2,15.2,0,0,0,1.91-.14,3.63,3.63,0,0,1,1.22,2.77c-.41,1-1.18,1.95-2.24,1.82S234.73,172.37,235.12,171.24Z"/><path class="cls-39" d="M241.89,172.91l.06,2.31a1.34,1.34,0,0,1-2.16.06l.05,0c-1.36-.76-1.34-2-1.12-3.3l.92-.9c.69-.05,1.37-.11,2.06-.18l1,.94Z"/><path class="cls-40" d="M247.12,190l-2.4-4.19Z"/><path class="cls-41" d="M244.32,179.36c0-.71,0-1.43-.09-2.14a1.34,1.34,0,0,1,2.14-.16l-1.9,4.47Z"/><path class="cls-42" d="M246.37,177.06c-.71.06-1.43.12-2.14.16l2-2.21C246.28,175.69,246.33,176.38,246.37,177.06Z"/><path class="cls-43" d="M243.69,168.68c.07.67.12,1.35.17,2a1.32,1.32,0,0,1-2.18.16h0Z"/><path class="cls-44" d="M237.46,171.1c-.07-.71-.15-1.41-.24-2.12l2.42,2.07h0C238.9,172.12,238.2,172.13,237.46,171.1Z"/><path class="cls-45" d="M245.88,168.5c-.7,0-1.4.06-2.1.07C244.44,167.43,245.15,167.47,245.88,168.5Z"/><path class="cls-46" d="M237.46,171.1l2.13,0c.09,1.39.17,2.79.25,4.19-8.78.87-4.05,9.63-7.83,13.42-.24-3.55-.47-7.1-.71-10.65,0-.85,0-1.7,0-2.55l3.77-4.23C236,172.23,236.74,172.22,237.46,171.1Z"/><path class="cls-47" d="M239.27,204c-.18-1.59-.35-3.18-.52-4.76l2.39-.22c.65.81,2.13.66,2.31,2l-2.1,2.41A1.51,1.51,0,0,1,239.27,204Z"/><path class="cls-48" d="M245.23,194.4l1.86-2.17c.64.38.9.81.78,1.3s-.29.77-.47.78h0l-1,.93Z"/><path class="cls-1" d="M247.4,194.31a8.58,8.58,0,0,0-.31-2.08l2.34-.18Z"/><path class="cls-49" d="M239.79,175.28l2.16-.06.12,2.11Z"/><path class="cls-50" d="M245.31,196.52a9.66,9.66,0,0,1-.76-1.46c0-.14.44-.43.68-.66l.07-.07a1.4,1.4,0,0,1,.51,1.51c-.16.49-.34.74-.51.75Z"/><path class="cls-51" d="M243.45,201l-2.31-2,2.18-.12c.64.44.87.91.69,1.4s-.36.74-.57.75Z"/><path class="cls-52" d="M243.44,201l-.12-2.15,2.15-.13.12,2.15Z"/><path class="cls-53" d="M271.9,171.37l-2.09,0c-.06-.68-.1-1.36-.14-2.05,1.89-1.36,3.44-3.61,6.31-2.55l4.32,1.85Z"/><path class="cls-54" d="M276,166.74l-6.31,2.55-2.29-2a1.33,1.33,0,0,1,2.13-.19l6.35-2.51Z"/><path class="cls-15" d="M287.08,170.5c0,.69,0,1.39,0,2.08a1.31,1.31,0,0,1-2.13.16l0-.05Z"/><path class="cls-55" d="M280.53,170.86c0-.71-.07-1.43-.07-2.14a8,8,0,0,1,.76,1.49C281.26,170.34,280.77,170.64,280.53,170.86Z"/><path class="cls-9" d="M281.81,162.5a8.89,8.89,0,0,1,.44,1.32l-1.84-1.62A8.1,8.1,0,0,1,281.81,162.5Z"/><path class="cls-1" d="M245.57,200.85c2.37,0,4.84-.46,6.58,1.8a13.35,13.35,0,0,1-2,2.23l0,0a1.58,1.58,0,0,1-1.92,1c-1.09-.66-1.47-1.92-2.35-2.76Z"/><path class="cls-11" d="M247.93,205l2.17-.09c-.12,1.19.18,3-1.6,2.71-1-.14-1.75-1.62-2.61-2.5A1.2,1.2,0,0,1,247.93,205Z"/><path class="cls-9" d="M239.27,204l2.08-.57q.12,1,.18,2l-2.11-.82Z"/><path class="cls-56" d="M247.93,205l-1,.08-1,0a13.68,13.68,0,0,1-.06-2Z"/><path class="cls-11" d="M250.13,204.88c.67-.74,1.35-1.48,2-2.23,0,.72.1,1.44.14,2.15Z"/><path class="cls-57" d="M252.47,207a9.36,9.36,0,0,1,.76,1.43c0,.12-.42.41-.65.63C252.51,208.37,252.48,207.69,252.47,207Z"/><path class="cls-58" d="M285,172.74l2.13-.16,1.47-.21c.22,1.46.45,2.91.67,4.37-.54,1.25-1.18,1.25-1.91.15Z"/><path class="cls-59" d="M287.35,176.89c.64,0,1.28-.09,1.91-.15l.57,6.46-2.09.13Z"/><path class="cls-60" d="M268,178c-.09-.62-.19-1.25-.31-1.87l2.54,1.52Z"/><path class="cls-61" d="M272.06,173.47l.78.37-.76-.39Z"/><path class="cls-15" d="M283.52,185.86l-2.11,0C282.13,184.71,282.84,184.75,283.52,185.86Z"/><path class="cls-62" d="M260.32,188.84c-.12-.57-.21-1.14-.28-1.71s-.09-1.2-.17-1.8a2.67,2.67,0,0,1,3.09-1.76,3.24,3.24,0,0,1,2,1.52,3.42,3.42,0,0,1-.67,2.45A3.63,3.63,0,0,1,262,188.6,10.46,10.46,0,0,0,260.32,188.84Z"/><path class="cls-63" d="M264.1,184.75l-4.23.58-.36-4.7c.54-.95,1.18-1,1.9-.2l.51.15a14.28,14.28,0,0,1,1.64,1.66l.54.38A1.49,1.49,0,0,1,264.1,184.75Z"/><path class="cls-33" d="M251.48,181.25a7.33,7.33,0,0,1-.42-1.84,5.87,5.87,0,0,0,1.82-1,1.13,1.13,0,0,1,1.77-.06l.65.56c-.06.7-.08,1.4-.07,2.1-.55.87-1.19.91-1.91.23Z"/><path class="cls-64" d="M261.41,180.43c-.63.08-1.27.15-1.9.2l-2.22-2,4.27-.31A8,8,0,0,1,261.41,180.43Z"/><path class="cls-65" d="M255.32,183l.78.4-.81-.39Z"/><path class="cls-66" d="M253.32,181.25a7.62,7.62,0,0,1,1.91-.23l.09,2h0Z"/><path class="cls-22" d="M262,188.6l2.14-1.88c.69.46.95,1,.78,1.49s-.37.81-.58.82c0,.71.08,1.43.1,2.14l0,0a1.33,1.33,0,0,1-2.18.12Z"/><path class="cls-67" d="M262.29,191.25l2.18-.12c0,.72.07,1.45.1,2.17Z"/><path class="cls-1" d="M245.3,196.59v-2.26a16,16,0,0,0,2.08,0Z"/><path class="cls-68" d="M266.13,182.39c.63-1.1,1.33-1.17,2.11-.14l-1,.92Z"/><path class="cls-69" d="M264.1,184.75a6.35,6.35,0,0,1,0-2.13c.67-.09,1.35-.17,2-.23v0a1.57,1.57,0,0,1,.57,1.5q-.17.79-.39.81a1.57,1.57,0,0,1-2.28,0Z"/><path class="cls-70" d="M263.56,182.24l-1.64-1.66a15.06,15.06,0,0,1,1.78-.05A4,4,0,0,1,263.56,182.24Z"/><path class="cls-71" d="M266.2,184.48c0-.69,0-1.38-.08-2.07l2.12-.16c.05.74.1,1.47.14,2.21h0c-.36.32-.72.64-1.07,1Z"/><path class="cls-19" d="M264,184.68l2.18-.2,0,.27c.6.41.83.86.67,1.33s-.33.72-.52.73L264.34,189c-.07-.77-.13-1.53-.2-2.3S264.09,185.36,264,184.68Z"/><path class="cls-72" d="M266.39,186.81q-.09-1-.15-2.07c.7-.13,1.41-.22,2.12-.28Z"/><path class="cls-73" d="M269.51,167.1l-2.13.19C268,166.16,268.71,166.06,269.51,167.1Z"/><path class="cls-34" d="M254.65,178.36l-.88.12-.89-.06,1.59-1.84A5.62,5.62,0,0,1,254.65,178.36Z"/><path class="cls-74" d="M241.68,170.86l2.18-.16c-.66.74-1.31,1.48-2,2.21C241.8,172.23,241.73,171.55,241.68,170.86Z"/><circle cx="259.5" cy="259.57" r="33"/><path class="cls-1" d="M238.93,283.08,236.42,279l1-.92a9.94,9.94,0,0,1,2.6-.92c3.05-1,6-2.64,9.4-1.53,1.28.69,1.58,2.09,2.31,3.19s1.87.73.58.09.7-1.61-.44-.73c-.45-.95-.63-2-1.47-2.67a17.14,17.14,0,0,0-3.52-.82A7.13,7.13,0,0,1,243,271c-1.45-4.7-1.63-8.93,4-11a6.53,6.53,0,0,1,2.85.16,5.93,5.93,0,0,1,2.06,1.69c.68,1.41.62,3.09,1.56,4.43.63.52,1.21,1,1.87,1.51a8.84,8.84,0,0,0,3.61,1.4,6.82,6.82,0,0,0,3.73-1c1.71-1.31,2.84-3.17,4.33-4.69,1.75-1.53,3.48-3.09,6-3.27,4.64,2.1,1.92,6.47,3,9.65a12.32,12.32,0,0,0,.85,3.19,6.86,6.86,0,0,0,3.14.82,6.78,6.78,0,0,1,2.38,1,4.21,4.21,0,0,1,1.52,3.76,5.39,5.39,0,0,1-4,4.09v0c-1.22.29-2.33.92-3.54,1.17a3.06,3.06,0,0,0-1.86,1.05,4,4,0,0,1-2.78,1.43,8.69,8.69,0,0,0-2.92,1c-.9.62-1.61,1.48-2.5,2.15-.41.11-.8.2-1.22.29-.92,0-1.8.06-2.7.14C253.89,290,245.18,290.74,238.93,283.08Z"/><path class="cls-2" d="M245.26,230.63c5.35-4,11.19-2.94,17.06-1.66.49,1.86,2.14,1.8,3.55,2.17,7,.41,11.95,5.28,17.76,8.27a4.16,4.16,0,0,1,2.75,4.09,6.68,6.68,0,0,1-3.32,2.56c-3.55,1.34-8.18,1-9.25,6.12a11.53,11.53,0,0,1-1.87,3.82,5.33,5.33,0,0,1-2.67,1.15,8.3,8.3,0,0,1-5.38-2.38c-1.71-1.84-3.34-3.73-4-6.24a5.69,5.69,0,0,1,.66-2.89c-1.24.19-1.3,1.47-2,2.19-.92,1-1.77,2-2.71,3-2.64,2.11-4,5.57-7.31,7a3.75,3.75,0,0,1-2.81-.21,5.26,5.26,0,0,1-1.68-3.87,8.44,8.44,0,0,1,1.48-5.27,13.72,13.72,0,0,1,1.71-2,26.42,26.42,0,0,0,2.59-2.9,24.61,24.61,0,0,1,1.45-2.06,12.11,12.11,0,0,1,2.33-2.46c.46-.32.95-.68,1.38-1a6.25,6.25,0,0,1-1.78.39,4.59,4.59,0,0,1-2-.23,7.59,7.59,0,0,1-1.91-1.06,21,21,0,0,1-2.51-2.3,8.8,8.8,0,0,1-1.39-1.88A3.6,3.6,0,0,1,245.26,230.63Z"/><path class="cls-3" d="M245.42,256.37l1.81,1.12c.08.39.15.78.24,1.17l-.61,1a8.57,8.57,0,0,1-2.12.94c-.74.17-1.48.36-2.2.6-.63.46-1.26.9-1.9,1.35a5.73,5.73,0,0,1-2.22.85,7.86,7.86,0,0,1-2.41-.3,11.31,11.31,0,0,1-2.22-1,11.62,11.62,0,0,1-2-1.35,17.06,17.06,0,0,0-2.85-2.13,13.48,13.48,0,0,1,1.88-11.28,10.45,10.45,0,0,0,3.33-2.24c3.08-3.84,4.91-9.5,11.66-7.92a7.67,7.67,0,0,1,2.34,1.48,8.67,8.67,0,0,1,1.85,3.62,9.15,9.15,0,0,1-.15,3.93,2.38,2.38,0,0,1-1.77,1.66h0c-1.79.59-3,1.53-2.26,3.67v0C246.3,253.22,244.94,254.72,245.42,256.37Z"/><path class="cls-4" d="M283.63,239.41c-7.84.11-13-7.07-20.59-7.59a1.94,1.94,0,0,1,.32-1.77c.39-.47.65-.67.77-.6l-.14-.15c.9.87,2,.1,3,.31C273.77,230.74,279.75,233.29,283.63,239.41Z"/><path class="cls-5" d="M291.18,259.2a1.35,1.35,0,0,1-.29,1.73,10,10,0,0,1-.61,2.28,6.88,6.88,0,0,1-2,1.29,6,6,0,0,1-3.51-.15,3.51,3.51,0,0,1-2.19-3.66c-.31-1,2.22-.61,1-2.06a12,12,0,0,1-1.16-1.94,7.74,7.74,0,0,1-.84-3.53,6.31,6.31,0,0,1,1-2.37,5.18,5.18,0,0,1,2.17-1.4,4.87,4.87,0,0,1,3.56,1.18,8.54,8.54,0,0,1,1.79,3.19c.12,1.14-.15,2.31.3,3.42A3.78,3.78,0,0,1,291.18,259.2Z"/><path class="cls-6" d="M233.6,274.65a1.34,1.34,0,0,1-1-1.61,3.72,3.72,0,0,1-.77-2.36l-.09-.15a29.86,29.86,0,0,0-1.07-2.86l0,.09a8,8,0,0,1,.32-2.61,4.64,4.64,0,0,1,1.57-2.06,5.67,5.67,0,0,1,2.49-.6l1.25.13,1.14.41c.29.25.6.51.9.74a5.65,5.65,0,0,1,.56,2.08c.06.64.07,1.3.11,1.94a3.55,3.55,0,0,0,1,1.56,5.32,5.32,0,0,1,1.54,1.41c.16.36.29.7.43,1.06s0,.78,0,1.19a7.12,7.12,0,0,1-.92,2.31,6.68,6.68,0,0,1-2,1.72,5,5,0,0,1-2.63.16C235.21,276.69,234,276.17,233.6,274.65Z"/><path class="cls-7" d="M288.63,252.6l-3.87-2.54a4.22,4.22,0,0,1-1.34-5.88l3-.68,4.87,8.17.09,1.35-1,.93-1.36,0C288.87,253.47,288.75,253,288.63,252.6Z"/><path class="cls-7" d="M290,271l-4.68,7.47c-1,2-1.49,2.85-3.32,4-.63,0-1.52.6-2.08.3l3.05-5.86a23.53,23.53,0,0,1-.14-2.91,12,12,0,0,1,2.49-5.28,7.74,7.74,0,0,1,3.57-2.54c.49,0,1.05-1.16,1.54-1.12.46.32.31,2.2.64,2.64A7.76,7.76,0,0,1,290,271Z"/><path class="cls-8" d="M233.78,246.65l-2.95.73c1.17-4.33,2.86-8.33,6.84-10.89a1.87,1.87,0,0,1,2,2.1C237.89,241.39,237,244.91,233.78,246.65Z"/><path class="cls-7" d="M270.94,284.68l2.81-1a1.47,1.47,0,0,1,1.41-1.48l4.78.48c-1.6,3.45-4.91,4.27-8.1,5.28a2.25,2.25,0,0,1-2.41-1.2A1.89,1.89,0,0,1,270.94,284.68Z"/><path class="cls-9" d="M229,258.66c1.75-2.61,3.13-1.84,4.35.47a3.2,3.2,0,0,1-.26,3.66c-.63.62-1.23,1.25-1.81,1.92l-1.31.2-.53-3.1c-.16-1-.33-2-.44-3Z"/><path class="cls-10" d="M245.26,230.63l2.41,1.86a3.73,3.73,0,0,1-1,2.81c-2.21,1-4.4,3.25-6.65.06a4.57,4.57,0,0,1,1.64-2.51C242.52,231.53,243.44,230.35,245.26,230.63Z"/><path class="cls-11" d="M234.58,278.08a1.46,1.46,0,0,0-1.15-1.46,14.55,14.55,0,0,0,.17-2l4.22,2.34.22.83-.63.59a4.76,4.76,0,0,0-1,.54C235.81,278.65,235.2,278.36,234.58,278.08Z"/><path class="cls-3" d="M241.7,232.85l-.91,2.59a1.73,1.73,0,0,1-1.51,2.07c-.54-.33-1.08-.67-1.61-1C238.42,234.62,239.51,233.13,241.7,232.85Z"/><path class="cls-12" d="M289.66,258.18l-.45-3.22.39-1.32.66-.16,1.26,0,.22,1.24a10.46,10.46,0,0,0-1,1.85c.29.73.22,1.21-.21,1.46S289.85,258.29,289.66,258.18Z"/><path class="cls-2" d="M267,229.61l-3-.31Z"/><path class="cls-13" d="M264.13,229.45,263,231.82l-.72-2.85A1.32,1.32,0,0,1,264.13,229.45Z"/><path class="cls-14" d="M290.72,264l-.34,2.2-.17-.68-.69.05a1.45,1.45,0,0,1-1.82-1,1.69,1.69,0,0,1,1.65-1.39v0C290.22,262.8,290.68,263.08,290.72,264Z"/><path class="cls-15" d="M290.72,264l-.72-.39-.66-.47c.52-.74,1-1.5,1.55-2.25C290.83,262,290.78,263,290.72,264Z"/><path class="cls-3" d="M229,258.82l.44,3A2.08,2.08,0,0,1,229,258.82Z"/><path class="cls-11" d="M232.06,265.78l-1.35,2c-.27-.95-.53-1.9-.79-2.85a1.21,1.21,0,0,1,.88-1A2,2,0,0,1,232.06,265.78Z"/><path class="cls-15" d="M289.66,258.18a9.31,9.31,0,0,1,1.12-1.64c.13.88.26,1.77.4,2.66C290.66,258.88,290.15,258.54,289.66,258.18Z"/><path class="cls-11" d="M230.67,267.67l1.07,2.86C231.39,269.58,231,268.63,230.67,267.67Z"/><path class="cls-11" d="M231.83,270.68c.25.79.51,1.58.77,2.37C232.34,272.26,232.08,271.47,231.83,270.68Z"/><path class="cls-16" d="M283.77,259.77l2.59,4c.14.4.27.8.4,1.2a10.29,10.29,0,0,1-.49,5,22.66,22.66,0,0,1-2.86,4.28c-1.21.64-2.55.32-3.82.55l-1.15,1.79a2.2,2.2,0,0,1-2.06-.43,2.4,2.4,0,0,1-.11-2.06c.32-1.28-1-.37-1.22-.86a1.9,1.9,0,0,1-.94-1.79c-3.07-3.27.49-7.39-1.38-10.82a1.91,1.91,0,0,1-2.11-.62,4.61,4.61,0,0,1-.53-2.33l.5-1.11,1.07-1.81a2.77,2.77,0,0,1,3.11.73c.21,0,.34.69.31.38-.16-1.41.65.49.63-1a5,5,0,0,1,2.35-.88c2.72.46,5.47.82,6.83,3.72l.05.2a1.31,1.31,0,0,1-.35,1.48C284.19,259.75,283.92,259.86,283.77,259.77Z"/><path class="cls-11" d="M240.09,273.39l1.11-1.91a2.4,2.4,0,0,1,2.93-.71l5.54,3.4a1.32,1.32,0,0,1-.33,1.47c-.39.31-.65.43-.79.35-3.21,1.69-5.91,5-10.21,3.23a12.44,12.44,0,0,1-.52-2.25v0l1.19-1.86c.71-.09,1.11-.38,1.19-.87S240.25,273.48,240.09,273.39Z"/><path class="cls-17" d="M249.93,261.43a16.29,16.29,0,0,1-1.9-1c-.09-.45-.18-.9-.26-1.35a75.8,75.8,0,0,1,4-6.92,4.05,4.05,0,0,1,1.86-1.46,2.64,2.64,0,0,1,1.95.92c0,.34.05.7.1,1.05a5.85,5.85,0,0,1,1.89-1.16,4.44,4.44,0,0,1,2.34.14,4.88,4.88,0,0,1,1.67,1.85,6.75,6.75,0,0,1,.31,3.95,7.9,7.9,0,0,1-2.21,3.6,6.78,6.78,0,0,1-2.62,1.26C254.62,262.8,252.45,260.75,249.93,261.43Z"/><path class="cls-18" d="M248.55,276c.38-.61.75-1.22,1.12-1.83l3-.54c.22.91.45,1.83.67,2.74,0,2.35,4.41-.05,3.55,3.52-.63,2.58-2.2,3.37-4.42,3.55-2.74.22-2.17-1.94-2.51-3.55A27.81,27.81,0,0,0,248.55,276Z"/><path class="cls-19" d="M258.68,272.21c-3.15.92-4.24-1.52-5.62-3.46a1.31,1.31,0,0,0-1.88-1.15c-3.61-1.72.11-3.12.2-4.68.2-3.28,2.24-2.12,4-1.65a22.65,22.65,0,0,0,2.48,1.2,5.21,5.21,0,0,1,1.48,2.21,14.6,14.6,0,0,1,.38,3.9A8.6,8.6,0,0,1,258.68,272.21Z"/><path class="cls-6" d="M244.13,270.77l-2.93.71h0a7.37,7.37,0,0,0-.92-2.44,8.42,8.42,0,0,1-2.34-4.64v0c-.77-1.32-.39-1.93,1.13-1.84l1.13-1.89L241,260a5.89,5.89,0,0,1,2-.63l1.05-.05a4.11,4.11,0,0,0,2.09.07h0c1.25-.74,1.89-.39,1.91,1.07v0C243.88,262.81,245.49,267.35,244.13,270.77Z"/><path class="cls-20" d="M271.43,259.45c.42.43.86.83,1.3,1.22-1.23,1.87-2.1,4.07-4.57,4.74l-1.05.25-.9-.57a4.39,4.39,0,0,1-.89-1.89,8.89,8.89,0,0,0-1.95-2.55c-.16-.37-.31-.73-.46-1.11,0-.42.11-.82.16-1.24a5,5,0,0,1,1.61-2c1.95-.87,3.47.12,5,1.1A4.62,4.62,0,0,1,271.43,259.45Z"/><path class="cls-21" d="M266,264c.7.48,1.41.95,2.12,1.42-.91,2-.44,4.88-3.59,5.36a5.48,5.48,0,0,1-5.09-1.89,4.48,4.48,0,0,1-.64-2.7,5.29,5.29,0,0,1,3.1-2.75,6.55,6.55,0,0,1,2.82-.06Z"/><path class="cls-22" d="M259,267.23l5.61,3.53-5.89,1.45c-.28-1-.55-2.1-.82-3.15l-.24-1.39Z"/><path class="cls-23" d="M256.92,263l-5.54-.05a3.32,3.32,0,0,1-1.45-1.49c2.57-3.26,5.15-1.64,7.74,0l.11,1Z"/><path class="cls-24" d="M274.11,271.49l1.84,1.06c1-.19,1.59.19,1.7,1.23-.37.57-.71,1.15-1,1.75.25.74.16,1.25-.28,1.53s-.73.36-.91.25C273.3,275.75,272.75,273.84,274.11,271.49Z"/><path class="cls-15" d="M279.59,274.84l3-.72c1.28-.77,1.87-.41,1.78,1.08-.45.56-.91,1.12-1.37,1.67Z"/><path class="cls-25" d="M270,286.78l-3.07.5,0-.55v-1l1-.24,3-.82Z"/><path class="cls-15" d="M275.43,277.31c.4-.59.8-1.18,1.19-1.78l1.82,1.1Z"/><path class="cls-26" d="M251.18,267.6c1.22-.59,1.82-.17,1.88,1.15Z"/><path class="cls-27" d="M275.16,282.23a4,4,0,0,1-1.4,1.48,7.53,7.53,0,0,1,.51-1.45C274.35,282.12,274.85,282.23,275.16,282.23Z"/><path class="cls-28" d="M253.33,276.36c-.22-.91-.45-1.83-.67-2.74C252.88,274.53,253.11,275.45,253.33,276.36Z"/><path class="cls-11" d="M267.92,285.5a7.27,7.27,0,0,1-1,1.24,6.87,6.87,0,0,1,.2-1.23C267.17,285.43,267.65,285.5,267.92,285.5Z"/><path class="cls-29" d="M237.82,277c.17.75.35,1.51.52,2.26a2.39,2.39,0,0,1-.93-.82A4.19,4.19,0,0,1,237.82,277Z"/><path class="cls-30" d="M283.42,244.18c.45,2,.89,3.92,1.34,5.88L283.53,252c-1.81.41-3.59,1.13-5.43.37-1,.09-.3-2.19-1.84-1.29a3,3,0,0,1-.61,3.1,3.06,3.06,0,0,1-2.31.32,3.93,3.93,0,0,1-2.39-2.63C272,244.16,277,243,283.42,244.18Z"/><path class="cls-31" d="M254.92,249.32c1.9-4,3.81-8.1,6.26-13.34,3.18,5.29,1.32,8.87-.56,12.46a2.09,2.09,0,0,1-.21,1.57c-.29.47-.48.67-.57.62a15.22,15.22,0,0,1-3.74.54l-1.11-.59C255,250.16,254.94,249.74,254.92,249.32Z"/><path class="cls-32" d="M249.21,246.05l-.69-3a3.71,3.71,0,0,1,.12-2.21,3.83,3.83,0,0,1,1.06-1.94c1-.65,2.12-.62,3.13-1.08a7.87,7.87,0,0,1,2-.94l.13,0a1.44,1.44,0,0,1,1.77,1.15l-3.44,5.54a3.27,3.27,0,0,0-2,1.29A2.48,2.48,0,0,1,249.21,246.05Z"/><path class="cls-33" d="M259.12,249.57a4.5,4.5,0,0,0,1.5-1.13c2.19.92,4,2.25,4.71,4.64a2.14,2.14,0,0,1-1.45,2.55,3.78,3.78,0,0,1-3.63-2.74c-.59-.32-1.18-.63-1.78-.92l-.72-.8A2.78,2.78,0,0,1,259.12,249.57Z"/><path class="cls-34" d="M248,260.46l-1.91-1.07,1.1-1.9c2.26-3,3.13-7.32,7.69-8.16l-.22.61c.45.63.49,1.1.13,1.41s-.66.44-.83.34Z"/><path class="cls-35" d="M263.92,255.08c.47-.67.94-1.33,1.4-2l5.27,3.53-.38.14c.38.65.39,1.12,0,1.41s-.67.41-.84.31l-5-.39L263,258l-.77-1.19A1.69,1.69,0,0,1,263.92,255.08Z"/><path class="cls-36" d="M245.85,251.58c-.9-.79-2.48-1.61-1.27-2.89.68-.73,2.32-.55,3.53-.78C247.35,249.13,246.6,250.36,245.85,251.58Z"/><path class="cls-37" d="M271,251.82,274.7,254a1.26,1.26,0,0,1,1.7,1.21c-.35.61-.71,1.21-1.07,1.82h0l-3.7-2.26C271.43,253.81,271.19,252.82,271,251.82Z"/><path class="cls-38" d="M246.3,234.12a19.25,19.25,0,0,1,1.36-1.63,15.24,15.24,0,0,0,1.65,1,3.6,3.6,0,0,1-.58,3c-.93.61-2.09.93-2.88.21S245.33,234.83,246.3,234.12Z"/><path class="cls-39" d="M250.89,239.37l-1.27,1.92a1.33,1.33,0,0,1-1.8-1.18h.06c-.69-1.4,0-2.4,1-3.35l1.27-.21c.59.36,1.19.7,1.79,1l.3,1.35Z"/><path class="cls-40" d="M245.42,256.37l.42-4.81Z"/><path class="cls-41" d="M249.21,246.05l1.14-1.81a1.35,1.35,0,0,1,1.85,1.09l-4.11,2.58C248.46,247.29,248.83,246.67,249.21,246.05Z"/><path class="cls-42" d="M252.2,245.33c-.62-.36-1.24-.72-1.85-1.09l2.9-.67Z"/><path class="cls-43" d="M254.79,236.92c-.33.59-.67,1.18-1,1.76a1.31,1.31,0,0,1-1.87-1.12v0Z"/><path class="cls-44" d="M248.3,235.35c.34-.62.68-1.25,1-1.88.26,1,.53,2.05.8,3.08l0,0C248.9,237,248.31,236.61,248.3,235.35Z"/><path class="cls-45" d="M256.69,238l-1.77-1.15C256.13,236.32,256.68,236.77,256.69,238Z"/><path class="cls-46" d="M248.3,235.35l1.77,1.18-2.19,3.58c-7.7-4.3-8.83,5.59-14.1,6.54l5.5-9.14,1.51-2.07,5.51-1.32C246.42,235.42,247.07,235.85,248.3,235.35Z"/><path class="cls-47" d="M231,263.33q1.16-2.1,2.3-4.2l2.08,1.19c.08,1,1.38,1.75.76,3l-3.1.77A1.52,1.52,0,0,1,231,263.33Z"/><path class="cls-48" d="M241.35,258.91l2.77-.72c.31.68.28,1.18-.1,1.51s-.67.47-.83.37h0l-1.38.17C241.64,259.8,241.5,259.36,241.35,258.91Z"/><path class="cls-1" d="M243.19,260.07a9.14,9.14,0,0,0,.93-1.88l2,1.19Z"/><path class="cls-49" d="M247.82,240.11l1.8,1.18c-.36.6-.73,1.2-1.1,1.8C248.28,242.1,248.05,241.1,247.82,240.11Z"/><path class="cls-50" d="M240.21,260.7a8.87,8.87,0,0,1,.21-1.64c0-.13.61-.1.93-.15l.1,0a1.41,1.41,0,0,1-.44,1.54c-.42.31-.7.42-.85.33Z"/><path class="cls-51" d="M236.14,263.29c-.25-1-.5-2-.76-3l1.86,1.14c.27.73.2,1.25-.23,1.55s-.72.4-.9.29Z"/><path class="cls-52" d="M236.11,263.3l1.13-1.84,1.84,1.13L238,264.43C237.34,264.05,236.73,263.67,236.11,263.3Z"/><path class="cls-53" d="M276.4,255.25,274.7,254c.35-.6.7-1.19,1.06-1.77,2.33,0,4.88-1,6.64,1.52l2.49,4Z"/><path class="cls-54" d="M282.4,253.79l-6.64-1.52c-.25-1-.49-2-.73-3a1.33,1.33,0,0,1,1.85,1.07l6.65,1.56Z"/><path class="cls-15" d="M289.35,263.22A20.76,20.76,0,0,0,288.2,265a1.32,1.32,0,0,1-1.84-1.09v-.06Z"/><path class="cls-55" d="M283.77,259.77q.56-.93,1.17-1.8a8.2,8.2,0,0,1-.23,1.65C284.67,259.76,284.1,259.72,283.77,259.77Z"/><path class="cls-9" d="M289.6,253.64a7.53,7.53,0,0,1-.39,1.33c-.2-.8-.39-1.59-.59-2.37A6.43,6.43,0,0,1,289.6,253.64Z"/><path class="cls-1" d="M237.94,264.4c2,1.32,4.24,2.38,4.38,5.23a13.5,13.5,0,0,1-2.94.68h0a1.58,1.58,0,0,1-2.12-.31c-.51-1.16-.11-2.42-.34-3.61Z"/><path class="cls-11" d="M237.51,269.15l1.83,1.16c-.77.91-1.55,2.54-2.86,1.32-.71-.67-.5-2.34-.71-3.55C236.74,267.8,237.34,268.13,237.51,269.15Z"/><path class="cls-9" d="M231,263.33l2,.73c-.32.58-.64,1.16-1,1.73l-1.27-1.88S231,263.33,231,263.33Z"/><path class="cls-56" d="M237.51,269.15l-.88-.52-.86-.55a13.67,13.67,0,0,1,1.11-1.69Z"/><path class="cls-11" d="M239.38,270.31l2.94-.68-1.12,1.85Z"/><path class="cls-57" d="M240.09,273.39a8.43,8.43,0,0,1-.19,1.6c0,.13-.58.1-.89.14C239.34,274.54,239.7,274,240.09,273.39Z"/><path class="cls-58" d="M286.36,263.86,288.2,265l1.32.66c-.65,1.32-1.29,2.65-1.94,4-1.16.72-1.69.35-1.65-1Z"/><path class="cls-59" d="M285.93,268.61c.54.34,1.1.66,1.65,1l-3.23,5.62-1.78-1.08Z"/><path class="cls-60" d="M269.39,258.47c.29-.57.56-1.14.82-1.72.4.9.81,1.81,1.22,2.71Z"/><path class="cls-61" d="M275.33,257.07l.43.74-.4-.75Z"/><path class="cls-15" d="M277.65,273.78c-.56-.42-1.13-.83-1.7-1.23C277.18,272,277.73,272.48,277.65,273.78Z"/><path class="cls-62" d="M256.92,263c.22-.53.47-1.06.74-1.57s.62-1,.89-1.57a2.66,2.66,0,0,1,3.54.33,3.2,3.2,0,0,1,.81,2.4,3.43,3.43,0,0,1-2,1.64,3.68,3.68,0,0,1-2.51-.47A11.23,11.23,0,0,0,256.92,263Z"/><path class="cls-63" d="M262.35,261.77l-3.8-1.94,2.39-4.06c1-.48,1.52-.13,1.68.92l.32.42a14.85,14.85,0,0,1,.41,2.29l.22.63A1.49,1.49,0,0,1,262.35,261.77Z"/><path class="cls-33" d="M254,251.69a8.08,8.08,0,0,1,.7-1.76,5.77,5.77,0,0,0,2.06.24,1.14,1.14,0,0,1,1.5,1l.21.83c-.45.54-.87,1.1-1.27,1.68-.94.4-1.49.07-1.69-.9Z"/><path class="cls-64" d="M262.62,256.69c-.57-.29-1.13-.6-1.68-.92l-.69-2.88,3.67,2.19A7.78,7.78,0,0,1,262.62,256.69Z"/><path class="cls-65" d="M256.16,255.31l.4.77-.44-.78Z"/><path class="cls-66" d="M255.51,252.74a7.61,7.61,0,0,1,1.69.9c-.35.56-.7,1.11-1,1.67h0C255.92,254.45,255.71,253.59,255.51,252.74Z"/><path class="cls-22" d="M258.43,263.73l2.83-.31c.31.77.24,1.32-.21,1.66s-.77.46-.95.34c-.37.61-.75,1.22-1.14,1.81H259a1.33,1.33,0,0,1-1.86-1.15Z"/><path class="cls-67" d="M257.15,266.07l1.86,1.15c-.39.61-.77,1.23-1.15,1.84C257.62,268.06,257.39,267.07,257.15,266.07Z"/><path class="cls-1" d="M240.16,260.75l1.29-1.86a17.93,17.93,0,0,0,1.71,1.18Z"/><path class="cls-68" d="M265.37,261c1.15-.54,1.76-.19,1.81,1.1l-1.35.18Z"/><path class="cls-69" d="M262.35,261.77a6.21,6.21,0,0,1,1.22-1.74c.61.3,1.21.63,1.8,1l0,0a1.57,1.57,0,0,1-.38,1.56c-.39.37-.65.51-.78.43a1.57,1.57,0,0,1-1.85-1.33Z"/><path class="cls-70" d="M263.35,259.4c-.14-.76-.27-1.53-.41-2.29a13.6,13.6,0,0,1,1.49,1A3.83,3.83,0,0,1,263.35,259.4Z"/><path class="cls-71" d="M264.23,262.76c.39-.57.76-1.16,1.11-1.75l1.84,1.08L266,264h0l-1.43.18C264.47,263.69,264.35,263.22,264.23,262.76Z"/><path class="cls-19" d="M262.33,261.67l1.9,1.09-.11.24c.25.68.18,1.17-.22,1.47s-.68.4-.84.3l-3,.65c.39-.66.77-1.33,1.16-2S262,262.27,262.33,261.67Z"/><path class="cls-72" d="M263.06,264.77c.34-.6.7-1.19,1.06-1.78.64.3,1.28.62,1.89,1Z"/><path class="cls-73" d="M276.88,250.39,275,249.32C276.18,248.75,276.82,249.07,276.88,250.39Z"/><path class="cls-34" d="M258.26,251.13l-.8-.4-.7-.56,2.36-.6A6,6,0,0,1,258.26,251.13Z"/><path class="cls-74" d="M251.9,237.56l1.87,1.12-2.88.69C251.21,238.75,251.54,238.15,251.9,237.56Z"/><circle cx="257.46" cy="109.5" r="33"/><path class="cls-1" d="M254.06,140.55l-4.43-2c.11-.44.21-.89.31-1.34a10.39,10.39,0,0,1,1.6-2.24c1.94-2.56,3.42-5.6,6.84-6.64,1.44-.16,2.49.81,3.72,1.29s1.94-.47.52-.26-.34-1.71-.78-.34a6.73,6.73,0,0,0-2.73-1.35,16.77,16.77,0,0,0-3.35,1.35,7.23,7.23,0,0,1-5.27-.76c-3.88-3-6.45-6.4-3-11.34a6.51,6.51,0,0,1,2.44-1.5,5.76,5.76,0,0,1,2.64.2c1.37.77,2.29,2.18,3.83,2.74.8.06,1.58.16,2.39.17a8.69,8.69,0,0,0,3.76-.92,6.75,6.75,0,0,0,2.48-3c.65-2,.51-4.22.86-6.32.57-2.26,1.09-4.53,3-6.09,5-1,5.28,4.2,8,6.18a12.5,12.5,0,0,0,2.53,2.12,6.93,6.93,0,0,0,3-1.12,6.68,6.68,0,0,1,2.52-.55,4.24,4.24,0,0,1,3.4,2.21,5.4,5.4,0,0,1-1,5.66v0c-.84.94-1.39,2.09-2.23,3a3,3,0,0,0-.93,1.92,4,4,0,0,1-1.47,2.77,8.71,8.71,0,0,0-1.8,2.5c-.39,1-.48,2.14-.82,3.21-.28.32-.54.61-.84.93-.74.54-1.43,1.08-2.13,1.67C270.28,137.64,263.56,143.25,254.06,140.55Z"/><path class="cls-2" d="M229.21,93.92c2.06-6.38,7.5-8.82,13-11.12,1.46,1.24,2.79.24,4.15-.26,6-3.68,12.82-2.52,19.3-3.39a4.14,4.14,0,0,1,4.59,1.79,6.77,6.77,0,0,1-1.25,4c-2.14,3.13-6.12,5.52-4.08,10.32a11.3,11.3,0,0,1,.65,4.2,5.28,5.28,0,0,1-1.53,2.47,8.31,8.31,0,0,1-5.78,1.13c-2.44-.53-4.86-1.14-6.83-2.84a5.74,5.74,0,0,1-1.11-2.75c-.91.87-.22,2-.36,2.93-.2,1.33-.3,2.67-.52,4-.95,3.24-.08,6.86-2,9.9a3.69,3.69,0,0,1-2.42,1.44,5.24,5.24,0,0,1-3.59-2.2,10.42,10.42,0,0,1-1.35-2.47,10,10,0,0,1-.46-2.7,14.67,14.67,0,0,1,.24-2.65,26.24,26.24,0,0,0,.46-3.86c-.05-.84,0-1.68,0-2.52a12.13,12.13,0,0,1,.5-3.35c.19-.53.39-1.1.56-1.61a6.56,6.56,0,0,1-1.23,1.34,4.71,4.71,0,0,1-1.8,1,7.53,7.53,0,0,1-2.16.23,24.07,24.07,0,0,1-3.38-.45,9.23,9.23,0,0,1-2.22-.75A3.58,3.58,0,0,1,229.21,93.92Z"/><path class="cls-3" d="M244.09,114.94l2.11-.12.87.82c0,.4.06.79.1,1.19a9.21,9.21,0,0,1-1.21,2c-.5.56-1,1.14-1.46,1.75-.25.73-.52,1.45-.78,2.19a5.89,5.89,0,0,1-1.34,2,8.15,8.15,0,0,1-2.14,1.14,12.16,12.16,0,0,1-2.39.46,11.33,11.33,0,0,1-2.4,0,17.55,17.55,0,0,0-3.55-.11c-3.06-2.76-4.94-6.09-4.93-10.32.89-1.09,1.05-2.47,1.45-3.75.32-4.9-1.42-10.6,5-13.17a7.76,7.76,0,0,1,2.76-.12,8.84,8.84,0,0,1,3.59,1.9,9.32,9.32,0,0,1,2.13,3.32,2.41,2.41,0,0,1-.5,2.37h0c-1.13,1.5-1.57,3,.25,4.3h0C243,111.85,242.74,113.85,244.09,114.94Z"/><path class="cls-4" d="M265.7,79.15c-6.36,4.58-14.7,1.64-21.23,5.57a1.93,1.93,0,0,1-.75-1.63c.05-.62.14-.93.29-.94l-.21,0c1.24.19,1.69-1.06,2.61-1.44C252.65,77.69,259,76.36,265.7,79.15Z"/><path class="cls-5" d="M283.21,91.06a1.33,1.33,0,0,1,.76,1.58,9.2,9.2,0,0,1,.8,2.22,6.51,6.51,0,0,1-.88,2.19,6,6,0,0,1-3,1.89A3.51,3.51,0,0,1,277,97.19c-.81-.62,1.47-1.77-.4-2.23a12,12,0,0,1-2.07-.93,7.75,7.75,0,0,1-2.71-2.41,6.16,6.16,0,0,1-.56-2.5,5.3,5.3,0,0,1,1-2.38,4.85,4.85,0,0,1,3.6-1.07,8.6,8.6,0,0,1,3.29,1.59c.75.86,1.2,2,2.21,2.63A3.61,3.61,0,0,1,283.21,91.06Z"/><path class="cls-6" d="M244.86,136.69a1.34,1.34,0,0,1-1.74-.75,3.76,3.76,0,0,1-2-1.49l-.15-.07c-.89-.51-1.57-1.31-2.52-1.74l.08.06a8.21,8.21,0,0,1-1.23-2.32,4.6,4.6,0,0,1,.11-2.6,5.76,5.76,0,0,1,1.7-1.91l1.09-.61,1.17-.32c.39,0,.79.07,1.17.09a5.66,5.66,0,0,1,1.65,1.39c.41.49.8,1,1.19,1.52a3.54,3.54,0,0,0,1.69.74,5.37,5.37,0,0,1,2.07.27c.33.2.63.41,1,.62l.67,1a7.25,7.25,0,0,1,.57,2.42,6.71,6.71,0,0,1-.61,2.53,5.18,5.18,0,0,1-2.07,1.64C247.35,137.44,246,137.72,244.86,136.69Z"/><path class="cls-7" d="M277.34,87.1l-4.62.13a4.2,4.2,0,0,1-4.46-4l2-2.24,8.68,3.9.84,1.06-.27,1.32L278.4,88Z"/><path class="cls-7" d="M289,101.38l.44,8.8c.35,2.23.41,3.19-.44,5.17-.53.34-.9,1.36-1.53,1.43-.29-2.18-.57-4.36-.86-6.55a22,22,0,0,1-1.77-2.3,12,12,0,0,1-1-5.75,7.72,7.72,0,0,1,1.47-4.13c.42-.26.2-1.55.62-1.81.56,0,1.51,1.63,2,1.81A7.86,7.86,0,0,1,289,101.38Z"/><path class="cls-8" d="M229,113.63l-2,2.29c-1.52-4.22-2.42-8.47-.62-12.85a1.87,1.87,0,0,1,2.86.56C229.33,107,230.65,110.33,229,113.63Z"/><path class="cls-7" d="M281.21,123.53l1.76-2.4a1.46,1.46,0,0,1,.3-2l4.2-2.35c.66,3.75-1.59,6.32-3.62,9a2.27,2.27,0,0,1-2.67.4A1.9,1.9,0,0,1,281.21,123.53Z"/><path class="cls-9" d="M231.9,126.24c-.07-3.14,1.5-3.3,3.82-2.1a3.19,3.19,0,0,1,1.89,3.15q-.26,1.29-.39,2.61l-1,.91-2.2-2.23c-.7-.73-1.41-1.45-2.08-2.21Z"/><path class="cls-10" d="M229.21,93.92l3,.15a3.72,3.72,0,0,1,.82,2.85c-1.23,2.09-1.74,5.19-5.41,3.86a4.54,4.54,0,0,1-.09-3C227.48,96.23,227.55,94.73,229.21,93.92Z"/><path class="cls-11" d="M247.63,138.94a1.49,1.49,0,0,0-1.79-.54,16.08,16.08,0,0,0-1-1.71l4.8-.5.66.56-.19.84a4.75,4.75,0,0,0-.5,1C249,138.7,248.29,138.81,247.63,138.94Z"/><path class="cls-3" d="M227.57,97.78l.73,2.64a1.72,1.72,0,0,1-.05,2.56c-.63,0-1.27.08-1.9.09C225.88,101.11,225.93,99.26,227.57,97.78Z"/><path class="cls-12" d="M281.39,91.09l-2.21-2.38-.44-1.31.45-.51,1-.74.89.89a10.31,10.31,0,0,0,.28,2.06q1,.65.66,1.32C281.82,90.85,281.61,91.07,281.39,91.09Z"/><path class="cls-2" d="M246.41,80.67l-2.61,1.44Z"/><path class="cls-13" d="M244,82.15c.15.86.3,1.71.46,2.57l-2.22-1.92A1.33,1.33,0,0,1,244,82.15Z"/><path class="cls-14" d="M285.62,95.29l1,2-.52-.46-.54.44a1.47,1.47,0,0,1-2.07.22,1.72,1.72,0,0,1,.56-2.09h0C284.49,94.55,285,94.52,285.62,95.29Z"/><path class="cls-15" d="M285.62,95.29l-.82.09H284c0-.91,0-1.82,0-2.73Z"/><path class="cls-3" d="M232,126.37l2.08,2.21A2.08,2.08,0,0,1,232,126.37Z"/><path class="cls-11" d="M238.52,130.31c0,.79,0,1.59,0,2.39l-2.28-1.89a1.2,1.2,0,0,1,.15-1.33A1.94,1.94,0,0,1,238.52,130.31Z"/><path class="cls-15" d="M281.39,91.09a8.84,8.84,0,0,1,0-2c.61.65,1.23,1.3,1.84,2C282.61,91.09,282,91.1,281.39,91.09Z"/><path class="cls-11" d="M238.46,132.64l2.52,1.74Z"/><path class="cls-11" d="M241.13,134.45l2,1.49Z"/><path class="cls-16" d="M277.47,95.76l4.43,1.82,1,.76a10.38,10.38,0,0,1,2.48,4.39,23.25,23.25,0,0,1,.1,5.14c-.62,1.22-1.91,1.72-2.82,2.64,0,.71.06,1.42.08,2.13a2.18,2.18,0,0,1-1.93.82,2.35,2.35,0,0,1-1.27-1.62c-.47-1.23-1,.24-1.49,0a1.91,1.91,0,0,1-1.8-.92c-4.39-.93-3.83-6.35-7.32-8.09a1.92,1.92,0,0,1-2.09.7,4.65,4.65,0,0,1-1.77-1.61c-.08-.39-.15-.79-.23-1.19l-.15-2.1a2.76,2.76,0,0,1,3-1.18c.19-.11.68.37.47.14-.93-1.07.82,0,0-1.17a5.15,5.15,0,0,1,1.43-2.07c2.48-1.17,5-2.46,7.72-.86l.16.13A1.34,1.34,0,0,1,278,95C277.8,95.51,277.64,95.75,277.47,95.76Z"/><path class="cls-11" d="M249.45,131.94l-.18-2.21a2.39,2.39,0,0,1,2-2.25l6.49-.39a1.33,1.33,0,0,1,.56,1.4c-.13.48-.28.73-.44.74-1.66,3.22-2,7.48-6.52,8.5a13.38,13.38,0,0,1-1.72-1.56l0,0-.09-2.2c.53-.49.69-1,.48-1.4S249.64,131.93,249.45,131.94Z"/><path class="cls-17" d="M250.67,116.5a16.85,16.85,0,0,1-2.12.28l-1-1a79.16,79.16,0,0,1-.64-8,4,4,0,0,1,.7-2.26,2.61,2.61,0,0,1,2.12-.37c.21.27.45.55.68.8a5.73,5.73,0,0,1,.89-2,4.38,4.38,0,0,1,2-1.23,4.84,4.84,0,0,1,2.42.56,6.68,6.68,0,0,1,2.52,3.06,7.93,7.93,0,0,1,.25,4.21,7,7,0,0,1-1.42,2.54C255.3,114.94,252.35,114.51,250.67,116.5Z"/><path class="cls-18" d="M257.88,129.23l-.12-2.14,2.13-2.16L262,126.8c1.31,1.94,3.58-2.57,4.92.85,1,2.48.12,4-1.59,5.44-2.12,1.75-2.89-.35-4.1-1.48A28,28,0,0,0,257.88,129.23Z"/><path class="cls-19" d="M264,120.33c-2.06,2.56-4.34,1.18-6.59.38a1.32,1.32,0,0,0-2.2.13c-3.94.66-1.7-2.62-2.51-4-1.72-2.8.62-3,2.31-3.63a22.8,22.8,0,0,0,2.73-.43,5.09,5.09,0,0,1,2.48,1,14.52,14.52,0,0,1,2.54,3A8.47,8.47,0,0,1,264,120.33Z"/><path class="cls-6" d="M251.27,127.48l-2,2.25h0a7.62,7.62,0,0,0-2.16-1.48,8.33,8.33,0,0,1-4.57-2.46l0,0q-2.07-1-.13-2.15l-.15-2.2.24-1a6,6,0,0,1,1.28-1.67l.84-.64A4.16,4.16,0,0,0,246.4,117v0c.6-1.33,1.33-1.41,2.18-.23h0C246.51,121.1,250.43,123.9,251.27,127.48Z"/><path class="cls-20" d="M267.17,102.57c.59.11,1.18.19,1.77.25.06,2.23.6,4.54-1,6.5l-.71.81s-1.08,0-1.08.05a4.39,4.39,0,0,1-1.8-1,8.91,8.91,0,0,0-3.06-1c-.35-.21-.67-.43-1-.66s-.39-.73-.58-1.1a4.94,4.94,0,0,1,.18-2.56c1.09-1.82,2.91-1.88,4.72-2A4.68,4.68,0,0,1,267.17,102.57Z"/><path class="cls-21" d="M265.34,109.37l2.55-.05c.4,2.14,2.44,4.25.14,6.45a5.53,5.53,0,0,1-5.27,1.37,4.51,4.51,0,0,1-2.06-1.85,5.27,5.27,0,0,1,1-4,6.47,6.47,0,0,1,2.27-1.67Z"/><path class="cls-22" d="M261.4,116.09l6.63-.32-4,4.56-2.48-2.11-1-1Z"/><path class="cls-23" d="M257.29,113.77l-4.57,3.12a3.32,3.32,0,0,1-2.05-.39c.24-4.14,3.29-4.3,6.33-4.45l.68.77Z"/><path class="cls-24" d="M276.26,110.91l2.11-.19a1.27,1.27,0,0,1,2.11,0c0,.68.07,1.36.15,2,.63.46.85.93.65,1.41s-.4.72-.61.73C278,114.86,276.49,113.61,276.26,110.91Z"/><path class="cls-15" d="M282.67,110.51l2-2.29q.92-2,2.08-.14c0,.72-.11,1.44-.17,2.15Z"/><path class="cls-25" d="M281.63,125.8,279.39,128l-.27-.47-.56-.82.65-.74,2-2.41Z"/><path class="cls-15" d="M280.67,114.92c0-.71,0-1.43,0-2.14l2.12-.14Z"/><path class="cls-26" d="M255.23,120.84c.67-1.17,1.4-1.18,2.2-.13Z"/><path class="cls-27" d="M283.27,119.11a4,4,0,0,1-.3,2,7.52,7.52,0,0,1-.41-1.49C282.55,119.48,283,119.28,283.27,119.11Z"/><path class="cls-28" d="M262,126.8l-2.13-1.87Z"/><path class="cls-11" d="M279.21,125.94a6.78,6.78,0,0,1-.09,1.56,6.4,6.4,0,0,1-.54-1.12C278.55,126.3,279,126.09,279.21,125.94Z"/><path class="cls-29" d="M249.64,136.17l1.72,1.56a2.46,2.46,0,0,1-1.23-.14A4.28,4.28,0,0,1,249.64,136.17Z"/><path class="cls-30" d="M268.26,83.18c1.49,1.36,3,2.71,4.46,4,0,.76,0,1.51.07,2.26-1.24,1.37-2.29,3-4.24,3.41-.73.63-1.49-1.62-2.24,0a3,3,0,0,1,1.27,2.9,3.06,3.06,0,0,1-1.7,1.58,3.91,3.91,0,0,1-3.47-.78C258.86,89.72,262.29,85.9,268.26,83.18Z"/><path class="cls-31" d="M247.84,103.72c-.76-4.42-1.53-8.83-2.51-14.53,5.64,2.52,6.16,6.52,6.67,10.54a2,2,0,0,1,.73,1.41c0,.55,0,.83-.11.83a15.06,15.06,0,0,1-2.76,2.59l-1.25.15Z"/><path class="cls-32" d="M241.28,104.3l-2.26-2a5,5,0,0,1-1.41-4.08c.4-1.07,1.38-1.72,1.95-2.67a8.28,8.28,0,0,1,1.07-1.9l.08-.11a1.44,1.44,0,0,1,2.11-.06l.35,6.5a3.29,3.29,0,0,0-.92,2.22A2.47,2.47,0,0,1,241.28,104.3Z"/><path class="cls-33" d="M251.42,101.51a4.5,4.5,0,0,0,.58-1.78c2.32-.5,4.54-.43,6.52,1.11a2.13,2.13,0,0,1,.27,2.91,3.77,3.77,0,0,1-4.54-.16c-.67.07-1.33.16-2,.26l-1-.24A2.84,2.84,0,0,1,251.42,101.51Z"/><path class="cls-34" d="M248.57,116.78l-2.18.23c-.06-.73-.12-1.46-.19-2.19.14-3.76-1.62-7.8,1.64-11.1l.17.62c.72.27,1,.63.91,1.09s-.29.74-.49.76Z"/><path class="cls-35" d="M258.51,103.28c0-.81,0-1.63,0-2.44l6.33-.12-.23.34c.69.31,1,.69.83,1.14s-.31.72-.51.73l-4.29,2.52-1.2.77-1.32-.54A1.7,1.7,0,0,1,258.51,103.28Z"/><path class="cls-36" d="M241.69,110.76c-1.19-.13-2.95.1-2.69-1.64.14-1,1.58-1.78,2.44-2.66C241.52,107.89,241.61,109.33,241.69,110.76Z"/><path class="cls-37" d="M262.41,96.59l4.34-.34a1.27,1.27,0,0,1,2.09,0c.06.7.12,1.4.16,2.1l0,0-4.32.26Z"/><path class="cls-38" d="M232.06,96.19a16.86,16.86,0,0,1,.19-2.12,15.32,15.32,0,0,0,1.91-.13,3.63,3.63,0,0,1,1.23,2.76c-.42,1-1.19,2-2.25,1.82S231.68,97.32,232.06,96.19Z"/><path class="cls-39" d="M238.84,97.86l0,2.3a1.32,1.32,0,0,1-2.15.07l0,0c-1.37-.76-1.35-2-1.13-3.3l.92-.9c.69,0,1.38-.11,2.06-.18l1,.93Z"/><path class="cls-40" d="M244.09,114.94l-2.41-4.19Z"/><path class="cls-41" d="M241.28,104.3c0-.71-.06-1.42-.11-2.13a1.35,1.35,0,0,1,2.15-.17l-1.89,4.47Z"/><path class="cls-42" d="M243.32,102c-.72.07-1.43.12-2.15.17l2-2.22Z"/><path class="cls-43" d="M240.63,93.62c.07.68.12,1.35.17,2a1.32,1.32,0,0,1-2.18.16h0Z"/><path class="cls-44" d="M234.41,96.05c-.08-.7-.16-1.41-.25-2.11L236.58,96h-.05C235.85,97.07,235.14,97.08,234.41,96.05Z"/><path class="cls-45" d="M242.82,93.45l-2.11.07C241.38,92.37,242.08,92.42,242.82,93.45Z"/><path class="cls-46" d="M234.41,96.05l2.12,0c.09,1.39.17,2.79.26,4.19-8.78.88-4,9.64-7.82,13.43L228.25,103c0-.85,0-1.7.05-2.55l3.76-4.24C232.9,97.18,233.69,97.17,234.41,96.05Z"/><path class="cls-47" d="M236.25,128.9c-.17-1.59-.35-3.18-.52-4.76l2.38-.22c.66.8,2.13.65,2.32,2l-2.1,2.41A1.51,1.51,0,0,1,236.25,128.9Z"/><path class="cls-48" d="M242.2,119.35l1.86-2.18c.64.38.9.81.78,1.3s-.29.77-.47.78h0l-1,.93Z"/><path class="cls-1" d="M244.37,119.25a8.58,8.58,0,0,0-.31-2.08l2.34-.18Z"/><path class="cls-49" d="M236.74,100.23l2.15-.07c.05.71.09,1.41.13,2.11Z"/><path class="cls-50" d="M242.29,121.47a9,9,0,0,1-.77-1.47c0-.13.44-.43.68-.65l.07-.08a1.41,1.41,0,0,1,.52,1.51c-.17.49-.34.75-.52.76Z"/><path class="cls-51" d="M240.43,125.92l-2.32-2,2.18-.13c.64.44.88.91.7,1.4s-.37.74-.57.75Z"/><path class="cls-52" d="M240.42,125.94l-.13-2.15,2.15-.12c.05.71.09,1.43.13,2.15Z"/><path class="cls-53" d="M268.84,96.28l-2.09,0c-.05-.68-.1-1.36-.14-2,1.89-1.36,3.43-3.61,6.31-2.55l4.32,1.83Z"/><path class="cls-54" d="M272.92,91.65l-6.31,2.55c-.77-.66-1.53-1.33-2.29-2a1.33,1.33,0,0,1,2.13-.18l6.34-2.53Z"/><path class="cls-15" d="M284,95.39a20.63,20.63,0,0,0,.05,2.08,1.31,1.31,0,0,1-2.13.16l0,0Z"/><path class="cls-55" d="M277.47,95.76c-.05-.71-.07-1.43-.07-2.15a8.73,8.73,0,0,1,.76,1.49C278.2,95.24,277.71,95.54,277.47,95.76Z"/><path class="cls-9" d="M278.74,87.4a8.07,8.07,0,0,1,.44,1.31l-1.84-1.61A8.1,8.1,0,0,1,278.74,87.4Z"/><path class="cls-1" d="M242.55,125.8c2.37,0,4.84-.47,6.58,1.78a13.41,13.41,0,0,1-2,2.24l0,0a1.57,1.57,0,0,1-1.91,1c-1.09-.66-1.48-1.92-2.36-2.76Z"/><path class="cls-11" d="M244.92,129.94l2.16-.1c-.11,1.19.19,3-1.59,2.72-1-.14-1.75-1.62-2.62-2.5A1.2,1.2,0,0,1,244.92,129.94Z"/><path class="cls-9" d="M236.25,128.9l2.08-.57c.08.66.14,1.32.19,2l-2.11-.82S236.25,128.9,236.25,128.9Z"/><path class="cls-56" d="M244.92,129.94l-1,.08-1,0a15.15,15.15,0,0,1-.06-2Z"/><path class="cls-11" d="M247.12,129.82l2-2.24.15,2.16Z"/><path class="cls-57" d="M249.45,131.94a8.53,8.53,0,0,1,.77,1.42c0,.12-.42.42-.65.63C249.5,133.31,249.46,132.62,249.45,131.94Z"/><path class="cls-58" d="M281.94,97.63l2.13-.16c.49-.06,1-.13,1.46-.21.23,1.45.45,2.91.68,4.37-.54,1.25-1.18,1.25-1.91.15Z"/><path class="cls-59" d="M284.3,101.78c.64,0,1.28-.09,1.91-.15l.57,6.45-2.08.14Q284.51,105,284.3,101.78Z"/><path class="cls-60" d="M264.94,102.93c-.09-.63-.2-1.26-.32-1.88l2.55,1.52Z"/><path class="cls-61" d="M269,98.38l.79.36-.77-.38Z"/><path class="cls-15" d="M280.48,110.75c-.7,0-1.41,0-2.11,0C279.09,109.6,279.79,109.64,280.48,110.75Z"/><path class="cls-62" d="M257.29,113.77c-.12-.57-.22-1.14-.29-1.72s-.09-1.2-.17-1.79a2.67,2.67,0,0,1,3.09-1.77,3.22,3.22,0,0,1,2,1.52,3.36,3.36,0,0,1-.66,2.45,3.63,3.63,0,0,1-2.33,1.06A10.52,10.52,0,0,0,257.29,113.77Z"/><path class="cls-63" d="M261.06,109.67l-4.23.59c-.13-1.57-.25-3.13-.37-4.7.54-1,1.18-1,1.9-.21l.51.16a14.28,14.28,0,0,1,1.65,1.65l.54.38A1.5,1.5,0,0,1,261.06,109.67Z"/><path class="cls-33" d="M248.43,106.19a8.41,8.41,0,0,1-.42-1.85,5.87,5.87,0,0,0,1.82-1,1.15,1.15,0,0,1,1.78-.06l.65.56c-.06.7-.09,1.4-.08,2.1-.54.87-1.18.91-1.91.23Z"/><path class="cls-64" d="M258.36,105.35c-.63.08-1.26.15-1.9.21l-2.21-2,4.26-.31A7.18,7.18,0,0,1,258.36,105.35Z"/><path class="cls-65" d="M252.27,107.92l.78.4-.81-.39Z"/><path class="cls-66" d="M250.27,106.18a8.18,8.18,0,0,1,1.91-.23l.09,2h0Z"/><path class="cls-22" d="M259,113.52l2.14-1.88c.7.46,1,1,.78,1.49s-.36.81-.58.82c.05.71.08,1.42.1,2.14l0,0a1.33,1.33,0,0,1-2.18.12Z"/><path class="cls-67" d="M259.25,116.17l2.18-.12c0,.72.08,1.44.11,2.17Z"/><path class="cls-1" d="M242.27,121.54v-2.27a16,16,0,0,0,2.08,0Z"/><path class="cls-68" d="M263.08,107.3c.63-1.1,1.34-1.16,2.11-.14l-1,.93Z"/><path class="cls-69" d="M261.06,109.67a5.87,5.87,0,0,1,0-2.13c.67-.09,1.34-.17,2-.24v0a1.57,1.57,0,0,1,.58,1.5c-.11.53-.24.79-.39.8a1.57,1.57,0,0,1-2.28,0Z"/><path class="cls-70" d="M260.52,107.16l-1.65-1.65a13.24,13.24,0,0,1,1.78-.06A4,4,0,0,1,260.52,107.16Z"/><path class="cls-71" d="M263.16,109.4q0-1-.09-2.07l2.12-.17.15,2.21h0l-1.06,1Z"/><path class="cls-19" d="M261,109.6l2.18-.2,0,.26c.6.42.83.86.67,1.34s-.33.71-.52.72c-.68.75-1.37,1.49-2.05,2.23-.07-.77-.13-1.54-.2-2.31S261.05,110.28,261,109.6Z"/><path class="cls-72" d="M263.35,111.72c-.06-.68-.11-1.37-.15-2.06.7-.13,1.41-.23,2.11-.29C264.66,110.16,264,110.94,263.35,111.72Z"/><path class="cls-73" d="M266.45,92l-2.13.18C264.94,91.08,265.64,91,266.45,92Z"/><path class="cls-34" d="M251.61,103.29l-.89.13-.89-.06,1.59-1.85A6,6,0,0,1,251.61,103.29Z"/><path class="cls-74" d="M238.62,95.81l2.18-.16-2,2.21C238.74,97.18,238.67,96.49,238.62,95.81Z"/></svg>