<svg id="Слой_1" data-name="Слой 1" xmlns="http://www.w3.org/2000/svg" viewBox="0 0 370 370"><defs><style>.cls-1{fill:#302416;}.cls-2{fill:#2b1a0d;}.cls-3{fill:#261a0b;}.cls-4{fill:#130301;}.cls-5{fill:#2d1e0f;}.cls-6{fill:#1b0d03;}.cls-7{fill:#130200;}.cls-8{fill:#0c0201;}.cls-9{fill:#010000;}.cls-10{fill:#0f0200;}.cls-11{fill:#251a0f;}.cls-12{fill:#0b0800;}.cls-13{fill:#0d0100;}.cls-14{fill:#030000;}.cls-15{fill:#2c1f11;}.cls-16{fill:#2a1d0f;}.cls-17{fill:#817a74;}.cls-18{fill:#1d1302;}.cls-19{fill:#6e6862;}.cls-20{fill:#7c7169;}.cls-21{fill:#827c76;}.cls-22{fill:#716b65;}.cls-23{fill:#887d76;}.cls-24{fill:#433428;}.cls-25{fill:#2c1f0f;}.cls-26{fill:#7f7a71;}.cls-27{fill:#2e1c0c;}.cls-28{fill:#170400;}.cls-29{fill:#0f0000;}.cls-30{fill:#332215;}.cls-31{fill:#1c0e02;}.cls-32{fill:#281e0f;}.cls-33{fill:#746b64;}.cls-34{fill:#322418;}.cls-35{fill:#695d54;}.cls-36{fill:#1a0f04;}.cls-37{fill:#1f1405;}.cls-38{fill:#483027;}.cls-39{fill:#3a2519;}.cls-40{fill:#130d02;}.cls-41{fill:#181205;}.cls-42{fill:#302c1c;}.cls-43{fill:#362820;}.cls-44{fill:#150200;}.cls-45{fill:#190904;}.cls-46{fill:#2b140a;}.cls-47{fill:#2b2416;}.cls-48{fill:#685f53;}.cls-49{fill:#1a0c01;}.cls-50{fill:#0a0300;}.cls-51{fill:#190900;}.cls-52{fill:#382918;}.cls-53{fill:#372d1d;}.cls-54{fill:#281909;}.cls-55{fill:#140300;}.cls-56{fill:#38301c;}.cls-57{fill:#352319;}.cls-58{fill:#140500;}.cls-59{fill:#1e0f05;}.cls-60{fill:#4b3c32;}.cls-61{fill:#1d0d00;}.cls-62{fill:#a49b98;}.cls-63{fill:#706964;}.cls-64{fill:#85807c;}.cls-65{fill:#837d77;}.cls-66{fill:#8b8881;}.cls-67{fill:#8c8883;}.cls-68{fill:#69665f;}.cls-69{fill:#96928b;}.cls-70{fill:#4e4642;}.cls-71{fill:#7b7670;}.cls-72{fill:#6d6761;}.cls-73{fill:#3c2d1e;}.cls-74{fill:#0a0402;}</style></defs><title>3dotМонтажная область 1</title><circle cx="110.01" cy="259.03" r="33"/><path class="cls-1" d="M87.71,280.91l-2.19-4.31,1.09-.84a9.83,9.83,0,0,1,2.65-.72c3.13-.75,6.2-2.17,9.5-.82,1.22.79,1.42,2.21,2.06,3.36s1.81.87.57.13.82-1.54-.38-.75c-.38-1-.48-2-1.27-2.78a17.18,17.18,0,0,0-3.44-1.08,7.17,7.17,0,0,1-3.6-3.92c-1.09-4.8-.94-9,4.88-10.66a6.48,6.48,0,0,1,2.83.37,5.92,5.92,0,0,1,1.92,1.84c.57,1.46.39,3.13,1.23,4.53.58.57,1.12,1.13,1.74,1.66a8.79,8.79,0,0,0,3.49,1.66,6.7,6.7,0,0,0,3.8-.72c1.81-1.18,3.07-2.95,4.68-4.35,1.86-1.39,3.7-2.82,6.19-2.8,4.47,2.44,1.43,6.59,2.28,9.85a12.71,12.71,0,0,0,.61,3.24,7,7,0,0,0,3.07,1.06,6.62,6.62,0,0,1,2.3,1.18A4.22,4.22,0,0,1,133,279.9a5.41,5.41,0,0,1-4.33,3.77h0c-1.24.19-2.39.73-3.61.9a3,3,0,0,0-1.94.89,4,4,0,0,1-2.89,1.22,8.9,8.9,0,0,0-3,.79c-.95.56-1.72,1.36-2.66,2-.42.08-.81.14-1.24.2-.91-.06-1.8-.08-2.7-.06C102.11,288.93,93.36,289,87.71,280.91Z"/><path class="cls-2" d="M98,229.09c5.64-3.64,11.39-2.08,17.14-.36.34,1.89,2,2,3.37,2.43,7,.94,11.52,6.17,17.09,9.6a4.14,4.14,0,0,1,2.42,4.29,6.69,6.69,0,0,1-3.5,2.3c-3.64,1.07-8.23.39-9.69,5.4a11.54,11.54,0,0,1-2.15,3.66,5.25,5.25,0,0,1-2.75.94,8.29,8.29,0,0,1-5.19-2.78c-1.56-1.95-3-4-3.48-6.52a5.6,5.6,0,0,1,.87-2.83c-1.25.1-1.41,1.37-2.13,2-1,.91-1.92,1.89-2.93,2.78-2.79,1.9-4.41,5.25-7.81,6.4a3.73,3.73,0,0,1-2.79-.42,5.17,5.17,0,0,1-1.38-4,10.92,10.92,0,0,1,.51-2.77A10.62,10.62,0,0,1,97,246.88,14.44,14.44,0,0,1,98.82,245a26.44,26.44,0,0,0,2.8-2.7c.49-.68,1-1.31,1.6-1.94a12,12,0,0,1,2.51-2.28c.49-.29,1-.6,1.45-.89a6.53,6.53,0,0,1-1.8.26,4.7,4.7,0,0,1-2-.39,7.93,7.93,0,0,1-1.82-1.19,22.82,22.82,0,0,1-2.33-2.49,9.26,9.26,0,0,1-1.24-2A3.55,3.55,0,0,1,98,229.09Z"/><path class="cls-3" d="M96.21,254.77,97.92,256c0,.39.1.79.16,1.18-.23.33-.46.65-.68,1a9.06,9.06,0,0,1-2.19.77c-.75.12-1.5.26-2.24.43-.66.42-1.33.8-2,1.21a6,6,0,0,1-2.28.68,8.39,8.39,0,0,1-2.38-.48,12.65,12.65,0,0,1-2.14-1.16,12.89,12.89,0,0,1-1.88-1.5,16.47,16.47,0,0,0-2.67-2.33,13.46,13.46,0,0,1,2.72-11.11,10.45,10.45,0,0,0,3.49-2c3.36-3.59,5.62-9.1,12.24-7a7.78,7.78,0,0,1,2.21,1.66,8.68,8.68,0,0,1,1.57,3.74,9.14,9.14,0,0,1-.45,3.92,2.39,2.39,0,0,1-1.89,1.52h0c-1.83.46-3.1,1.31-2.53,3.5v0C97.33,251.69,95.86,253.08,96.21,254.77Z"/><path class="cls-4" d="M135.6,240.76c-7.83-.49-12.42-8-20-9.14a2,2,0,0,1,.45-1.73c.43-.45.7-.62.82-.54l-.13-.17c.83.94,2,.26,2.93.54C126.42,231.37,132.19,234.36,135.6,240.76Z"/><path class="cls-5" d="M141.62,261.06a1.36,1.36,0,0,1-.42,1.71,9.76,9.76,0,0,1-.78,2.22,6.71,6.71,0,0,1-2.08,1.14,6,6,0,0,1-3.49-.42,3.5,3.5,0,0,1-1.9-3.81c-.24-1,2.26-.44,1.1-2a12,12,0,0,1-1-2,7.59,7.59,0,0,1-.57-3.58,6.09,6.09,0,0,1,1.14-2.29,5.22,5.22,0,0,1,2.26-1.23,4.85,4.85,0,0,1,3.47,1.45,8.63,8.63,0,0,1,1.54,3.32c0,1.13-.33,2.29,0,3.43A3.76,3.76,0,0,1,141.62,261.06Z"/><path class="cls-6" d="M83,272.1a1.34,1.34,0,0,1-.87-1.68,3.75,3.75,0,0,1-.59-2.42l-.07-.15c-.37-1-.39-2-.85-2.93l0,.09a8.17,8.17,0,0,1,.52-2.58,4.54,4.54,0,0,1,1.73-1.93,5.74,5.74,0,0,1,2.52-.41l1.24.22,1.1.5.85.81a5.65,5.65,0,0,1,.4,2.11c0,.64,0,1.3,0,1.94a3.41,3.41,0,0,0,.84,1.63,5.35,5.35,0,0,1,1.43,1.53c.13.37.23.71.35,1.08,0,.41-.07.79-.1,1.19a7.14,7.14,0,0,1-1.1,2.23,6.61,6.61,0,0,1-2.07,1.57,5.14,5.14,0,0,1-2.64,0C84.49,274.25,83.28,273.64,83,272.1Z"/><path class="cls-7" d="M139.58,254.29l-3.66-2.83a4.21,4.21,0,0,1-.89-6l3-.45,4.25,8.51c0,.45,0,.9,0,1.36l-1.05.85-1.35-.15Z"/><path class="cls-7" d="M139.56,272.72l-5.24,7.09c-1.13,1.95-1.7,2.73-3.6,3.72-.63-.07-1.56.48-2.1.14l3.48-5.61a23.58,23.58,0,0,1,.09-2.91,12,12,0,0,1,2.87-5.08,7.88,7.88,0,0,1,3.76-2.26c.49.07,1.14-1.07,1.63-1,.43.35.13,2.21.43,2.69A7.76,7.76,0,0,1,139.56,272.72Z"/><path class="cls-8" d="M85.34,244.19l-3,.51c1.5-4.23,3.49-8.09,7.65-10.34a1.86,1.86,0,0,1,1.86,2.24C89.83,239.26,88.72,242.7,85.34,244.19Z"/><path class="cls-7" d="M119.51,284.93l2.88-.75a1.46,1.46,0,0,1,1.51-1.37l4.73.84c-1.85,3.32-5.22,3.89-8.48,4.65a2.25,2.25,0,0,1-2.31-1.37A1.9,1.9,0,0,1,119.51,284.93Z"/><path class="cls-9" d="M79.62,255.81c1.93-2.47,3.25-1.61,4.29.79a3.18,3.18,0,0,1-.53,3.63c-.68.57-1.33,1.16-2,1.78l-1.32.09L79.81,259c-.08-1-.17-2-.21-3Z"/><path class="cls-10" d="M98,229.09l2.26,2a3.68,3.68,0,0,1-1.17,2.72c-2.28.85-4.63,2.92-6.64-.43A4.66,4.66,0,0,1,94.28,231C95.21,229.78,96.21,228.67,98,229.09Z"/><path class="cls-11" d="M83.76,275.6a1.48,1.48,0,0,0-1.05-1.55A13,13,0,0,0,83,272.1l4,2.65.15.85-.67.53a4.8,4.8,0,0,0-1,.47C84.94,276.25,84.35,275.92,83.76,275.6Z"/><path class="cls-3" d="M94.28,231l-1.1,2.5a1.72,1.72,0,0,1-1.66,2c-.51-.36-1-.74-1.53-1.13C90.88,232.55,92.08,231.15,94.28,231Z"/><path class="cls-12" d="M140.18,259.93l-.2-3.24.49-1.29.67-.11,1.25.07.13,1.25a10,10,0,0,0-1.09,1.77q.34,1.13-.33,1.44C140.67,260,140.37,260.06,140.18,259.93Z"/><path class="cls-2" d="M119.71,229.72l-2.93-.54Z"/><path class="cls-13" d="M116.91,229.35l-1.27,2.27c-.17-1-.34-1.92-.5-2.89A1.33,1.33,0,0,1,116.91,229.35Z"/><path class="cls-14" d="M140.8,265.86l-.51,2.16-.12-.68h-.69a1.46,1.46,0,0,1-1.74-1.14,1.71,1.71,0,0,1,1.76-1.26l0,0Q140.84,264.42,140.8,265.86Z"/><path class="cls-15" d="M140.8,265.86l-.69-.44-.63-.52,1.72-2.13C141.07,263.8,140.93,264.83,140.8,265.86Z"/><path class="cls-3" d="M79.6,256l.21,3A2.09,2.09,0,0,1,79.6,256Z"/><path class="cls-11" d="M82.17,263.14,80.67,265l-.57-2.91a1.21,1.21,0,0,1,1-.93A1.94,1.94,0,0,1,82.17,263.14Z"/><path class="cls-15" d="M140.18,259.93a9.33,9.33,0,0,1,1.25-1.55c.06.89.12,1.79.19,2.68C141.12,260.7,140.65,260.33,140.18,259.93Z"/><path class="cls-11" d="M80.65,264.92l.85,2.93C81.21,266.87,80.93,265.9,80.65,264.92Z"/><path class="cls-11" d="M81.57,268c.2.81.39,1.62.59,2.42C82,269.62,81.77,268.81,81.57,268Z"/><path class="cls-16" d="M134.19,261.07l2.28,4.21.3,1.23a10.29,10.29,0,0,1-.86,5,23.45,23.45,0,0,1-3.18,4c-1.25.55-2.57.12-3.85.25l-1.29,1.71a2.17,2.17,0,0,1-2-.59,2.33,2.33,0,0,1,0-2.06c.41-1.25-.92-.44-1.15-.95a1.91,1.91,0,0,1-.8-1.86c-2.82-3.49,1-7.33-.55-10.89a1.93,1.93,0,0,1-2.06-.78,4.57,4.57,0,0,1-.35-2.36c.19-.36.38-.72.58-1.07.4-.58.8-1.15,1.21-1.72a2.77,2.77,0,0,1,3,1c.21,0,.29.72.28.4,0-1.42.61.54.7-.93a5,5,0,0,1,2.41-.69c2.67.66,5.39,1.22,6.52,4.22l.05.2a1.32,1.32,0,0,1-.47,1.45C134.61,261.08,134.33,261.17,134.19,261.07Z"/><path class="cls-11" d="M89.6,271.33l1.26-1.82a2.39,2.39,0,0,1,3-.48l5.27,3.81a1.35,1.35,0,0,1-.45,1.44c-.41.29-.68.38-.81.29-3.33,1.44-6.27,4.54-10.43,2.45a12.79,12.79,0,0,1-.34-2.29v0L88.39,273q1.08-.06,1.26-.78C89.77,271.73,89.75,271.44,89.6,271.33Z"/><path class="cls-17" d="M100.32,260.15A16.15,16.15,0,0,1,98.5,259c0-.46-.1-.91-.16-1.37a77.26,77.26,0,0,1,4.57-6.59,3.89,3.89,0,0,1,2-1.31,2.63,2.63,0,0,1,1.87,1.05c0,.35,0,.71,0,1.06a6,6,0,0,1,2-1,4.39,4.39,0,0,1,2.32.32,4.9,4.9,0,0,1,1.53,2,6.8,6.8,0,0,1,0,4,7.91,7.91,0,0,1-2.48,3.42,6.78,6.78,0,0,1-2.71,1.06C104.89,261.88,102.88,259.67,100.32,260.15Z"/><path class="cls-18" d="M97.84,274.57l1.26-1.73,3-.32c.15.93.31,1.86.46,2.79-.21,2.33,4.4.28,3.27,3.77-.82,2.53-2.45,3.2-4.67,3.21-2.75,0-2-2.11-2.24-3.74A28.35,28.35,0,0,0,97.84,274.57Z"/><path class="cls-19" d="M108.23,271.57c-3.22.68-4.11-1.83-5.34-3.88a1.32,1.32,0,0,0-1.79-1.29c-3.47-2,.34-3.1.56-4.65.44-3.26,2.38-1.94,4.08-1.35a22.94,22.94,0,0,0,2.39,1.4,5,5,0,0,1,1.31,2.31,14.7,14.7,0,0,1,.08,3.92A8.51,8.51,0,0,1,108.23,271.57Z"/><path class="cls-6" d="M93.83,269l-3,.48h0a7.57,7.57,0,0,0-.74-2.51,8.3,8.3,0,0,1-2-4.8v0q-1-2,1.26-1.74l1.28-1.8.84-.64a5.76,5.76,0,0,1,2-.49l1.06,0a4.17,4.17,0,0,0,2.07.23h0q1.95-1,1.83,1.2h0C94.19,261.07,95.44,265.72,93.83,269Z"/><path class="cls-20" d="M121.91,259.82c.39.45.79.89,1.21,1.31-1.37,1.77-2.41,3.9-4.93,4.37l-1.06.18s-.85-.65-.86-.64a4.47,4.47,0,0,1-.74-2,9,9,0,0,0-1.75-2.69c-.13-.38-.25-.75-.37-1.15.08-.41.17-.81.25-1.22a5,5,0,0,1,1.76-1.86c2-.72,3.45.38,4.9,1.47A4.61,4.61,0,0,1,121.91,259.82Z"/><path class="cls-21" d="M116.19,263.93l2,1.57c-1,1.91-.8,4.83-4,5.08-2,0-3.76-.52-4.94-2.28a4.41,4.41,0,0,1-.43-2.74,5.25,5.25,0,0,1,3.3-2.5,6.66,6.66,0,0,1,2.81.14Z"/><path class="cls-22" d="M108.89,266.63l5.32,3.94-6,1-.57-3.21c-.05-.46-.09-.93-.14-1.4Z"/><path class="cls-23" d="M107.17,262.23l-5.51-.48a3.28,3.28,0,0,1-1.34-1.6c2.81-3,5.26-1.24,7.72.57l0,1Z"/><path class="cls-24" d="M123.67,272c.58.41,1.16.8,1.75,1.2,1-.11,1.57.31,1.61,1.36-.41.54-.8,1.09-1.17,1.66.2.76.06,1.26-.39,1.51s-.76.3-.93.18C122.53,276.21,122.14,274.26,123.67,272Z"/><path class="cls-15" d="M128.88,275.77l3-.48c1.34-.67,1.9-.27,1.7,1.21l-1.49,1.56Z"/><path class="cls-25" d="M118.39,287l-3.1.27.09-.54.07-1,1-.16,3.08-.6C119.14,285.61,118.76,286.28,118.39,287Z"/><path class="cls-15" d="M124.54,277.93c.45-.56.89-1.12,1.32-1.69l1.73,1.24Z"/><path class="cls-26" d="M101.1,266.4c1.26-.49,1.83,0,1.79,1.29Z"/><path class="cls-27" d="M123.9,282.81a4,4,0,0,1-1.51,1.37,7.44,7.44,0,0,1,.62-1.41C123.1,282.64,123.59,282.79,123.9,282.81Z"/><path class="cls-28" d="M102.58,275.31c-.15-.93-.31-1.86-.46-2.79C102.27,273.45,102.43,274.38,102.58,275.31Z"/><path class="cls-11" d="M116.43,285.53a6.79,6.79,0,0,1-1.06,1.15,6.89,6.89,0,0,1,.29-1.21C115.69,285.39,116.16,285.5,116.43,285.53Z"/><path class="cls-29" d="M87.07,274.73c.11.77.23,1.53.34,2.29a2.3,2.3,0,0,1-.86-.89A4.16,4.16,0,0,1,87.07,274.73Z"/><path class="cls-30" d="M135,245.5c.29,2,.59,4,.88,6l-1.37,1.8c-1.83.27-3.66.85-5.44,0-1,0-.13-2.2-1.73-1.43a3,3,0,0,1-.85,3.05,3.11,3.11,0,0,1-2.32.15,3.9,3.9,0,0,1-2.19-2.81C123.61,244.61,128.69,243.82,135,245.5Z"/><path class="cls-31" d="M106.22,248.46c2.2-3.89,4.41-7.79,7.25-12.83,2.77,5.52.64,9-1.5,12.38a2,2,0,0,1-.33,1.55c-.33.45-.53.64-.62.58a15.38,15.38,0,0,1-3.77.26l-1.06-.67Z"/><path class="cls-32" d="M100.77,244.77l-.47-3a5,5,0,0,1,1.5-4c1-.57,2.16-.45,3.2-.83a8.23,8.23,0,0,1,2-.79l.13,0a1.44,1.44,0,0,1,1.68,1.28L105,242.6a3.25,3.25,0,0,0-2.12,1.13A2.5,2.5,0,0,1,100.77,244.77Z"/><path class="cls-33" d="M110.38,249a4.61,4.61,0,0,0,1.59-1c2.11,1.09,3.78,2.55,4.34,5a2.14,2.14,0,0,1-1.63,2.43,3.8,3.8,0,0,1-3.42-3c-.56-.37-1.13-.72-1.71-1.06l-.66-.85A2.82,2.82,0,0,1,110.38,249Z"/><path class="cls-34" d="M98.52,259l-1.83-1.2L97.92,256c2.49-2.83,3.69-7.07,8.3-7.56l-.27.59c.4.66.4,1.13,0,1.41s-.69.4-.86.28Z"/><path class="cls-35" d="M114.75,254.89l1.56-1.89,5,3.92-.4.11c.34.68.31,1.15-.08,1.41s-.69.36-.86.24l-4.91-.76-1.42-.17L113,256.5A1.68,1.68,0,0,1,114.75,254.89Z"/><path class="cls-36" d="M97,250c-.84-.86-2.35-1.8-1-3,.74-.67,2.36-.38,3.58-.52Z"/><path class="cls-37" d="M122,252.17l3.58,2.5c1-.14,1.52.34,1.6,1.33-.4.58-.8,1.16-1.21,1.73h0l-3.51-2.53C122.34,254.19,122.18,253.18,122,252.17Z"/><path class="cls-38" d="M98.77,232.65a17.81,17.81,0,0,1,1.49-1.52,15.15,15.15,0,0,0,1.56,1.1,3.59,3.59,0,0,1-.8,2.92c-1,.53-2.15.77-2.89,0S97.76,233.28,98.77,232.65Z"/><path class="cls-39" d="M103,238.23l-1.41,1.82a1.33,1.33,0,0,1-1.71-1.31h0c-.57-1.46.23-2.4,1.22-3.27l1.28-.12q.84.6,1.71,1.17c.06.45.13.91.19,1.36Z"/><path class="cls-40" d="M96.21,254.77c.26-1.59.53-3.17.79-4.76C96.74,251.6,96.47,253.18,96.21,254.77Z"/><path class="cls-41" d="M100.77,244.77c.43-.57.86-1.15,1.27-1.73a1.36,1.36,0,0,1,1.77,1.23l-4.3,2.27Z"/><path class="cls-42" d="M103.81,244.27q-.9-.6-1.77-1.23l2.95-.44C104.6,243.16,104.21,243.72,103.81,244.27Z"/><path class="cls-43" d="M107,236.09c-.37.56-.76,1.12-1.15,1.67a1.32,1.32,0,0,1-1.79-1.25v0Z"/><path class="cls-44" d="M100.67,234c.39-.6.77-1.19,1.15-1.8l.57,3.13,0,0C101.15,235.73,100.59,235.29,100.67,234Z"/><path class="cls-45" d="M108.84,237.34c-.57-.42-1.12-.85-1.68-1.28C108.41,235.59,108.92,236.08,108.84,237.34Z"/><path class="cls-46" d="M100.67,234l1.68,1.31-2.46,3.41c-7.35-4.88-9.22,4.9-14.55,5.44l6.18-8.7,1.66-1.94,5.59-.9C98.8,234,99.41,234.44,100.67,234Z"/><path class="cls-47" d="M81.31,260.62q1.31-2,2.6-4l2,1.34c0,1,1.24,1.86.53,3l-3.15.54A1.51,1.51,0,0,1,81.31,260.62Z"/><path class="cls-48" d="M92,257l2.82-.51c.25.7.18,1.2-.22,1.5s-.71.41-.86.3h0l-1.39.06Z"/><path class="cls-1" d="M93.7,258.29a9.14,9.14,0,0,0,1.08-1.8l1.92,1.34Z"/><path class="cls-49" d="M99.84,238.74l1.71,1.31-1.25,1.71C100.15,240.75,100,239.75,99.84,238.74Z"/><path class="cls-50" d="M90.69,258.69a7.76,7.76,0,0,1,.33-1.62c0-.13.61-.06.94-.07l.1,0a1.41,1.41,0,0,1-.55,1.49c-.45.28-.74.37-.88.26Z"/><path class="cls-51" d="M86.43,261c-.18-1-.35-2-.53-3l1.77,1.29c.21.74.1,1.25-.35,1.52s-.75.34-.92.22Z"/><path class="cls-52" d="M86.4,261l1.27-1.74,1.74,1.26-1.26,1.74Z"/><path class="cls-53" d="M127.19,256l-1.6-1.33c.38-.57.78-1.13,1.18-1.69,2.33.14,5-.62,6.5,2l2.19,4.16Z"/><path class="cls-54" d="M133.27,255l-6.5-2c-.17-1-.34-2-.5-3a1.33,1.33,0,0,1,1.76,1.2l6.51,2.07Z"/><path class="cls-15" d="M139.5,264.93a20.08,20.08,0,0,0-1.28,1.64,1.31,1.31,0,0,1-1.75-1.23v-.06Z"/><path class="cls-55" d="M134.19,261.07c.42-.59.85-1.15,1.31-1.71a8.59,8.59,0,0,1-.36,1.63C135.09,261.13,134.52,261.05,134.19,261.07Z"/><path class="cls-9" d="M140.47,255.4a8.47,8.47,0,0,1-.49,1.3c-.14-.81-.27-1.62-.41-2.42A7.36,7.36,0,0,1,140.47,255.4Z"/><path class="cls-1" d="M88.15,262.21c1.86,1.46,4,2.7,4,5.55a13.68,13.68,0,0,1-3,.45h0a1.58,1.58,0,0,1-2.09-.47c-.42-1.2.07-2.42-.07-3.63Z"/><path class="cls-11" d="M87.35,266.92l1.74,1.29c-.84.85-1.74,2.42-3,1.1-.66-.73-.33-2.37-.44-3.6C86.69,265.51,87.26,265.88,87.35,266.92Z"/><path class="cls-9" d="M81.31,260.62l2,.88c-.36.55-.73,1.1-1.11,1.64-.37-.65-.75-1.3-1.12-2C81.06,261.17,81.31,260.62,81.31,260.62Z"/><path class="cls-56" d="M87.35,266.92l-.84-.59-.81-.62a13.6,13.6,0,0,1,1.23-1.6Z"/><path class="cls-11" d="M89.13,268.21l3-.45c-.42.58-.84,1.17-1.25,1.76Z"/><path class="cls-57" d="M89.6,271.33a8.29,8.29,0,0,1-.31,1.59c0,.12-.59.05-.9.07C88.77,272.42,89.17,271.87,89.6,271.33Z"/><path class="cls-58" d="M136.47,265.34c.58.42,1.16.82,1.75,1.23.41.26.83.51,1.26.76q-1.11,1.91-2.24,3.81c-1.21.63-1.7.22-1.57-1.09Z"/><path class="cls-59" d="M135.67,270.05c.52.37,1.05.74,1.57,1.09l-3.64,5.36c-.57-.4-1.14-.8-1.7-1.21C133.16,273.54,134.42,271.8,135.67,270.05Z"/><path class="cls-60" d="M120,258.68c.33-.54.65-1.09,1-1.65.33.93.67,1.86,1,2.79Z"/><path class="cls-61" d="M126,257.73l.38.78c-.12-.26-.24-.52-.35-.78Z"/><path class="cls-15" d="M127,274.58c-.53-.46-1.07-.92-1.61-1.36C126.68,272.81,127.2,273.28,127,274.58Z"/><path class="cls-62" d="M107.17,262.23a17.38,17.38,0,0,1,.87-1.51c.35-.49.69-1,1-1.5a2.69,2.69,0,0,1,3.52.59,3.23,3.23,0,0,1,.61,2.46,3.37,3.37,0,0,1-2.07,1.48,3.64,3.64,0,0,1-2.47-.66A10.06,10.06,0,0,0,107.17,262.23Z"/><path class="cls-63" d="M112.68,261.44,109,259.22l2.7-3.87c1-.4,1.53,0,1.6,1l.3.45a14.93,14.93,0,0,1,.22,2.31l.18.64A1.49,1.49,0,0,1,112.68,261.44Z"/><path class="cls-33" d="M105.11,250.75a8.59,8.59,0,0,1,.84-1.69,6,6,0,0,0,2,.39,1.14,1.14,0,0,1,1.42,1.07l.14.85a20.93,20.93,0,0,0-1.39,1.58c-1,.32-1.49,0-1.62-1Z"/><path class="cls-64" d="M113.33,256.39c-.54-.33-1.08-.68-1.6-1-.16-1-.32-1.95-.47-2.92l3.49,2.46A7.48,7.48,0,0,1,113.33,256.39Z"/><path class="cls-65" d="M107,254.52l.35.81-.38-.81Z"/><path class="cls-66" d="M106.54,251.91a7.55,7.55,0,0,1,1.62,1L107,254.52h0Z"/><path class="cls-22" d="M108.62,263.09l2.85-.09c.24.79.13,1.34-.34,1.64s-.8.4-1,.27c-.41.58-.84,1.15-1.27,1.72h0a1.33,1.33,0,0,1-1.76-1.29Z"/><path class="cls-67" d="M107.17,265.33l1.76,1.29-1.28,1.74Z"/><path class="cls-1" d="M90.63,258.73,92.06,257a15.72,15.72,0,0,0,1.62,1.31Z"/><path class="cls-68" d="M115.75,260.89c1.18-.45,1.77-.05,1.72,1.23l-1.36.08Z"/><path class="cls-69" d="M112.68,261.44a6.15,6.15,0,0,1,1.35-1.65c.58.36,1.15.72,1.72,1.1l0,0a1.54,1.54,0,0,1-.5,1.52c-.42.34-.69.46-.81.38a1.57,1.57,0,0,1-1.75-1.47Z"/><path class="cls-70" d="M113.85,259.15c-.07-.77-.15-1.54-.23-2.32a15.25,15.25,0,0,1,1.42,1.09A3.78,3.78,0,0,1,113.85,259.15Z"/><path class="cls-71" d="M114.48,262.57c.43-.55.84-1.1,1.24-1.66l1.75,1.21c-.43.6-.86,1.2-1.28,1.81l0,0-1.43.07C114.64,263.51,114.56,263,114.48,262.57Z"/><path class="cls-19" d="M112.66,261.34l1.82,1.23-.13.22c.2.71.09,1.19-.33,1.46s-.71.35-.86.23l-3,.43c.43-.64.87-1.27,1.31-1.91S112.29,261.91,112.66,261.34Z"/><path class="cls-72" d="M113.16,264.48c.39-.57.78-1.13,1.19-1.69a21,21,0,0,1,1.81,1.12Z"/><path class="cls-73" d="M128,251.19l-1.76-1.2C127.46,249.51,128.07,249.87,128,251.19Z"/><path class="cls-34" d="M109.41,250.52l-.77-.46-.65-.61,2.4-.42A6.1,6.1,0,0,1,109.41,250.52Z"/><path class="cls-74" d="M104.09,236.51l1.79,1.25-2.92.47C103.32,237.64,103.7,237.07,104.09,236.51Z"/><circle cx="186.03" cy="186.05" r="33"/><path class="cls-1" d="M215.71,195.79l-2.82,3.93-1.24-.58a9.19,9.19,0,0,1-1.86-2c-2.11-2.43-4.78-4.5-5.1-8.06.14-1.45,1.31-2.27,2-3.37s-.06-2-.15-.57-1.74,0-.49.69c-.7.78-1.58,1.36-1.88,2.4a16.4,16.4,0,0,0,.62,3.55,7.13,7.13,0,0,1-1.84,5c-3.75,3.18-7.58,5-11.7.58a6.34,6.34,0,0,1-1-2.69,5.72,5.72,0,0,1,.75-2.55c1-1.18,2.6-1.79,3.46-3.18.23-.77.48-1.52.67-2.3a8.71,8.71,0,0,0-.13-3.87,6.66,6.66,0,0,0-2.39-3c-1.88-1.07-4-1.38-6-2.16-2.09-1-4.21-2-5.34-4.21.12-5.09,5.21-4.3,7.71-6.55a12.86,12.86,0,0,0,2.6-2,7.08,7.08,0,0,0-.47-3.21,6.79,6.79,0,0,1,0-2.58,4.24,4.24,0,0,1,2.87-2.87,5.42,5.42,0,0,1,5.34,2.11h0c.74,1,1.75,1.79,2.46,2.8a3,3,0,0,0,1.69,1.31,3.92,3.92,0,0,1,2.4,2,8.86,8.86,0,0,0,2.08,2.28c.93.59,2,.91,3,1.47.25.33.48.66.73,1,.38.83.77,1.63,1.19,2.43C216.22,179.32,220.31,187.05,215.71,195.79Z"/><path class="cls-2" d="M165,210.47c-5.82-3.34-7.08-9.15-8.2-15.05,1.52-1.18.82-2.68.61-4.11-2.37-6.62.19-13.07.67-19.59a4.14,4.14,0,0,1,2.7-4.12,6.73,6.73,0,0,1,3.65,2.05c2.62,2.74,4.13,7.12,9.24,6.12a11.46,11.46,0,0,1,4.25.23,5.21,5.21,0,0,1,2.1,2,8.33,8.33,0,0,1-.08,5.88c-1,2.29-2.13,4.53-4.2,6.1a5.72,5.72,0,0,1-2.92.52c.67,1.07,1.87.62,2.8,1,1.26.47,2.55.84,3.81,1.33,3,1.6,6.69,1.5,9.28,4a3.77,3.77,0,0,1,.9,2.67,5.24,5.24,0,0,1-2.9,3.06,10.57,10.57,0,0,1-2.69.81,10,10,0,0,1-2.74-.11,14.07,14.07,0,0,1-2.54-.78,26.13,26.13,0,0,0-3.68-1.25c-.83-.13-1.65-.32-2.46-.53a12,12,0,0,1-3.18-1.18c-.48-.3-1-.61-1.46-.88a6.29,6.29,0,0,1,1.06,1.48,4.69,4.69,0,0,1,.58,2,7.82,7.82,0,0,1-.23,2.16,21.1,21.1,0,0,1-1.14,3.21,8.73,8.73,0,0,1-1.19,2A3.58,3.58,0,0,1,165,210.47Z"/><path class="cls-3" d="M188.59,200.26c.11-.7.21-1.4.32-2.1l1-.68,1.18.16a8.49,8.49,0,0,1,1.69,1.59c.45.6.92,1.21,1.42,1.79.66.39,1.31.81,2,1.21a5.76,5.76,0,0,1,1.65,1.72,7.88,7.88,0,0,1,.67,2.33,11.61,11.61,0,0,1,0,2.43,12.49,12.49,0,0,1-.47,2.36,16.39,16.39,0,0,0-.84,3.45A13.51,13.51,0,0,1,186,217.21c-.88-1.1-2.19-1.53-3.36-2.19-4.73-1.33-10.67-.81-11.85-7.64a7.9,7.9,0,0,1,.45-2.73,8.84,8.84,0,0,1,2.61-3.12,9.17,9.17,0,0,1,3.68-1.4,2.4,2.4,0,0,1,2.22,1h0c1.24,1.41,2.58,2.15,4.26.64h0C185.34,200.68,187.25,201.35,188.59,200.26Z"/><path class="cls-4" d="M158,171.72c3.17,7.17-1.43,14.72,1.06,21.93a2,2,0,0,1-1.75.39c-.59-.18-.87-.33-.85-.48l-.09.2c.45-1.18-.68-1.87-.87-2.86C153.92,184.19,153.92,177.69,158,171.72Z"/><path class="cls-5" d="M173.31,157a1.33,1.33,0,0,1,1.7-.41,9.24,9.24,0,0,1,2.34-.33,6.88,6.88,0,0,1,2,1.32,5.93,5.93,0,0,1,1.22,3.3,3.5,3.5,0,0,1-2.5,3.44c-.78.66-1.43-1.81-2.27-.07a12.11,12.11,0,0,1-1.34,1.83,7.66,7.66,0,0,1-2.92,2.15,6.14,6.14,0,0,1-2.56,0,5.26,5.26,0,0,1-2.13-1.45,4.82,4.82,0,0,1-.3-3.74,8.51,8.51,0,0,1,2.23-2.89c1-.55,2.19-.76,3-1.61A3.65,3.65,0,0,1,173.31,157Z"/><path class="cls-6" d="M210,204a1.33,1.33,0,0,1-1.09,1.54,3.7,3.7,0,0,1-1.87,1.64l-.1.14a29.32,29.32,0,0,0-2.22,2.1l.08-.07a8.07,8.07,0,0,1-2.53.73,4.71,4.71,0,0,1-2.52-.64,5.82,5.82,0,0,1-1.52-2.06c-.12-.4-.25-.81-.37-1.2s0-.81-.07-1.21c.12-.37.23-.76.33-1.12a5.49,5.49,0,0,1,1.7-1.33c.56-.3,1.17-.57,1.74-.85a3.67,3.67,0,0,0,1.06-1.5,5.35,5.35,0,0,1,.7-2c.27-.29.53-.54.8-.81l1.1-.46a7.19,7.19,0,0,1,2.49-.05,6.58,6.58,0,0,1,2.34,1.12,5.12,5.12,0,0,1,1.18,2.36C211.28,201.72,211.29,203.07,210,204Z"/><path class="cls-7" d="M168.23,162l-.83,4.55a4.22,4.22,0,0,1-4.88,3.53l-1.78-2.45,5.61-7.69,1.21-.6,1.24.54.48,1.27Z"/><path class="cls-7" d="M184.6,153.51l8.7,1.39c2.26.12,3.21.26,5,1.5.22.59,1.15,1.16,1.09,1.79l-6.59-.51a24.28,24.28,0,0,1-2.62,1.26,12,12,0,0,1-5.83-.22,7.8,7.8,0,0,1-3.74-2.29c-.16-.47-1.47-.52-1.63-1,.11-.54,1.9-1.14,2.19-1.62A7.81,7.81,0,0,1,184.6,153.51Z"/><path class="cls-8" d="M184.19,214.77l1.82,2.44c-4.44.61-8.78.62-12.69-2.05a1.86,1.86,0,0,1,1.14-2.68C177.75,213.05,181.31,212.46,184.19,214.77Z"/><path class="cls-7" d="M204.67,165.71l-2-2.21a1.47,1.47,0,0,1-1.92-.72c-.47-1.53-.95-3.06-1.42-4.59,3.8.12,5.85,2.85,8,5.39a2.27,2.27,0,0,1-.15,2.7A1.9,1.9,0,0,1,204.67,165.71Z"/><path class="cls-9" d="M197.14,214.52c-3.09-.58-2.93-2.15-1.27-4.18a3.2,3.2,0,0,1,3.47-1.2c.81.35,1.63.65,2.47.93l.69,1.12-2.64,1.7c-.85.53-1.7,1.08-2.58,1.58Z"/><path class="cls-10" d="M165,210.47l.77-2.94a3.64,3.64,0,0,1,3-.21c1.79,1.63,4.71,2.77,2.66,6.09a4.63,4.63,0,0,1-3-.53C166.85,212.64,165.41,212.26,165,210.47Z"/><path class="cls-11" d="M212.81,201.75a1.48,1.48,0,0,0-.9,1.64A14.21,14.21,0,0,0,210,204l.51-4.81.68-.52.78.35a5,5,0,0,0,.89.7C212.85,200.4,212.82,201.07,212.81,201.75Z"/><path class="cls-3" d="M168.39,212.88l2.74-.18a1.73,1.73,0,0,1,2.49.58c-.09.63-.19,1.26-.3,1.88C171.3,215.21,169.51,214.78,168.39,212.88Z"/><path class="cls-12" d="M173,158.84l-2.78,1.67-1.37.15-.41-.54-.52-1.15,1.06-.68a10.2,10.2,0,0,0,2.07.15c.56-.55,1-.67,1.43-.37S173,158.61,173,158.84Z"/><path class="cls-2" d="M155.54,190.9l.87,2.86Z"/><path class="cls-13" d="M156.5,193.56l2.6.09-2.34,1.77A1.33,1.33,0,0,1,156.5,193.56Z"/><path class="cls-14" d="M177.94,155.57l2.16-.54-.56.41.31.62a1.44,1.44,0,0,1-.21,2.06,1.69,1.69,0,0,1-1.92-1l0,0C177,156.52,177.08,156,177.94,155.57Z"/><path class="cls-15" d="M177.94,155.57l-.08.81-.17.79-2.68-.54Z"/><path class="cls-3" d="M197.28,214.47l2.58-1.58A2.08,2.08,0,0,1,197.28,214.47Z"/><path class="cls-11" d="M202.48,208.88l2.35.47-2.33,1.84a1.19,1.19,0,0,1-1.26-.41A1.93,1.93,0,0,1,202.48,208.88Z"/><path class="cls-15" d="M173,158.84a9.78,9.78,0,0,1-2-.4l2.3-1.4C173.21,157.64,173.1,158.24,173,158.84Z"/><path class="cls-11" d="M204.75,209.42l2.22-2.1Z"/><path class="cls-11" d="M207.07,207.18l1.88-1.64Z"/><path class="cls-16" d="M176.72,163.64l2.7-4,1-.83a10.23,10.23,0,0,1,4.8-1.51,22.85,22.85,0,0,1,5.06,1c1.06.86,1.29,2.23,2,3.3l2.1.36a2.2,2.2,0,0,1,.41,2.06,2.37,2.37,0,0,1-1.86.91c-1.29.21,0,1-.31,1.46a1.92,1.92,0,0,1-1.28,1.57c-1.81,4.1-7,2.43-9.42,5.49a1.92,1.92,0,0,1,.25,2.19,4.6,4.6,0,0,1-1.94,1.4L179,177l-2.08-.28a2.75,2.75,0,0,1-.55-3.14c-.07-.21.51-.59.23-.44-1.24.7.19-.79-1.15-.19a5.06,5.06,0,0,1-1.73-1.83c-.63-2.67-1.38-5.35.76-7.73l.16-.13a1.31,1.31,0,0,1,1.5-.25C176.54,163.26,176.75,163.47,176.72,163.64Z"/><path class="cls-11" d="M206.33,198.52l-2.19-.28a2.39,2.39,0,0,1-1.79-2.42l1-6.43a1.33,1.33,0,0,1,1.49-.26c.44.23.66.43.63.59,2.81,2.29,6.92,3.48,7,8.13a13.13,13.13,0,0,1-1.87,1.36l0,0-2.18-.36c-.36-.62-.79-.87-1.27-.76S206.36,198.33,206.33,198.52Z"/><path class="cls-17" d="M191.48,194.14a17,17,0,0,1-.16,2.13l-1.14.77a78.37,78.37,0,0,1-8-1,3.91,3.91,0,0,1-2.07-1.14,2.64,2.64,0,0,1,.08-2.15c.31-.15.63-.33.93-.5a5.94,5.94,0,0,1-1.8-1.29,4.51,4.51,0,0,1-.79-2.21,4.9,4.9,0,0,1,1.05-2.26,6.75,6.75,0,0,1,3.51-1.83,7.9,7.9,0,0,1,4.18.63,6.83,6.83,0,0,1,2.19,1.92C190.91,189.28,189.88,192.08,191.48,194.14Z"/><path class="cls-18" d="M205.42,189.72l-2.12-.33-1.66-2.53,2.26-1.7c2.17-.88-1.77-4,1.85-4.63,2.62-.44,4,.7,5,2.67,1.27,2.44-.94,2.76-2.29,3.7A28.75,28.75,0,0,0,205.42,189.72Z"/><path class="cls-19" d="M198,181.87c2.08,2.54.26,4.49-1,6.52a1.31,1.31,0,0,0-.33,2.18c-.17,4-2.92,1.12-4.39,1.65-3.09,1.09-2.82-1.23-3.07-3a23.09,23.09,0,0,0,.14-2.76,5.15,5.15,0,0,1,1.45-2.22,14.17,14.17,0,0,1,3.44-1.87A8.48,8.48,0,0,1,198,181.87Z"/><path class="cls-6" d="M202.35,195.82l1.79,2.42h0a7.35,7.35,0,0,0-1.88,1.81,8.43,8.43,0,0,1-3.36,4l0,0q-1.36,1.83-2.13-.32l-2.18-.3-1-.45a6,6,0,0,1-1.37-1.6l-.45-.95a4.24,4.24,0,0,0-.75-2h0c-1.18-.86-1.1-1.59.23-2.18v0C195.12,199.16,198.67,195.91,202.35,195.82Z"/><path class="cls-20" d="M181.26,175.12c.22-.55.43-1.11.61-1.68,2.2.4,4.57.35,6.15,2.36l.64.86-.18,1.06a4.35,4.35,0,0,1-1.39,1.56,9.08,9.08,0,0,0-1.58,2.78c-.28.3-.55.58-.85.86l-1.2.34a5,5,0,0,1-2.46-.7c-1.56-1.45-1.24-3.24-.94-5A4.57,4.57,0,0,1,181.26,175.12Z"/><path class="cls-21" d="M187.54,178.31l.48-2.5c2.17.05,4.66-1.51,6.33,1.2a5.51,5.51,0,0,1,.25,5.43,4.49,4.49,0,0,1-2.24,1.64,5.28,5.28,0,0,1-3.74-1.78,6.58,6.58,0,0,1-1.16-2.57C187.48,179.26,187.51,178.79,187.54,178.31Z"/><path class="cls-22" d="M193.29,183.55c.35-2.18.71-4.36,1.06-6.54l3.63,4.86-2.58,2-1.18.76Z"/><path class="cls-23" d="M190.17,187.1c.7,1.71,1.41,3.41,2.11,5.12a3.29,3.29,0,0,1-.8,1.92c-4-1.09-3.52-4.11-3-7.12l.9-.5Z"/><path class="cls-24" d="M191.29,168c.09-.7.18-1.41.26-2.11a1.25,1.25,0,0,1,.47-2.05q1,.17,2,.27c.58-.52,1.09-.64,1.52-.35s.61.54.58.75C195.53,167,194,168.28,191.29,168Z"/><path class="cls-15" d="M192.23,161.59l-1.83-2.46c-1.2-.88-1.1-1.56.3-2.06l2.07.61Z"/><path class="cls-25" d="M207,165.77l1.66,2.63-.51.17-.92.39-.59-.79-1.94-2.46Z"/><path class="cls-15" d="M196.13,164.46c-.7-.15-1.4-.28-2.1-.4l.3-2.11Z"/><path class="cls-26" d="M196.67,190.57c-1-.89-.86-1.61.33-2.18Z"/><path class="cls-27" d="M200.76,162.78a4,4,0,0,1,1.92.71,7.34,7.34,0,0,1-1.54.1C201,163.57,200.89,163.06,200.76,162.78Z"/><path class="cls-28" d="M203.9,185.16l-2.27,1.7Z"/><path class="cls-11" d="M206.61,168.17a7.16,7.16,0,0,1,1.51.4,6.52,6.52,0,0,1-1.21.31C206.83,168.88,206.71,168.42,206.61,168.17Z"/><path class="cls-29" d="M210.52,199.21l1.87-1.36A2.3,2.3,0,0,1,212,199,4.37,4.37,0,0,1,210.52,199.21Z"/><path class="cls-30" d="M162.52,170.05l4.88-3.53,2.22.39c1.08,1.5,2.45,2.86,2.47,4.86.46.84-1.9,1.12-.48,2.19a3,3,0,0,1,3.09-.65,3.11,3.11,0,0,1,1.21,2,3.91,3.91,0,0,1-1.49,3.23C167,180.59,163.94,176.45,162.52,170.05Z"/><path class="cls-31" d="M178.39,194.27l-14.74-.54c3.63-5,7.66-4.69,11.69-4.36a2.12,2.12,0,0,1,1.53-.42c.55.09.81.18.8.29a14.91,14.91,0,0,1,2,3.22c0,.42-.07.84-.11,1.26Z"/><path class="cls-32" d="M177.61,200.81l-2.46,1.79a3.75,3.75,0,0,1-2.08.76,3.85,3.85,0,0,1-2.2-.23c-1-.61-1.4-1.7-2.21-2.45a8.35,8.35,0,0,1-1.64-1.44l-.09-.11a1.44,1.44,0,0,1,.37-2.07l6.44,1a3.29,3.29,0,0,0,2,1.36A2.5,2.5,0,0,1,177.61,200.81Z"/><path class="cls-33" d="M177,190.31a4.67,4.67,0,0,0-1.63-.94c0-2.37.52-4.53,2.44-6.14a2.14,2.14,0,0,1,2.91.33,3.81,3.81,0,0,1-1.1,4.42c-.07.66-.12,1.33-.16,2l-.45,1A2.78,2.78,0,0,1,177,190.31Z"/><path class="cls-34" d="M191.32,196.25c-.07.73-.15,1.45-.23,2.18l-2.18-.27c-3.65-.91-8,0-10.52-3.89l.65,0c.4-.65.82-.87,1.24-.67s.68.44.65.64Z"/><path class="cls-35" d="M180.17,183.74l-2.39-.51c.39-2.08.79-4.15,1.19-6.23l.28.3q.67-.92,1.29-.57c.44.23.64.45.61.65l1.58,4.71c.17.45.33.89.5,1.33l-.8,1.18A1.69,1.69,0,0,1,180.17,183.74Z"/><path class="cls-36" d="M184,201.74c-.37,1.14-.51,2.91-2.16,2.3-.94-.35-1.42-1.92-2.1-2.94Z"/><path class="cls-37" d="M174.42,178.54l.57-4.32a1.27,1.27,0,0,1,.46-2l2.09.28,0,0-.63,4.28Z"/><path class="cls-38" d="M167.76,208.15a16.36,16.36,0,0,1-2-.62,15.32,15.32,0,0,0,.26-1.89,3.57,3.57,0,0,1,3-.63c.92.61,1.67,1.56,1.32,2.57S168.79,208.76,167.76,208.15Z"/><path class="cls-39" d="M170.8,201.87l2.26.42a1.33,1.33,0,0,1-.38,2.12l0-.06c-1,1.18-2.23.91-3.46.42l-.69-1.08c.1-.68.18-1.37.25-2.05l1.12-.8Z"/><path class="cls-40" d="M188.59,200.26l-4.6,1.49Z"/><path class="cls-41" d="M177.61,200.81l-2.12-.34a1.35,1.35,0,0,1,.28-2.13l4,2.77Z"/><path class="cls-42" d="M175.77,198.34c-.08.71-.17,1.42-.28,2.13l-1.75-2.41Z"/><path class="cls-43" d="M167,199.24c.67.07,1.35.16,2,.25a1.31,1.31,0,0,1-.3,2.16h0Z"/><path class="cls-44" d="M168.11,205.83c-.7-.07-1.41-.14-2.12-.19l2.52-1.95v.05C169.41,204.63,169.27,205.33,168.11,205.83Z"/><path class="cls-45" d="M167.3,197.06c-.11.69-.23,1.38-.37,2.07C166,198.25,166.14,197.57,167.3,197.06Z"/><path class="cls-46" d="M168.11,205.83c.14-.7.27-1.39.4-2.09l4.15.61c-.95,8.78,8.6,5.94,11.53,10.42l-10.57-1.49-2.49-.57-3.36-4.56C168.91,207.53,169.06,206.76,168.11,205.83Z"/><path class="cls-47" d="M200.63,210.81l-4.76-.47c.09-.79.18-1.59.28-2.38.92-.47,1.07-2,2.43-1.86l1.93,2.56A1.5,1.5,0,0,1,200.63,210.81Z"/><path class="cls-48" d="M192.52,203l-1.75-2.27c.5-.54,1-.71,1.43-.49s.69.44.67.62v0l.69,1.21Z"/><path class="cls-1" d="M192.87,200.87a9.23,9.23,0,0,0-2.1-.13c.1-.77.21-1.55.31-2.32C191.67,199.24,192.27,200.05,192.87,200.87Z"/><path class="cls-49" d="M172.68,204.41c.13-.71.26-1.41.38-2.12l2.09.31Z"/><path class="cls-50" d="M194.61,203.37a8.46,8.46,0,0,1-1.6.44c-.13,0-.33-.52-.49-.8l-.07-.08a1.43,1.43,0,0,1,1.59-.19q.68.39.63.66Z"/><path class="cls-51" d="M198.58,206.1,196.15,208l.32-2.16c.57-.54,1.07-.67,1.51-.39s.65.51.62.71Z"/><path class="cls-52" d="M198.6,206.12l-2.13-.32c.11-.71.21-1.42.32-2.13l2.13.32C198.81,204.7,198.71,205.41,198.6,206.12Z"/><path class="cls-53" d="M175.45,172.18c-.15.68-.3,1.36-.46,2-.68-.08-1.36-.18-2-.28-1-2.13-2.83-4.1-1.2-6.7q1.34-1.94,2.69-3.85Q174.95,167.79,175.45,172.18Z"/><path class="cls-54" d="M171.76,167.24l1.2,6.7-2.44,1.83a1.33,1.33,0,0,1,.26-2.12c-.38-2.25-.77-4.49-1.16-6.74Z"/><path class="cls-15" d="M177.72,157.15a19.82,19.82,0,0,0,2,.38,1.31,1.31,0,0,1-.29,2.12l-.05,0Z"/><path class="cls-55" d="M176.72,163.64c-.71-.11-1.41-.23-2.11-.38a8.56,8.56,0,0,1,1.61-.44C176.36,162.81,176.56,163.35,176.72,163.64Z"/><path class="cls-9" d="M168.81,160.66a7.87,7.87,0,0,1,1.37-.15l-2,1.46A7,7,0,0,1,168.81,160.66Z"/><path class="cls-1" d="M198.9,204c.44-2.33.54-4.84,3.11-6.07a13.26,13.26,0,0,1,1.77,2.43v0a1.58,1.58,0,0,1,.55,2.07c-.87.93-2.19,1.05-3.19,1.73Z"/><path class="cls-11" d="M203.45,202.54c.11-.71.23-1.42.35-2.13,1.13.35,2.94.43,2.32,2.11-.33.93-2,1.38-3,2A1.21,1.21,0,0,1,203.45,202.54Z"/><path class="cls-9" d="M200.63,210.81c0-.72-.08-1.44-.13-2.16.67.07,1.32.14,2,.23-.41.63-.82,1.27-1.24,1.9Z"/><path class="cls-56" d="M203.45,202.54l-.14,1-.17,1a13.16,13.16,0,0,1-2-.36Z"/><path class="cls-11" d="M203.78,200.37,202,197.94l2.13.3Z"/><path class="cls-57" d="M206.33,198.52a9,9,0,0,1,1.56-.46c.12,0,.31.5.47.77C207.68,198.76,207,198.65,206.33,198.52Z"/><path class="cls-58" d="M179.47,159.65c.11-.7.2-1.41.29-2.12q.06-.74.09-1.47l4.42.23c1.11.79,1,1.42-.25,1.9Z"/><path class="cls-59" d="M184,158.19c.09-.63.18-1.26.25-1.9l6.43.78c-.09.69-.19,1.37-.3,2.06Z"/><path class="cls-60" d="M181.15,177.38c-.64,0-1.27-.07-1.9-.08l2-2.18C181.22,175.87,181.19,176.62,181.15,177.38Z"/><path class="cls-61" d="M177.54,172.46l.51-.69-.53.67Z"/><path class="cls-15" d="M192,163.79c-.17.68-.33,1.36-.47,2.05C190.6,164.91,190.79,164.23,192,163.79Z"/><path class="cls-62" d="M190.17,187.1c-.58,0-1.16,0-1.74-.07a15.39,15.39,0,0,0-1.78-.2,2.68,2.68,0,0,1-1.1-3.39,3.24,3.24,0,0,1,1.91-1.68,3.37,3.37,0,0,1,2.26,1.16,3.58,3.58,0,0,1,.55,2.49A10.65,10.65,0,0,0,190.17,187.1Z"/><path class="cls-63" d="M186.94,182.56l-.3,4.27-4.67-.62c-.83-.72-.72-1.35.19-1.9l.26-.47a15.44,15.44,0,0,1,2-1.26l.49-.45A1.48,1.48,0,0,1,186.94,182.56Z"/><path class="cls-33" d="M180.93,194.2a8,8,0,0,1-1.89,0,5.75,5.75,0,0,0-.6-2,1.14,1.14,0,0,1,.31-1.75l.68-.52a20.23,20.23,0,0,0,2,.5c.74.71.64,1.35-.17,1.92C181.18,193,181.05,193.6,180.93,194.2Z"/><path class="cls-64" d="M182.16,184.31c0,.64-.11,1.27-.19,1.9L179.59,188c.19-1.42.39-2.83.58-4.24A7.68,7.68,0,0,1,182.16,184.31Z"/><path class="cls-65" d="M183.41,190.8l.56-.68-.55.71Z"/><path class="cls-66" d="M181.3,192.4a7.72,7.72,0,0,1,.17-1.92l1.94.32v0Z"/><path class="cls-22" d="M190.27,185.41l-1.39-2.48c.59-.59,1.13-.74,1.62-.46s.71.53.68.74c.71.1,1.41.21,2.11.34l0,0a1.33,1.33,0,0,1-.33,2.16Z"/><path class="cls-67" d="M192.93,185.67l.33-2.16,2.14.35Z"/><path class="cls-1" d="M194.67,203.4l-2.22-.47a15.73,15.73,0,0,0,.43-2C193.48,201.73,194.08,202.56,194.67,203.4Z"/><path class="cls-68" d="M185.05,180.1c-1-.85-.87-1.55.29-2.1l.7,1.17Z"/><path class="cls-69" d="M186.94,182.56a6.18,6.18,0,0,1-2.08-.43c0-.68.11-1.36.19-2h0a1.58,1.58,0,0,1,1.58-.26c.5.22.73.41.71.56a1.56,1.56,0,0,1-.5,2.22Z"/><path class="cls-70" d="M184.37,182.58l-2,1.27a14.72,14.72,0,0,1,.31-1.76A3.81,3.81,0,0,1,184.37,182.58Z"/><path class="cls-71" d="M187.11,180.45c-.68-.13-1.36-.25-2-.34l.27-2.11,2.2.31v0c.24.41.48.83.73,1.24Z"/><path class="cls-19" d="M186.86,182.63c.08-.73.17-1.45.25-2.18h.27c.53-.5,1-.62,1.44-.37s.63.47.61.65c.58.83,1.17,1.65,1.75,2.47l-2.3-.28C188.21,182.8,187.54,182.7,186.86,182.63Z"/><path class="cls-72" d="M189.43,180.74c-.69-.08-1.37-.17-2.05-.28a18.88,18.88,0,0,1,.15-2.12Z"/><path class="cls-73" d="M170.78,173.65c-.08.7-.16,1.41-.26,2.12C169.55,174.93,169.59,174.22,170.78,173.65Z"/><path class="cls-34" d="M178.75,190.5l-.06.89-.24.86L177,190.31A5.66,5.66,0,0,1,178.75,190.5Z"/><path class="cls-74" d="M168.74,201.65l.3-2.16,1.76,2.38C170.11,201.82,169.43,201.75,168.74,201.65Z"/><circle cx="259.99" cy="110.97" r="33"/><path class="cls-1" d="M260.08,142.21l-4.62-1.44c.06-.45.11-.91.16-1.36A9.64,9.64,0,0,1,257,137c1.64-2.76,2.77-5.95,6.05-7.37,1.42-.32,2.57.53,3.84.87s1.88-.68.5-.32-.54-1.66-.82-.25a6.59,6.59,0,0,0-2.87-1,16.42,16.42,0,0,0-3.17,1.71,7.17,7.17,0,0,1-5.33-.17c-4.19-2.57-7.12-5.63-4.22-10.93a6.35,6.35,0,0,1,2.25-1.77,5.93,5.93,0,0,1,2.65-.09c1.44.61,2.51,1.91,4.11,2.29.81,0,1.59,0,2.39-.09a8.71,8.71,0,0,0,3.63-1.34,6.68,6.68,0,0,0,2.14-3.23c.42-2.11,0-4.25.15-6.38.31-2.3.57-4.62,2.32-6.39,4.87-1.49,5.72,3.59,8.65,5.25a12.54,12.54,0,0,0,2.75,1.83,7,7,0,0,0,2.9-1.46,6.84,6.84,0,0,1,2.44-.82,4.24,4.24,0,0,1,3.63,1.81,5.43,5.43,0,0,1-.33,5.74v0c-.73,1-1.15,2.23-1.88,3.21a3,3,0,0,0-.71,2,4,4,0,0,1-1.15,2.91,8.92,8.92,0,0,0-1.51,2.69c-.27,1.07-.24,2.18-.46,3.28-.24.34-.47.67-.72,1-.68.62-1.31,1.24-1.94,1.9C275.87,137.51,269.83,143.83,260.08,142.21Z"/><path class="cls-2" d="M230.17,98.65c1.34-6.57,6.46-9.6,11.71-12.51,1.6,1.07,2.8-.07,4.1-.72,5.54-4.33,12.46-3.93,18.8-5.52a4.14,4.14,0,0,1,4.76,1.25,6.71,6.71,0,0,1-.8,4.12c-1.77,3.34-5.46,6.16-2.9,10.7a11.33,11.33,0,0,1,1.12,4.11,5.21,5.21,0,0,1-1.25,2.62,8.29,8.29,0,0,1-5.61,1.77c-2.49-.25-5-.59-7.1-2.06a5.67,5.67,0,0,1-1.42-2.61c-.8,1,0,2,0,3,0,1.34,0,2.68-.06,4-.59,3.33.68,6.82-.87,10.06a3.74,3.74,0,0,1-2.25,1.7,5.21,5.21,0,0,1-3.81-1.79,10.5,10.5,0,0,1-1.62-2.3,10.15,10.15,0,0,1-.76-2.63,14.76,14.76,0,0,1-.06-2.66,26.45,26.45,0,0,0,0-3.88c-.14-.83-.21-1.67-.27-2.51A11.92,11.92,0,0,1,242,99.4c.13-.55.26-1.14.37-1.66a6.54,6.54,0,0,1-1.07,1.46,4.6,4.6,0,0,1-1.67,1.17,7.52,7.52,0,0,1-2.13.46,21.43,21.43,0,0,1-3.4-.07,8.91,8.91,0,0,1-2.29-.49A3.62,3.62,0,0,1,230.17,98.65Z"/><path class="cls-3" d="M247.31,117.87l2.09-.35.95.72c.08.39.15.78.23,1.17a8.8,8.8,0,0,1-1,2.11c-.43.62-.86,1.25-1.25,1.9-.17.76-.36,1.51-.53,2.27a6,6,0,0,1-1.11,2.11,7.83,7.83,0,0,1-2,1.36,11.59,11.59,0,0,1-2.32.73,11.93,11.93,0,0,1-2.38.3,17.5,17.5,0,0,0-3.54.28,13.43,13.43,0,0,1-6.05-9.71c.76-1.18.76-2.56,1-3.88-.23-4.91-2.6-10.38,3.52-13.65a7.66,7.66,0,0,1,2.73-.43,8.68,8.68,0,0,1,3.78,1.49,9.32,9.32,0,0,1,2.49,3,2.42,2.42,0,0,1-.23,2.42v0c-.95,1.63-1.22,3.13.74,4.25h0C245.88,114.92,245.85,116.94,247.31,117.87Z"/><path class="cls-4" d="M264.78,79.9c-5.81,5.26-14.42,3.27-20.48,7.9a2,2,0,0,1-.92-1.54q0-.92.18-1l-.21,0c1.26.06,1.56-1.24,2.44-1.72C251.65,79.9,257.82,77.86,264.78,79.9Z"/><path class="cls-5" d="M283.52,89.77a1.34,1.34,0,0,1,.93,1.49,9.63,9.63,0,0,1,1,2.11,6.68,6.68,0,0,1-.63,2.28,6,6,0,0,1-2.74,2.21,3.51,3.51,0,0,1-4.06-1.3c-.88-.53,1.26-1.93-.65-2.17a13.61,13.61,0,0,1-2.16-.7,7.73,7.73,0,0,1-3-2.09,6.13,6.13,0,0,1-.84-2.42,5.26,5.26,0,0,1,.7-2.48,4.79,4.79,0,0,1,3.46-1.46,8.54,8.54,0,0,1,3.45,1.21c.83.77,1.41,1.83,2.48,2.37A3.68,3.68,0,0,1,283.52,89.77Z"/><path class="cls-6" d="M250.5,139.41a1.34,1.34,0,0,1-1.8-.55,3.76,3.76,0,0,1-2.15-1.27l-.16-.05a29,29,0,0,0-2.69-1.44l.08.05A7.93,7.93,0,0,1,242.3,134a4.55,4.55,0,0,1-.18-2.58,5.83,5.83,0,0,1,1.47-2.1l1-.72,1.13-.45,1.17,0a5.66,5.66,0,0,1,1.79,1.19c.46.44.91.93,1.36,1.38a3.44,3.44,0,0,0,1.76.54,5.45,5.45,0,0,1,2.09,0l1,.51c.27.3.51.59.78.9a7.52,7.52,0,0,1,.83,2.34,6.63,6.63,0,0,1-.33,2.58,5,5,0,0,1-1.86,1.86C253.06,139.87,251.78,140.3,250.5,139.41Z"/><path class="cls-7" d="M277.24,86.49l-4.58.65a4.22,4.22,0,0,1-4.89-3.52l1.77-2.47,9.06,2.91,1,1c0,.45-.08.9-.13,1.35l-1.05.86Z"/><path class="cls-7" d="M290.42,99.37l1.42,8.71c.6,2.17.77,3.12.14,5.18-.49.4-.74,1.45-1.36,1.6q-.78-3.21-1.58-6.42a22.15,22.15,0,0,1-2-2.09,11.89,11.89,0,0,1-1.63-5.6,7.77,7.77,0,0,1,1-4.27c.39-.3,0-1.56.42-1.86.55-.06,1.68,1.45,2.22,1.57A7.74,7.74,0,0,1,290.42,99.37Z"/><path class="cls-8" d="M232.14,118.26l-1.73,2.5c-2-4-3.35-8.14-2.06-12.69a1.88,1.88,0,0,1,2.91.23C231.75,111.61,233.44,114.8,232.14,118.26Z"/><path class="cls-7" d="M285.16,122.26l1.47-2.58a1.47,1.47,0,0,1,.08-2.05l3.91-2.79c1.08,3.64-.87,6.45-2.59,9.31a2.28,2.28,0,0,1-2.61.7A1.9,1.9,0,0,1,285.16,122.26Z"/><path class="cls-9" d="M236.46,130.47C236,127.36,237.58,127,240,128a3.18,3.18,0,0,1,2.23,2.92c-.07.88-.1,1.76-.1,2.64l-.85,1-2.43-2c-.78-.65-1.57-1.28-2.32-2Z"/><path class="cls-10" d="M230.17,98.65l3-.19a3.67,3.67,0,0,1,1.13,2.74c-1,2.22-1.15,5.35-4.94,4.45a4.6,4.6,0,0,1-.43-3C228.71,101.14,228.62,99.65,230.17,98.65Z"/><path class="cls-11" d="M253.51,141.33a1.48,1.48,0,0,0-1.84-.34,14.75,14.75,0,0,0-1.17-1.59l4.72-1,.72.48-.09.86a4.5,4.5,0,0,0-.39,1.06C254.81,140.94,254.16,141.13,253.51,141.33Z"/><path class="cls-3" d="M229,102.67l1,2.54a1.74,1.74,0,0,1,.23,2.56c-.62.11-1.25.21-1.88.3C227.67,106.17,227.51,104.33,229,102.67Z"/><path class="cls-12" d="M281.7,90l-2.46-2.11-.58-1.26.39-.56.93-.84,1,.78a10.85,10.85,0,0,0,.5,2q1.05.54.81,1.23C282.11,89.72,281.92,90,281.7,90Z"/><path class="cls-2" d="M245.79,83.56l-2.44,1.72Z"/><path class="cls-13" d="M243.56,85.3c.25.84.5,1.67.74,2.5l-2.42-1.66A1.34,1.34,0,0,1,243.56,85.3Z"/><path class="cls-14" d="M286.38,93.7l1.19,1.88-.57-.4-.49.49a1.46,1.46,0,0,1-2,.45A1.71,1.71,0,0,1,284.8,94h0C285.18,93.1,285.71,93,286.38,93.7Z"/><path class="cls-15" d="M286.38,93.7l-.8.18-.81.09c-.11-.9-.21-1.81-.32-2.71C285.09,92.07,285.73,92.89,286.38,93.7Z"/><path class="cls-3" d="M236.55,130.59l2.32,2A2.09,2.09,0,0,1,236.55,130.59Z"/><path class="cls-11" d="M243.49,133.77c.1.79.19,1.58.29,2.38-.82-.55-1.65-1.09-2.48-1.63a1.21,1.21,0,0,1,0-1.33A1.93,1.93,0,0,1,243.49,133.77Z"/><path class="cls-15" d="M281.7,90a9.39,9.39,0,0,1-.24-2l2.06,1.74C282.92,89.87,282.31,90,281.7,90Z"/><path class="cls-11" d="M243.7,136.1l2.69,1.44Z"/><path class="cls-11" d="M246.55,137.59l2.15,1.27Z"/><path class="cls-16" d="M278.33,95.09l4.61,1.31L284,97a10.24,10.24,0,0,1,3,4.08,22.5,22.5,0,0,1,.67,5.1c-.47,1.28-1.7,1.93-2.5,2.93.11.71.22,1.41.32,2.12a2.19,2.19,0,0,1-1.82,1,2.35,2.35,0,0,1-1.45-1.47c-.61-1.17-1,.35-1.48.16a1.91,1.91,0,0,1-1.89-.72c-4.47-.43-4.52-5.88-8.18-7.21a1.94,1.94,0,0,1-2,.92,4.52,4.52,0,0,1-1.94-1.4l-.36-1.16c-.13-.69-.26-1.37-.38-2.06a2.76,2.76,0,0,1,2.81-1.51c.17-.13.71.29.48.08-1.05-1,.81-.06-.18-1.15a5.12,5.12,0,0,1,1.19-2.21c2.34-1.45,4.64-3,7.58-1.72L278,93a1.3,1.3,0,0,1,.71,1.34C278.64,94.79,278.5,95.06,278.33,95.09Z"/><path class="cls-11" d="M254.54,134.17l-.43-2.17a2.4,2.4,0,0,1,1.73-2.46l6.41-1.12a1.34,1.34,0,0,1,.72,1.33q-.12.74-.36.78c-1.29,3.39-1.13,7.66-5.53,9.18a13.22,13.22,0,0,1-1.88-1.36l0,0c-.11-.73-.22-1.45-.34-2.18.48-.54.58-1,.32-1.44S254.72,134.14,254.54,134.17Z"/><path class="cls-17" d="M254,118.69a16.49,16.49,0,0,1-2.07.52c-.36-.29-.73-.57-1.09-.84a76.09,76.09,0,0,1-1.53-7.88,4,4,0,0,1,.43-2.32,2.69,2.69,0,0,1,2.07-.61c.24.25.51.5.77.73a5.64,5.64,0,0,1,.66-2.12,4.49,4.49,0,0,1,1.84-1.44,4.88,4.88,0,0,1,2.48.28,6.81,6.81,0,0,1,2.84,2.76,7.89,7.89,0,0,1,.72,4.17,6.92,6.92,0,0,1-1.13,2.68C258.45,116.62,255.47,116.52,254,118.69Z"/><path class="cls-18" d="M262.61,130.53l-.36-2.11,1.88-2.38,2.32,1.61c1.52,1.79,3.27-3,5,.3,1.24,2.35.58,4-1,5.58-1.91,2-2.91,0-4.23-1A28.76,28.76,0,0,0,262.61,130.53Z"/><path class="cls-19" d="M267.71,121c-1.75,2.78-4.17,1.66-6.5,1.12a1.31,1.31,0,0,0-2.17.38c-3.85,1.09-2-2.42-2.94-3.65-2-2.6.28-3.07,1.89-3.87a22.42,22.42,0,0,0,2.67-.73,5.16,5.16,0,0,1,2.57.67,14.82,14.82,0,0,1,2.86,2.68A8.63,8.63,0,0,1,267.71,121Z"/><path class="cls-6" d="M255.84,129.54,254.12,132h0a7.54,7.54,0,0,0-2.31-1.22,8.39,8.39,0,0,1-4.82-1.94h0c-1.45-.48-1.57-1.18-.37-2.12l-.4-2.17.13-1a5.91,5.91,0,0,1,1.08-1.8l.76-.73a4.27,4.27,0,0,0,1.62-1.33v0c.45-1.39,1.16-1.54,2.14-.46h0C250.4,123.72,254.61,126.07,255.84,129.54Z"/><path class="cls-20" d="M268.86,103c.6,0,1.19.06,1.79,0,.3,2.22,1.1,4.45-.31,6.58l-.62.89-1.06.16a4.38,4.38,0,0,1-1.91-.83,9,9,0,0,0-3.14-.62c-.38-.17-.72-.35-1.09-.54l-.7-1a5,5,0,0,1-.1-2.56c.88-1.94,2.68-2.2,4.48-2.48A4.6,4.6,0,0,1,268.86,103Z"/><path class="cls-21" d="M267.81,110l2.53-.34c.63,2.09,2.89,4,.85,6.39a5.48,5.48,0,0,1-5.08,2,4.52,4.52,0,0,1-2.26-1.61,5.32,5.32,0,0,1,.51-4.11,6.63,6.63,0,0,1,2.07-1.91Z"/><path class="cls-22" d="M264.64,117.08l6.55-1.06-3.48,5L265,119.18l-1.1-.89Z"/><path class="cls-23" d="M260.29,115.23q-2.09,1.81-4.19,3.61a3.23,3.23,0,0,1-2.08-.15c-.22-4.14,2.79-4.64,5.8-5.13l.76.69Z"/><path class="cls-24" d="M278.83,110.27l2.07-.42a1.26,1.26,0,0,1,2.1-.2c.1.67.23,1.33.38,2,.68.39.94.84.8,1.34s-.31.75-.52.79C281,114,279.36,112.93,278.83,110.27Z"/><path class="cls-15" d="M285.15,109.15l1.76-2.5c.46-1.42,1.14-1.54,2.06-.36,0,.72,0,1.43.07,2.15Z"/><path class="cls-25" d="M285.83,124.47l-2,2.41-.32-.44-.66-.75.57-.81c.57-.88,1.15-1.75,1.72-2.62C285.38,123,285.6,123.73,285.83,124.47Z"/><path class="cls-15" d="M283.66,113.77c-.08-.71-.18-1.42-.28-2.13l2.09-.37C284.87,112.1,284.26,112.93,283.66,113.77Z"/><path class="cls-26" d="M259,122.5c.53-1.25,1.26-1.33,2.17-.38Z"/><path class="cls-27" d="M286.71,117.63a4.07,4.07,0,0,1-.07,2.05,7.36,7.36,0,0,1-.58-1.44C286,118.09,286.48,117.84,286.71,117.63Z"/><path class="cls-28" d="M266.45,127.65,264.13,126Z"/><path class="cls-11" d="M283.44,124.88a8.17,8.17,0,0,1,.09,1.56,6.2,6.2,0,0,1-.67-1C282.83,125.31,283.23,125.05,283.44,124.88Z"/><path class="cls-29" d="M255.2,138.35l1.88,1.36a2.37,2.37,0,0,1-1.24,0A4.58,4.58,0,0,1,255.2,138.35Z"/><path class="cls-30" d="M267.77,83.62l4.89,3.52.33,2.24c-1.09,1.5-1.95,3.22-3.84,3.86-.65.7-1.66-1.44-2.23.24a3,3,0,0,1,1.59,2.73A3.06,3.06,0,0,1,267,98a3.91,3.91,0,0,1-3.53-.39C259.17,91.16,262.14,87,267.77,83.62Z"/><path class="cls-31" d="M249.78,106.3c-1.25-4.3-2.5-8.6-4.12-14.15,5.89,1.87,6.85,5.79,7.81,9.73a2,2,0,0,1,.88,1.31c.09.55.08.83,0,.85a15.58,15.58,0,0,1-2.44,2.87l-1.23.3C250.37,106.91,250.07,106.61,249.78,106.3Z"/><path class="cls-32" d="M243.32,107.62l-2.47-1.76A5,5,0,0,1,239,102c.28-1.11,1.18-1.87,1.64-2.88a8.16,8.16,0,0,1,.84-2l.08-.12a1.43,1.43,0,0,1,2.08-.3l1.08,6.43a3.28,3.28,0,0,0-.67,2.3A2.47,2.47,0,0,1,243.32,107.62Z"/><path class="cls-33" d="M253.09,103.71a4.46,4.46,0,0,0,.38-1.84c2.25-.75,4.46-.93,6.6.38a2.13,2.13,0,0,1,.6,2.87,3.81,3.81,0,0,1-4.54.35c-.65.14-1.3.3-1.94.47l-1.07-.12A2.85,2.85,0,0,1,253.09,103.71Z"/><path class="cls-34" d="M252,119.21l-2.14.46c-.14-.71-.29-1.43-.43-2.15-.29-3.75-2.48-7.57.38-11.21l.24.6c.75.18,1.09.5,1,1s-.21.78-.41.81Z"/><path class="cls-35" d="M260.34,104.68l-.27-2.43,6.28-.83-.19.36c.71.24,1,.58.95,1s-.23.74-.43.78l-4,3-1.1.9-1.37-.39A1.68,1.68,0,0,1,260.34,104.68Z"/><path class="cls-36" d="M244.46,114c-1.2,0-2.92.43-2.86-1.33,0-1,1.37-2,2.12-2.92C244,111.16,244.22,112.58,244.46,114Z"/><path class="cls-37" d="M263.46,97.59l4.28-.82a1.27,1.27,0,0,1,2.08-.21q.21,1,.39,2.07l0,0-4.26.75Z"/><path class="cls-38" d="M233.26,100.59a16.83,16.83,0,0,1,0-2.13,15.13,15.13,0,0,0,1.88-.34,3.62,3.62,0,0,1,1.53,2.61c-.3,1.07-1,2.07-2,2.06S233,101.76,233.26,100.59Z"/><path class="cls-39" d="M240.18,101.49l.31,2.28a1.33,1.33,0,0,1-2.13.31l0,0c-1.45-.6-1.57-1.83-1.49-3.15l.81-1,2-.41,1.11.81Z"/><path class="cls-40" d="M247.31,117.87c-1-1.29-1.91-2.59-2.87-3.89C245.4,115.28,246.35,116.58,247.31,117.87Z"/><path class="cls-41" d="M243.32,107.62c-.1-.7-.21-1.41-.34-2.11a1.35,1.35,0,0,1,2.11-.41q-.68,2.34-1.37,4.66C243.59,109.05,243.45,108.34,243.32,107.62Z"/><path class="cls-42" d="M245.09,105.1c-.7.15-1.4.28-2.11.41l1.74-2.42C244.85,103.76,245,104.43,245.09,105.1Z"/><path class="cls-43" d="M241.48,97.08c.15.66.28,1.33.4,2a1.31,1.31,0,0,1-2.14.4l0,0C240.33,98.68,240.91,97.88,241.48,97.08Z"/><path class="cls-44" d="M235.57,100.19q-.23-1-.48-2.07l2.64,1.78h0C237.12,101,236.42,101.13,235.57,100.19Z"/><path class="cls-45" d="M243.64,96.66c-.69.11-1.39.21-2.08.3C242.09,95.75,242.8,95.72,243.64,96.66Z"/><path class="cls-46" d="M235.57,100.19l2.11-.28c.24,1.38.48,2.76.73,4.13-8.63,1.86-2.94,10-6.27,14.22q-.94-5.25-1.91-10.5c-.08-.84-.16-1.69-.23-2.54q1.62-2.32,3.26-4.63C234.21,101.48,235,101.38,235.57,100.19Z"/><path class="cls-47" d="M241.08,132.62,240,128l2.34-.48c.74.73,2.2.41,2.53,1.72l-1.82,2.64A1.49,1.49,0,0,1,241.08,132.62Z"/><path class="cls-48" d="M245.93,122.47l1.6-2.37c.68.3,1,.7.92,1.2s-.2.79-.38.83h0l-.93,1Z"/><path class="cls-1" d="M248.07,122.13a8.81,8.81,0,0,0-.54-2l2.31-.45Z"/><path class="cls-49" d="M238.36,104.08l2.13-.31c.13.7.25,1.39.36,2.09Z"/><path class="cls-50" d="M246.25,124.56a8.93,8.93,0,0,1-.93-1.37c0-.12.39-.48.61-.72l0-.09a1.43,1.43,0,0,1,.69,1.45c-.11.51-.26.78-.43.81Z"/><path class="cls-51" d="M244.9,129.19l-2.53-1.72,2.16-.37c.68.36,1,.8.85,1.31s-.28.78-.49.81Z"/><path class="cls-52" d="M244.89,129.22l-.36-2.12,2.12-.37c.12.71.24,1.42.37,2.12Z"/><path class="cls-53" d="M269.82,96.56l-2.08.21c-.13-.67-.26-1.34-.37-2,1.72-1.57,3-4,6-3.25l4.5,1.35Z"/><path class="cls-54" d="M273.35,91.5q-3,1.64-6,3.25L264.87,93A1.32,1.32,0,0,1,267,92.6l6-3.22Z"/><path class="cls-15" d="M284.8,94c.06.69.16,1.38.28,2.06a1.31,1.31,0,0,1-2.1.4l0,0Z"/><path class="cls-55" d="M278.33,95.09c-.12-.71-.23-1.42-.31-2.13a8.87,8.87,0,0,1,.93,1.39C279,94.48,278.55,94.83,278.33,95.09Z"/><path class="cls-9" d="M278.66,86.63a9,9,0,0,1,.59,1.26c-.68-.47-1.35-.93-2-1.4A7.51,7.51,0,0,1,278.66,86.63Z"/><path class="cls-1" d="M247,128.84c2.35-.31,4.76-1,6.74,1a14,14,0,0,1-1.75,2.45l0,0a1.58,1.58,0,0,1-1.8,1.17c-1.15-.54-1.68-1.74-2.64-2.48Z"/><path class="cls-11" d="M249.81,132.69l2.14-.34c0,1.2.52,2.93-1.28,2.88-1,0-1.92-1.42-2.88-2.19A1.21,1.21,0,0,1,249.81,132.69Z"/><path class="cls-9" d="M241.08,132.62l2-.8c.15.65.28,1.3.4,2l-2.19-.58Z"/><path class="cls-56" d="M249.81,132.69l-1,.2-1,.15a15.06,15.06,0,0,1-.29-2Z"/><path class="cls-11" d="M252,132.33l1.75-2.45.39,2.12Z"/><path class="cls-57" d="M254.54,134.17a8.53,8.53,0,0,1,.92,1.33c.06.11-.37.46-.58.69C254.74,135.52,254.63,134.85,254.54,134.17Z"/><path class="cls-58" d="M283,96.44c.7-.12,1.4-.26,2.1-.4.48-.11,1-.23,1.43-.37l1.17,4.27c-.4,1.3-1,1.37-1.88.36Z"/><path class="cls-59" d="M285.8,100.3c.63-.11,1.25-.23,1.88-.36l1.29,6.35c-.69.12-1.37.25-2.06.36Z"/><path class="cls-60" d="M266.68,103.61c-.16-.62-.33-1.23-.52-1.83l2.7,1.23Z"/><path class="cls-61" d="M270.21,98.63l.82.28-.8-.3Z"/><path class="cls-15" d="M283,109.65c-.7,0-1.4.12-2.1.2C281.49,108.66,282.2,108.62,283,109.65Z"/><path class="cls-62" d="M260.29,115.23c-.18-.55-.34-1.11-.47-1.67a17.8,17.8,0,0,0-.38-1.76,2.68,2.68,0,0,1,2.88-2.1,3.23,3.23,0,0,1,2.19,1.27,3.37,3.37,0,0,1-.39,2.52,3.62,3.62,0,0,1-2.19,1.31A11.64,11.64,0,0,0,260.29,115.23Z"/><path class="cls-63" d="M263.58,110.74l-4.14,1.06c-.29-1.54-.59-3.09-.89-4.63.43-1,1.06-1.11,1.87-.42l.52.1a15,15,0,0,1,1.82,1.45l.58.33A1.49,1.49,0,0,1,263.58,110.74Z"/><path class="cls-33" d="M250.64,108.69a8.53,8.53,0,0,1-.62-1.78,6.07,6.07,0,0,0,1.7-1.19,1.13,1.13,0,0,1,1.75-.26l.71.48c0,.71.08,1.41.16,2.1-.44.92-1.07,1-1.87.44Z"/><path class="cls-64" d="M260.42,106.75c-.62.15-1.24.29-1.87.42l-2.42-1.7,4.21-.79A7.57,7.57,0,0,1,260.42,106.75Z"/><path class="cls-65" d="M254.66,110l.81.32-.84-.3Z"/><path class="cls-66" d="M252.47,108.48a8.08,8.08,0,0,1,1.87-.44c.11.65.21,1.29.32,1.94l0,0Z"/><path class="cls-22" d="M261.93,114.8l1.92-2.1c.74.37,1,.84.94,1.38s-.28.85-.49.89c.13.7.24,1.4.34,2.11l0,0a1.33,1.33,0,0,1-2.15.37Z"/><path class="cls-67" d="M262.52,117.41l2.15-.37c.12.71.23,1.43.35,2.14Z"/><path class="cls-1" d="M246.24,124.64c-.09-.76-.17-1.51-.26-2.26a14.26,14.26,0,0,0,2.07-.24Z"/><path class="cls-68" d="M265.33,108.16c.5-1.16,1.19-1.3,2.08-.37l-.89,1Z"/><path class="cls-69" d="M263.58,110.74a6.32,6.32,0,0,1-.24-2.12c.66-.16,1.32-.32,2-.46v0a1.55,1.55,0,0,1,.74,1.42c-.05.54-.15.82-.3.85a1.57,1.57,0,0,1-2.27.22Z"/><path class="cls-70" d="M262.76,108.3l-1.82-1.45a14.93,14.93,0,0,1,1.76-.26A3.8,3.8,0,0,1,262.76,108.3Z"/><path class="cls-71" d="M265.64,110.24c-.08-.69-.19-1.37-.32-2l2.09-.4c.13.72.26,1.45.4,2.18h0l-.95,1.08Z"/><path class="cls-19" d="M263.49,110.68l2.15-.44.07.25c.65.35.92.77.81,1.25s-.24.75-.43.79L264.3,115l-.45-2.27C263.76,112,263.64,111.35,263.49,110.68Z"/><path class="cls-72" d="M266.09,112.53c-.14-.68-.26-1.36-.38-2a20.88,20.88,0,0,1,2.07-.52C267.21,110.82,266.65,111.67,266.09,112.53Z"/><path class="cls-73" d="M267,92.6l-2.09.42C265.35,91.83,266,91.65,267,92.6Z"/><path class="cls-34" d="M253.47,105.46l-.86.22-.89,0,1.37-2A5.6,5.6,0,0,1,253.47,105.46Z"/><path class="cls-74" d="M239.74,99.47l2.14-.4-1.7,2.42C240,100.82,239.86,100.15,239.74,99.47Z"/></svg>