<svg id="Слой_1" data-name="Слой 1" xmlns="http://www.w3.org/2000/svg" viewBox="0 0 370 370"><defs><style>.cls-1{fill:#302416;}.cls-2{fill:#2b1a0d;}.cls-3{fill:#261a0b;}.cls-4{fill:#130301;}.cls-5{fill:#2d1e0f;}.cls-6{fill:#1b0d03;}.cls-7{fill:#130200;}.cls-8{fill:#0c0201;}.cls-9{fill:#010000;}.cls-10{fill:#0f0200;}.cls-11{fill:#251a0f;}.cls-12{fill:#0b0800;}.cls-13{fill:#0d0100;}.cls-14{fill:#030000;}.cls-15{fill:#2c1f11;}.cls-16{fill:#2a1d0f;}.cls-17{fill:#817a74;}.cls-18{fill:#1d1302;}.cls-19{fill:#6e6862;}.cls-20{fill:#7c7169;}.cls-21{fill:#827c76;}.cls-22{fill:#716b65;}.cls-23{fill:#887d76;}.cls-24{fill:#433428;}.cls-25{fill:#2c1f0f;}.cls-26{fill:#7f7a71;}.cls-27{fill:#2e1c0c;}.cls-28{fill:#170400;}.cls-29{fill:#0f0000;}.cls-30{fill:#332215;}.cls-31{fill:#1c0e02;}.cls-32{fill:#281e0f;}.cls-33{fill:#746b64;}.cls-34{fill:#322418;}.cls-35{fill:#695d54;}.cls-36{fill:#1a0f04;}.cls-37{fill:#1f1405;}.cls-38{fill:#483027;}.cls-39{fill:#3a2519;}.cls-40{fill:#130d02;}.cls-41{fill:#181205;}.cls-42{fill:#302c1c;}.cls-43{fill:#362820;}.cls-44{fill:#150200;}.cls-45{fill:#190904;}.cls-46{fill:#2b140a;}.cls-47{fill:#2b2416;}.cls-48{fill:#685f53;}.cls-49{fill:#1a0c01;}.cls-50{fill:#0a0300;}.cls-51{fill:#190900;}.cls-52{fill:#382918;}.cls-53{fill:#372d1d;}.cls-54{fill:#281909;}.cls-55{fill:#140300;}.cls-56{fill:#38301c;}.cls-57{fill:#352319;}.cls-58{fill:#140500;}.cls-59{fill:#1e0f05;}.cls-60{fill:#4b3c32;}.cls-61{fill:#1d0d00;}.cls-62{fill:#a49b98;}.cls-63{fill:#706964;}.cls-64{fill:#85807c;}.cls-65{fill:#837d77;}.cls-66{fill:#8b8881;}.cls-67{fill:#8c8883;}.cls-68{fill:#69665f;}.cls-69{fill:#96928b;}.cls-70{fill:#4e4642;}.cls-71{fill:#7b7670;}.cls-72{fill:#6d6761;}.cls-73{fill:#3c2d1e;}.cls-74{fill:#0a0402;}</style></defs><title>4dotМонтажная область 1</title><circle cx="110.96" cy="260" r="33"/><path class="cls-1" d="M79.75,261.27,81,256.6l1.37.1A9.83,9.83,0,0,1,84.84,258c2.82,1.54,6,2.55,7.59,5.77.37,1.41-.43,2.58-.73,3.87s.76,1.86.34.48,1.64-.6.22-.82c.38-1,1-1.82.92-2.9a16.66,16.66,0,0,0-1.82-3.11,7.17,7.17,0,0,1,0-5.33c2.41-4.29,5.36-7.33,10.77-4.63a6.36,6.36,0,0,1,1.85,2.18,5.94,5.94,0,0,1,.19,2.65c-.56,1.46-1.81,2.58-2.13,4.18,0,.81.07,1.6.18,2.4a8.83,8.83,0,0,0,1.47,3.58,6.87,6.87,0,0,0,3.31,2c2.12.34,4.24-.12,6.38-.09,2.31.22,4.64.4,6.47,2.08,1.68,4.81-3.36,5.85-4.92,8.83a13,13,0,0,0-1.72,2.82,7,7,0,0,0,1.56,2.85,6.55,6.55,0,0,1,.92,2.41,4.23,4.23,0,0,1-1.68,3.69,5.41,5.41,0,0,1-5.74-.11h0c-1.06-.68-2.27-1.06-3.29-1.75a3,3,0,0,0-2-.64,3.94,3.94,0,0,1-3-1,8.65,8.65,0,0,0-2.75-1.41c-1.07-.23-2.18-.16-3.29-.34-.35-.22-.68-.44-1-.69-.65-.65-1.29-1.26-2-1.86C85,276.87,78.5,271.06,79.75,261.27Z"/><path class="cls-2" d="M122.15,229.75c6.62,1.08,9.84,6.09,12.94,11.23-1,1.63.18,2.79.88,4.06,4.53,5.37,4.4,12.31,6.22,18.59a4.12,4.12,0,0,1-1.08,4.8,6.8,6.8,0,0,1-4.14-.64c-3.41-1.65-6.36-5.23-10.8-2.5a11.45,11.45,0,0,1-4.06,1.27,5.3,5.3,0,0,1-2.67-1.15,8.3,8.3,0,0,1-2-5.54c.16-2.5.41-5,1.79-7.17a5.68,5.68,0,0,1,2.56-1.52c-1-.76-2,.08-3,.08-1.35,0-2.69.11-4,.09-3.34-.46-6.79.94-10.09-.49a3.73,3.73,0,0,1-1.78-2.19,5.16,5.16,0,0,1,1.65-3.87,10.08,10.08,0,0,1,2.24-1.71,10.29,10.29,0,0,1,2.6-.85,13.78,13.78,0,0,1,2.65-.16A26.48,26.48,0,0,0,116,242c.83-.17,1.66-.27,2.49-.36a12,12,0,0,1,3.39,0l1.68.31a6.64,6.64,0,0,1-1.51-1,4.72,4.72,0,0,1-1.22-1.63,7.47,7.47,0,0,1-.55-2.11,21.58,21.58,0,0,1-.06-3.41,9,9,0,0,1,.41-2.3A3.54,3.54,0,0,1,122.15,229.75Z"/><path class="cls-3" d="M103.59,247.59c.14.69.29,1.38.43,2.07l-.68,1-1.16.27A8.79,8.79,0,0,1,100,250c-.63-.42-1.28-.82-2-1.19-.76-.13-1.52-.29-2.28-.44a5.94,5.94,0,0,1-2.15-1,7.64,7.64,0,0,1-1.44-2,11.57,11.57,0,0,1-.82-2.29,12.83,12.83,0,0,1-.38-2.38,16.76,16.76,0,0,0-.42-3.52c2.28-3.44,5.29-5.79,9.48-6.41,1.21.71,2.59.66,3.92.87,4.9-.41,10.27-3,13.77,3a7.64,7.64,0,0,1,.53,2.71,8.79,8.79,0,0,1-1.34,3.84,9.28,9.28,0,0,1-3,2.6,2.39,2.39,0,0,1-2.42-.15h0c-1.66-.89-3.18-1.11-4.22.9v0C106.48,246.05,104.46,246.1,103.59,247.59Z"/><path class="cls-4" d="M142.19,263.63c-5.47-5.62-3.8-14.3-8.66-20.17a1.93,1.93,0,0,1,1.5-1c.61,0,.93,0,1,.14l0-.21c0,1.26,1.29,1.51,1.81,2.37C141.69,250.5,144,256.6,142.19,263.63Z"/><path class="cls-5" d="M133,282.72a1.34,1.34,0,0,1-1.45,1,9.44,9.44,0,0,1-2.07,1.13,6.85,6.85,0,0,1-2.31-.55,6,6,0,0,1-2.3-2.66,3.48,3.48,0,0,1,1.14-4.1c.5-.9,2,1.19,2.15-.73a12.34,12.34,0,0,1,.61-2.18,7.71,7.71,0,0,1,2-3,6.15,6.15,0,0,1,2.39-.93,5.11,5.11,0,0,1,2.5.61,4.75,4.75,0,0,1,1.59,3.39,8.47,8.47,0,0,1-1.08,3.5c-.74.86-1.78,1.48-2.27,2.57A3.7,3.7,0,0,1,133,282.72Z"/><path class="cls-6" d="M82.19,251.59a1.35,1.35,0,0,1,.48-1.83,3.82,3.82,0,0,1,1.18-2.19l.05-.16a30.36,30.36,0,0,0,1.34-2.75l0,.09a8,8,0,0,1,2.11-1.57,4.66,4.66,0,0,1,2.58-.27A5.78,5.78,0,0,1,92,244.3l.76,1,.49,1.1c0,.39,0,.79.09,1.17a5.82,5.82,0,0,1-1.13,1.84c-.42.48-.89.94-1.33,1.41a3.57,3.57,0,0,0-.47,1.77,5.45,5.45,0,0,1,0,2.09l-.47,1-.87.82a7.55,7.55,0,0,1-2.31.92,6.85,6.85,0,0,1-2.59-.23,5,5,0,0,1-1.93-1.8C81.83,254.16,81.34,252.9,82.19,251.59Z"/><path class="cls-7" d="M136.07,276.32l-.82-4.55a4.2,4.2,0,0,1,3.34-5l2.52,1.67-2.56,9.16-.92,1-1.35-.07-.9-1Z"/><path class="cls-7" d="M123.69,290l-8.64,1.74c-2.15.68-3.09.88-5.17.34-.42-.48-1.48-.69-1.65-1.3l6.35-1.82a21,21,0,0,1,2-2.1,12,12,0,0,1,5.54-1.84,7.82,7.82,0,0,1,4.3.84c.32.38,1.57,0,1.88.35.08.55-1.39,1.73-1.48,2.28A7.87,7.87,0,0,1,123.69,290Z"/><path class="cls-8" d="M102.63,232.45l-2.56-1.64c3.94-2.13,8-3.66,12.61-2.53a1.87,1.87,0,0,1-.13,2.91C109.27,231.81,106.14,233.61,102.63,232.45Z"/><path class="cls-7" d="M100.62,285.58l2.64,1.37a1.47,1.47,0,0,1,2,0l3,3.8c-3.61,1.22-6.48-.62-9.41-2.24a2.26,2.26,0,0,1-.79-2.57A1.88,1.88,0,0,1,100.62,285.58Z"/><path class="cls-9" d="M90.59,237.22c3.1-.54,3.49,1,2.65,3.47A3.18,3.18,0,0,1,90.41,243q-1.32,0-2.64,0l-1-.81,1.88-2.51c.61-.8,1.22-1.61,1.87-2.38Z"/><path class="cls-10" d="M122.15,229.75l.31,3a3.71,3.71,0,0,1-2.7,1.24c-2.25-.91-5.39-.95-4.63-4.78a4.62,4.62,0,0,1,3-.54C119.62,228.38,121.1,228.23,122.15,229.75Z"/><path class="cls-11" d="M80.38,254.67a1.48,1.48,0,0,0,.27-1.85,15.37,15.37,0,0,0,1.54-1.23c.41,1.56.81,3.12,1.21,4.68L83,257l-.86-.06A4.38,4.38,0,0,0,81,256.6C80.82,256,80.61,255.31,80.38,254.67Z"/><path class="cls-3" d="M118.09,228.69l-2.5,1.12a1.72,1.72,0,0,1-2.54.33c-.14-.61-.26-1.24-.37-1.86C114.55,227.53,116.38,227.3,118.09,228.69Z"/><path class="cls-12" d="M132.73,280.92l2-2.54,1.23-.63.57.37.89.89-.75,1a10.56,10.56,0,0,0-2,.58c-.34.71-.74,1-1.21.85S132.78,281.13,132.73,280.92Z"/><path class="cls-2" d="M137.82,244.78,136,242.41Z"/><path class="cls-13" d="M136,242.62l-2.46.84,1.56-2.48A1.31,1.31,0,0,1,136,242.62Z"/><path class="cls-14" d="M129.21,285.72,127.38,287l.38-.58-.51-.47a1.45,1.45,0,0,1-.53-2,1.7,1.7,0,0,1,2.15.24v0Q130.2,284.69,129.21,285.72Z"/><path class="cls-15" d="M129.21,285.72l-.21-.79-.12-.8,2.7-.43Z"/><path class="cls-3" d="M90.48,237.32l-1.87,2.38A2.08,2.08,0,0,1,90.48,237.32Z"/><path class="cls-11" d="M87.56,244.37l-2.36.38,1.53-2.54a1.21,1.21,0,0,1,1.33-.05A1.94,1.94,0,0,1,87.56,244.37Z"/><path class="cls-15" d="M132.73,280.92a9.42,9.42,0,0,1,2-.32L133,282.72Q132.85,281.82,132.73,280.92Z"/><path class="cls-11" d="M85.24,244.66l-1.34,2.75C84.35,246.49,84.8,245.58,85.24,244.66Z"/><path class="cls-11" d="M83.85,247.57c-.39.73-.78,1.46-1.18,2.19C83.07,249,83.46,248.3,83.85,247.57Z"/><path class="cls-16" d="M127.52,277.74l-1.13,4.65-.6,1.12a10.44,10.44,0,0,1-4,3.09,22.52,22.52,0,0,1-5.08.87c-1.29-.43-2-1.63-3-2.39l-2.1.4a2.2,2.2,0,0,1-1.1-1.79,2.35,2.35,0,0,1,1.42-1.5c1.14-.65-.39-.95-.22-1.47a1.92,1.92,0,0,1,.65-1.92c.26-4.48,5.7-4.73,6.9-8.45a1.92,1.92,0,0,1-1-2,4.64,4.64,0,0,1,1.33-2l1.14-.4,2.05-.46a2.76,2.76,0,0,1,1.61,2.75c.14.17-.26.73-.06.49.92-1.09.1.8,1.14-.22a5,5,0,0,1,2.26,1.11c1.53,2.28,3.18,4.52,2,7.5l-.1.18a1.31,1.31,0,0,1-1.32.76C127.83,278,127.56,277.91,127.52,277.74Z"/><path class="cls-11" d="M87.58,255.43l2.15-.51a2.38,2.38,0,0,1,2.52,1.64l1.36,6.36a1.33,1.33,0,0,1-1.3.76c-.5-.06-.76-.17-.8-.33-3.43-1.16-7.69-.84-9.37-5.18a12.33,12.33,0,0,1,1.28-1.92l0,0,2.17-.43c.56.46,1,.55,1.45.27S87.62,255.61,87.58,255.43Z"/><path class="cls-17" d="M103,254.33a18,18,0,0,1-.59-2.06l.8-1.11a78.25,78.25,0,0,1,7.81-1.83,4,4,0,0,1,2.34.35,2.65,2.65,0,0,1,.68,2c-.24.25-.48.53-.7.79a5.89,5.89,0,0,1,2.14.59,4.31,4.31,0,0,1,1.51,1.79,4.87,4.87,0,0,1-.19,2.48,6.67,6.67,0,0,1-2.65,2.94,7.87,7.87,0,0,1-4.13.88,6.88,6.88,0,0,1-2.72-1C105.26,258.68,105.25,255.69,103,254.33Z"/><path class="cls-18" d="M91.51,263.35l2.1-.43,2.45,1.79-1.53,2.37c-1.72,1.59,3.08,3.17-.1,5-2.31,1.33-4,.73-5.62-.75-2-1.84-.09-2.92.85-4.27A28.38,28.38,0,0,0,91.51,263.35Z"/><path class="cls-19" d="M101.23,268.1c-2.84-1.65-1.82-4.11-1.36-6.46a1.31,1.31,0,0,0-.46-2.15c-1.24-3.81,2.34-2.07,3.54-3.08,2.51-2.11,3.07.17,3.93,1.75a22.27,22.27,0,0,0,.83,2.63,5.24,5.24,0,0,1-.58,2.6,14.16,14.16,0,0,1-2.57,2.95A8.43,8.43,0,0,1,101.23,268.1Z"/><path class="cls-6" d="M92.25,256.56l-2.52-1.64h0a7.45,7.45,0,0,0,1.13-2.36,8.43,8.43,0,0,1,1.76-4.89v0q.63-2.19,2.1-.45l2.15-.48,1.06.09a5.93,5.93,0,0,1,1.84,1l.76.73a4.15,4.15,0,0,0,1.38,1.56h0c1.41.39,1.59,1.1.55,2.12v0C97.86,250.9,95.67,255.19,92.25,256.56Z"/><path class="cls-20" d="M119.25,268.57c0,.59,0,1.19,0,1.78-2.2.39-4.4,1.27-6.58-.06l-.91-.58-.2-1a4.21,4.21,0,0,1,.76-1.94,9.12,9.12,0,0,0,.5-3.17c.16-.38.32-.73.49-1.1.34-.26.67-.49,1-.74a5.08,5.08,0,0,1,2.56-.2c2,.81,2.29,2.6,2.64,4.38A4.56,4.56,0,0,1,119.25,268.57Z"/><path class="cls-21" d="M112.26,267.78c.14.83.28,1.67.43,2.51-2.06.71-3.84,3-6.36,1.09a5.5,5.5,0,0,1-2.13-5,4.53,4.53,0,0,1,1.52-2.32,5.31,5.31,0,0,1,4.13.36,6.66,6.66,0,0,1,2,2Z"/><path class="cls-22" d="M105,264.88c.44,2.17.87,4.33,1.3,6.5l-5.1-3.28c.57-.92,1.14-1.84,1.72-2.76l.84-1.14Z"/><path class="cls-23" d="M106.71,260.46l-3.76-4a3.29,3.29,0,0,1,.07-2.08c4.14-.38,4.74,2.61,5.35,5.6l-.66.78Z"/><path class="cls-24" d="M112.37,278.8c.16.69.33,1.37.5,2.06a1.27,1.27,0,0,1,.28,2.09q-1,.18-2,.45c-.37.69-.8,1-1.3.85s-.77-.28-.81-.49C108.72,281.15,109.73,279.43,112.37,278.8Z"/><path class="cls-15" d="M113.72,285.08l2.57,1.66c1.43.4,1.58,1.08.44,2.05l-2.15.15C114.29,287.65,114,286.37,113.72,285.08Z"/><path class="cls-25" d="M98.44,286.33,96,284.44l.43-.34.72-.68.83.53,2.68,1.63Z"/><path class="cls-15" d="M109.06,283.76c.7-.11,1.41-.23,2.11-.36l.45,2.08Z"/><path class="cls-26" d="M99.41,259.49c1.26.48,1.37,1.21.46,2.15C99.71,260.93,99.56,260.21,99.41,259.49Z"/><path class="cls-27" d="M105.3,287a4,4,0,0,1-2,0,6.77,6.77,0,0,1,1.41-.63C104.83,286.29,105.09,286.73,105.3,287Z"/><path class="cls-28" d="M94.53,267.08l1.53-2.38Z"/><path class="cls-11" d="M97.94,284a6.74,6.74,0,0,1-1.55.15,6.36,6.36,0,0,1,1-.7C97.49,283.36,97.76,283.76,97.94,284Z"/><path class="cls-29" d="M83.42,256.25l-1.28,1.93a2.28,2.28,0,0,1,0-1.24A4.22,4.22,0,0,1,83.42,256.25Z"/><path class="cls-30" d="M138.59,266.76l-3.34,5-2.22.41c-1.54-1-3.29-1.82-4-3.68-.73-.64,1.38-1.72-.32-2.22A3,3,0,0,1,126,268a3.07,3.07,0,0,1-1.83-1.46,3.89,3.89,0,0,1,.27-3.54C130.73,258.44,135,261.26,138.59,266.76Z"/><path class="cls-31" d="M115.24,249.62l14-4.65c-1.65,6-5.53,7.07-9.42,8.17a2,2,0,0,1-1.29.93c-.54.12-.82.12-.84,0a15.24,15.24,0,0,1-3-2.34c-.11-.4-.22-.81-.34-1.21Z"/><path class="cls-32" d="M113.68,243.22l1.67-2.54a3.91,3.91,0,0,1,1.69-1.43,3.86,3.86,0,0,1,2.14-.56c1.12.24,1.91,1.11,2.94,1.53a7.8,7.8,0,0,1,2,.77l.12.07a1.44,1.44,0,0,1,.38,2.07l-6.38,1.32a3.28,3.28,0,0,0-2.33-.58A2.49,2.49,0,0,1,113.68,243.22Z"/><path class="cls-33" d="M118,252.83a4.39,4.39,0,0,0,1.86.31c.83,2.22,1.1,4.43-.13,6.61a2.13,2.13,0,0,1-2.84.71,3.79,3.79,0,0,1-.52-4.52c-.17-.65-.35-1.29-.55-1.93l.08-1.07A2.83,2.83,0,0,1,118,252.83Z"/><path class="cls-34" d="M102.43,252.3l-.54-2.12,2.13-.52c3.74-.42,7.47-2.76,11.22,0l-.59.26c-.16.76-.47,1.11-.94,1.07s-.78-.17-.82-.37Z"/><path class="cls-35" d="M117.26,260.11l2.42-.36c.35,2.09.71,4.17,1.06,6.25l-.37-.18c-.2.73-.54,1.06-1,1s-.76-.2-.8-.4l-3.13-3.86-.94-1.07c.11-.46.23-.92.34-1.38A1.68,1.68,0,0,1,117.26,260.11Z"/><path class="cls-36" d="M107.36,244.6c0-1.2-.54-2.91,1.22-2.92,1,0,2,1.31,3,2Z"/><path class="cls-37" d="M124.47,263l1,4.25a1.26,1.26,0,0,1,.29,2.06c-.68.17-1.37.32-2,.48h0c-.3-1.41-.61-2.82-.91-4.23Z"/><path class="cls-38" d="M120.33,232.9a18.88,18.88,0,0,1,2.13-.13,17.34,17.34,0,0,0,.41,1.87,3.59,3.59,0,0,1-2.55,1.62c-1.08-.25-2.11-.87-2.13-1.94S119.16,232.69,120.33,232.9Z"/><path class="cls-39" d="M119.69,239.85l-2.27.4a1.33,1.33,0,0,1-.38-2.12l0,0c.55-1.46,1.78-1.62,3.1-1.6l1,.77c.15.67.32,1.34.49,2l-.77,1.14Z"/><path class="cls-40" d="M103.59,247.59l3.78-3Z"/><path class="cls-41" d="M113.68,243.22l2.1-.42a1.35,1.35,0,0,1,.49,2.1l-4.71-1.21Z"/><path class="cls-42" d="M116.27,244.9c-.18-.7-.34-1.4-.49-2.1l2.49,1.65Z"/><path class="cls-43" d="M124.15,241c-.66.17-1.32.32-2,.47a1.32,1.32,0,0,1-.48-2.13v0Z"/><path class="cls-44" d="M120.82,235.2l2.05-.56-1.68,2.7v0Q119.46,236.52,120.82,235.2Z"/><path class="cls-45" d="M124.65,243.13c-.14-.69-.26-1.38-.38-2.07C125.5,241.55,125.56,242.25,124.65,243.13Z"/><path class="cls-46" d="M120.82,235.2l.36,2.1-4.11.87c-2.18-8.55-10.13-2.55-14.44-5.72l10.42-2.3,2.53-.34,4.75,3.09C119.48,233.88,119.61,234.65,120.82,235.2Z"/><path class="cls-47" d="M88.62,241.92l4.62-1.23c.19.77.39,1.55.58,2.33-.7.76-.33,2.2-1.63,2.59l-2.7-1.72A1.51,1.51,0,0,1,88.62,241.92Z"/><path class="cls-48" d="M99,246.38l2.42,1.51c-.27.69-.66,1-1.16,1s-.8-.17-.84-.35l0,0-1.07-.89Z"/><path class="cls-1" d="M99.37,248.51a9.25,9.25,0,0,0,2-.61c.18.76.36,1.52.53,2.28Z"/><path class="cls-49" d="M117,238.13c.13.71.25,1.41.38,2.12l-2.07.43C115.92,239.83,116.48,239,117,238.13Z"/><path class="cls-50" d="M96.86,246.78a9,9,0,0,1,1.34-1c.12-.06.49.38.75.58l.08.05a1.4,1.4,0,0,1-1.41.74c-.52-.09-.79-.22-.83-.39Z"/><path class="cls-51" d="M92.19,245.61c.54-.86,1.08-1.73,1.63-2.59l.45,2.13c-.34.7-.77,1-1.28.9s-.79-.25-.83-.45Z"/><path class="cls-52" d="M92.16,245.6l2.11-.45c.15.71.29,1.41.44,2.11l-2.1.45Z"/><path class="cls-53" d="M125.73,269.28c-.1-.69-.2-1.38-.29-2.06l2-.46c1.63,1.67,4.08,2.86,3.47,5.86-.4,1.52-.79,3-1.18,4.55Z"/><path class="cls-54" d="M130.92,272.62q-1.74-2.92-3.47-5.86c.54-.85,1.09-1.7,1.63-2.56a1.33,1.33,0,0,1,.51,2.08c1.14,2,2.29,3.93,3.44,5.9Z"/><path class="cls-15" d="M128.87,284.16c-.69.09-1.37.21-2.05.36a1.32,1.32,0,0,1-.48-2.09l0,0Z"/><path class="cls-55" d="M127.52,277.74c.7-.16,1.41-.29,2.12-.39a8.91,8.91,0,0,1-1.36,1C128.15,278.38,127.78,278,127.52,277.74Z"/><path class="cls-9" d="M136,277.75a7.52,7.52,0,0,1-1.23.63l1.32-2.06A6.83,6.83,0,0,1,136,277.75Z"/><path class="cls-1" d="M92.62,247.68c.4,2.34,1.19,4.72-.79,6.78a14,14,0,0,1-2.51-1.66l0,0A1.59,1.59,0,0,1,88.06,251c.49-1.17,1.68-1.75,2.38-2.74Z"/><path class="cls-11" d="M88.87,250.64l.42,2.13c-1.19.06-2.9.63-2.92-1.17,0-1,1.35-2,2.09-3A1.2,1.2,0,0,1,88.87,250.64Z"/><path class="cls-9" d="M88.62,241.92l.87,2c-.64.18-1.28.34-1.93.48.16-.74.33-1.47.49-2.21Z"/><path class="cls-56" d="M88.87,250.64l-.23-1-.19-1a13.63,13.63,0,0,1,2-.36C89.92,249.07,89.4,249.86,88.87,250.64Z"/><path class="cls-11" d="M89.32,252.8l2.51,1.66-2.1.47C89.59,254.22,89.46,253.51,89.32,252.8Z"/><path class="cls-57" d="M87.58,255.43a10,10,0,0,1-1.3,1c-.11.06-.47-.36-.71-.56C86.23,255.68,86.9,255.54,87.58,255.43Z"/><path class="cls-58" d="M126.34,282.43c.15.7.31,1.39.48,2.09.13.47.27.94.43,1.41L123,287.26c-1.32-.35-1.41-1-.44-1.87Z"/><path class="cls-59" d="M122.59,285.39c.14.63.28,1.25.44,1.87l-6.3,1.53c-.15-.68-.3-1.36-.44-2.05Z"/><path class="cls-60" d="M118.57,266.41c.61-.18,1.21-.37,1.81-.59l-1.13,2.75C119,267.85,118.8,267.13,118.57,266.41Z"/><path class="cls-61" d="M123.68,269.76l-.25.82.27-.81Z"/><path class="cls-15" d="M113.15,283c-.08-.7-.18-1.4-.28-2.09C114.08,281.41,114.14,282.11,113.15,283Z"/><path class="cls-62" d="M106.71,260.46c.55-.2,1.1-.38,1.66-.53s1.17-.27,1.74-.44a2.67,2.67,0,0,1,2.21,2.79,3.22,3.22,0,0,1-1.19,2.24,3.42,3.42,0,0,1-2.53-.29,3.59,3.59,0,0,1-1.39-2.15A10.44,10.44,0,0,0,106.71,260.46Z"/><path class="cls-63" d="M111.33,263.58c-.4-1.36-.81-2.73-1.21-4.1l4.59-1.06c1,.39,1.14,1,.48,1.85l-.07.53a15.11,15.11,0,0,1-1.39,1.87l-.3.6A1.48,1.48,0,0,1,111.33,263.58Z"/><path class="cls-33" d="M112.89,250.58a8.61,8.61,0,0,1,1.76-.7,5.63,5.63,0,0,0,1.25,1.66,1.14,1.14,0,0,1,.33,1.74l-.46.73c-.7.05-1.4.13-2.09.24-.94-.41-1.07-1-.51-1.85C113.07,251.79,113,251.18,112.89,250.58Z"/><path class="cls-64" d="M115.19,260.27c-.17-.61-.33-1.23-.48-1.85l1.61-2.48c.31,1.39.63,2.78.94,4.17A7.56,7.56,0,0,1,115.19,260.27Z"/><path class="cls-65" d="M111.75,254.64l-.28.82.26-.85Z"/><path class="cls-66" d="M113.17,252.4a7.36,7.36,0,0,1,.51,1.85l-1.93.39,0,0Z"/><path class="cls-22" d="M107.21,262.08l2.17,1.84c-.35.75-.8,1.09-1.35,1s-.86-.25-.9-.46q-1,.24-2.1.42l0,0a1.34,1.34,0,0,1-.44-2.14Z"/><path class="cls-67" d="M104.63,262.77c.15.71.29,1.42.44,2.14l-2.12.43Z"/><path class="cls-1" d="M96.79,246.78l2.24-.35a15.76,15.76,0,0,0,.32,2.06Z"/><path class="cls-68" d="M114,265.23c1.18.46,1.35,1.15.45,2.07l-1.06-.85Z"/><path class="cls-69" d="M111.33,263.58a6.23,6.23,0,0,1,2.1-.32c.2.66.37,1.31.54,2h0a1.57,1.57,0,0,1-1.4.8c-.53,0-.82-.12-.85-.27a1.57,1.57,0,0,1-.31-2.26Z"/><path class="cls-70" d="M113.73,262.67l1.39-1.87a17.36,17.36,0,0,1,.32,1.75A3.81,3.81,0,0,1,113.73,262.67Z"/><path class="cls-71" d="M111.91,265.62c.68-.11,1.36-.24,2-.4l.48,2.08-2.16.48v0l-1.11-.91C111.39,266.43,111.65,266,111.91,265.62Z"/><path class="cls-19" d="M111.38,263.49c.18.71.35,1.42.53,2.13l-.26.08c-.32.66-.73.94-1.22.86s-.75-.22-.79-.4l-2.51-1.7,2.25-.54A19.22,19.22,0,0,0,111.38,263.49Z"/><path class="cls-72" d="M109.64,266.16c.67-.16,1.34-.32,2-.46a20.85,20.85,0,0,1,.59,2.05Z"/><path class="cls-73" d="M129.59,266.28c-.18-.69-.34-1.38-.5-2.08C130.29,264.65,130.5,265.33,129.59,266.28Z"/><path class="cls-34" d="M116.23,253.28l-.26-.85-.07-.89,2,1.3A5.38,5.38,0,0,1,116.23,253.28Z"/><path class="cls-74" d="M121.69,239.33l.48,2.13-2.48-1.61C120.35,239.65,121,239.48,121.69,239.33Z"/><circle cx="110" cy="112.08" r="33"/><path class="cls-1" d="M78.82,113.93c.39-1.57.78-3.13,1.18-4.69l1.37.08a9.57,9.57,0,0,1,2.47,1.2c2.86,1.48,6.1,2.43,7.7,5.62.4,1.4-.38,2.6-.65,3.89s.79,1.84.34.47,1.63-.63.21-.82c.36-1,1-1.84.87-2.92a16.22,16.22,0,0,0-1.89-3.08,7.24,7.24,0,0,1-.13-5.32c2.33-4.34,5.22-7.43,10.68-4.84a6.39,6.39,0,0,1,1.89,2.15,5.9,5.9,0,0,1,.24,2.64c-.53,1.47-1.76,2.62-2.06,4.23.07.81.11,1.59.23,2.39a8.9,8.9,0,0,0,1.54,3.55,6.77,6.77,0,0,0,3.35,2c2.13.3,4.24-.2,6.37-.21,2.32.18,4.65.31,6.52,2,1.76,4.78-3.26,5.91-4.76,8.92a12.59,12.59,0,0,0-1.67,2.85,6.9,6.9,0,0,0,1.62,2.82,6.71,6.71,0,0,1,1,2.39,4.21,4.21,0,0,1-1.61,3.72,5.38,5.38,0,0,1-5.74,0h0c-1.07-.67-2.29-1-3.32-1.7a3,3,0,0,0-2-.6,3.94,3.94,0,0,1-3-1,8.86,8.86,0,0,0-2.78-1.35c-1.08-.21-2.18-.12-3.29-.28l-1.06-.66c-.65-.64-1.31-1.24-2-1.83C84.4,129.43,77.75,123.75,78.82,113.93Z"/><path class="cls-2" d="M120.62,81.62c6.64,1,9.95,5.91,13.15,11-1,1.65.23,2.79.95,4.05,4.64,5.29,4.63,12.22,6.58,18.47a4.14,4.14,0,0,1-1,4.82,6.67,6.67,0,0,1-4.15-.57c-3.44-1.58-6.46-5.1-10.85-2.29a11.55,11.55,0,0,1-4,1.35,5.33,5.33,0,0,1-2.69-1.1,8.33,8.33,0,0,1-2.08-5.5c.11-2.51.31-5,1.66-7.21a5.57,5.57,0,0,1,2.52-1.56c-1-.75-2,.11-3,.13-1.34,0-2.68.16-4,.17-3.35-.4-6.77,1.06-10.1-.31a3.69,3.69,0,0,1-1.82-2.15,5.18,5.18,0,0,1,1.57-3.9,8.44,8.44,0,0,1,4.79-2.66,13.86,13.86,0,0,1,2.65-.2,26.41,26.41,0,0,0,3.88-.2c.82-.18,1.66-.3,2.49-.4a11.69,11.69,0,0,1,3.39-.07l1.68.28a6.7,6.7,0,0,1-1.53-1,4.56,4.56,0,0,1-1.25-1.61,7.42,7.42,0,0,1-.59-2.09,21.61,21.61,0,0,1-.12-3.41,9,9,0,0,1,.36-2.31A3.54,3.54,0,0,1,120.62,81.62Z"/><path class="cls-3" d="M102.4,99.8c.16.69.31,1.38.47,2.07-.23.33-.45.66-.67,1l-1.15.29a8.78,8.78,0,0,1-2.16-.86c-.64-.4-1.3-.79-2-1.15-.77-.11-1.53-.26-2.3-.4a5.89,5.89,0,0,1-2.16-1A8.13,8.13,0,0,1,91,97.84a12.28,12.28,0,0,1-.86-2.28,12.57,12.57,0,0,1-.43-2.36,16.76,16.76,0,0,0-.48-3.52,13.46,13.46,0,0,1,9.35-6.59c1.23.7,2.61.62,3.94.8,4.89-.5,10.21-3.17,13.83,2.75a7.82,7.82,0,0,1,.58,2.7,8.71,8.71,0,0,1-1.28,3.86,9.15,9.15,0,0,1-2.91,2.66,2.39,2.39,0,0,1-2.42-.1h0c-1.67-.86-3.19-1-4.2,1h0C105.26,98.21,103.24,98.3,102.4,99.8Z"/><path class="cls-4" d="M141.3,115.12c-5.58-5.51-4.08-14.22-9.05-20a2,2,0,0,1,1.49-1c.61,0,.93,0,1,.13l0-.21c0,1.26,1.32,1.49,1.85,2.33C140.55,102,142.94,108.05,141.3,115.12Z"/><path class="cls-5" d="M132.5,134.37a1.35,1.35,0,0,1-1.44,1,9.19,9.19,0,0,1-2.05,1.16,7,7,0,0,1-2.31-.5,6,6,0,0,1-2.36-2.62,3.5,3.5,0,0,1,1.07-4.12c.48-.91,2,1.15,2.13-.77a12.36,12.36,0,0,1,.57-2.19,7.74,7.74,0,0,1,1.93-3.08,6,6,0,0,1,2.36-1,5.14,5.14,0,0,1,2.52.56,4.84,4.84,0,0,1,1.66,3.36,8.57,8.57,0,0,1-1,3.52c-.73.87-1.75,1.51-2.23,2.61A3.62,3.62,0,0,1,132.5,134.37Z"/><path class="cls-6" d="M81.08,104.21a1.34,1.34,0,0,1,.45-1.84,3.65,3.65,0,0,1,1.14-2.21l0-.17A30.14,30.14,0,0,0,84,97.23l0,.08A7.91,7.91,0,0,1,86,95.71a4.66,4.66,0,0,1,2.58-.33,6,6,0,0,1,2.17,1.35c.26.33.52.67.78,1l.51,1.1c0,.38.07.78.11,1.16a5.65,5.65,0,0,1-1.1,1.86c-.41.48-.87,1-1.3,1.43a3.63,3.63,0,0,0-.44,1.79,5.44,5.44,0,0,1,.08,2.09c-.14.36-.29.69-.45,1s-.56.55-.85.83a7.41,7.41,0,0,1-2.3,1,6.86,6.86,0,0,1-2.59-.18,5.19,5.19,0,0,1-2-1.76C80.76,106.79,80.26,105.53,81.08,104.21Z"/><path class="cls-7" d="M135.41,127.93l-.9-4.54a4.22,4.22,0,0,1,3.24-5.08l2.56,1.63-2.39,9.21c-.3.33-.6.67-.91,1l-1.35,0c-.3-.34-.61-.67-.92-1Z"/><path class="cls-7" d="M123.29,141.81l-8.6,1.9c-2.14.73-3.08.95-5.17.44-.43-.47-1.49-.66-1.67-1.27l6.31-1.94a23.45,23.45,0,0,1,2-2.14,12,12,0,0,1,5.5-1.94,7.78,7.78,0,0,1,4.32.76c.32.37,1.56-.06,1.88.32.09.55-1.35,1.76-1.44,2.31A7.76,7.76,0,0,1,123.29,141.81Z"/><path class="cls-8" d="M101.16,84.69l-2.6-1.6c3.91-2.2,7.94-3.8,12.56-2.76a1.86,1.86,0,0,1-.07,2.91C107.78,83.92,104.68,85.78,101.16,84.69Z"/><path class="cls-7" d="M100.15,137.85l2.66,1.32a1.46,1.46,0,0,1,2,0l3,3.75c-3.58,1.28-6.49-.51-9.45-2.07a2.25,2.25,0,0,1-.84-2.56A1.9,1.9,0,0,1,100.15,137.85Z"/><path class="cls-9" d="M89.21,89.68c3.08-.59,3.51.93,2.71,3.42a3.19,3.19,0,0,1-2.78,2.39c-.88,0-1.76,0-2.64.05l-1.06-.79,1.83-2.55c.6-.81,1.19-1.63,1.82-2.42Z"/><path class="cls-10" d="M120.62,81.62l.36,3a3.65,3.65,0,0,1-2.67,1.28c-2.27-.86-5.4-.85-4.71-4.69a4.63,4.63,0,0,1,2.94-.59C118.06,80.3,119.54,80.12,120.62,81.62Z"/><path class="cls-11" d="M79.33,107.32a1.49,1.49,0,0,0,.23-1.85,15.4,15.4,0,0,0,1.52-1.26c.43,1.55.87,3.1,1.3,4.65l-.44.74-.86,0a4.62,4.62,0,0,0-1.08-.32C79.79,108.59,79.57,108,79.33,107.32Z"/><path class="cls-3" d="M116.54,80.64l-2.48,1.17a1.73,1.73,0,0,1-2.53.38c-.15-.62-.29-1.24-.41-1.86C113,79.54,114.81,79.28,116.54,80.64Z"/><path class="cls-12" d="M132.16,132.58l2-2.58,1.21-.65.58.36.9.87-.73,1a9.89,9.89,0,0,0-2,.62c-.32.71-.72,1-1.19.87S132.21,132.8,132.16,132.58Z"/><path class="cls-2" d="M136.57,96.35c-.62-.77-1.24-1.55-1.85-2.33C135.33,94.8,136,95.58,136.57,96.35Z"/><path class="cls-13" d="M134.7,94.23l-2.45.88c.51-.83,1-1.67,1.52-2.51A1.33,1.33,0,0,1,134.7,94.23Z"/><path class="cls-14" d="M128.73,137.45l-1.8,1.3.36-.59-.52-.46a1.46,1.46,0,0,1-.56-2,1.7,1.7,0,0,1,2.15.2v0C129.26,136.22,129.38,136.75,128.73,137.45Z"/><path class="cls-15" d="M128.73,137.45l-.23-.78-.13-.81,2.69-.47Z"/><path class="cls-3" d="M89.09,89.78,87.27,92.2A2.09,2.09,0,0,1,89.09,89.78Z"/><path class="cls-11" d="M86.31,96.89,84,97.31l1.48-2.56a1.2,1.2,0,0,1,1.33-.08A1.93,1.93,0,0,1,86.31,96.89Z"/><path class="cls-15" d="M132.16,132.58a8.77,8.77,0,0,1,2-.35l-1.62,2.14C132.36,133.78,132.25,133.18,132.16,132.58Z"/><path class="cls-11" d="M84,97.23,82.71,100Z"/><path class="cls-11" d="M82.67,100.16l-1.14,2.21Z"/><path class="cls-16" d="M126.9,129.5l-1.05,4.68c-.2.37-.39.75-.58,1.12a10.3,10.3,0,0,1-3.91,3.17,23,23,0,0,1-5.06,1c-1.3-.4-2-1.59-3.07-2.33l-2.09.44a2.17,2.17,0,0,1-1.13-1.77,2.32,2.32,0,0,1,1.39-1.52c1.13-.68-.41-.95-.25-1.47a1.92,1.92,0,0,1,.61-1.93c.18-4.49,5.62-4.84,6.75-8.58a1.91,1.91,0,0,1-1-1.94,4.53,4.53,0,0,1,1.29-2l1.13-.43,2-.5a2.78,2.78,0,0,1,1.67,2.72c.14.17-.26.73-.06.49.9-1.1.11.81,1.14-.24a5.1,5.1,0,0,1,2.28,1.06c1.58,2.26,3.26,4.47,2.14,7.47l-.1.18a1.3,1.3,0,0,1-1.3.79C127.2,129.79,126.93,129.67,126.9,129.5Z"/><path class="cls-11" d="M86.54,107.94l2.14-.54A2.37,2.37,0,0,1,91.23,109l1.48,6.34a1.34,1.34,0,0,1-1.28.79c-.5,0-.77-.16-.81-.32-3.46-1.09-7.71-.69-9.47-5a13.14,13.14,0,0,1,1.24-2v0l2.15-.46c.57.44,1.06.52,1.46.24S86.58,108.12,86.54,107.94Z"/><path class="cls-17" d="M102,106.56a18,18,0,0,1-.63-2l.78-1.13a77.52,77.52,0,0,1,7.77-2,4,4,0,0,1,2.35.3,2.64,2.64,0,0,1,.71,2c-.23.26-.46.54-.68.81a5.78,5.78,0,0,1,2.16.54,4.44,4.44,0,0,1,1.54,1.76,5,5,0,0,1-.14,2.48,6.83,6.83,0,0,1-2.6,3,7.86,7.86,0,0,1-4.11,1,6.78,6.78,0,0,1-2.75-1C104.28,110.86,104.21,107.88,102,106.56Z"/><path class="cls-18" d="M90.62,115.79l2.09-.47,2.48,1.74c-.49.8-1,1.61-1.48,2.41-1.7,1.62,3.13,3.1,0,5-2.28,1.37-4,.8-5.63-.65-2.08-1.8-.14-2.91.77-4.29A28.39,28.39,0,0,0,90.62,115.79Z"/><path class="cls-19" d="M100.42,120.36c-2.87-1.6-1.89-4.08-1.48-6.43a1.31,1.31,0,0,0-.5-2.15c-1.31-3.78,2.3-2.11,3.48-3.14,2.48-2.16,3.07.11,4,1.67a21.78,21.78,0,0,0,.88,2.62,5.1,5.1,0,0,1-.53,2.6,14.55,14.55,0,0,1-2.52,3A8.55,8.55,0,0,1,100.42,120.36Z"/><path class="cls-6" d="M91.23,109l-2.55-1.58h0A7.68,7.68,0,0,0,89.77,105a8.37,8.37,0,0,1,1.66-4.91v0c.4-1.46,1.1-1.63,2.1-.48l2.14-.53,1.06.07a6.14,6.14,0,0,1,1.86,1l.77.72a4.17,4.17,0,0,0,1.41,1.54h0c1.42.36,1.61,1.06.59,2.11v0C96.73,103.22,94.63,107.56,91.23,109Z"/><path class="cls-20" d="M118.46,120.49c0,.59,0,1.19.05,1.78-2.19.43-4.38,1.36-6.59.06l-.91-.56s-.22-1-.23-1a4.39,4.39,0,0,1,.72-2,8.86,8.86,0,0,0,.45-3.17c.15-.38.3-.73.47-1.11l1-.76a5.14,5.14,0,0,1,2.55-.25c2,.78,2.34,2.56,2.72,4.34A4.64,4.64,0,0,1,118.46,120.49Z"/><path class="cls-21" d="M111.44,119.83l.48,2.5c-2,.75-3.78,3.11-6.33,1.21a5.48,5.48,0,0,1-2.23-5,4.54,4.54,0,0,1,1.48-2.35,5.21,5.21,0,0,1,4.13.28,6.66,6.66,0,0,1,2,2C111.15,118.92,111.3,119.38,111.44,119.83Z"/><path class="cls-22" d="M104.17,117.07c.47,2.16,1,4.31,1.42,6.47l-5.17-3.18,1.67-2.8c.28-.38.55-.76.82-1.15Z"/><path class="cls-23" d="M105.76,112.62l-3.84-4a3.29,3.29,0,0,1,0-2.08c4.12-.46,4.79,2.52,5.45,5.49l-.65.8Z"/><path class="cls-24" d="M111.76,130.85l.54,2.05a1.26,1.26,0,0,1,.32,2.08c-.66.14-1.32.3-2,.49-.35.7-.78,1-1.29.88s-.77-.27-.81-.48C108.16,133.26,109.14,131.53,111.76,130.85Z"/><path class="cls-15" d="M113.23,137.1l2.6,1.62c1.44.37,1.6,1.05.48,2l-2.15.19Z"/><path class="cls-25" d="M98,138.63c-.84-.61-1.68-1.22-2.51-1.84l.42-.34.7-.7.85.52,2.71,1.58Z"/><path class="cls-15" d="M108.55,135.87c.7-.12,1.4-.26,2.1-.4.16.69.32,1.38.49,2.07Z"/><path class="cls-26" d="M98.44,111.78c1.27.46,1.4,1.18.5,2.15C98.78,113.21,98.61,112.5,98.44,111.78Z"/><path class="cls-27" d="M104.85,139.13a3.92,3.92,0,0,1-2,0,7.09,7.09,0,0,1,1.4-.65C104.36,138.48,104.64,138.91,104.85,139.13Z"/><path class="cls-28" d="M93.71,119.47l1.48-2.41C94.7,117.86,94.21,118.67,93.71,119.47Z"/><path class="cls-11" d="M97.44,136.27a6.92,6.92,0,0,1-1.56.18,7.57,7.57,0,0,1,1-.73C97,135.69,97.25,136.08,97.44,136.27Z"/><path class="cls-29" d="M82.39,108.84l-1.24,2a2.38,2.38,0,0,1-.07-1.24A4.2,4.2,0,0,1,82.39,108.84Z"/><path class="cls-30" d="M137.75,118.31l-3.24,5.08-2.22.45c-1.55-1-3.32-1.76-4.07-3.61-.74-.62,1.35-1.74-.37-2.21a3,3,0,0,1-2.63,1.74,3.09,3.09,0,0,1-1.86-1.42,3.93,3.93,0,0,1,.2-3.55C129.73,110.14,134.08,112.88,137.75,118.31Z"/><path class="cls-31" d="M114.09,101.62,128,96.71c-1.54,6-5.4,7.17-9.27,8.35a2,2,0,0,1-1.27,1q-.81.18-.84,0a15.2,15.2,0,0,1-3-2.28c-.12-.4-.24-.81-.37-1.21Z"/><path class="cls-32" d="M112.41,95.25,114,92.68a3.93,3.93,0,0,1,1.66-1.47,4,4,0,0,1,2.13-.6c1.12.22,1.93,1.08,3,1.48a7.83,7.83,0,0,1,2,.73l.12.07a1.43,1.43,0,0,1,.42,2.06L117,96.39a3.32,3.32,0,0,0-2.35-.54A2.47,2.47,0,0,1,112.41,95.25Z"/><path class="cls-33" d="M116.86,104.78a4.53,4.53,0,0,0,1.86.27c.88,2.21,1.18,4.41,0,6.62a2.14,2.14,0,0,1-2.83.76,3.8,3.8,0,0,1-.61-4.51c-.18-.65-.37-1.28-.58-1.92l0-1.07A2.86,2.86,0,0,1,116.86,104.78Z"/><path class="cls-34" d="M101.33,104.54c-.2-.71-.39-1.41-.59-2.11l2.13-.56c3.73-.49,7.41-2.9,11.22-.25l-.59.27c-.14.76-.45,1.12-.92,1.09s-.78-.16-.83-.36Z"/><path class="cls-35" d="M116.3,112.07l2.42-.41,1.17,6.23-.37-.17c-.19.73-.52,1.06-1,1s-.75-.19-.8-.38l-3.2-3.81-1-1.05c.1-.46.21-.93.31-1.39A1.69,1.69,0,0,1,116.3,112.07Z"/><path class="cls-36" d="M106.11,96.74c-.07-1.19-.59-2.89,1.17-2.93,1,0,2,1.26,3,2Z"/><path class="cls-37" d="M123.56,114.79l1.06,4.23a1.26,1.26,0,0,1,.32,2.06q-1,.27-2,.51l0,0-1-4.22C122.48,116.53,123,115.66,123.56,114.79Z"/><path class="cls-38" d="M118.86,84.81a16.82,16.82,0,0,1,2.12-.17,16.66,16.66,0,0,0,.46,1.85,3.61,3.61,0,0,1-2.52,1.68c-1.09-.24-2.13-.84-2.17-1.91S117.68,84.62,118.86,84.81Z"/><path class="cls-39" d="M118.35,91.76l-2.26.45a1.34,1.34,0,0,1-.42-2.12l0,0c.53-1.48,1.75-1.66,3.07-1.66l1,.75c.16.67.34,1.34.52,2l-.75,1.16Z"/><path class="cls-40" d="M102.4,99.8l3.72-3.07Z"/><path class="cls-41" d="M112.41,95.25c.7-.14,1.4-.3,2.09-.46a1.35,1.35,0,0,1,.52,2.09l-4.72-1.12Z"/><path class="cls-42" d="M115,96.88c-.18-.69-.36-1.39-.52-2.09l2.52,1.6Z"/><path class="cls-43" d="M122.83,92.82c-.65.18-1.31.35-2,.51a1.32,1.32,0,0,1-.52-2.12v0Z"/><path class="cls-44" d="M119.39,87.09l2-.59c-.55.91-1.09,1.82-1.63,2.73l0,0C118.63,88.69,118.5,88,119.39,87.09Z"/><path class="cls-45" d="M123.37,95c-.15-.68-.29-1.37-.42-2.06C124.19,93.35,124.26,94.06,123.37,95Z"/><path class="cls-46" d="M119.39,87.09c.13.7.27,1.4.4,2.09l-4.09,1c-2.34-8.51-10.17-2.36-14.54-5.45l10.37-2.5,2.53-.38,4.8,3C118,85.8,118.17,86.57,119.39,87.09Z"/><path class="cls-47" d="M87.32,94.42l4.61-1.32.61,2.32c-.68.78-.28,2.21-1.58,2.62l-2.73-1.67A1.5,1.5,0,0,1,87.32,94.42Z"/><path class="cls-48" d="M97.73,98.69l2.46,1.46c-.26.7-.65,1-1.15,1s-.8-.15-.84-.34h0l-1.09-.87Z"/><path class="cls-1" d="M98.2,100.8a8.28,8.28,0,0,0,2-.65l.57,2.28Z"/><path class="cls-49" d="M115.67,90.09l.42,2.12-2.06.47Z"/><path class="cls-50" d="M95.66,99.12a9,9,0,0,1,1.32-1c.12-.06.5.37.75.57l.09,0a1.4,1.4,0,0,1-1.4.76c-.52-.08-.79-.21-.83-.38Z"/><path class="cls-51" d="M91,98l1.58-2.62L93,97.55c-.33.7-.75,1-1.26.92s-.79-.24-.84-.44Z"/><path class="cls-52" d="M90.93,98l2.1-.48c.17.7.33,1.4.49,2.1l-2.1.48C91.26,99.43,91.1,98.73,90.93,98Z"/><path class="cls-53" d="M124.94,121.08l-.33-2.06c.67-.17,1.33-.34,2-.49,1.67,1.64,4.14,2.78,3.58,5.79-.36,1.53-.72,3.05-1.09,4.57Z"/><path class="cls-54" d="M130.19,124.32q-1.78-2.89-3.58-5.79l1.59-2.59a1.32,1.32,0,0,1,.54,2.06l3.55,5.84Z"/><path class="cls-15" d="M128.36,135.9q-1,.15-2,.39a1.31,1.31,0,0,1-.52-2.07l0,0Z"/><path class="cls-55" d="M126.9,129.5c.69-.17,1.4-.31,2.1-.43a8.49,8.49,0,0,1-1.34,1C127.54,130.13,127.16,129.7,126.9,129.5Z"/><path class="cls-9" d="M135.35,129.35a8.47,8.47,0,0,1-1.22.66l1.28-2.09A6.82,6.82,0,0,1,135.35,129.35Z"/><path class="cls-1" d="M91.43,100.11c.45,2.32,1.28,4.69-.66,6.78a13,13,0,0,1-2.54-1.61l0,0a1.57,1.57,0,0,1-1.26-1.72c.47-1.19,1.64-1.78,2.33-2.79Z"/><path class="cls-11" d="M87.74,103.14c.16.7.31,1.41.46,2.11-1.19.09-2.89.68-2.94-1.11,0-1,1.31-2,2-3A1.2,1.2,0,0,1,87.74,103.14Z"/><path class="cls-9" d="M87.32,94.42c.31.65.61,1.3.91,2-.64.19-1.27.36-1.92.52l.45-2.22Z"/><path class="cls-56" d="M87.74,103.14l-.25-1-.2-1a14.77,14.77,0,0,1,2-.4Z"/><path class="cls-11" d="M88.23,105.28l2.54,1.61-2.09.51Z"/><path class="cls-57" d="M86.54,107.94a8.67,8.67,0,0,1-1.28,1c-.11.06-.48-.35-.73-.54C85.2,108.22,85.86,108.07,86.54,107.94Z"/><path class="cls-58" d="M125.8,134.22c.17.69.34,1.38.52,2.07q.21.71.45,1.41l-4.19,1.4c-1.33-.32-1.43-1-.47-1.86Z"/><path class="cls-59" d="M122.11,137.24c.15.63.3,1.25.47,1.86l-6.27,1.65-.48-2Z"/><path class="cls-60" d="M117.73,118.35c.61-.2,1.2-.4,1.8-.63-.36.92-.72,1.85-1.07,2.77C118.21,119.77,118,119.06,117.73,118.35Z"/><path class="cls-61" d="M122.9,121.59l-.23.84c.08-.28.17-.55.25-.82Z"/><path class="cls-15" d="M112.62,135c-.1-.7-.2-1.39-.32-2.08C113.52,133.42,113.6,134.12,112.62,135Z"/><path class="cls-62" d="M105.76,112.62c.54-.21,1.09-.41,1.65-.57s1.16-.29,1.73-.47a2.66,2.66,0,0,1,2.26,2.75,3.17,3.17,0,0,1-1.15,2.26,3.37,3.37,0,0,1-2.53-.24,3.67,3.67,0,0,1-1.43-2.12A10.11,10.11,0,0,0,105.76,112.62Z"/><path class="cls-63" d="M110.44,115.65l-1.29-4.07,4.57-1.15c1,.37,1.16,1,.52,1.84l-.07.53a14.86,14.86,0,0,1-1.35,1.9l-.29.59A1.48,1.48,0,0,1,110.44,115.65Z"/><path class="cls-33" d="M111.75,102.62a8.63,8.63,0,0,1,1.75-.73,5.64,5.64,0,0,0,1.28,1.63,1.15,1.15,0,0,1,.36,1.74l-.44.74a21,21,0,0,0-2.09.28c-.94-.39-1.09-1-.54-1.85C112,103.83,111.85,103.22,111.75,102.62Z"/><path class="cls-64" d="M114.24,112.27c-.19-.61-.36-1.22-.52-1.84l1.56-2.51,1,4.15A7.51,7.51,0,0,1,114.24,112.27Z"/><path class="cls-65" d="M110.69,106.7l-.27.83.25-.86Z"/><path class="cls-66" d="M112.07,104.43a7.87,7.87,0,0,1,.54,1.85l-1.92.42,0,0Z"/><path class="cls-22" d="M106.29,114.23l2.21,1.8c-.34.76-.78,1.1-1.33,1s-.87-.23-.92-.44c-.69.17-1.38.32-2.08.46l0,0a1.34,1.34,0,0,1-.49-2.13Z"/><path class="cls-67" d="M103.72,115c.16.71.33,1.42.49,2.13l-2.12.47Z"/><path class="cls-1" d="M95.59,99.12l2.23-.38a18,18,0,0,0,.36,2.05Z"/><path class="cls-68" d="M113.11,117.25c1.19.44,1.37,1.12.49,2.06l-1.08-.83Z"/><path class="cls-69" d="M110.44,115.65a6.25,6.25,0,0,1,2.09-.36c.21.65.4,1.3.58,2h0a1.57,1.57,0,0,1-1.38.83c-.54,0-.83-.11-.86-.26a1.56,1.56,0,0,1-.35-2.25Z"/><path class="cls-70" d="M112.82,114.7l1.35-1.9a16.77,16.77,0,0,1,.36,1.74A4,4,0,0,1,112.82,114.7Z"/><path class="cls-71" d="M111.05,117.68c.68-.12,1.36-.27,2-.44.17.69.35,1.38.52,2.07l-2.16.52v0l-1.13-.89C110.55,118.5,110.8,118.09,111.05,117.68Z"/><path class="cls-19" d="M110.49,115.56c.19.71.38,1.41.56,2.12l-.25.09c-.31.66-.71,1-1.2.88s-.76-.21-.81-.39l-2.54-1.65,2.25-.58C109.17,115.9,109.83,115.75,110.49,115.56Z"/><path class="cls-72" d="M108.79,118.26c.67-.18,1.34-.34,2-.5a21,21,0,0,1,.64,2Z"/><path class="cls-73" d="M128.74,118l-.54-2.06C129.41,116.36,129.64,117,128.74,118Z"/><path class="cls-34" d="M115.14,105.26l-.27-.85-.09-.89,2.08,1.26A5.72,5.72,0,0,1,115.14,105.26Z"/><path class="cls-74" d="M120.34,91.21c.18.71.35,1.41.52,2.12l-2.51-1.57C119,91.56,119.67,91.37,120.34,91.21Z"/><circle cx="260" cy="259.08" r="33"/><path class="cls-1" d="M232.54,274c-.31-1.59-.61-3.17-.92-4.75l1.27-.51a9.81,9.81,0,0,1,2.76,0c3.21.14,6.55-.38,9.35,1.83,1,1.1.76,2.51,1.06,3.8s1.5,1.33.51.28,1.21-1.26-.16-.83c-.09-1.05.1-2.08-.45-3a16.64,16.64,0,0,0-3-2,7.2,7.2,0,0,1-2.38-4.77c.28-4.91,1.58-8.94,7.62-8.91a6.38,6.38,0,0,1,2.62,1.15,5.71,5.71,0,0,1,1.34,2.29c.15,1.56-.48,3.12-.07,4.7.41.7.78,1.4,1.22,2.07a8.77,8.77,0,0,0,2.9,2.56,6.73,6.73,0,0,0,3.86.35c2.05-.63,3.75-2,5.69-2.89,2.17-.82,4.33-1.69,6.72-1,3.63,3.57-.44,6.73-.52,10.09a12.62,12.62,0,0,0-.31,3.29,7,7,0,0,0,2.66,1.87,6.44,6.44,0,0,1,1.88,1.76,4.2,4.2,0,0,1,.12,4,5.39,5.39,0,0,1-5.2,2.43h0c-1.25-.15-2.51.05-3.73-.13a3,3,0,0,0-2.11.33,4,4,0,0,1-3.1.37,8.68,8.68,0,0,0-3.09-.06c-1.07.27-2,.83-3.1,1.15-.42,0-.81-.09-1.24-.15-.87-.3-1.71-.57-2.59-.81C244.16,285.64,235.73,283.31,232.54,274Z"/><path class="cls-2" d="M256.72,227c6.42-1.94,11.51,1.13,16.56,4.38-.18,1.91,1.39,2.43,2.58,3.26,6.44,2.82,9.37,9.11,13.78,13.94a4.15,4.15,0,0,1,1.15,4.79,6.7,6.7,0,0,1-4,1.24c-3.79,0-8-1.88-10.81,2.52a11.17,11.17,0,0,1-3.08,2.93,5.21,5.21,0,0,1-2.9.15,8.35,8.35,0,0,1-4.22-4.1c-1-2.32-1.83-4.66-1.55-7.24a5.68,5.68,0,0,1,1.62-2.48c-1.23-.25-1.73.93-2.61,1.37-1.2.6-2.37,1.29-3.58,1.86-3.21,1.06-5.69,3.84-9.28,4a3.79,3.79,0,0,1-2.56-1.18,5.2,5.2,0,0,1-.23-4.21,10.36,10.36,0,0,1,1.26-2.51,10.74,10.74,0,0,1,2-1.92,14.7,14.7,0,0,1,2.32-1.31,25,25,0,0,0,3.43-1.82c.67-.51,1.37-1,2.08-1.42a12,12,0,0,1,3-1.5c.54-.14,1.12-.3,1.64-.46a6.68,6.68,0,0,1-1.8-.24,4.7,4.7,0,0,1-1.82-.93,7.43,7.43,0,0,1-1.42-1.65,21.62,21.62,0,0,1-1.55-3,8.8,8.8,0,0,1-.65-2.25A3.52,3.52,0,0,1,256.72,227Z"/><path class="cls-3" d="M247.91,251.18l1.3,1.68L249,254l-.92.75a8.58,8.58,0,0,1-2.32.14c-.75-.09-1.51-.17-2.27-.2l-2.25.61a6,6,0,0,1-2.38,0,7.87,7.87,0,0,1-2.15-1.12,12.15,12.15,0,0,1-1.74-1.7,11.61,11.61,0,0,1-1.39-2,17.06,17.06,0,0,0-1.93-3,13.47,13.47,0,0,1,5.68-9.93,10.34,10.34,0,0,0,3.9-.94c4.22-2.53,7.91-7.2,13.69-3.37a7.63,7.63,0,0,1,1.67,2.2,8.81,8.81,0,0,1,.49,4,9.42,9.42,0,0,1-1.52,3.64,2.41,2.41,0,0,1-2.23.94h0c-1.88-.06-3.34.41-3.4,2.67v0C249.83,248.53,248,249.46,247.91,251.18Z"/><path class="cls-4" d="M289.64,248.57c-7.39-2.63-9.72-11.15-16.67-14.29a1.94,1.94,0,0,1,.92-1.54c.53-.31.84-.41.93-.29l-.08-.2c.54,1.13,1.83.79,2.67,1.33C283.4,237,288.13,241.48,289.64,248.57Z"/><path class="cls-5" d="M289.83,269.74a1.36,1.36,0,0,1-.87,1.53,9.88,9.88,0,0,1-1.37,1.92,6.58,6.58,0,0,1-2.31.52,5.89,5.89,0,0,1-3.24-1.37,3.5,3.5,0,0,1-.78-4.18c.05-1,2.29.2,1.6-1.6a13.06,13.06,0,0,1-.41-2.23,7.86,7.86,0,0,1,.44-3.6,6.14,6.14,0,0,1,1.73-1.89,5.22,5.22,0,0,1,2.52-.55,4.83,4.83,0,0,1,2.93,2.34,8.42,8.42,0,0,1,.56,3.61c-.28,1.11-.94,2.12-.91,3.31A3.64,3.64,0,0,1,289.83,269.74Z"/><path class="cls-6" d="M230.47,264.2a1.33,1.33,0,0,1-.37-1.85,3.74,3.74,0,0,1,.09-2.49l0-.16c-.08-1,.18-2,0-3.06v.1a8.53,8.53,0,0,1,1.21-2.34,4.57,4.57,0,0,1,2.2-1.38,5.62,5.62,0,0,1,2.54.3l1.12.56.93.78c.19.33.39.68.59,1a5.52,5.52,0,0,1-.2,2.14c-.17.62-.39,1.24-.57,1.85a3.6,3.6,0,0,0,.35,1.81,5.4,5.4,0,0,1,1,1.86c0,.39,0,.75,0,1.14s-.28.73-.43,1.11a7.18,7.18,0,0,1-1.67,1.85,6.8,6.8,0,0,1-2.42.93,5.09,5.09,0,0,1-2.52-.76C231.28,266.67,230.29,265.75,230.47,264.2Z"/><path class="cls-7" d="M289.73,262.67,287,258.94a4.21,4.21,0,0,1,.79-6l3,.39,1.73,9.35-.39,1.3-1.25.53-1.25-.52C289.66,263.57,289.7,263.12,289.73,262.67Z"/><path class="cls-7" d="M284.64,280.38l-7,5.37c-1.63,1.56-2.39,2.15-4.49,2.58-.59-.24-1.64,0-2.06-.44l4.9-4.43a22.29,22.29,0,0,1,.88-2.77A12,12,0,0,1,281,276.6a7.73,7.73,0,0,1,4.24-1.14c.45.2,1.39-.72,1.84-.52.31.46-.48,2.17-.33,2.71A7.79,7.79,0,0,1,284.64,280.38Z"/><path class="cls-8" d="M240.38,238l-3-.34c2.6-3.65,5.58-6.81,10.2-7.82a1.85,1.85,0,0,1,1.17,2.66C246.06,234.51,244,237.51,240.38,238Z"/><path class="cls-7" d="M262,286.59l3,.08a1.47,1.47,0,0,1,1.83-.91l4.32,2.12c-2.7,2.68-6.09,2.29-9.43,2.13a2.25,2.25,0,0,1-1.85-2A1.89,1.89,0,0,1,262,286.59Z"/><path class="cls-9" d="M231.68,247.6c2.54-1.84,3.57-.64,3.91,2a3.18,3.18,0,0,1-1.51,3.34c-.81.36-1.6.75-2.38,1.17l-1.29-.27.58-3.08c.2-1,.39-2,.63-3Z"/><path class="cls-10" d="M256.72,227l1.6,2.58a3.66,3.66,0,0,1-1.87,2.29c-2.42.19-5.26,1.53-6.26-2.24a4.62,4.62,0,0,1,2.42-1.79C253.84,226.88,255.1,226.09,256.72,227Z"/><path class="cls-11" d="M230.2,267.76a1.47,1.47,0,0,0-.57-1.77,14.59,14.59,0,0,0,.84-1.79l3.15,3.67-.09.85-.79.33a4.67,4.67,0,0,0-1.12.17C231.16,268.72,230.69,268.24,230.2,267.76Z"/><path class="cls-3" d="M252.61,227.83l-1.75,2.11a1.74,1.74,0,0,1-2.14,1.42c-.39-.5-.78-1-1.16-1.51C248.91,228.34,250.46,227.33,252.61,227.83Z"/><path class="cls-12" d="M288.76,268.26l.7-3.17.82-1.11.68.08,1.19.41-.23,1.24a10.17,10.17,0,0,0-1.53,1.4c0,.79-.23,1.22-.71,1.3S288.9,268.43,288.76,268.26Z"/><path class="cls-2" d="M277.41,233.58l-2.67-1.33Z"/><path class="cls-13" d="M274.82,232.45,273,234.28c.1-1,.21-1.94.31-2.91A1.32,1.32,0,0,1,274.82,232.45Z"/><path class="cls-14" d="M287.72,274.13l-1.09,1.93.08-.68-.66-.2a1.46,1.46,0,0,1-1.36-1.57,1.67,1.67,0,0,1,2-.73v0C287.68,272.78,288,273.21,287.72,274.13Z"/><path class="cls-15" d="M287.72,274.13l-.54-.62-.46-.67,2.24-1.57C288.54,272.22,288.13,273.17,287.72,274.13Z"/><path class="cls-3" d="M231.62,247.74l-.63,3A2.09,2.09,0,0,1,231.62,247.74Z"/><path class="cls-11" d="M232.11,255.35l-2,1.39c.09-1,.18-2,.26-3a1.21,1.21,0,0,1,1.17-.64A1.93,1.93,0,0,1,232.11,255.35Z"/><path class="cls-15" d="M288.76,268.26a9.38,9.38,0,0,1,1.63-1.15c-.19.88-.38,1.76-.56,2.63C289.45,269.26,289.1,268.77,288.76,268.26Z"/><path class="cls-11" d="M230.16,256.64v0Z"/><path class="cls-11" d="M230.19,259.86l-.09,2.49Z"/><path class="cls-16" d="M282.69,267.7l1,4.68c0,.42,0,.84-.05,1.27a10.28,10.28,0,0,1-2.2,4.52,23,23,0,0,1-4.17,3c-1.36.18-2.5-.59-3.77-.82l-1.71,1.29a2.2,2.2,0,0,1-1.77-1.12,2.33,2.33,0,0,1,.61-2c.74-1.09-.77-.68-.84-1.23a1.91,1.91,0,0,1-.27-2c-1.74-4.14,3-6.76,2.47-10.62a1.92,1.92,0,0,1-1.76-1.32,4.57,4.57,0,0,1,.32-2.37l.85-.87,1.63-1.31a2.76,2.76,0,0,1,2.66,1.76c.2.09.08.77.16.46.34-1.38.44.68.93-.7a5.08,5.08,0,0,1,2.51,0c2.39,1.37,4.85,2.66,5.11,5.86l0,.2c-.08.69-.36,1.12-.84,1.26S282.79,267.84,282.69,267.7Z"/><path class="cls-11" d="M237,265.27l1.71-1.4a2.38,2.38,0,0,1,3,.36l4,5.11a1.31,1.31,0,0,1-.83,1.26c-.47.17-.76.18-.86.06-3.6.47-7.28,2.63-10.7-.52a12.71,12.71,0,0,1,.3-2.3v0l1.75-1.33c.71.16,1.18,0,1.43-.4S237.11,265.42,237,265.27Z"/><path class="cls-17" d="M250.38,257.49a18.12,18.12,0,0,1-1.44-1.59c.08-.45.15-.9.23-1.35a75,75,0,0,1,6.2-5.08,4,4,0,0,1,2.26-.72,2.65,2.65,0,0,1,1.51,1.53c-.11.33-.2.68-.28,1a5.64,5.64,0,0,1,2.18-.42,4.36,4.36,0,0,1,2.14.94,4.88,4.88,0,0,1,.93,2.31,6.86,6.86,0,0,1-1.08,3.81,8,8,0,0,1-3.33,2.61,6.78,6.78,0,0,1-2.9.27C254.3,260.4,253,257.73,250.38,257.49Z"/><path class="cls-18" d="M244,270.66l1.69-1.32,3,.53c-.11.93-.22,1.87-.32,2.8-.85,2.19,4.15,1.49,2.1,4.53-1.49,2.21-3.24,2.4-5.38,1.8-2.64-.75-1.36-2.58-1.12-4.21A28.43,28.43,0,0,0,244,270.66Z"/><path class="cls-19" d="M254.83,270.64c-3.27-.23-3.44-2.9-4.06-5.2a1.31,1.31,0,0,0-1.36-1.73c-2.79-2.87,1.18-2.89,1.82-4.32,1.32-3,2.83-1.21,4.3-.17a22.5,22.5,0,0,0,1.91,2,5.15,5.15,0,0,1,.62,2.58,14.65,14.65,0,0,1-1,3.79A8.49,8.49,0,0,1,254.83,270.64Z"/><path class="cls-6" d="M241.69,264.23l-3-.36h0a7.44,7.44,0,0,0,0-2.62,8.46,8.46,0,0,1-.57-5.16v0c-.26-1.5.3-1.94,1.69-1.33l1.72-1.38,1-.39a5.94,5.94,0,0,1,2.1.11l1,.32a4.15,4.15,0,0,0,1.94.79h0c1.43-.27,1.9.29,1.42,1.66v0C244.23,256.68,244.16,261.5,241.69,264.23Z"/><path class="cls-20" d="M271.22,263.11c.25.55.52,1.08.81,1.6-1.81,1.32-3.4,3.08-5.94,2.84l-1.07-.12-.65-.85a4.33,4.33,0,0,1-.17-2.08,9.08,9.08,0,0,0-.95-3.06c0-.41,0-.8,0-1.21.19-.38.38-.73.58-1.11a5,5,0,0,1,2.21-1.3c2.12-.14,3.2,1.32,4.3,2.76A4.6,4.6,0,0,1,271.22,263.11Z"/><path class="cls-21" d="M264.59,265.49l1.5,2.06c-1.54,1.55-2.11,4.42-5.23,3.78a5.51,5.51,0,0,1-4.12-3.54,4.53,4.53,0,0,1,.35-2.76,5.27,5.27,0,0,1,3.86-1.49,6.49,6.49,0,0,1,2.66.91C263.94,264.79,264.27,265.14,264.59,265.49Z"/><path class="cls-22" d="M256.83,266.07c1.35,1.75,2.69,3.51,4,5.26l-6-.7.33-3.23c.09-.46.17-.93.26-1.39Z"/><path class="cls-23" d="M256.39,261.37l-5.16-2a3.25,3.25,0,0,1-.85-1.9c3.54-2.17,5.4.25,7.26,2.66l-.24,1Z"/><path class="cls-24" d="M269.55,275.33,270.9,277c1,.18,1.43.74,1.18,1.75-.55.41-1.07.83-1.58,1.28,0,.78-.29,1.23-.8,1.34s-.81.08-.94-.08C267.31,279.05,267.46,277.06,269.55,275.33Z"/><path class="cls-15" d="M273.53,280.37l3,.37c1.46-.28,1.9.27,1.29,1.63L276,283.46Z"/><path class="cls-25" d="M260.36,288.23l-3.05-.6.23-.5.35-.92,1,.11,3.12.27Z"/><path class="cls-15" d="M268.76,281.25q.89-.62,1.74-1.26l1.32,1.67Z"/><path class="cls-26" d="M249.41,263.71c1.34-.13,1.76.48,1.36,1.73Z"/><path class="cls-27" d="M266.8,285.76a4,4,0,0,1-1.83.91,7.19,7.19,0,0,1,1-1.19C266.08,285.38,266.51,285.66,266.8,285.76Z"/><path class="cls-28" d="M248.38,272.67c.1-.93.21-1.87.32-2.8C248.59,270.8,248.48,271.74,248.38,272.67Z"/><path class="cls-11" d="M258.87,286.32a7.55,7.55,0,0,1-1.33.82,5.77,5.77,0,0,1,.61-1.09C258.2,286,258.62,286.22,258.87,286.32Z"/><path class="cls-29" d="M233.62,267.84l-.3,2.3a2.32,2.32,0,0,1-.58-1.09A4.23,4.23,0,0,1,233.62,267.84Z"/><path class="cls-30" d="M287.78,253c-.26,2-.53,4-.79,6l-1.81,1.35c-1.83-.25-3.76-.19-5.22-1.55-.93-.24.48-2.15-1.27-1.85a3,3,0,0,1-1.65,2.7,3.11,3.11,0,0,1-2.28-.5,3.94,3.94,0,0,1-1.33-3.3C277.06,249,282.15,249.6,287.78,253Z"/><path class="cls-31" d="M259.27,247.88l10.51-10.34c1.15,6.07-1.85,8.78-4.86,11.48a2,2,0,0,1-.74,1.4q-.66.51-.75.39a15,15,0,0,1-3.69-.79c-.29-.31-.57-.63-.85-.94C259,248.68,259.15,248.28,259.27,247.88Z"/><path class="cls-32" d="M255.05,242.82l.38-3a3.85,3.85,0,0,1,.89-2,3.79,3.79,0,0,1,1.67-1.45c1.11-.28,2.2.16,3.31.08a8.25,8.25,0,0,1,2.16-.2h.14a1.44,1.44,0,0,1,1.26,1.69l-5.15,4a3.25,3.25,0,0,0-2.35.5A2.47,2.47,0,0,1,255.05,242.82Z"/><path class="cls-33" d="M263.12,249.56a4.38,4.38,0,0,0,1.8-.54c1.73,1.63,2.94,3.49,2.8,6a2.14,2.14,0,0,1-2.24,1.89,3.81,3.81,0,0,1-2.46-3.83c-.43-.5-.88-1-1.34-1.48l-.4-1A2.84,2.84,0,0,1,263.12,249.56Z"/><path class="cls-34" d="M249,255.92l-1.42-1.66c.56-.47,1.12-.94,1.69-1.4,3.16-2,5.48-5.78,10-5l-.42.49c.2.75.08,1.2-.37,1.37s-.77.19-.9,0Z"/><path class="cls-35" d="M265.71,256.4l2-1.39,3.71,5.14H271c.13.74,0,1.18-.47,1.33s-.77.15-.89,0l-4.52-2.09-1.31-.55c-.1-.46-.2-.92-.31-1.39A1.7,1.7,0,0,1,265.71,256.4Z"/><path class="cls-36" d="M250,246.84c-.57-1.06-1.76-2.37-.18-3.16.89-.44,2.36.29,3.58.49Z"/><path class="cls-37" d="M273.43,255.79l2.75,3.38a1.27,1.27,0,0,1,1.17,1.73l-1.63,1.33h0q-1.33-1.71-2.68-3.4C273.19,257.82,273.31,256.81,273.43,255.79Z"/><path class="cls-38" d="M256.47,230.62a16.9,16.9,0,0,1,1.85-1.05,15.64,15.64,0,0,0,1.2,1.49,3.57,3.57,0,0,1-1.57,2.58c-1.09.25-2.28.15-2.78-.8S255.32,231,256.47,230.62Z"/><path class="cls-39" d="M259,237.14l-1.86,1.36a1.33,1.33,0,0,1-1.28-1.73l.05,0c-.15-1.56.88-2.24,2.07-2.8l1.26.24c.44.54.88,1.07,1.33,1.59-.07.45-.13.91-.19,1.36Z"/><path class="cls-40" d="M247.91,251.18l2.07-4.36Z"/><path class="cls-41" d="M255.05,242.82c.57-.43,1.14-.86,1.7-1.31a1.35,1.35,0,0,1,1.36,1.67l-4.75,1Z"/><path class="cls-42" d="M258.11,243.18c-.46-.55-.91-1.1-1.36-1.67l3,.38C259.18,242.33,258.65,242.76,258.11,243.18Z"/><path class="cls-43" d="M263.46,236.2q-.76.66-1.56,1.29c-1-.09-1.54-.63-1.37-1.7v0Z"/><path class="cls-44" d="M257.92,232.47c.54-.47,1.07-.93,1.6-1.41-.11,1.06-.21,2.11-.32,3.17l0,0C257.91,234.23,257.49,233.66,257.92,232.47Z"/><path class="cls-45" d="M264.86,237.9c-.43-.56-.85-1.12-1.26-1.69C264.92,236.1,265.28,236.71,264.86,237.9Z"/><path class="cls-46" d="M257.92,232.47l1.25,1.72-3.3,2.6c-5.72-6.71-10.22,2.17-15.49,1.22l8.34-6.65,2.13-1.42,5.62.68C256.14,231.88,256.59,232.52,257.92,232.47Z"/><path class="cls-47" d="M232,252.69l3.62-3.14,1.54,1.84c-.29,1,.68,2.12-.32,3l-3.18-.35A1.53,1.53,0,0,1,232,252.69Z"/><path class="cls-48" d="M243.22,252.15l2.84.28c.06.75-.15,1.2-.62,1.38s-.79.2-.91.06h0l-1.35-.32Z"/><path class="cls-1" d="M244.53,253.87a9,9,0,0,0,1.53-1.43l1.49,1.81Z"/><path class="cls-49" d="M255.82,236.77c.43.57.85,1.15,1.28,1.73-.55.44-1.11.87-1.67,1.3Z"/><path class="cls-50" d="M241.52,253.42a8.8,8.8,0,0,1,.77-1.46c.09-.11.61.11.93.19h.1a1.42,1.42,0,0,1-.95,1.29c-.5.15-.81.15-.92,0Z"/><path class="cls-51" d="M236.81,254.43c.1-1,.21-2,.32-3l1.34,1.72c0,.77-.24,1.23-.75,1.37s-.81.12-.94,0Z"/><path class="cls-52" d="M236.78,254.43l1.69-1.32c.45.56.89,1.13,1.33,1.69l-1.69,1.33Z"/><path class="cls-53" d="M277.35,260.9l-1.17-1.73,1.6-1.29c2.21.78,4.93.77,5.7,3.74.32,1.53.63,3.06.95,4.6Z"/><path class="cls-54" d="M283.48,261.62l-5.7-3.74c.12-1,.23-2,.34-3a1.32,1.32,0,0,1,1.37,1.64l5.69,3.78Z"/><path class="cls-15" d="M286.72,272.88A20,20,0,0,0,285,274.1a1.31,1.31,0,0,1-1.34-1.66l0-.06Z"/><path class="cls-55" d="M282.69,267.7c.56-.45,1.13-.87,1.72-1.28a8.28,8.28,0,0,1-.79,1.47C283.53,268,283,267.77,282.69,267.7Z"/><path class="cls-9" d="M290.28,264a7,7,0,0,1-.83,1.11c.1-.81.19-1.62.28-2.43A7.53,7.53,0,0,1,290.28,264Z"/><path class="cls-1" d="M238.11,256.1c1.39,1.92,3.14,3.71,2.28,6.43a13.17,13.17,0,0,1-3-.38l0,0a1.58,1.58,0,0,1-1.88-1c-.08-1.27.73-2.31.93-3.51Z"/><path class="cls-11" d="M236.05,260.41l1.32,1.72c-1.05.59-2.34,1.85-3.14.24-.44-.87.33-2.36.56-3.57C235.8,258.88,236.25,259.39,236.05,260.41Z"/><path class="cls-9" d="M232,252.69l1.66,1.39c-.5.44-1,.86-1.52,1.28-.18-.74-.36-1.47-.53-2.2Z"/><path class="cls-56" d="M236.05,260.41l-.64-.79-.62-.82a14.54,14.54,0,0,1,1.63-1.2C236.3,258.54,236.17,259.47,236.05,260.41Z"/><path class="cls-11" d="M237.4,262.15l3,.38-1.69,1.35Z"/><path class="cls-57" d="M237,265.27a9,9,0,0,1-.74,1.45c-.07.1-.58-.11-.89-.18C235.9,266.09,236.44,265.67,237,265.27Z"/><path class="cls-58" d="M283.7,272.44,285,274.1c.33.36.66.72,1,1.08l-3.21,3.05c-1.34.27-1.7-.26-1.21-1.49Z"/><path class="cls-59" d="M281.63,276.74c.4.51.8,1,1.21,1.49l-5,4.15-1.29-1.64Q279.11,278.75,281.63,276.74Z"/><path class="cls-60" d="M269.66,261.48c.46-.43.92-.87,1.36-1.32.07,1,.13,2,.2,2.95Z"/><path class="cls-61" d="M275.72,262.23l.14.85-.12-.84Z"/><path class="cls-15" d="M272.08,278.71c-.38-.59-.78-1.17-1.18-1.75C272.24,276.92,272.6,277.52,272.08,278.71Z"/><path class="cls-62" d="M256.39,261.37c.4-.43.82-.83,1.25-1.22A15.26,15.26,0,0,0,259,259a2.68,2.68,0,0,1,3.22,1.53,3.2,3.2,0,0,1-.09,2.54,3.36,3.36,0,0,1-2.4.85,3.62,3.62,0,0,1-2.19-1.31A10.36,10.36,0,0,0,256.39,261.37Z"/><path class="cls-63" d="M261.91,262.13,259,259l3.65-3c1.09-.1,1.48.41,1.25,1.45l.17.5a16.32,16.32,0,0,1-.42,2.3v.66A1.49,1.49,0,0,1,261.91,262.13Z"/><path class="cls-33" d="M257.58,249.77a8.46,8.46,0,0,1,1.27-1.4,5.88,5.88,0,0,0,1.85.94,1.14,1.14,0,0,1,1.07,1.42l-.09.85a20.51,20.51,0,0,0-1.77,1.14c-1,.05-1.42-.46-1.28-1.44Z"/><path class="cls-64" d="M263.92,257.46c-.42-.48-.84-1-1.25-1.45.12-1,.23-2,.35-2.94l2.69,3.33A7.68,7.68,0,0,1,263.92,257.46Z"/><path class="cls-65" d="M258.35,253.91l.11.87-.14-.88Z"/><path class="cls-66" d="M258.63,251.28a7.34,7.34,0,0,1,1.28,1.44l-1.56,1.19h0C258.42,253,258.53,252.15,258.63,251.28Z"/><path class="cls-22" d="M257.55,262.6l2.76.69c0,.83-.24,1.33-.77,1.49s-.88.16-1,0c-.56.45-1.12.88-1.7,1.3h.05a1.34,1.34,0,0,1-1.34-1.73Z"/><path class="cls-67" d="M255.54,264.35c.44.58.89,1.15,1.34,1.73l-1.72,1.32C255.28,266.38,255.41,265.37,255.54,264.35Z"/><path class="cls-1" d="M241.45,253.45l1.87-1.3a15.79,15.79,0,0,0,1.19,1.71Z"/><path class="cls-68" d="M265,262.45c1.26-.11,1.71.43,1.32,1.65l-1.33-.29Z"/><path class="cls-69" d="M261.91,262.13a6,6,0,0,1,1.75-1.21c.46.5.91,1,1.34,1.53h0a1.6,1.6,0,0,1-.9,1.34c-.5.2-.8.25-.89.13a1.57,1.57,0,0,1-1.27-1.89Z"/><path class="cls-70" d="M263.67,260.26c.14-.77.27-1.54.41-2.3a16.12,16.12,0,0,1,1.07,1.43A4,4,0,0,1,263.67,260.26Z"/><path class="cls-71" d="M263.33,263.71q.84-.6,1.65-1.26l1.35,1.65-1.74,1.39,0,0-1.4-.32C263.22,264.66,263.28,264.18,263.33,263.71Z"/><path class="cls-19" d="M261.92,262l1.41,1.68-.19.18c0,.73-.24,1.17-.72,1.31s-.78.14-.89,0l-3-.42,1.78-1.48C260.87,262.9,261.4,262.47,261.92,262Z"/><path class="cls-72" d="M261.53,265.19c.53-.44,1.07-.88,1.61-1.3.5.5,1,1,1.43,1.57Z"/><path class="cls-73" d="M279.49,256.51l-1.37-1.65C279.4,254.73,279.89,255.25,279.49,256.51Z"/><path class="cls-34" d="M261.77,250.73l-.61-.66-.46-.76,2.42.25A5.8,5.8,0,0,1,261.77,250.73Z"/><path class="cls-74" d="M260.53,235.79c.45.57.91,1.14,1.37,1.7l-2.94-.35C259.47,236.67,260,236.23,260.53,235.79Z"/><circle cx="257.96" cy="110" r="33"/><path class="cls-1" d="M263.34,140.77l-4.79-.63c0-.46-.05-.92-.08-1.38a9.53,9.53,0,0,1,.92-2.59c1.15-3,1.72-6.34,4.71-8.29,1.34-.56,2.62.08,3.93.21s1.74-1,.44-.4-.82-1.55-.85-.11a6.67,6.67,0,0,0-3-.53,16.56,16.56,0,0,0-2.84,2.22,7.16,7.16,0,0,1-5.28.74c-4.57-1.82-8-4.35-6-10.06a6.38,6.38,0,0,1,1.91-2.12,5.85,5.85,0,0,1,2.61-.54c1.52.35,2.79,1.45,4.43,1.56.79-.16,1.56-.29,2.34-.5a8.68,8.68,0,0,0,3.36-1.93,6.79,6.79,0,0,0,1.56-3.55c.05-2.15-.69-4.19-.93-6.31-.09-2.32-.23-4.65,1.2-6.69,4.54-2.3,6.24,2.56,9.41,3.71a12.51,12.51,0,0,0,3,1.33A6.93,6.93,0,0,0,282,103a6.77,6.77,0,0,1,2.27-1.23,4.23,4.23,0,0,1,3.88,1.18,5.39,5.39,0,0,1,.65,5.7h0c-.54,1.13-.75,2.39-1.31,3.49a3,3,0,0,0-.35,2.1,4,4,0,0,1-.64,3.06,8.9,8.9,0,0,0-1,2.91c-.08,1.1.14,2.19.11,3.31-.18.38-.35.74-.54,1.12-.57.73-1.08,1.44-1.59,2.2C278.11,133.47,273.22,140.72,263.34,140.77Z"/><path class="cls-2" d="M226.49,102.91c.2-6.71,4.74-10.56,9.42-14.31,1.75.78,2.75-.55,3.92-1.41,4.72-5.2,11.61-6,17.6-8.63a4.14,4.14,0,0,1,4.9.44,6.74,6.74,0,0,1-.09,4.19c-1.18,3.6-4.34,7-1.05,11a11.5,11.5,0,0,1,1.8,3.85,5.23,5.23,0,0,1-.79,2.8,8.25,8.25,0,0,1-5.23,2.69c-2.49.18-5,.26-7.35-.82a5.66,5.66,0,0,1-1.83-2.33c-.63,1.09.33,1.94.46,2.91.19,1.33.47,2.65.63,4,0,3.38,1.83,6.61.84,10.06a3.75,3.75,0,0,1-1.93,2.06,5.22,5.22,0,0,1-4.06-1.12,10.66,10.66,0,0,1-2-2,10.27,10.27,0,0,1-1.2-2.47,14.16,14.16,0,0,1-.5-2.61,26.37,26.37,0,0,0-.63-3.83c-.28-.79-.49-1.61-.69-2.42a11.73,11.73,0,0,1-.45-3.36c0-.56.06-1.17.08-1.7a6.71,6.71,0,0,1-.81,1.63A4.6,4.6,0,0,1,236.1,103a7.87,7.87,0,0,1-2,.82,22.45,22.45,0,0,1-3.37.5,8.36,8.36,0,0,1-2.34-.1A3.52,3.52,0,0,1,226.49,102.91Z"/><path class="cls-3" d="M246.63,119l2-.7,1.06.55.42,1.11a8.81,8.81,0,0,1-.6,2.25c-.33.68-.64,1.37-.92,2.08,0,.78-.09,1.55-.13,2.33a5.85,5.85,0,0,1-.74,2.26,8,8,0,0,1-1.74,1.69,11.68,11.68,0,0,1-2.17,1.11,12.19,12.19,0,0,1-2.3.69,16.42,16.42,0,0,0-3.44.89c-3.71-1.81-6.44-4.49-7.61-8.55.55-1.3.32-2.66.35-4-1.05-4.8-4.31-9.79,1.16-14a7.9,7.9,0,0,1,2.62-.89,8.84,8.84,0,0,1,4,.83,9.23,9.23,0,0,1,3,2.59,2.39,2.39,0,0,1,.18,2.42v0c-.66,1.77-.68,3.3,1.45,4.07h0C244.72,116.29,245,118.28,246.63,119Z"/><path class="cls-4" d="M257.43,78.56c-4.85,6.17-13.67,5.67-18.85,11.26a1.94,1.94,0,0,1-1.17-1.36c-.13-.6-.12-.93,0-1h-.22c1.25-.16,1.33-1.48,2.11-2.11C244.48,80.8,250.22,77.74,257.43,78.56Z"/><path class="cls-5" d="M277.56,85.12a1.35,1.35,0,0,1,1.17,1.31,10,10,0,0,1,1.39,1.9,7,7,0,0,1-.24,2.36,6,6,0,0,1-2.33,2.64,3.51,3.51,0,0,1-4.22-.59c-.95-.38.92-2.12-1-2a12.84,12.84,0,0,1-2.25-.32,7.83,7.83,0,0,1-3.27-1.57,5.88,5.88,0,0,1-1.24-2.24,5.21,5.21,0,0,1,.27-2.56A4.9,4.9,0,0,1,269,82a8.55,8.55,0,0,1,3.6.61c1,.63,1.71,1.57,2.85,1.92A3.68,3.68,0,0,1,277.56,85.12Z"/><path class="cls-6" d="M253.43,139.63a1.35,1.35,0,0,1-1.88-.23,3.79,3.79,0,0,1-2.33-.89l-.16,0c-1-.24-1.88-.82-2.9-1l.09,0a8.2,8.2,0,0,1-1.83-1.89,4.57,4.57,0,0,1-.62-2.52,5.85,5.85,0,0,1,1.1-2.32l.89-.88,1-.63,1.15-.24a5.53,5.53,0,0,1,2,.87c.52.35,1.05.76,1.57,1.13a3.49,3.49,0,0,0,1.82.23,5.6,5.6,0,0,1,2.07-.31c.37.1.72.21,1.09.33s.61.5.92.75a7.39,7.39,0,0,1,1.22,2.17,6.7,6.7,0,0,1,.11,2.6,5.2,5.2,0,0,1-1.52,2.15C256,139.65,254.84,140.3,253.43,139.63Z"/><path class="cls-7" d="M270.82,83l-4.4,1.41A4.22,4.22,0,0,1,261,81.72L262.33,79l9.42,1.33,1.1.78c0,.45.08.9.11,1.35l-.89,1Z"/><path class="cls-7" d="M286,93.42l2.87,8.33c1,2,1.29,3,1,5.09-.41.48-.48,1.56-1.07,1.8q-1.32-3-2.65-6a22.66,22.66,0,0,1-2.34-1.72,11.79,11.79,0,0,1-2.55-5.24,7.69,7.69,0,0,1,.26-4.38c.33-.37-.24-1.55.1-1.91.53-.15,1.9,1.15,2.46,1.17A7.7,7.7,0,0,1,286,93.42Z"/><path class="cls-8" d="M231.75,121.9l-1.29,2.76c-2.63-3.63-4.68-7.46-4.17-12.16a1.86,1.86,0,0,1,2.9-.26C230.24,115.41,232.44,118.27,231.75,121.9Z"/><path class="cls-7" d="M284.68,116.87l1-2.8a1.47,1.47,0,0,1-.28-2q1.69-1.7,3.38-3.41c1.68,3.41.24,6.5-1,9.61a2.25,2.25,0,0,1-2.44,1.13A1.89,1.89,0,0,1,284.68,116.87Z"/><path class="cls-9" d="M238.07,133.21c-.94-3,.53-3.6,3.09-3.09a3.18,3.18,0,0,1,2.69,2.49c.08.88.2,1.75.35,2.62-.22.38-.44.76-.67,1.14l-2.73-1.53c-.88-.5-1.76-1-2.62-1.53Z"/><path class="cls-10" d="M226.49,102.91l3-.7a3.65,3.65,0,0,1,1.58,2.51c-.6,2.35-.23,5.46-4.12,5.21a4.58,4.58,0,0,1-.92-2.85C225.47,105.6,225.13,104.15,226.49,102.91Z"/><path class="cls-11" d="M256.72,141a1.48,1.48,0,0,0-1.87,0,14.12,14.12,0,0,0-1.42-1.37l4.47-1.82.79.35.05.86a4.78,4.78,0,0,0-.19,1.12C257.93,140.42,257.32,140.71,256.72,141Z"/><path class="cls-3" d="M226,107.08l1.44,2.33a1.72,1.72,0,0,1,.66,2.47c-.59.22-1.19.42-1.8.62C225.3,110.74,224.83,109,226,107.08Z"/><path class="cls-12" d="M275.81,85.66,273,84l-.78-1.14.28-.61.77-1,1.1.61a10.76,10.76,0,0,0,.84,1.9c.75.24,1.08.6,1,1.08S276,85.58,275.81,85.66Z"/><path class="cls-2" d="M239.32,85.39l-2.11,2.11Z"/><path class="cls-13" d="M237.43,87.49c.38.77.76,1.55,1.15,2.33l-2.67-1.22A1.33,1.33,0,0,1,237.43,87.49Z"/><path class="cls-14" d="M281,88.51l1.49,1.65-.62-.3-.4.57a1.45,1.45,0,0,1-1.92.79,1.69,1.69,0,0,1,0-2.16h0Q279.89,87.66,281,88.51Z"/><path class="cls-15" d="M281,88.51l-.75.32-.78.22-.78-2.62Z"/><path class="cls-3" d="M238.18,133.31l2.62,1.53A2.08,2.08,0,0,1,238.18,133.31Z"/><path class="cls-11" d="M245.56,135.26l.69,2.3-2.72-1.19a1.22,1.22,0,0,1-.23-1.31A1.94,1.94,0,0,1,245.56,135.26Z"/><path class="cls-15" d="M275.81,85.66a9.12,9.12,0,0,1-.57-1.91l2.32,1.37C277,85.32,276.4,85.5,275.81,85.66Z"/><path class="cls-11" d="M246.16,137.52l2.9,1Z"/><path class="cls-11" d="M249.22,138.51l2.33.89Z"/><path class="cls-16" d="M273.35,91.24l4.77.51,1.18.45a10.26,10.26,0,0,1,3.59,3.52,22.82,22.82,0,0,1,1.53,4.92c-.25,1.34-1.35,2.18-2,3.31l.68,2a2.21,2.21,0,0,1-1.63,1.33,2.35,2.35,0,0,1-1.67-1.21c-.8-1-.89.51-1.44.41a1.9,1.9,0,0,1-2-.39c-4.48.33-5.45-5-9.29-5.72a1.93,1.93,0,0,1-1.81,1.25,4.63,4.63,0,0,1-2.14-1.05c-.19-.36-.37-.73-.55-1.09-.25-.65-.49-1.31-.73-2a2.76,2.76,0,0,1,2.51-2c.15-.15.76.17.49,0-1.19-.77.79-.2-.37-1.1a5.15,5.15,0,0,1,.8-2.39c2.06-1.82,4.07-3.74,7.18-3l.19.09c.63.29.94.69.92,1.2S273.51,91.18,273.35,91.24Z"/><path class="cls-11" d="M256.52,133.78l-.79-2.06A2.4,2.4,0,0,1,257,129l6.13-2.19a1.36,1.36,0,0,1,.93,1.19c0,.5-.07.78-.23.84-.69,3.56.19,7.73-3.89,10a12.48,12.48,0,0,1-2.08-1h0c-.23-.69-.47-1.39-.7-2.09.37-.61.4-1.1.07-1.47S256.69,133.72,256.52,133.78Z"/><path class="cls-17" d="M253.39,118.62a17.11,17.11,0,0,1-2,.86l-1.21-.65a76.22,76.22,0,0,1-2.84-7.49,4,4,0,0,1,0-2.37,2.65,2.65,0,0,1,1.94-1,10.22,10.22,0,0,0,.87.59,5.86,5.86,0,0,1,.3-2.2,4.36,4.36,0,0,1,1.57-1.73,4.89,4.89,0,0,1,2.49-.14,6.75,6.75,0,0,1,3.27,2.24,7.87,7.87,0,0,1,1.41,4,6.94,6.94,0,0,1-.66,2.83C257.4,115.83,254.45,116.24,253.39,118.62Z"/><path class="cls-18" d="M263.85,128.84c-.23-.68-.47-1.35-.7-2l1.45-2.66,2.55,1.2c1.81,1.5,2.73-3.47,5-.56,1.62,2.12,1.25,3.84,0,5.67-1.56,2.27-2.88.47-4.35-.27A26.91,26.91,0,0,0,263.85,128.84Z"/><path class="cls-19" d="M267.27,118.58c-1.25,3-3.83,2.34-6.21,2.2a1.32,1.32,0,0,0-2.08.74c-3.61,1.73-2.36-2-3.52-3.1-2.42-2.21-.24-3.06,1.21-4.13a22.89,22.89,0,0,0,2.51-1.17,5.06,5.06,0,0,1,2.64.23,14.23,14.23,0,0,1,3.27,2.15A8.37,8.37,0,0,1,267.27,118.58Z"/><path class="cls-6" d="M257,129l-1.29,2.72h0a7.51,7.51,0,0,0-2.49-.81,8.4,8.4,0,0,1-5.07-1.1h0c-1.5-.23-1.74-.9-.72-2l-.76-2.07-.05-1a6.06,6.06,0,0,1,.76-2l.63-.84a4.26,4.26,0,0,0,1.37-1.58v0c.21-1.45.88-1.72,2-.83h0C250.67,124.19,255.22,125.79,257,129Z"/><path class="cls-20" d="M265.36,100.65c.59-.07,1.18-.15,1.77-.26.67,2.13,1.84,4.2.8,6.54l-.45,1s-1,.34-1,.35a4.45,4.45,0,0,1-2-.5,9,9,0,0,0-3.2-.08l-1.16-.35-.86-.9a5,5,0,0,1-.54-2.5c.55-2.06,2.27-2.62,4-3.2A4.57,4.57,0,0,1,265.36,100.65Z"/><path class="cls-21" d="M265.5,107.69l2.43-.76c1,1.95,3.52,3.4,1.92,6.15a5.48,5.48,0,0,1-4.67,2.78,4.55,4.55,0,0,1-2.5-1.2,5.27,5.27,0,0,1-.19-4.14,6.56,6.56,0,0,1,1.72-2.23Z"/><path class="cls-22" d="M263.58,115.23l6.27-2.15-2.58,5.5-3-1.34-1.24-.69Z"/><path class="cls-23" d="M259,114.15c-1.17,1.42-2.34,2.85-3.52,4.27a3.28,3.28,0,0,1-2.07.2c-.92-4.05,2-5,4.84-6l.87.55Z"/><path class="cls-24" d="M276.41,106.12l2-.77a1.27,1.27,0,0,1,2-.55c.21.64.44,1.28.71,1.9.73.27,1.07.67,1,1.18s-.18.8-.37.87C279.22,109.43,277.38,108.65,276.41,106.12Z"/><path class="cls-15" d="M282.45,104l1.32-2.76c.2-1.48.86-1.72,2-.71.15.7.29,1.41.44,2.11Z"/><path class="cls-25" d="M285.71,118.93c-.51.9-1,1.8-1.54,2.71l-.39-.38-.77-.63.42-.89c.41-1,.83-1.92,1.25-2.87C285,117.55,285.37,118.24,285.71,118.93Z"/><path class="cls-15" d="M281.77,108.75c-.21-.69-.42-1.37-.64-2l2-.72C282.67,106.9,282.22,107.82,281.77,108.75Z"/><path class="cls-26" d="M259,121.52c.31-1.32,1-1.52,2.08-.74Z"/><path class="cls-27" d="M285.42,112a4,4,0,0,1,.28,2,7.32,7.32,0,0,1-.81-1.32C284.83,112.6,285.23,112.29,285.42,112Z"/><path class="cls-28" d="M267.15,125.35l-2.56-1.2Z"/><path class="cls-11" d="M283.43,119.74a7.14,7.14,0,0,1,.35,1.52,6.59,6.59,0,0,1-.84-.92C282.9,120.27,283.25,119.94,283.43,119.74Z"/><path class="cls-29" d="M257.88,137.8l2.08,1a2.33,2.33,0,0,1-1.22.21A4.21,4.21,0,0,1,257.88,137.8Z"/><path class="cls-30" d="M261,81.72l5.42,2.65c.23.72.46,1.43.7,2.15C266.3,88.18,265.74,90,264,91c-.53.8-1.88-1.15-2.15.61a3,3,0,0,1,2,2.42,3.12,3.12,0,0,1-1.19,2,3.94,3.94,0,0,1-3.55.2C253.8,90.62,256,86,261,81.72Z"/><path class="cls-31" d="M247.11,107.13l-6.46-13.25c6.12.84,7.74,4.55,9.34,8.26a2,2,0,0,1,1.1,1.15c.18.52.22.8.12.83a15.19,15.19,0,0,1-1.92,3.25l-1.16.5Z"/><path class="cls-32" d="M241,109.52l-2.74-1.32a5,5,0,0,1-2.48-3.53c.09-1.14.85-2,1.13-3.11a8.17,8.17,0,0,1,.49-2.12l.06-.12a1.43,1.43,0,0,1,2-.66l2.15,6.16a3.23,3.23,0,0,0-.27,2.38A2.47,2.47,0,0,1,241,109.52Z"/><path class="cls-33" d="M249.93,104a4.26,4.26,0,0,0,.06-1.88c2.09-1.12,4.25-1.68,6.57-.75a2.13,2.13,0,0,1,1.08,2.72,3.79,3.79,0,0,1-4.41,1.12c-.62.25-1.23.52-1.84.8l-1.07.06A2.8,2.8,0,0,1,249.93,104Z"/><path class="cls-34" d="M251.45,119.47l-2,.83c-.26-.69-.52-1.37-.79-2-.91-3.65-3.73-7-1.52-11.12l.34.56c.77,0,1.16.31,1.18.78s-.07.8-.26.87Z"/><path class="cls-35" d="M257.24,103.74c-.23-.78-.45-1.56-.68-2.35l6.06-1.88-.13.39q1.11.16,1.11.87c0,.49-.1.77-.29.84l-3.42,3.62L259,106.3l-1.42-.15A1.69,1.69,0,0,1,257.24,103.74Z"/><path class="cls-36" d="M243.17,115.61c-1.18.21-2.81.91-3-.83-.14-1,1-2.15,1.6-3.24C242.21,112.9,242.69,114.25,243.17,115.61Z"/><path class="cls-37" d="M259.12,96.22l4.08-1.53a1.26,1.26,0,0,1,2-.55c.25.65.5,1.31.74,2v0l-4.07,1.46Z"/><path class="cls-38" d="M229.86,104.3a16.77,16.77,0,0,1-.41-2.09q.92-.28,1.8-.66a3.63,3.63,0,0,1,1.95,2.31c-.12,1.11-.6,2.21-1.65,2.37S229.8,105.49,229.86,104.3Z"/><path class="cls-39" d="M236.83,104l.7,2.2a1.33,1.33,0,0,1-2.05.66l0,0c-1.53-.35-1.85-1.54-2-2.86l.63-1.12c.64-.23,1.29-.48,1.93-.74l1.23.61Z"/><path class="cls-40" d="M246.63,119l-3.48-3.35Z"/><path class="cls-41" d="M241,109.52c-.22-.68-.45-1.35-.69-2a1.34,1.34,0,0,1,2-.76l-.57,4.82Z"/><path class="cls-42" d="M242.29,106.74l-2,.76c.43-.9.86-1.79,1.3-2.68C241.82,105.46,242.06,106.1,242.29,106.74Z"/><path class="cls-43" d="M237.37,99.44c.25.63.5,1.26.73,1.9a1.32,1.32,0,0,1-2,.76h0Z"/><path class="cls-44" d="M232.07,103.51c-.27-.66-.54-1.31-.82-2l2.9,1.3-.05,0C233.74,104.08,233.06,104.3,232.07,103.51Z"/><path class="cls-45" d="M239.43,98.66c-.67.23-1.33.45-2,.66C237.75,98,238.44,97.88,239.43,98.66Z"/><path class="cls-46" d="M232.07,103.51l2-.64,1.42,4c-8.19,3.29-1.2,10.38-3.77,15.07l-3.66-10-.66-2.47,2.43-5.12C231,105,231.69,104.78,232.07,103.51Z"/><path class="cls-47" d="M243,134.54l-1.83-4.42,2.23-.88c.86.59,2.23,0,2.79,1.28l-1.35,2.9A1.51,1.51,0,0,1,243,134.54Z"/><path class="cls-48" d="M246.05,123.71l1.18-2.6c.72.18,1.09.52,1.11,1s-.06.81-.24.87v0l-.74,1.18Z"/><path class="cls-1" d="M248.1,123a8.37,8.37,0,0,0-.87-1.9l2.19-.83Z"/><path class="cls-49" d="M235.48,106.87l2.05-.66c.24.66.47,1.32.7,2Z"/><path class="cls-50" d="M246.72,125.72a8.52,8.52,0,0,1-1.14-1.19c-.08-.12.3-.54.47-.82l0-.09a1.41,1.41,0,0,1,.92,1.3c0,.53-.12.82-.28.88Z"/><path class="cls-51" d="M246.18,130.52l-2.79-1.28,2.06-.73c.74.25,1.09.63,1.06,1.15s-.14.81-.34.88Z"/><path class="cls-52" d="M246.17,130.54l-.72-2,2-.72.72,2Z"/><path class="cls-53" d="M265.21,94.14l-2,.56c-.25-.64-.49-1.29-.71-1.93,1.43-1.85,2.29-4.43,5.35-4.22l4.66.56Z"/><path class="cls-54" d="M267.84,88.55l-5.35,4.22-2.76-1.29a1.33,1.33,0,0,1,2-.77l5.4-4.19Z"/><path class="cls-15" d="M279.54,89.06c.18.67.39,1.33.62,2a1.31,1.31,0,0,1-2,.75l0,0Z"/><path class="cls-55" d="M273.35,91.24c-.24-.68-.46-1.36-.67-2a8.24,8.24,0,0,1,1.15,1.22C273.91,90.53,273.52,91,273.35,91.24Z"/><path class="cls-9" d="M272.25,82.85A8.83,8.83,0,0,1,273,84l-2.21-1A7.59,7.59,0,0,1,272.25,82.85Z"/><path class="cls-1" d="M248.18,129.81c2.26-.7,4.51-1.8,6.82-.12a13.33,13.33,0,0,1-1.32,2.71l0,0a1.59,1.59,0,0,1-1.57,1.46c-1.23-.33-2-1.43-3-2Z"/><path class="cls-11" d="M251.61,133.13l2-.7c.22,1.18,1,2.8-.77,3.06-1,.13-2.14-1.08-3.21-1.68A1.2,1.2,0,0,1,251.61,133.13Z"/><path class="cls-9" d="M243,134.54l1.84-1.12c.26.61.5,1.22.73,1.84l-2.25-.19Z"/><path class="cls-56" d="M251.61,133.13l-1,.36-1,.32a14.37,14.37,0,0,1-.63-1.92Z"/><path class="cls-11" d="M253.68,132.4l1.32-2.71c.24.68.49,1.35.74,2Z"/><path class="cls-57" d="M256.52,133.78a8.82,8.82,0,0,1,1.13,1.16c.08.1-.29.52-.45.78C257,135.09,256.72,134.44,256.52,133.78Z"/><path class="cls-58" d="M278.16,91.79c.67-.24,1.34-.49,2-.75.46-.19.91-.4,1.35-.61.62,1.34,1.25,2.67,1.87,4-.17,1.35-.79,1.53-1.79.67Z"/><path class="cls-59" d="M281.59,95.11c.6-.21,1.2-.44,1.79-.67.78,2,1.57,4,2.35,6l-2,.71Z"/><path class="cls-60" d="M263.31,101.61c-.26-.58-.53-1.15-.82-1.71l2.87.75Z"/><path class="cls-61" d="M266,96.11l.85.13-.84-.16Z"/><path class="cls-15" d="M280.42,104.8c-.68.17-1.36.36-2,.55C278.76,104.08,279.45,103.92,280.42,104.8Z"/><path class="cls-62" d="M259,114.15c-.27-.51-.52-1-.75-1.57a17.11,17.11,0,0,0-.67-1.67,2.68,2.68,0,0,1,2.48-2.56,3.24,3.24,0,0,1,2.38.89,3.38,3.38,0,0,1,0,2.54,3.62,3.62,0,0,1-1.94,1.67A10.13,10.13,0,0,0,259,114.15Z"/><path class="cls-63" d="M261.46,109.16l-3.9,1.75q-.82-2.2-1.66-4.41c.25-1.07.86-1.27,1.77-.73h.53a14.43,14.43,0,0,1,2,1.12l.63.22A1.48,1.48,0,0,1,261.46,109.16Z"/><path class="cls-33" d="M248.37,109.34a7.71,7.71,0,0,1-.92-1.66,5.79,5.79,0,0,0,1.47-1.45,1.14,1.14,0,0,1,1.69-.56l.78.36q.21,1,.51,2c-.28,1-.88,1.2-1.77.75Z"/><path class="cls-64" d="M257.67,105.77c-.58.25-1.17.5-1.77.73l-2.67-1.27,4-1.49A7.43,7.43,0,0,1,257.67,105.77Z"/><path class="cls-65" d="M252.54,109.93l.86.17-.89-.15Z"/><path class="cls-66" d="M250.13,108.82a7.66,7.66,0,0,1,1.77-.75l.64,1.86,0,0Z"/><path class="cls-22" d="M260.52,113.45l1.53-2.4c.8.25,1.19.65,1.17,1.21s-.13.88-.33.95c.24.67.47,1.34.69,2l0,0a1.33,1.33,0,0,1-2.06.72Z"/><path class="cls-67" d="M261.54,115.91l2.06-.72c.24.68.47,1.37.71,2Z"/><path class="cls-1" d="M246.73,125.8c-.22-.73-.43-1.46-.64-2.18a15.3,15.3,0,0,0,2-.59C247.64,124,247.18,124.87,246.73,125.8Z"/><path class="cls-68" d="M262.75,106.33c.3-1.24,1-1.49,2-.72l-.7,1.16Z"/><path class="cls-69" d="M261.46,109.16a6.23,6.23,0,0,1-.59-2c.62-.28,1.24-.54,1.88-.79v0a1.57,1.57,0,0,1,1,1.28c0,.53,0,.83-.15.88a1.56,1.56,0,0,1-2.2.6Z"/><path class="cls-70" d="M260.24,106.9l-2-1.12a14.64,14.64,0,0,1,1.7-.55A3.85,3.85,0,0,1,260.24,106.9Z"/><path class="cls-71" d="M263.41,108.32c-.2-.66-.42-1.31-.67-2l2-.75c.25.69.5,1.38.76,2.08h0l-.76,1.22Z"/><path class="cls-19" d="M261.37,109.12l2-.8.11.24c.69.23,1,.6,1,1.1s-.11.78-.29.84l-1.35,2.71c-.28-.72-.56-1.44-.83-2.16S261.63,109.75,261.37,109.12Z"/><path class="cls-72" d="M264.24,110.5c-.25-.64-.49-1.29-.72-1.94a19.9,19.9,0,0,1,2-.86Z"/><path class="cls-73" d="M261.72,90.71l-2,.77C260,90.23,260.66,89.93,261.72,90.71Z"/><path class="cls-34" d="M250.61,105.67l-.82.37-.87.19,1-2.21A5.69,5.69,0,0,1,250.61,105.67Z"/><path class="cls-74" d="M236.05,102.1l2-.76L236.83,104C236.55,103.38,236.29,102.75,236.05,102.1Z"/></svg>